  0
SECTION
  2
HEADER
  9
$ACADVER
  1
AC1003
  9
$EXTMIN
 10
0.05
 20
5.02316893686713
  9
$EXTMAX
 10
8.77157814010351
 20
-0.00452674897119271
  9
$INSUNITS
 70
1
  9
$INSBASE
 10
4.41078907005176
 20
2.50932109394797
999
Created with OMAX Layout for Windows. (www.omax.com) 2/11/2016
  0
ENDSEC
  0
SECTION
  2
TABLES
  0
TABLE
  2
LAYER
 70
    10
  0
LAYER
  2
0
 70
     0
 62
     7
  6
CONTINUOUS
  0
LAYER
  2
1
 70
     0
 62
     7
  6
CONTINUOUS
  0
LAYER
  2
2
 70
     0
 62
     7
  6
CONTINUOUS
  0
LAYER
  2
3
 70
     0
 62
     7
  6
CONTINUOUS
  0
LAYER
  2
4
 70
     0
 62
     7
  6
CONTINUOUS
  0
LAYER
  2
5
 70
     0
 62
     7
  6
CONTINUOUS
  0
LAYER
  2
6
 70
     0
 62
     7
  6
CONTINUOUS
  0
LAYER
  2
7
 70
     0
 62
     7
  6
CONTINUOUS
  0
LAYER
  2
8
 70
     0
 62
     7
  6
CONTINUOUS
  0
LAYER
  2
9
 70
     0
 62
     7
  6
CONTINUOUS
  0
LAYER
  2
10
 70
     0
 62
     7
  6
CONTINUOUS
  0
LAYER
  2
11
 70
     0
 62
     7
  6
CONTINUOUS
  0
LAYER
  2
12
 70
     0
 62
     7
  6
CONTINUOUS
  0
LAYER
  2
13
 70
     0
 62
     7
  6
CONTINUOUS
  0
LAYER
  2
14
 70
     0
 62
     7
  6
CONTINUOUS
  0
LAYER
  2
15
 70
     0
 62
     7
  6
CONTINUOUS
  0
LAYER
  2
16
 70
     0
 62
     7
  6
CONTINUOUS
  0
LAYER
  2
17
 70
     0
 62
     7
  6
CONTINUOUS
  0
LAYER
  2
18
 70
     0
 62
     7
  6
CONTINUOUS
  0
LAYER
  2
19
 70
     0
 62
     7
  6
CONTINUOUS
  0
LAYER
  2
20
 70
     0
 62
     7
  6
CONTINUOUS
  0
LAYER
  2
21
 70
     0
 62
     7
  6
CONTINUOUS
  0
LAYER
  2
22
 70
     0
 62
     7
  6
CONTINUOUS
  0
LAYER
  2
23
 70
     0
 62
     7
  6
CONTINUOUS
  0
LAYER
  2
24
 70
     0
 62
     7
  6
CONTINUOUS
  0
LAYER
  2
25
 70
     0
 62
     7
  6
CONTINUOUS
  0
LAYER
  2
26
 70
     0
 62
     7
  6
CONTINUOUS
  0
LAYER
  2
27
 70
     0
 62
     7
  6
CONTINUOUS
  0
LAYER
  2
28
 70
     0
 62
     7
  6
CONTINUOUS
  0
LAYER
  2
29
 70
     0
 62
     7
  6
CONTINUOUS
  0
LAYER
  2
30
 70
     0
 62
     7
  6
CONTINUOUS
  0
LAYER
  2
31
 70
     0
 62
     7
  6
CONTINUOUS
  0
ENDTAB
  0
ENDSEC
  0
SECTION
  2
ENTITIES
  0
LINE
  8
0
  6
CONTINUOUS
 62
0
 10
0.15
 20
0.195473251028806
 30
0.0
 11
8.07708746615489
 21
2.6661830967873
 31
0.0
  0
LINE
  8
0
  6
CONTINUOUS
 62
0
 10
8.09018932599163
 20
2.74541573017548
 30
0.0
 11
8.2601126926613
 21
3.41756453253995
 31
0.0
  0
LINE
  8
0
  6
CONTINUOUS
 62
0
 10
8.25705933554573
 20
3.41756453253995
 30
0.0
 11
7.88383577607473
 21
3.41619242175854
 31
0.0
  0
LINE
  8
0
  6
CONTINUOUS
 62
0
 10
7.88536245463252
 20
3.41883670658745
 30
0.0
 11
8.06503523199871
 21
3.81738845353259
 31
0.0
  0
LINE
  8
0
  6
CONTINUOUS
 62
0
 10
8.24666027692848
 20
1.60506300524201
 30
0.0
 11
8.06552499164463
 21
0.858116195466385
 31
0.0
  0
LINE
  8
0
  6
CONTINUOUS
 62
0
 10
8.03725521840598
 20
0.933284598707657
 30
0.0
 11
7.87412780901923
 21
1.60763212172105
 31
0.0
  0
LINE
  8
0
  6
CONTINUOUS
 62
0
 10
7.87196875949743
 20
1.60547307219925
 30
0.0
 11
7.41022248033513
 21
1.22498613354127
 31
0.0
  0
LINE
  8
0
  6
CONTINUOUS
 62
0
 10
7.51012730249331
 20
1.23371001101434
 30
0.0
 11
6.72785258434235
 21
0.844125127520795
 31
0.0
  0
LINE
  8
0
  6
CONTINUOUS
 62
0
 10
6.74095444417909
 20
0.923357760908974
 30
0.0
 11
6.91087781084876
 21
1.59550656327344
 31
0.0
  0
LINE
  8
0
  6
CONTINUOUS
 62
0
 10
6.90782445373319
 20
1.59550656327344
 30
0.0
 11
6.53402989799884
 21
1.5946810624998
 31
0.0
  0
LINE
  8
0
  6
CONTINUOUS
 62
0
 10
6.53667418282775
 20
1.59620774105759
 30
0.0
 11
7.29439246754857
 21
1.92677552966901
 31
0.0
  0
LINE
  8
0
  6
CONTINUOUS
 62
0
 10
7.22991780324845
 20
1.84996343952683
 30
0.0
 11
6.73935101087346
 21
2.65512730617003
 31
0.0
  0
LINE
  8
0
  6
CONTINUOUS
 62
0
 10
6.75245287071019
 20
2.73435993955821
 30
0.0
 11
6.92237623737987
 21
3.40650874192268
 31
0.0
  0
LINE
  8
0
  6
CONTINUOUS
 62
0
 10
6.91932288026429
 20
3.40650874192268
 30
0.0
 11
6.54788978026891
 21
3.40757850975303
 31
0.0
  0
LINE
  8
0
  6
CONTINUOUS
 62
0
 10
6.5457307307471
 20
3.40541946023122
 30
0.0
 11
6.0839844515848
 21
3.02493252157324
 31
0.0
  0
LINE
  8
0
  6
CONTINUOUS
 62
0
 10
6.18388927374299
 20
3.03365639904631
 30
0.0
 11
5.58739503754283
 21
3.4079587097688
 31
0.0
  0
LINE
  8
0
  6
CONTINUOUS
 62
0
 10
5.58660477056982
 20
3.40500939327398
 30
0.0
 11
5.40546948528598
 21
2.65806258349835
 31
0.0
  0
LINE
  8
0
  6
CONTINUOUS
 62
0
 10
5.37719971204733
 20
2.73323098673963
 30
0.0
 11
5.21228184318497
 21
3.40513663114127
 31
0.0
  0
LINE
  8
0
  6
CONTINUOUS
 62
0
 10
5.21380852174276
 20
3.40778091597018
 30
0.0
 11
5.39348129910895
 21
3.80633266291532
 31
0.0
  0
LINE
  8
0
  6
CONTINUOUS
 62
0
 10
5.40713696657076
 20
0.923357760908974
 30
0.0
 11
5.57706033324043
 21
1.59550656327344
 31
0.0
  0
LINE
  8
0
  6
CONTINUOUS
 62
0
 10
5.57400697612486
 20
1.59550656327344
 30
0.0
 11
5.20188086301173
 21
1.59695653111956
 31
0.0
  0
LINE
  8
0
  6
CONTINUOUS
 62
0
 10
5.20109059603872
 20
1.59400721462475
 30
0.0
 11
4.81647657143871
 21
0.514170972388483
 31
0.0
  0
LINE
  8
0
  6
CONTINUOUS
 62
0
 10
4.88095123573193
 20
0.590983062536456
 30
0.0
 11
3.76830720402827
 21
0.442850072354584
 31
0.0
  0
LINE
  8
0
  6
CONTINUOUS
 62
0
 10
3.7991608002653
 20
0.511556854211217
 30
0.0
 11
3.30722350204244
 21
0.767522460286398
 31
0.0
  0
LINE
  8
0
  6
CONTINUOUS
 62
0
 10
3.38403559218462
 20
0.703047795986279
 30
0.0
 11
3.76255799076271
 21
1.19599701014205
 31
0.0
  0
LINE
  8
0
  6
CONTINUOUS
 62
0
 10
3.79341158699975
 20
1.26470379199868
 30
0.0
 11
3.30147428877689
 21
1.52066939807386
 31
0.0
  0
LINE
  8
0
  6
CONTINUOUS
 62
0
 10
3.37828637891907
 20
1.45619473377374
 30
0.0
 11
3.75680877749716
 21
1.94914394792951
 31
0.0
  0
LINE
  8
0
  6
CONTINUOUS
 62
0
 10
3.7876623737342
 20
2.01785072978614
 30
0.0
 11
3.29572507551134
 21
2.27381633586132
 31
0.0
  0
LINE
  8
0
  6
CONTINUOUS
 62
0
 10
3.37253716565352
 20
2.2093416715612
 30
0.0
 11
3.75105956423161
 21
2.70229088571697
 31
0.0
  0
LINE
  8
0
  6
CONTINUOUS
 62
0
 10
3.78191316046864
 20
2.7709976675736
 30
0.0
 11
3.28997586224578
 21
3.02696327364878
 31
0.0
  0
LINE
  8
0
  6
CONTINUOUS
 62
0
 10
3.36678795238797
 20
2.96248860934866
 30
0.0
 11
4.39577990084746
 21
3.71762128134181
 31
0.0
  0
LINE
  8
0
  6
CONTINUOUS
 62
0
 10
4.31585604312091
 20
3.70976979161605
 30
0.0
 11
3.65000078660604
 21
3.70802858875325
 31
0.0
  0
LINE
  8
0
  6
CONTINUOUS
 62
0
 10
3.70096364675557
 20
3.77009513215779
 30
0.0
 11
4.01436072393702
 21
4.1118079942216
 31
0.0
  0
LINE
  8
0
  6
CONTINUOUS
 62
0
 10
4.02308460141009
 20
4.01190317206341
 30
0.0
 11
4.39577990084746
 21
4.57883945722462
 31
0.0
  0
LINE
  8
0
  6
CONTINUOUS
 62
0
 10
4.31585604312091
 20
4.57098796749886
 30
0.0
 11
3.6418064774776
 21
4.57709110909819
 31
0.0
  0
LINE
  8
0
  6
CONTINUOUS
 62
0
 10
3.59084361732807
 20
4.51502456569366
 30
0.0
 11
3.32385442279788
 21
4.2418666582268
 31
0.0
  0
LINE
  8
0
  6
CONTINUOUS
 62
0
 10
3.3883290870911
 20
4.31867874837477
 30
0.0
 11
2.50807335726198
 21
4.57035427872654
 31
0.0
  0
LINE
  8
0
  6
CONTINUOUS
 62
0
 10
2.51570675005091
 20
4.4954256621079
 30
0.0
 11
2.88840204948829
 21
0.701143771386301
 31
0.0
  0
LINE
  8
0
  6
CONTINUOUS
 62
0
 10
2.80847819176174
 20
0.69329228166054
 30
0.0
 11
2.14403510673402
 21
0.694125127520794
 31
0.0
  0
LINE
  8
0
  6
CONTINUOUS
 62
0
 10
2.15713696657076
 20
0.773357760908974
 30
0.0
 11
2.3884391824717
 21
2.5737440407874
 31
0.0
  0
LINE
  8
0
  6
CONTINUOUS
 62
0
 10
2.36347819176174
 20
2.56829228166054
 30
0.0
 11
2.58861237889359
 21
2.56720246127021
 31
0.0
  0
LINE
  8
0
  6
CONTINUOUS
 62
0
 10
2.61357336960355
 20
2.57265422039707
 30
0.0
 11
2.78861237889359
 21
2.56720246127021
 31
0.0
  0
LINE
  8
0
  6
CONTINUOUS
 62
0
 10
2.81357336960355
 20
2.57265422039707
 30
0.0
 11
2.98861237889359
 21
2.56720246127021
 31
0.0
  0
LINE
  8
0
  6
CONTINUOUS
 62
0
 10
3.01357336960355
 20
2.57265422039707
 30
0.0
 11
2.94534996919793
 21
3.20241313668036
 31
0.0
  0
LINE
  8
0
  6
CONTINUOUS
 62
0
 10
2.92647031776646
 20
3.19722689456054
 30
0.0
 11
2.39680429698843
 21
3.200967290167
 31
0.0
  0
LINE
  8
0
  6
CONTINUOUS
 62
0
 10
2.38287305384676
 20
3.21472442686134
 30
0.0
 11
2.02508496723069
 21
3.66071405234013
 31
0.0
  0
LINE
  8
0
  6
CONTINUOUS
 62
0
 10
1.99956348256283
 20
3.66190843718116
 30
0.0
 11
1.73866854744537
 21
2.18893034292401
 31
0.0
  0
LINE
  8
0
  6
CONTINUOUS
 62
0
 10
1.83857336960355
 20
2.19765422039707
 30
0.0
 11
1.24987626880564
 21
0.701143771386301
 31
0.0
  0
LINE
  8
0
  6
CONTINUOUS
 62
0
 10
1.16995241107909
 20
0.69329228166054
 30
0.0
 11
0.505509326051375
 21
0.694125127520794
 31
0.0
  0
LINE
  8
0
  6
CONTINUOUS
 62
0
 10
0.518611185888115
 20
0.773357760908974
 30
0.0
 11
0.749913401789059
 21
2.5737440407874
 31
0.0
  0
LINE
  8
0
  6
CONTINUOUS
 62
0
 10
0.724952411079092
 20
2.56829228166054
 30
0.0
 11
0.950086598210941
 21
2.56720246127021
 31
0.0
  0
LINE
  8
0
  6
CONTINUOUS
 62
0
 10
0.975047588920908
 20
2.57265422039707
 30
0.0
 11
1.15008659821094
 21
2.56720246127021
 31
0.0
  0
LINE
  8
0
  6
CONTINUOUS
 62
0
 10
1.17504758892091
 20
2.57265422039707
 30
0.0
 11
1.35008659821094
 21
2.56720246127021
 31
0.0
  0
LINE
  8
0
  6
CONTINUOUS
 62
0
 10
1.37504758892091
 20
2.57265422039707
 30
0.0
 11
1.30682418851529
 21
3.20241313668036
 31
0.0
  0
LINE
  8
0
  6
CONTINUOUS
 62
0
 10
1.28794453708382
 20
3.19722689456054
 30
0.0
 11
0.758278516305786
 21
3.200967290167
 31
0.0
  0
LINE
  8
0
  6
CONTINUOUS
 62
0
 10
0.744347273164114
 20
3.21472442686134
 30
0.0
 11
0.387586598210941
 21
3.66720246127021
 31
0.0
  0
LINE
  8
0
  6
CONTINUOUS
 62
0
 10
0.412547588920908
 20
3.67265422039707
 30
0.0
 11
0.874881027697733
 21
4.57592567444947
 31
0.0
  0
LINE
  8
0
  6
CONTINUOUS
 62
0
 10
0.799952411079094
 20
4.56829228166054
 30
0.0
 11
0.475142766762722
 21
4.56393034292401
 31
0.0
  0
LINE
  8
0
  6
CONTINUOUS
 62
0
 10
0.575047588920907
 20
4.57265422039707
 30
0.0
 11
0.25
 21
4.94547325102881
 31
0.0
  0
LINE
  8
0
  6
CONTINUOUS
 62
0
 10
0.05
 20
1.62889104955353
 30
0.0
 11
0.05
 21
1.67889104955353
 31
0.0
  0
LINE
  8
0
  6
CONTINUOUS
 62
0
 10
1.7
 20
1.92495338552006
 30
0.0
 11
1.7
 21
1.87495338552006
 31
0.0
  0
LINE
  8
0
  6
CONTINUOUS
 62
0
 10
1.68852578068264
 20
1.48740520637279
 30
0.0
 11
1.68852578068264
 21
1.53740520637279
 31
0.0
  0
LINE
  8
0
  6
CONTINUOUS
 62
0
 10
3.33852578068264
 20
1.64813325755772
 30
0.0
 11
3.33852578068264
 21
1.59813325755772
 31
0.0
  0
LINE
  8
0
  6
CONTINUOUS
 62
0
 10
3.86241648142503
 20
2.40176712660373
 30
0.0
 11
3.91241648142503
 21
2.40176712660373
 31
0.0
  0
LINE
  8
0
  6
CONTINUOUS
 62
0
 10
3.99238674061415
 20
1.50176712660373
 30
0.0
 11
3.94238674061415
 21
1.50176712660373
 31
0.0
  0
LINE
  8
0
  6
CONTINUOUS
 62
0
 10
3.76399154703843
 20
1.64862018881627
 30
0.0
 11
3.81399154703843
 21
1.64862018881627
 31
0.0
  0
LINE
  8
0
  6
CONTINUOUS
 62
0
 10
4.26305531017732
 20
0.748620188816268
 30
0.0
 11
4.21305531017732
 21
0.748620188816268
 31
0.0
  0
LINE
  8
0
  6
CONTINUOUS
 62
0
 10
3.98544764940829
 20
0.895473251028807
 30
0.0
 11
4.03544764940829
 21
0.895473251028807
 31
0.0
  0
LINE
  8
0
  6
CONTINUOUS
 62
0
 10
4.15232725899239
 20
-0.00452674897119271
 30
0.0
 11
4.10232725899239
 21
-0.0045267489711927
 31
0.0
  0
LINE
  8
0
  6
CONTINUOUS
 62
0
 10
4.1830850509882
 20
2.25491406439119
 30
0.0
 11
4.1330850509882
 21
2.25491406439119
 31
0.0
  0
LINE
  8
0
  6
CONTINUOUS
 62
0
 10
4.02235699980327
 20
3.15491406439119
 30
0.0
 11
4.07235699980327
 21
3.15491406439119
 31
0.0
  0
LINE
  8
0
  6
CONTINUOUS
 62
0
 10
3.88781024782838
 20
3.26195076098432
 30
0.0
 11
3.83781024782838
 21
3.26195076098432
 31
0.0
  0
LINE
  8
0
  6
CONTINUOUS
 62
0
 10
4.25611621897146
 20
4.16195076098432
 30
0.0
 11
4.30611621897146
 21
4.16195076098432
 31
0.0
  0
LINE
  8
0
  6
CONTINUOUS
 62
0
 10
3.73402128784931
 20
4.12316893686712
 30
0.0
 11
3.68402128784931
 21
4.12316893686712
 31
0.0
  0
LINE
  8
0
  6
CONTINUOUS
 62
0
 10
4.05311479179908
 20
5.02316893686713
 30
0.0
 11
4.10311479179908
 21
5.02316893686713
 31
0.0
  0
LINE
  8
0
  6
CONTINUOUS
 62
0
 10
6.10002420721375
 20
3.40132740131918
 30
0.0
 11
6.10002420721375
 21
3.35132740131918
 31
0.0
  0
LINE
  8
0
  6
CONTINUOUS
 62
0
 10
4.70002420721375
 20
3.06835571495768
 30
0.0
 11
4.70002420721375
 21
3.11835571495768
 31
0.0
  0
LINE
  8
0
  6
CONTINUOUS
 62
0
 10
4.68852578068265
 20
1.51201143996943
 30
0.0
 11
4.68852578068265
 21
1.56201143996943
 31
0.0
  0
LINE
  8
0
  6
CONTINUOUS
 62
0
 10
6.08852578068265
 20
1.08218988483473
 30
0.0
 11
6.08852578068265
 21
1.03218988483473
 31
0.0
  0
LINE
  8
0
  6
CONTINUOUS
 62
0
 10
6.02234325829097
 20
1.31516157119621
 30
0.0
 11
6.02234325829097
 21
1.36516157119621
 31
0.0
  0
LINE
  8
0
  6
CONTINUOUS
 62
0
 10
7.42234325829097
 20
1.4205255967887
 30
0.0
 11
7.42234325829097
 21
1.3705255967887
 31
0.0
  0
LINE
  8
0
  6
CONTINUOUS
 62
0
 10
6.03384168482208
 20
2.73617156140286
 30
0.0
 11
6.03384168482208
 21
2.78617156140286
 31
0.0
  0
LINE
  8
0
  6
CONTINUOUS
 62
0
 10
7.43384168482208
 20
3.130658831756
 30
0.0
 11
7.43384168482208
 21
3.080658831756
 31
0.0
  0
LINE
  8
0
  6
CONTINUOUS
 62
0
 10
7.37157814010351
 20
2.89611207978111
 30
0.0
 11
7.37157814010351
 21
2.94611207978111
 31
0.0
  0
LINE
  8
0
  6
CONTINUOUS
 62
0
 10
8.77157814010351
 20
2.97071831337774
 30
0.0
 11
8.77157814010351
 21
2.92071831337774
 31
0.0
  0
LINE
  8
0
  6
CONTINUOUS
 62
0
 10
8.76007971357241
 20
1.33440377920041
 30
0.0
 11
8.76007971357241
 21
1.28440377920041
 31
0.0
  0
LINE
  8
0
  6
CONTINUOUS
 62
0
 10
7.36007971357241
 20
0.927613392048956
 30
0.0
 11
7.36007971357241
 21
0.977613392048956
 31
0.0
  0
ARC
  8
4
  6
CONTINUOUS
 62
4
 10
8.07157814009904
 20
2.66753122030115
 30
0.0
 40
0.129999999995522
 50
74.9999999974273
 51
180.000000002572
  0
ARC
  8
4
  6
CONTINUOUS
 62
4
 10
8.07157814010351
 20
2.66753122029531
 30
0.0
 40
0.13
 50
179.999999999999
 51
359.999999999999
  0
ARC
  8
4
  6
CONTINUOUS
 62
4
 10
8.07157814011873
 20
2.66753122030699
 30
0.0
 40
0.129999999984788
 50
359.999999994854
 51
75.0000000051445
  0
ARC
  8
4
  6
CONTINUOUS
 62
4
 10
8.25858601410116
 20
3.41753122029767
 30
0.0
 40
0.034999999997643
 50
89.9999999961411
 51
180.000000003859
  0
ARC
  8
4
  6
CONTINUOUS
 62
4
 10
8.25858601410351
 20
3.41753122029531
 30
0.0
 40
0.0350000000000001
 50
179.999999999999
 51
359.999999999999
  0
ARC
  8
4
  6
CONTINUOUS
 62
4
 10
8.25858601410587
 20
3.41753122029767
 30
0.0
 40
0.034999999997643
 50
359.999999996141
 51
90.0000000038585
  0
ARC
  8
4
  6
CONTINUOUS
 62
4
 10
7.88457026611524
 20
3.41753122029217
 30
0.0
 40
0.0349999999882709
 50
329.999999994855
 51
5.14538686370314E-9
  0
ARC
  8
4
  6
CONTINUOUS
 62
4
 10
7.88457026610351
 20
3.41753122029531
 30
0.0
 40
0.0350000000000001
 50
359.999999999999
 51
180
  0
ARC
  8
4
  6
CONTINUOUS
 62
4
 10
7.88457026610309
 20
3.41753122029374
 30
0.0
 40
0.0349999999995792
 50
179.999999997427
 51
330.000000002572
  0
LINE
  8
4
  6
CONTINUOUS
 62
4
 10
8.07157814010351
 20
3.66753122029531
 30
0.0
 11
8.47157814010351
 21
3.66753122029531
 31
0.0
  0
ARC
  8
4
  6
CONTINUOUS
 62
4
 10
8.47157814010351
 20
3.56753122029531
 30
0.0
 40
0.0999999999999988
 50
359.999999999999
 51
89.9999999999993
  0
LINE
  8
4
  6
CONTINUOUS
 62
4
 10
8.57157814010351
 20
3.56753122029531
 30
0.0
 11
8.57157814010351
 21
2.99571831337775
 31
0.0
  0
ARC
  8
4
  6
CONTINUOUS
 62
4
 10
8.47157814010351
 20
2.51753122029531
 30
0.0
 40
0.0999999999999999
 50
270
 51
3.06178084257761E-13
  0
LINE
  8
4
  6
CONTINUOUS
 62
4
 10
8.47157814010351
 20
2.41753122029531
 30
0.0
 11
8.17157814010351
 21
2.41753122029531
 31
0.0
  0
LINE
  8
4
  6
CONTINUOUS
 62
4
 10
8.17157814010351
 20
2.41753122029531
 30
0.0
 11
8.17157814010351
 21
2.11753122029531
 31
0.0
  0
ARC
  8
4
  6
CONTINUOUS
 62
4
 10
8.07157814010351
 20
2.11753122029531
 30
0.0
 40
0.1
 50
270
 51
4.07955834064594E-13
  0
ARC
  8
4
  6
CONTINUOUS
 62
4
 10
8.07157814010351
 20
2.11753122029531
 30
0.0
 40
0.1
 50
180
 51
270
  0
LINE
  8
4
  6
CONTINUOUS
 62
4
 10
7.97157814010351
 20
2.11753122029531
 30
0.0
 11
7.97157814010351
 21
2.41753122029531
 31
0.0
  0
LINE
  8
4
  6
CONTINUOUS
 62
4
 10
7.97157814010351
 20
2.41753122029531
 30
0.0
 11
7.67157814010351
 21
2.41753122029531
 31
0.0
  0
ARC
  8
4
  6
CONTINUOUS
 62
4
 10
7.67157814010351
 20
2.51753122029531
 30
0.0
 40
0.1
 50
180
 51
270
  0
LINE
  8
4
  6
CONTINUOUS
 62
4
 10
7.57157814010351
 20
2.51753122029531
 30
0.0
 11
7.57157814010351
 21
2.87111207978109
 31
0.0
  0
ARC
  8
4
  6
CONTINUOUS
 62
4
 10
7.67157814010351
 20
3.56753122029531
 30
0.0
 40
0.0999999999999997
 50
89.9999999999998
 51
180
  0
LINE
  8
4
  6
CONTINUOUS
 62
4
 10
7.67157814010351
 20
3.66753122029531
 30
0.0
 11
8.07157814010351
 21
3.66753122029531
 31
0.0
  0
ARC
  8
4
  6
CONTINUOUS
 62
4
 10
8.24708758756047
 20
1.60652904164765
 30
0.0
 40
0.0349999999880642
 50
164.999999997431
 51
180.000000002576
  0
ARC
  8
4
  6
CONTINUOUS
 62
4
 10
8.24708758757241
 20
1.60652904164607
 30
0.0
 40
0.0350000000000001
 50
179.999999999999
 51
359.999999999999
  0
ARC
  8
4
  6
CONTINUOUS
 62
4
 10
8.24708758757282
 20
1.60652904164922
 30
0.0
 40
0.0349999999995867
 50
359.999999994854
 51
165.000000005145
  0
ARC
  8
4
  6
CONTINUOUS
 62
4
 10
8.0600797135648
 20
0.856529041651912
 30
0.0
 40
0.129999999992393
 50
104.999999997428
 51
180.000000002573
  0
ARC
  8
4
  6
CONTINUOUS
 62
4
 10
8.06007971357241
 20
0.856529041646073
 30
0.0
 40
0.13
 50
179.999999999999
 51
359.999999999999
  0
ARC
  8
4
  6
CONTINUOUS
 62
4
 10
8.06007971358136
 20
0.856529041657749
 30
0.0
 40
0.129999999991043
 50
359.999999994855
 51
105.000000005145
  0
ARC
  8
4
  6
CONTINUOUS
 62
4
 10
7.87307183956861
 20
1.60652904164765
 30
0.0
 40
0.0349999999962062
 50
134.999999997426
 51
180.000000002572
  0
ARC
  8
4
  6
CONTINUOUS
 62
4
 10
7.87307183957241
 20
1.60652904164607
 30
0.0
 40
0.0350000000000001
 50
179.999999999999
 51
359.999999999999
  0
ARC
  8
4
  6
CONTINUOUS
 62
4
 10
7.87307183957371
 20
1.60652904164922
 30
0.0
 40
0.0349999999986982
 50
359.999999994855
 51
135.000000005145
  0
LINE
  8
4
  6
CONTINUOUS
 62
4
 10
7.56007971357241
 20
1.23152904164607
 30
0.0
 11
7.56007971357241
 21
1.75652904164607
 31
0.0
  0
ARC
  8
4
  6
CONTINUOUS
 62
4
 10
7.66007971357241
 20
1.75652904164607
 30
0.0
 40
0.0999999999999997
 50
89.9999999999998
 51
180
  0
LINE
  8
4
  6
CONTINUOUS
 62
4
 10
7.66007971357241
 20
1.85652904164607
 30
0.0
 11
8.46007971357241
 21
1.85652904164607
 31
0.0
  0
ARC
  8
4
  6
CONTINUOUS
 62
4
 10
8.46007971357241
 20
1.75652904164607
 30
0.0
 40
0.0999999999999997
 50
359.999999999999
 51
89.9999999999998
  0
LINE
  8
4
  6
CONTINUOUS
 62
4
 10
8.56007971357241
 20
1.75652904164607
 30
0.0
 11
8.56007971357241
 21
1.35940377920041
 31
0.0
  0
ARC
  8
4
  6
CONTINUOUS
 62
4
 10
8.46007971357241
 20
0.706529041646074
 30
0.0
 40
0.0999999999999999
 50
270
 51
3.06178084257761E-13
  0
LINE
  8
4
  6
CONTINUOUS
 62
4
 10
8.46007971357241
 20
0.606529041646074
 30
0.0
 11
8.16007971357241
 21
0.606529041646074
 31
0.0
  0
LINE
  8
4
  6
CONTINUOUS
 62
4
 10
8.16007971357241
 20
0.606529041646074
 30
0.0
 11
8.16007971357241
 21
0.306529041646074
 31
0.0
  0
ARC
  8
4
  6
CONTINUOUS
 62
4
 10
8.06007971357241
 20
0.306529041646075
 30
0.0
 40
0.100000000000001
 50
270
 51
360
  0
ARC
  8
4
  6
CONTINUOUS
 62
4
 10
8.06007971357241
 20
0.306529041646074
 30
0.0
 40
0.0999999999999999
 50
180
 51
270
  0
LINE
  8
4
  6
CONTINUOUS
 62
4
 10
7.96007971357241
 20
0.306529041646074
 30
0.0
 11
7.96007971357241
 21
0.606529041646074
 31
0.0
  0
LINE
  8
4
  6
CONTINUOUS
 62
4
 10
7.96007971357241
 20
0.606529041646074
 30
0.0
 11
7.66007971357241
 21
0.606529041646074
 31
0.0
  0
ARC
  8
4
  6
CONTINUOUS
 62
4
 10
7.66007971357241
 20
0.706529041646074
 30
0.0
 40
0.1
 50
180
 51
270
  0
LINE
  8
4
  6
CONTINUOUS
 62
4
 10
7.56007971357241
 20
0.706529041646074
 30
0.0
 11
7.56007971357241
 21
0.90261339204896
 31
0.0
  0
ARC
  8
4
  6
CONTINUOUS
 62
4
 10
6.7223432582865
 20
0.845473251034644
 30
0.0
 40
0.129999999995521
 50
74.9999999974274
 51
180.000000002572
  0
ARC
  8
4
  6
CONTINUOUS
 62
4
 10
6.72234325829097
 20
0.845473251028806
 30
0.0
 40
0.13
 50
179.999999999999
 51
359.999999999999
  0
ARC
  8
4
  6
CONTINUOUS
 62
4
 10
6.72234325830619
 20
0.845473251040482
 30
0.0
 40
0.129999999984787
 50
359.999999994855
 51
75.0000000051449
  0
ARC
  8
4
  6
CONTINUOUS
 62
4
 10
6.90935113228862
 20
1.59547325103116
 30
0.0
 40
0.034999999997643
 50
89.9999999961411
 51
180.000000003859
  0
ARC
  8
4
  6
CONTINUOUS
 62
4
 10
6.90935113229097
 20
1.59547325102881
 30
0.0
 40
0.0350000000000001
 50
179.999999999999
 51
359.999999999999
  0
ARC
  8
4
  6
CONTINUOUS
 62
4
 10
6.90935113229333
 20
1.59547325103116
 30
0.0
 40
0.034999999997643
 50
359.999999996141
 51
90.0000000038585
  0
ARC
  8
4
  6
CONTINUOUS
 62
4
 10
6.53533538429642
 20
1.59547325102566
 30
0.0
 40
0.0349999999945566
 50
299.999999994855
 51
5.14476347498558E-9
  0
ARC
  8
4
  6
CONTINUOUS
 62
4
 10
6.53533538429097
 20
1.59547325102881
 30
0.0
 40
0.0350000000000001
 50
359.999999999999
 51
180
  0
ARC
  8
4
  6
CONTINUOUS
 62
4
 10
6.53533538429007
 20
1.59547325102724
 30
0.0
 40
0.0349999999990929
 50
179.999999997427
 51
300.000000002572
  0
ARC
  8
4
  6
CONTINUOUS
 62
4
 10
7.12234325829593
 20
1.74547325102769
 30
0.0
 40
0.0999999999950446
 50
6.42829112614792E-10
 51
45.0000000019291
  0
LINE
  8
4
  6
CONTINUOUS
 62
4
 10
7.22234325829097
 20
1.74547325102881
 30
0.0
 11
7.22234325829097
 21
1.44552559678869
 31
0.0
  0
ARC
  8
4
  6
CONTINUOUS
 62
4
 10
7.12234325829097
 20
0.695473251028807
 30
0.0
 40
0.1
 50
270
 51
5.173370974068E-14
  0
LINE
  8
4
  6
CONTINUOUS
 62
4
 10
7.12234325829097
 20
0.595473251028807
 30
0.0
 11
6.82234325829097
 21
0.595473251028807
 31
0.0
  0
LINE
  8
4
  6
CONTINUOUS
 62
4
 10
6.82234325829097
 20
0.595473251028807
 30
0.0
 11
6.82234325829097
 21
0.295473251028807
 31
0.0
  0
ARC
  8
4
  6
CONTINUOUS
 62
4
 10
6.72234325829097
 20
0.295473251028807
 30
0.0
 40
0.100000000000001
 50
270
 51
1.53511459547513E-13
  0
ARC
  8
4
  6
CONTINUOUS
 62
4
 10
6.72234325829097
 20
0.295473251028807
 30
0.0
 40
0.1
 50
180
 51
270
  0
LINE
  8
4
  6
CONTINUOUS
 62
4
 10
6.62234325829097
 20
0.295473251028807
 30
0.0
 11
6.62234325829097
 21
0.595473251028807
 31
0.0
  0
LINE
  8
4
  6
CONTINUOUS
 62
4
 10
6.62234325829097
 20
0.595473251028807
 30
0.0
 11
6.32234325829097
 21
0.595473251028807
 31
0.0
  0
ARC
  8
4
  6
CONTINUOUS
 62
4
 10
6.32234325829097
 20
0.695473251028807
 30
0.0
 40
0.1
 50
180
 51
270
  0
LINE
  8
4
  6
CONTINUOUS
 62
4
 10
6.22234325829097
 20
0.695473251028807
 30
0.0
 11
6.22234325829097
 21
1.29016157119623
 31
0.0
  0
ARC
  8
4
  6
CONTINUOUS
 62
4
 10
6.32234325829097
 20
1.74547325102881
 30
0.0
 40
0.0999999999999997
 50
89.9999999999998
 51
180
  0
LINE
  8
4
  6
CONTINUOUS
 62
4
 10
6.32234325829097
 20
1.84547325102881
 30
0.0
 11
7.12234325829097
 21
1.84547325102881
 31
0.0
  0
ARC
  8
4
  6
CONTINUOUS
 62
4
 10
7.12234325828443
 20
1.74547325102068
 30
0.0
 40
0.100000000008129
 50
45.0000000001102
 51
89.9999999962514
  0
ARC
  8
4
  6
CONTINUOUS
 62
4
 10
6.7338416848176
 20
2.65647542968388
 30
0.0
 40
0.129999999995521
 50
74.9999999974274
 51
180.000000002572
  0
ARC
  8
4
  6
CONTINUOUS
 62
4
 10
6.73384168482208
 20
2.65647542967804
 30
0.0
 40
0.13
 50
179.999999999999
 51
359.999999999999
  0
ARC
  8
4
  6
CONTINUOUS
 62
4
 10
6.73384168483729
 20
2.65647542968972
 30
0.0
 40
0.129999999984787
 50
359.999999994855
 51
75.0000000051448
  0
ARC
  8
4
  6
CONTINUOUS
 62
4
 10
6.92084955881972
 20
3.4064754296804
 30
0.0
 40
0.034999999997643
 50
89.9999999961411
 51
180.000000003859
  0
ARC
  8
4
  6
CONTINUOUS
 62
4
 10
6.92084955882208
 20
3.40647542967804
 30
0.0
 40
0.0350000000000001
 50
179.999999999999
 51
359.999999999999
  0
ARC
  8
4
  6
CONTINUOUS
 62
4
 10
6.92084955882444
 20
3.4064754296804
 30
0.0
 40
0.034999999997643
 50
359.999999996141
 51
90.0000000038585
  0
ARC
  8
4
  6
CONTINUOUS
 62
4
 10
6.54683381081829
 20
3.40647542967962
 30
0.0
 40
0.0349999999962063
 50
134.999999997427
 51
180.000000002572
  0
ARC
  8
4
  6
CONTINUOUS
 62
4
 10
6.54683381082208
 20
3.40647542967804
 30
0.0
 40
0.0350000000000001
 50
179.999999999999
 51
359.999999999999
  0
ARC
  8
4
  6
CONTINUOUS
 62
4
 10
6.54683381082338
 20
3.40647542968119
 30
0.0
 40
0.0349999999986983
 50
359.999999994855
 51
135.000000005144
  0
LINE
  8
4
  6
CONTINUOUS
 62
4
 10
6.23384168482208
 20
3.03147542967804
 30
0.0
 11
6.23384168482208
 21
3.55647542967804
 31
0.0
  0
ARC
  8
4
  6
CONTINUOUS
 62
4
 10
6.33384168482208
 20
3.55647542967804
 30
0.0
 40
0.0999999999999997
 50
89.9999999999998
 51
180
  0
LINE
  8
4
  6
CONTINUOUS
 62
4
 10
6.33384168482208
 20
3.65647542967805
 30
0.0
 11
7.13384168482208
 21
3.65647542967805
 31
0.0
  0
ARC
  8
4
  6
CONTINUOUS
 62
4
 10
7.13384168482208
 20
3.55647542967804
 30
0.0
 40
0.0999999999999997
 50
359.999999999999
 51
89.9999999999998
  0
LINE
  8
4
  6
CONTINUOUS
 62
4
 10
7.23384168482208
 20
3.55647542967804
 30
0.0
 11
7.23384168482208
 21
3.15565883175598
 31
0.0
  0
ARC
  8
4
  6
CONTINUOUS
 62
4
 10
7.13384168482208
 20
2.50647542967805
 30
0.0
 40
0.1
 50
270
 51
5.173370974068E-14
  0
LINE
  8
4
  6
CONTINUOUS
 62
4
 10
7.13384168482208
 20
2.40647542967804
 30
0.0
 11
6.83384168482208
 21
2.40647542967804
 31
0.0
  0
LINE
  8
4
  6
CONTINUOUS
 62
4
 10
6.83384168482208
 20
2.40647542967804
 30
0.0
 11
6.83384168482208
 21
2.10647542967804
 31
0.0
  0
ARC
  8
4
  6
CONTINUOUS
 62
4
 10
6.73384168482208
 20
2.10647542967805
 30
0.0
 40
0.100000000000001
 50
270
 51
1.53511459547513E-13
  0
ARC
  8
4
  6
CONTINUOUS
 62
4
 10
6.73384168482208
 20
2.10647542967805
 30
0.0
 40
0.1
 50
180
 51
270
  0
LINE
  8
4
  6
CONTINUOUS
 62
4
 10
6.63384168482208
 20
2.10647542967804
 30
0.0
 11
6.63384168482208
 21
2.40647542967804
 31
0.0
  0
LINE
  8
4
  6
CONTINUOUS
 62
4
 10
6.63384168482208
 20
2.40647542967804
 30
0.0
 11
6.33384168482208
 21
2.40647542967804
 31
0.0
  0
ARC
  8
4
  6
CONTINUOUS
 62
4
 10
6.33384168482208
 20
2.50647542967805
 30
0.0
 40
0.1
 50
180
 51
270
  0
LINE
  8
4
  6
CONTINUOUS
 62
4
 10
6.23384168482208
 20
2.50647542967804
 30
0.0
 11
6.23384168482208
 21
2.71117156140286
 31
0.0
  0
ARC
  8
4
  6
CONTINUOUS
 62
4
 10
5.58703208120182
 20
3.40647542967962
 30
0.0
 40
0.0349999999880638
 50
164.999999997426
 51
180.000000002571
  0
ARC
  8
4
  6
CONTINUOUS
 62
4
 10
5.58703208121375
 20
3.40647542967804
 30
0.0
 40
0.0350000000000001
 50
179.999999999999
 51
359.999999999999
  0
ARC
  8
4
  6
CONTINUOUS
 62
4
 10
5.58703208121417
 20
3.40647542968119
 30
0.0
 40
0.0349999999995863
 50
359.999999994855
 51
165.000000005145
  0
ARC
  8
4
  6
CONTINUOUS
 62
4
 10
5.40002420720615
 20
2.65647542968388
 30
0.0
 40
0.129999999992393
 50
104.999999997427
 51
180.000000002572
  0
ARC
  8
4
  6
CONTINUOUS
 62
4
 10
5.40002420721375
 20
2.65647542967804
 30
0.0
 40
0.13
 50
179.999999999999
 51
359.999999999999
  0
ARC
  8
4
  6
CONTINUOUS
 62
4
 10
5.40002420722271
 20
2.65647542968972
 30
0.0
 40
0.129999999991043
 50
359.999999994855
 51
105.000000005145
  0
ARC
  8
4
  6
CONTINUOUS
 62
4
 10
5.21301633322548
 20
3.4064754296749
 30
0.0
 40
0.0349999999882709
 50
329.999999994855
 51
5.14538686370314E-9
  0
ARC
  8
4
  6
CONTINUOUS
 62
4
 10
5.21301633321375
 20
3.40647542967805
 30
0.0
 40
0.0350000000000001
 50
359.999999999999
 51
180
  0
ARC
  8
4
  6
CONTINUOUS
 62
4
 10
5.21301633321333
 20
3.40647542967647
 30
0.0
 40
0.0349999999995792
 50
179.999999997427
 51
330.000000002572
  0
LINE
  8
4
  6
CONTINUOUS
 62
4
 10
5.40002420721375
 20
3.65647542967805
 30
0.0
 11
5.80002420721375
 21
3.65647542967805
 31
0.0
  0
ARC
  8
4
  6
CONTINUOUS
 62
4
 10
5.80002420721375
 20
3.55647542967804
 30
0.0
 40
0.0999999999999997
 50
359.999999999999
 51
89.9999999999998
  0
LINE
  8
4
  6
CONTINUOUS
 62
4
 10
5.90002420721375
 20
3.55647542967804
 30
0.0
 11
5.90002420721375
 21
3.42632740131914
 31
0.0
  0
ARC
  8
4
  6
CONTINUOUS
 62
4
 10
5.80002420721375
 20
2.50647542967805
 30
0.0
 40
0.1
 50
270
 51
5.173370974068E-14
  0
LINE
  8
4
  6
CONTINUOUS
 62
4
 10
5.80002420721375
 20
2.40647542967804
 30
0.0
 11
5.50002420721375
 21
2.40647542967804
 31
0.0
  0
LINE
  8
4
  6
CONTINUOUS
 62
4
 10
5.50002420721375
 20
2.40647542967804
 30
0.0
 11
5.50002420721375
 21
2.10647542967804
 31
0.0
  0
ARC
  8
4
  6
CONTINUOUS
 62
4
 10
5.40002420721375
 20
2.10647542967805
 30
0.0
 40
0.100000000000001
 50
270
 51
1.53511459547513E-13
  0
ARC
  8
4
  6
CONTINUOUS
 62
4
 10
5.40002420721375
 20
2.10647542967805
 30
0.0
 40
0.1
 50
180
 51
270
  0
LINE
  8
4
  6
CONTINUOUS
 62
4
 10
5.30002420721375
 20
2.10647542967804
 30
0.0
 11
5.30002420721375
 21
2.40647542967804
 31
0.0
  0
LINE
  8
4
  6
CONTINUOUS
 62
4
 10
5.30002420721375
 20
2.40647542967804
 30
0.0
 11
5.00002420721375
 21
2.40647542967804
 31
0.0
  0
ARC
  8
4
  6
CONTINUOUS
 62
4
 10
5.00002420721375
 20
2.50647542967805
 30
0.0
 40
0.1
 50
180
 51
270
  0
LINE
  8
4
  6
CONTINUOUS
 62
4
 10
4.90002420721375
 20
2.50647542967804
 30
0.0
 11
4.90002420721375
 21
3.04335571495765
 31
0.0
  0
ARC
  8
4
  6
CONTINUOUS
 62
4
 10
5.00002420721375
 20
3.55647542967804
 30
0.0
 40
0.0999999999999997
 50
89.9999999999998
 51
180
  0
LINE
  8
4
  6
CONTINUOUS
 62
4
 10
5.00002420721375
 20
3.65647542967805
 30
0.0
 11
5.40002420721375
 21
3.65647542967805
 31
0.0
  0
ARC
  8
4
  6
CONTINUOUS
 62
4
 10
5.38852578067817
 20
0.845473251034644
 30
0.0
 40
0.129999999995521
 50
74.9999999974274
 51
180.000000002572
  0
ARC
  8
4
  6
CONTINUOUS
 62
4
 10
5.38852578068265
 20
0.845473251028806
 30
0.0
 40
0.13
 50
179.999999999999
 51
359.999999999999
  0
ARC
  8
4
  6
CONTINUOUS
 62
4
 10
5.38852578069786
 20
0.845473251040482
 30
0.0
 40
0.129999999984787
 50
359.999999994855
 51
75.0000000051449
  0
ARC
  8
4
  6
CONTINUOUS
 62
4
 10
5.57553365468029
 20
1.59547325103116
 30
0.0
 40
0.034999999997643
 50
89.9999999961411
 51
180.000000003859
  0
ARC
  8
4
  6
CONTINUOUS
 62
4
 10
5.57553365468265
 20
1.59547325102881
 30
0.0
 40
0.0350000000000001
 50
179.999999999999
 51
359.999999999999
  0
ARC
  8
4
  6
CONTINUOUS
 62
4
 10
5.575533654685
 20
1.59547325103116
 30
0.0
 40
0.034999999997643
 50
359.999999996141
 51
90.0000000038585
  0
ARC
  8
4
  6
CONTINUOUS
 62
4
 10
5.20151790667071
 20
1.59547325103038
 30
0.0
 40
0.0349999999880638
 50
164.999999997426
 51
180.000000002571
  0
ARC
  8
4
  6
CONTINUOUS
 62
4
 10
5.20151790668265
 20
1.59547325102881
 30
0.0
 40
0.0350000000000001
 50
179.999999999999
 51
359.999999999999
  0
ARC
  8
4
  6
CONTINUOUS
 62
4
 10
5.20151790668306
 20
1.59547325103195
 30
0.0
 40
0.0349999999995863
 50
359.999999994855
 51
165.000000005145
  0
ARC
  8
4
  6
CONTINUOUS
 62
4
 10
4.98852578066871
 20
0.695473251038909
 30
0.0
 40
0.0999999999860657
 50
180.000000005788
 51
225.000000007074
  0
LINE
  8
4
  6
CONTINUOUS
 62
4
 10
4.88852578068265
 20
0.695473251028807
 30
0.0
 11
4.88852578068265
 21
1.48701143996944
 31
0.0
  0
ARC
  8
4
  6
CONTINUOUS
 62
4
 10
4.98852578068265
 20
1.74547325102881
 30
0.0
 40
0.0999999999999997
 50
89.9999999999998
 51
180
  0
LINE
  8
4
  6
CONTINUOUS
 62
4
 10
4.98852578068265
 20
1.84547325102881
 30
0.0
 11
5.78852578068265
 21
1.84547325102881
 31
0.0
  0
ARC
  8
4
  6
CONTINUOUS
 62
4
 10
5.78852578068265
 20
1.74547325102881
 30
0.0
 40
0.0999999999999997
 50
359.999999999999
 51
89.9999999999998
  0
LINE
  8
4
  6
CONTINUOUS
 62
4
 10
5.88852578068265
 20
1.74547325102881
 30
0.0
 11
5.88852578068265
 21
1.10718988483473
 31
0.0
  0
ARC
  8
4
  6
CONTINUOUS
 62
4
 10
5.78852578068265
 20
0.695473251028807
 30
0.0
 40
0.1
 50
270
 51
5.173370974068E-14
  0
LINE
  8
4
  6
CONTINUOUS
 62
4
 10
5.78852578068265
 20
0.595473251028807
 30
0.0
 11
5.48852578068265
 21
0.595473251028807
 31
0.0
  0
LINE
  8
4
  6
CONTINUOUS
 62
4
 10
5.48852578068265
 20
0.595473251028807
 30
0.0
 11
5.48852578068265
 21
0.295473251028807
 31
0.0
  0
ARC
  8
4
  6
CONTINUOUS
 62
4
 10
5.38852578068265
 20
0.295473251028807
 30
0.0
 40
0.100000000000001
 50
270
 51
1.53511459547513E-13
  0
ARC
  8
4
  6
CONTINUOUS
 62
4
 10
5.38852578068265
 20
0.295473251028807
 30
0.0
 40
0.1
 50
180
 51
270
  0
LINE
  8
4
  6
CONTINUOUS
 62
4
 10
5.28852578068265
 20
0.295473251028807
 30
0.0
 11
5.28852578068265
 21
0.595473251028807
 31
0.0
  0
LINE
  8
4
  6
CONTINUOUS
 62
4
 10
5.28852578068265
 20
0.595473251028807
 30
0.0
 11
4.98852578068265
 21
0.595473251028807
 31
0.0
  0
ARC
  8
4
  6
CONTINUOUS
 62
4
 10
4.98852578070189
 20
0.695473251036937
 30
0.0
 40
0.10000000000813
 50
224.999999992834
 51
269.999999988976
  0
ARC
  8
4
  6
CONTINUOUS
 62
4
 10
3.7635257806794
 20
0.44547325103442
 30
0.0
 40
0.124999999996759
 50
59.9999999974273
 51
180.000000002572
  0
ARC
  8
4
  6
CONTINUOUS
 62
4
 10
3.76352578068265
 20
0.445473251028806
 30
0.0
 40
0.124999999999999
 50
179.999999999999
 51
359.999999999999
  0
ARC
  8
4
  6
CONTINUOUS
 62
4
 10
3.76352578070209
 20
0.445473251040033
 30
0.0
 40
0.124999999980558
 50
359.999999994855
 51
60.0000000051447
  0
ARC
  8
4
  6
CONTINUOUS
 62
4
 10
3.48852578068152
 20
0.59547325103918
 30
0.0
 40
0.0999999999896253
 50
89.9999999993566
 51
135.000000003215
  0
LINE
  8
4
  6
CONTINUOUS
 62
4
 10
3.48852578068264
 20
0.695473251028807
 30
0.0
 11
3.96044764940829
 21
0.695473251028807
 31
0.0
  0
ARC
  8
4
  6
CONTINUOUS
 62
4
 10
4.53852578068264
 20
0.595473251028807
 30
0.0
 40
0.100000000000001
 50
359.999999999999
 51
89.9999999999998
  0
LINE
  8
4
  6
CONTINUOUS
 62
4
 10
4.63852578068265
 20
0.595473251028807
 30
0.0
 11
4.63852578068265
 21
0.295473251028807
 31
0.0
  0
ARC
  8
4
  6
CONTINUOUS
 62
4
 10
4.53852578068265
 20
0.295473251028807
 30
0.0
 40
0.100000000000001
 50
270
 51
1.53511459547513E-13
  0
LINE
  8
4
  6
CONTINUOUS
 62
4
 10
4.53852578068265
 20
0.195473251028807
 30
0.0
 11
4.17732725899239
 21
0.195473251028807
 31
0.0
  0
ARC
  8
4
  6
CONTINUOUS
 62
4
 10
3.48852578068265
 20
0.295473251028807
 30
0.0
 40
0.100000000000001
 50
180
 51
270
  0
LINE
  8
4
  6
CONTINUOUS
 62
4
 10
3.38852578068265
 20
0.295473251028807
 30
0.0
 11
3.38852578068265
 21
0.595473251028807
 31
0.0
  0
ARC
  8
4
  6
CONTINUOUS
 62
4
 10
3.48852578069619
 20
0.595473251020019
 30
0.0
 40
0.100000000013549
 50
135.000000001397
 51
179.999999994965
  0
ARC
  8
4
  6
CONTINUOUS
 62
4
 10
3.75777656741385
 20
1.19862018882188
 30
0.0
 40
0.124999999996759
 50
59.9999999974273
 51
180.000000002572
  0
ARC
  8
4
  6
CONTINUOUS
 62
4
 10
3.75777656741709
 20
1.19862018881627
 30
0.0
 40
0.124999999999999
 50
179.999999999999
 51
359.999999999999
  0
ARC
  8
4
  6
CONTINUOUS
 62
4
 10
3.75777656743653
 20
1.19862018882749
 30
0.0
 40
0.124999999980558
 50
359.999999994855
 51
60.0000000051447
  0
ARC
  8
4
  6
CONTINUOUS
 62
4
 10
3.48277656741597
 20
1.34862018882664
 30
0.0
 40
0.0999999999896253
 50
89.9999999993566
 51
135.000000003215
  0
LINE
  8
4
  6
CONTINUOUS
 62
4
 10
3.48277656741709
 20
1.44862018881627
 30
0.0
 11
3.73899154703843
 21
1.44862018881627
 31
0.0
  0
ARC
  8
4
  6
CONTINUOUS
 62
4
 10
4.53277656741709
 20
1.34862018881627
 30
0.0
 40
0.1
 50
359.999999999999
 51
89.9999999999995
  0
LINE
  8
4
  6
CONTINUOUS
 62
4
 10
4.63277656741709
 20
1.34862018881627
 30
0.0
 11
4.63277656741709
 21
1.04862018881627
 31
0.0
  0
ARC
  8
4
  6
CONTINUOUS
 62
4
 10
4.53277656741709
 20
1.04862018881627
 30
0.0
 40
0.1
 50
270
 51
4.07955834064594E-13
  0
LINE
  8
4
  6
CONTINUOUS
 62
4
 10
4.53277656741709
 20
0.948620188816268
 30
0.0
 11
4.28805531017732
 21
0.948620188816268
 31
0.0
  0
ARC
  8
4
  6
CONTINUOUS
 62
4
 10
3.48277656741709
 20
1.04862018881627
 30
0.0
 40
0.1
 50
180
 51
270
  0
LINE
  8
4
  6
CONTINUOUS
 62
4
 10
3.38277656741709
 20
1.04862018881627
 30
0.0
 11
3.38277656741709
 21
1.34862018881627
 31
0.0
  0
ARC
  8
4
  6
CONTINUOUS
 62
4
 10
3.48277656743064
 20
1.34862018880748
 30
0.0
 40
0.100000000013549
 50
135.000000001397
 51
179.999999994965
  0
ARC
  8
4
  6
CONTINUOUS
 62
4
 10
3.7520273541483
 20
1.95176712660934
 30
0.0
 40
0.124999999996759
 50
59.9999999974273
 51
180.000000002572
  0
ARC
  8
4
  6
CONTINUOUS
 62
4
 10
3.75202735415154
 20
1.95176712660373
 30
0.0
 40
0.124999999999999
 50
179.999999999999
 51
359.999999999999
  0
ARC
  8
4
  6
CONTINUOUS
 62
4
 10
3.75202735417098
 20
1.95176712661495
 30
0.0
 40
0.124999999980558
 50
359.999999994855
 51
60.0000000051447
  0
ARC
  8
4
  6
CONTINUOUS
 62
4
 10
3.47702735415042
 20
2.1017671266141
 30
0.0
 40
0.0999999999896253
 50
89.9999999993566
 51
135.000000003215
  0
LINE
  8
4
  6
CONTINUOUS
 62
4
 10
3.47702735415154
 20
2.20176712660373
 30
0.0
 11
3.83741648142503
 21
2.20176712660373
 31
0.0
  0
ARC
  8
4
  6
CONTINUOUS
 62
4
 10
4.52702735415154
 20
2.10176712660373
 30
0.0
 40
0.100000000000001
 50
359.999999999999
 51
89.9999999999998
  0
LINE
  8
4
  6
CONTINUOUS
 62
4
 10
4.62702735415154
 20
2.10176712660373
 30
0.0
 11
4.62702735415154
 21
1.80176712660373
 31
0.0
  0
ARC
  8
4
  6
CONTINUOUS
 62
4
 10
4.52702735415154
 20
1.80176712660373
 30
0.0
 40
0.100000000000001
 50
270
 51
1.53511459547513E-13
  0
LINE
  8
4
  6
CONTINUOUS
 62
4
 10
4.52702735415154
 20
1.70176712660373
 30
0.0
 11
4.01738674061415
 21
1.70176712660373
 31
0.0
  0
ARC
  8
4
  6
CONTINUOUS
 62
4
 10
3.47702735415154
 20
1.80176712660373
 30
0.0
 40
0.100000000000001
 50
180
 51
270
  0
LINE
  8
4
  6
CONTINUOUS
 62
4
 10
3.37702735415154
 20
1.80176712660373
 30
0.0
 11
3.37702735415154
 21
2.10176712660373
 31
0.0
  0
ARC
  8
4
  6
CONTINUOUS
 62
4
 10
3.47702735416509
 20
2.10176712659494
 30
0.0
 40
0.100000000013549
 50
135.000000001397
 51
179.999999994965
  0
ARC
  8
4
  6
CONTINUOUS
 62
4
 10
3.74627814088275
 20
2.7049140643968
 30
0.0
 40
0.124999999996759
 50
59.9999999974274
 51
180.000000002572
  0
ARC
  8
4
  6
CONTINUOUS
 62
4
 10
3.74627814088599
 20
2.70491406439119
 30
0.0
 40
0.124999999999999
 50
179.999999999999
 51
359.999999999999
  0
ARC
  8
4
  6
CONTINUOUS
 62
4
 10
3.74627814090543
 20
2.70491406440242
 30
0.0
 40
0.124999999980558
 50
359.999999994854
 51
60.0000000051447
  0
ARC
  8
4
  6
CONTINUOUS
 62
4
 10
3.47127814088486
 20
2.85491406440156
 30
0.0
 40
0.0999999999896253
 50
89.9999999993566
 51
135.000000003215
  0
LINE
  8
4
  6
CONTINUOUS
 62
4
 10
3.47127814088599
 20
2.95491406439119
 30
0.0
 11
3.99735699980327
 21
2.95491406439119
 31
0.0
  0
ARC
  8
4
  6
CONTINUOUS
 62
4
 10
4.52127814088599
 20
2.85491406439119
 30
0.0
 40
0.100000000000001
 50
5.173370974068E-14
 51
90
  0
LINE
  8
4
  6
CONTINUOUS
 62
4
 10
4.62127814088599
 20
2.85491406439119
 30
0.0
 11
4.62127814088599
 21
2.55491406439119
 31
0.0
  0
ARC
  8
4
  6
CONTINUOUS
 62
4
 10
4.52127814088599
 20
2.55491406439119
 30
0.0
 40
0.100000000000001
 50
270
 51
360
  0
LINE
  8
4
  6
CONTINUOUS
 62
4
 10
4.52127814088599
 20
2.45491406439119
 30
0.0
 11
4.2080850509882
 21
2.45491406439119
 31
0.0
  0
ARC
  8
4
  6
CONTINUOUS
 62
4
 10
3.47127814088599
 20
2.55491406439119
 30
0.0
 40
0.100000000000001
 50
180
 51
270
  0
LINE
  8
4
  6
CONTINUOUS
 62
4
 10
3.37127814088599
 20
2.55491406439119
 30
0.0
 11
3.37127814088599
 21
2.85491406439119
 31
0.0
  0
ARC
  8
4
  6
CONTINUOUS
 62
4
 10
3.47127814089954
 20
2.8549140643824
 30
0.0
 40
0.100000000013549
 50
135.000000001397
 51
179.999999994965
  0
ARC
  8
4
  6
CONTINUOUS
 62
4
 10
4.39590363204182
 20
3.71195076098432
 30
0.0
 40
0.130000000000001
 50
179.999999999999
 51
359.999999999999
  0
ARC
  8
4
  6
CONTINUOUS
 62
4
 10
4.39590363204182
 20
3.71195076098432
 30
0.0
 40
0.130000000000001
 50
359.999999999999
 51
180
  0
ARC
  8
4
  6
CONTINUOUS
 62
4
 10
3.6459036320394
 20
3.71195076099015
 30
0.0
 40
0.129999999997583
 50
44.9999999974274
 51
180.000000002572
  0
ARC
  8
4
  6
CONTINUOUS
 62
4
 10
3.64590363204182
 20
3.71195076098432
 30
0.0
 40
0.130000000000001
 50
179.999999999999
 51
359.999999999999
  0
ARC
  8
4
  6
CONTINUOUS
 62
4
 10
3.64590363207
 20
3.71195076099599
 30
0.0
 40
0.129999999971819
 50
359.999999994854
 51
45.0000000051447
  0
LINE
  8
4
  6
CONTINUOUS
 62
4
 10
4.02090363204182
 20
3.96195076098432
 30
0.0
 11
4.23111621897146
 21
3.96195076098432
 31
0.0
  0
ARC
  8
4
  6
CONTINUOUS
 62
4
 10
4.54590363204182
 20
3.86195076098432
 30
0.0
 40
0.100000000000001
 50
5.173370974068E-14
 51
90
  0
LINE
  8
4
  6
CONTINUOUS
 62
4
 10
4.64590363204182
 20
3.86195076098432
 30
0.0
 11
4.64590363204182
 21
3.56195076098432
 31
0.0
  0
ARC
  8
4
  6
CONTINUOUS
 62
4
 10
4.54590363204182
 20
3.56195076098432
 30
0.0
 40
0.100000000000001
 50
270
 51
360
  0
LINE
  8
4
  6
CONTINUOUS
 62
4
 10
4.54590363204182
 20
3.46195076098432
 30
0.0
 11
3.91281024782838
 21
3.46195076098432
 31
0.0
  0
ARC
  8
4
  6
CONTINUOUS
 62
4
 10
3.49590363204182
 20
3.56195076098432
 30
0.0
 40
0.1
 50
180
 51
270
  0
LINE
  8
4
  6
CONTINUOUS
 62
4
 10
3.39590363204182
 20
3.56195076098432
 30
0.0
 11
3.39590363204182
 21
3.86195076098432
 31
0.0
  0
ARC
  8
4
  6
CONTINUOUS
 62
4
 10
3.49590363204182
 20
3.86195076098432
 30
0.0
 40
0.1
 50
90
 51
180
  0
LINE
  8
4
  6
CONTINUOUS
 62
4
 10
3.49590363204182
 20
3.96195076098432
 30
0.0
 11
4.02090363204182
 21
3.96195076098432
 31
0.0
  0
ARC
  8
4
  6
CONTINUOUS
 62
4
 10
4.39590363204182
 20
4.57316893686712
 30
0.0
 40
0.130000000000001
 50
179.999999999999
 51
359.999999999999
  0
ARC
  8
4
  6
CONTINUOUS
 62
4
 10
4.39590363204182
 20
4.57316893686713
 30
0.0
 40
0.130000000000001
 50
359.999999999999
 51
180
  0
ARC
  8
4
  6
CONTINUOUS
 62
4
 10
3.64590363204666
 20
4.57316893685545
 30
0.0
 40
0.129999999995165
 50
224.999999994854
 51
5.14471258611067E-9
  0
ARC
  8
4
  6
CONTINUOUS
 62
4
 10
3.64590363204182
 20
4.57316893686713
 30
0.0
 40
0.130000000000001
 50
359.999999999999
 51
180
  0
ARC
  8
4
  6
CONTINUOUS
 62
4
 10
3.64590363202773
 20
4.57316893686129
 30
0.0
 40
0.12999999998591
 50
179.999999997427
 51
225.000000002572
  0
ARC
  8
4
  6
CONTINUOUS
 62
4
 10
3.49590363202789
 20
4.42316893687723
 30
0.0
 40
0.0999999999860651
 50
180.000000005788
 51
225.000000007074
  0
LINE
  8
4
  6
CONTINUOUS
 62
4
 10
3.39590363204182
 20
4.42316893686712
 30
0.0
 11
3.39590363204182
 21
4.72316893686713
 31
0.0
  0
ARC
  8
4
  6
CONTINUOUS
 62
4
 10
3.49590363204182
 20
4.72316893686713
 30
0.0
 40
0.100000000000001
 50
90.0000000000003
 51
180
  0
LINE
  8
4
  6
CONTINUOUS
 62
4
 10
3.49590363204182
 20
4.82316893686713
 30
0.0
 11
4.02811479179908
 21
4.82316893686713
 31
0.0
  0
ARC
  8
4
  6
CONTINUOUS
 62
4
 10
4.54590363204182
 20
4.72316893686713
 30
0.0
 40
0.100000000000001
 50
359.999999999999
 51
89.9999999999998
  0
LINE
  8
4
  6
CONTINUOUS
 62
4
 10
4.64590363204182
 20
4.72316893686713
 30
0.0
 11
4.64590363204182
 21
4.42316893686712
 31
0.0
  0
ARC
  8
4
  6
CONTINUOUS
 62
4
 10
4.54590363204182
 20
4.42316893686713
 30
0.0
 40
0.100000000000001
 50
269.999999999999
 51
359.999999999999
  0
LINE
  8
4
  6
CONTINUOUS
 62
4
 10
4.54590363204182
 20
4.32316893686713
 30
0.0
 11
3.75902128784931
 21
4.32316893686713
 31
0.0
  0
ARC
  8
4
  6
CONTINUOUS
 62
4
 10
3.49590363206106
 20
4.42316893687525
 30
0.0
 40
0.100000000008129
 50
224.999999992834
 51
269.999999988975
  0
ARC
  8
4
  6
CONTINUOUS
 62
4
 10
2.51352578069106
 20
4.57047325102039
 30
0.0
 40
0.124999999991581
 50
269.999999996141
 51
3.85850263403619E-9
  0
ARC
  8
4
  6
CONTINUOUS
 62
4
 10
2.51352578068264
 20
4.57047325102881
 30
0.0
 40
0.124999999999999
 50
359.999999999999
 51
180
  0
ARC
  8
4
  6
CONTINUOUS
 62
4
 10
2.51352578067423
 20
4.57047325102039
 30
0.0
 40
0.124999999991581
 50
179.999999996141
 51
270.000000003858
  0
ARC
  8
4
  6
CONTINUOUS
 62
4
 10
2.88852578068264
 20
0.695473251028806
 30
0.0
 40
0.130000000000001
 50
179.999999999999
 51
359.999999999999
  0
ARC
  8
4
  6
CONTINUOUS
 62
4
 10
2.88852578068264
 20
0.695473251028808
 30
0.0
 40
0.130000000000001
 50
359.999999999999
 51
180
  0
ARC
  8
4
  6
CONTINUOUS
 62
4
 10
2.13852578067817
 20
0.695473251034644
 30
0.0
 40
0.129999999995521
 50
74.9999999974274
 51
180.000000002572
  0
ARC
  8
4
  6
CONTINUOUS
 62
4
 10
2.13852578068264
 20
0.695473251028806
 30
0.0
 40
0.13
 50
179.999999999999
 51
359.999999999999
  0
ARC
  8
4
  6
CONTINUOUS
 62
4
 10
2.13852578069786
 20
0.695473251040482
 30
0.0
 40
0.129999999984787
 50
359.999999994855
 51
75.0000000051449
  0
ARC
  8
4
  6
CONTINUOUS
 62
4
 10
2.33852578068096
 20
2.57047325102712
 30
0.0
 40
0.0249999999983167
 50
179.999999996141
 51
270.000000003858
  0
LINE
  8
4
  6
CONTINUOUS
 62
4
 10
2.33852578068264
 20
2.54547325102881
 30
0.0
 11
2.43852578068264
 21
2.54547325102881
 31
0.0
  0
ARC
  8
4
  6
CONTINUOUS
 62
4
 10
2.43852578068264
 20
2.57047325102881
 30
0.0
 40
0.0250000000000004
 50
270
 51
90
  0
LINE
  8
4
  6
CONTINUOUS
 62
4
 10
2.43852578068264
 20
2.59547325102881
 30
0.0
 11
2.33852578068264
 21
2.59547325102881
 31
0.0
  0
ARC
  8
4
  6
CONTINUOUS
 62
4
 10
2.33852578068096
 20
2.57047325103049
 30
0.0
 40
0.0249999999983167
 50
89.9999999961411
 51
180.000000003859
  0
ARC
  8
4
  6
CONTINUOUS
 62
4
 10
2.63852578068433
 20
2.57047325103049
 30
0.0
 40
0.0249999999983167
 50
359.999999996141
 51
90.0000000038585
  0
LINE
  8
4
  6
CONTINUOUS
 62
4
 10
2.63852578068264
 20
2.59547325102881
 30
0.0
 11
2.53852578068264
 21
2.59547325102881
 31
0.0
  0
ARC
  8
4
  6
CONTINUOUS
 62
4
 10
2.53852578068264
 20
2.57047325102881
 30
0.0
 40
0.0250000000000004
 50
90
 51
270
  0
LINE
  8
4
  6
CONTINUOUS
 62
4
 10
2.53852578068264
 20
2.54547325102881
 30
0.0
 11
2.63852578068264
 21
2.54547325102881
 31
0.0
  0
ARC
  8
4
  6
CONTINUOUS
 62
4
 10
2.63852578068433
 20
2.57047325102712
 30
0.0
 40
0.0249999999983167
 50
269.999999996141
 51
3.85850263403619E-9
  0
ARC
  8
4
  6
CONTINUOUS
 62
4
 10
2.83852578068433
 20
2.57047325103049
 30
0.0
 40
0.0249999999983167
 50
359.999999996141
 51
90.0000000038585
  0
LINE
  8
4
  6
CONTINUOUS
 62
4
 10
2.83852578068264
 20
2.59547325102881
 30
0.0
 11
2.73852578068264
 21
2.59547325102881
 31
0.0
  0
ARC
  8
4
  6
CONTINUOUS
 62
4
 10
2.73852578068264
 20
2.57047325102881
 30
0.0
 40
0.0250000000000004
 50
90
 51
270
  0
LINE
  8
4
  6
CONTINUOUS
 62
4
 10
2.73852578068264
 20
2.54547325102881
 30
0.0
 11
2.83852578068264
 21
2.54547325102881
 31
0.0
  0
ARC
  8
4
  6
CONTINUOUS
 62
4
 10
2.83852578068433
 20
2.57047325102712
 30
0.0
 40
0.0249999999983167
 50
269.999999996141
 51
3.85850263403619E-9
  0
ARC
  8
4
  6
CONTINUOUS
 62
4
 10
3.03852578068433
 20
2.57047325103049
 30
0.0
 40
0.0249999999983167
 50
359.999999996141
 51
90.0000000038585
  0
LINE
  8
4
  6
CONTINUOUS
 62
4
 10
3.03852578068264
 20
2.59547325102881
 30
0.0
 11
2.93852578068264
 21
2.59547325102881
 31
0.0
  0
ARC
  8
4
  6
CONTINUOUS
 62
4
 10
2.93852578068264
 20
2.57047325102881
 30
0.0
 40
0.0250000000000004
 50
90
 51
270
  0
LINE
  8
4
  6
CONTINUOUS
 62
4
 10
2.93852578068264
 20
2.54547325102881
 30
0.0
 11
3.03852578068264
 21
2.54547325102881
 31
0.0
  0
ARC
  8
4
  6
CONTINUOUS
 62
4
 10
3.03852578068433
 20
2.57047325102712
 30
0.0
 40
0.0249999999983167
 50
269.999999996141
 51
3.85850263403619E-9
  0
ARC
  8
4
  6
CONTINUOUS
 62
4
 10
2.94541554448264
 20
3.19940786392881
 30
0.0
 40
0.0688976377952759
 50
179.999999999999
 51
359.999999999999
  0
ARC
  8
4
  6
CONTINUOUS
 62
4
 10
2.94541554448264
 20
3.19940786392881
 30
0.0
 40
0.0688976377952759
 50
359.999999999999
 51
180
  0
ARC
  8
4
  6
CONTINUOUS
 62
4
 10
2.39423444207729
 20
3.1994078639319
 30
0.0
 40
0.068897637789918
 50
119.999999997427
 51
180.000000002572
  0
ARC
  8
4
  6
CONTINUOUS
 62
4
 10
2.39423444208264
 20
3.19940786392881
 30
0.0
 40
0.0688976377952759
 50
179.999999999999
 51
359.999999999999
  0
ARC
  8
4
  6
CONTINUOUS
 62
4
 10
2.39423444208622
 20
3.19940786393499
 30
0.0
 40
0.0688976377917039
 50
359.999999994855
 51
120.000000005145
  0
ARC
  8
4
  6
CONTINUOUS
 62
4
 10
1.97602578068208
 20
3.67047325102838
 30
0.0
 40
0.0249999999995697
 50
164.999999998714
 51
270.000000001286
  0
LINE
  8
4
  6
CONTINUOUS
 62
4
 10
1.97602578068264
 20
3.64547325102881
 30
0.0
 11
2.07602578068264
 21
3.64547325102881
 31
0.0
  0
ARC
  8
4
  6
CONTINUOUS
 62
4
 10
2.07602578068264
 20
3.67047325102881
 30
0.0
 40
0.0250000000000004
 50
270
 51
90
  0
LINE
  8
4
  6
CONTINUOUS
 62
4
 10
2.07602578068264
 20
3.69547325102881
 30
0.0
 11
1.97602578068264
 21
3.69547325102881
 31
0.0
  0
ARC
  8
4
  6
CONTINUOUS
 62
4
 10
1.97602578067984
 20
3.67047325103246
 30
0.0
 40
0.0249999999963433
 50
89.9999999935688
 51
165.000000006432
  0
LINE
  8
4
  6
CONTINUOUS
 62
4
 10
1.88852578068264
 20
2.19547325102881
 30
0.0
 11
1.88852578068264
 21
4.09547325102881
 31
0.0
  0
ARC
  8
4
  6
CONTINUOUS
 62
4
 10
1.98852578068264
 20
4.09547325102881
 30
0.0
 40
0.1
 50
89.9999999999999
 51
180
  0
LINE
  8
4
  6
CONTINUOUS
 62
4
 10
1.98852578068264
 20
4.19547325102881
 30
0.0
 11
2.16352578068264
 21
4.19547325102881
 31
0.0
  0
ARC
  8
4
  6
CONTINUOUS
 62
4
 10
2.16352578068264
 20
4.29547325102881
 30
0.0
 40
0.100000000000001
 50
269.999999999999
 51
359.999999999999
  0
LINE
  8
4
  6
CONTINUOUS
 62
4
 10
2.26352578068264
 20
4.29547325102881
 30
0.0
 11
2.26352578068264
 21
4.84547325102881
 31
0.0
  0
ARC
  8
4
  6
CONTINUOUS
 62
4
 10
2.36352578068264
 20
4.84547325102881
 30
0.0
 40
0.100000000000001
 50
89.9999999999998
 51
180
  0
LINE
  8
4
  6
CONTINUOUS
 62
4
 10
2.36352578068264
 20
4.94547325102881
 30
0.0
 11
2.66352578068264
 21
4.94547325102881
 31
0.0
  0
ARC
  8
4
  6
CONTINUOUS
 62
4
 10
2.66352578068264
 20
4.84547325102881
 30
0.0
 40
0.100000000000001
 50
359.999999999999
 51
89.9999999999998
  0
LINE
  8
4
  6
CONTINUOUS
 62
4
 10
2.76352578068264
 20
4.84547325102881
 30
0.0
 11
2.76352578068264
 21
4.29547325102881
 31
0.0
  0
ARC
  8
4
  6
CONTINUOUS
 62
4
 10
2.86352578068264
 20
4.29547325102881
 30
0.0
 40
0.100000000000001
 50
179.999999999999
 51
269.999999999999
  0
LINE
  8
4
  6
CONTINUOUS
 62
4
 10
2.86352578068264
 20
4.19547325102881
 30
0.0
 11
3.03852578068264
 21
4.19547325102881
 31
0.0
  0
ARC
  8
4
  6
CONTINUOUS
 62
4
 10
3.03852578068264
 20
4.09547325102881
 30
0.0
 40
0.0999999999999997
 50
359.999999999999
 51
89.9999999999998
  0
LINE
  8
4
  6
CONTINUOUS
 62
4
 10
3.13852578068264
 20
4.09547325102881
 30
0.0
 11
3.13852578068264
 21
3.89547325102881
 31
0.0
  0
ARC
  8
4
  6
CONTINUOUS
 62
4
 10
3.03852578068264
 20
3.89547325102881
 30
0.0
 40
0.0999999999999996
 50
270
 51
1.53511459547513E-13
  0
LINE
  8
4
  6
CONTINUOUS
 62
4
 10
3.03852578068264
 20
3.79547325102881
 30
0.0
 11
2.16352578068264
 21
3.79547325102881
 31
0.0
  0
LINE
  8
4
  6
CONTINUOUS
 62
4
 10
2.16352578068264
 20
3.79547325102881
 30
0.0
 11
2.16352578068264
 21
2.44547325102881
 31
0.0
  0
LINE
  8
4
  6
CONTINUOUS
 62
4
 10
2.16352578068264
 20
2.44547325102881
 30
0.0
 11
2.26352578068264
 21
2.44547325102881
 31
0.0
  0
LINE
  8
4
  6
CONTINUOUS
 62
4
 10
2.26352578068264
 20
2.44547325102881
 30
0.0
 11
2.26352578068264
 21
3.59547325102881
 31
0.0
  0
ARC
  8
4
  6
CONTINUOUS
 62
4
 10
2.36352578068264
 20
3.59547325102881
 30
0.0
 40
0.0999999999999997
 50
89.9999999999998
 51
180
  0
LINE
  8
4
  6
CONTINUOUS
 62
4
 10
2.36352578068264
 20
3.69547325102881
 30
0.0
 11
3.03852578068264
 21
3.69547325102881
 31
0.0
  0
ARC
  8
4
  6
CONTINUOUS
 62
4
 10
3.03852578068264
 20
3.59547325102881
 30
0.0
 40
0.100000000000001
 50
359.999999999999
 51
89.9999999999998
  0
LINE
  8
4
  6
CONTINUOUS
 62
4
 10
3.13852578068264
 20
3.59547325102881
 30
0.0
 11
3.13852578068264
 21
1.67313325755772
 31
0.0
  0
ARC
  8
4
  6
CONTINUOUS
 62
4
 10
3.03852578068264
 20
0.295473251028807
 30
0.0
 40
0.100000000000001
 50
270
 51
1.53511459547513E-13
  0
LINE
  8
4
  6
CONTINUOUS
 62
4
 10
3.03852578068264
 20
0.195473251028807
 30
0.0
 11
1.98852578068264
 21
0.195473251028807
 31
0.0
  0
ARC
  8
4
  6
CONTINUOUS
 62
4
 10
1.98852578068264
 20
0.295473251028807
 30
0.0
 40
0.1
 50
180
 51
270
  0
LINE
  8
4
  6
CONTINUOUS
 62
4
 10
1.88852578068264
 20
0.295473251028807
 30
0.0
 11
1.88852578068264
 21
1.46240520637278
 31
0.0
  0
ARC
  8
4
  6
CONTINUOUS
 62
4
 10
1.25
 20
0.695473251028806
 30
0.0
 40
0.130000000000001
 50
179.999999999999
 51
359.999999999999
  0
ARC
  8
4
  6
CONTINUOUS
 62
4
 10
1.25
 20
0.695473251028808
 30
0.0
 40
0.130000000000001
 50
359.999999999999
 51
180
  0
ARC
  8
4
  6
CONTINUOUS
 62
4
 10
0.499999999995521
 20
0.695473251034644
 30
0.0
 40
0.129999999995521
 50
74.9999999974273
 51
180.000000002572
  0
ARC
  8
4
  6
CONTINUOUS
 62
4
 10
0.5
 20
0.695473251028806
 30
0.0
 40
0.13
 50
179.999999999999
 51
359.999999999999
  0
ARC
  8
4
  6
CONTINUOUS
 62
4
 10
0.500000000015214
 20
0.695473251040482
 30
0.0
 40
0.129999999984787
 50
359.999999994855
 51
75.0000000051447
  0
ARC
  8
4
  6
CONTINUOUS
 62
4
 10
0.699999999998316
 20
2.57047325102712
 30
0.0
 40
0.0249999999983167
 50
179.999999996141
 51
270.000000003858
  0
LINE
  8
4
  6
CONTINUOUS
 62
4
 10
0.7
 20
2.54547325102881
 30
0.0
 11
0.8
 21
2.54547325102881
 31
0.0
  0
ARC
  8
4
  6
CONTINUOUS
 62
4
 10
0.8
 20
2.57047325102881
 30
0.0
 40
0.0250000000000004
 50
270
 51
90
  0
LINE
  8
4
  6
CONTINUOUS
 62
4
 10
0.8
 20
2.59547325102881
 30
0.0
 11
0.7
 21
2.59547325102881
 31
0.0
  0
ARC
  8
4
  6
CONTINUOUS
 62
4
 10
0.699999999998316
 20
2.57047325103049
 30
0.0
 40
0.0249999999983167
 50
89.9999999961411
 51
180.000000003859
  0
ARC
  8
4
  6
CONTINUOUS
 62
4
 10
1.00000000000168
 20
2.57047325103049
 30
0.0
 40
0.0249999999983167
 50
359.999999996141
 51
90.0000000038585
  0
LINE
  8
4
  6
CONTINUOUS
 62
4
 10
1
 20
2.59547325102881
 30
0.0
 11
0.9
 21
2.59547325102881
 31
0.0
  0
ARC
  8
4
  6
CONTINUOUS
 62
4
 10
0.9
 20
2.57047325102881
 30
0.0
 40
0.0250000000000004
 50
90
 51
270
  0
LINE
  8
4
  6
CONTINUOUS
 62
4
 10
0.9
 20
2.54547325102881
 30
0.0
 11
1
 21
2.54547325102881
 31
0.0
  0
ARC
  8
4
  6
CONTINUOUS
 62
4
 10
1.00000000000168
 20
2.57047325102712
 30
0.0
 40
0.0249999999983167
 50
269.999999996141
 51
3.85850263403619E-9
  0
ARC
  8
4
  6
CONTINUOUS
 62
4
 10
1.20000000000168
 20
2.57047325103049
 30
0.0
 40
0.0249999999983167
 50
359.999999996141
 51
90.0000000038585
  0
LINE
  8
4
  6
CONTINUOUS
 62
4
 10
1.2
 20
2.59547325102881
 30
0.0
 11
1.1
 21
2.59547325102881
 31
0.0
  0
ARC
  8
4
  6
CONTINUOUS
 62
4
 10
1.1
 20
2.57047325102881
 30
0.0
 40
0.0250000000000004
 50
90
 51
270
  0
LINE
  8
4
  6
CONTINUOUS
 62
4
 10
1.1
 20
2.54547325102881
 30
0.0
 11
1.2
 21
2.54547325102881
 31
0.0
  0
ARC
  8
4
  6
CONTINUOUS
 62
4
 10
1.20000000000168
 20
2.57047325102712
 30
0.0
 40
0.0249999999983167
 50
269.999999996141
 51
3.85850263403619E-9
  0
ARC
  8
4
  6
CONTINUOUS
 62
4
 10
1.40000000000168
 20
2.57047325103049
 30
0.0
 40
0.0249999999983167
 50
359.999999996141
 51
90.0000000038585
  0
LINE
  8
4
  6
CONTINUOUS
 62
4
 10
1.4
 20
2.59547325102881
 30
0.0
 11
1.3
 21
2.59547325102881
 31
0.0
  0
ARC
  8
4
  6
CONTINUOUS
 62
4
 10
1.3
 20
2.57047325102881
 30
0.0
 40
0.0250000000000004
 50
90
 51
270
  0
LINE
  8
4
  6
CONTINUOUS
 62
4
 10
1.3
 20
2.54547325102881
 30
0.0
 11
1.4
 21
2.54547325102881
 31
0.0
  0
ARC
  8
4
  6
CONTINUOUS
 62
4
 10
1.40000000000168
 20
2.57047325102712
 30
0.0
 40
0.0249999999983167
 50
269.999999996141
 51
3.85850263403619E-9
  0
ARC
  8
4
  6
CONTINUOUS
 62
4
 10
1.3068897638
 20
3.19940786392881
 30
0.0
 40
0.0688976377952759
 50
179.999999999999
 51
359.999999999999
  0
ARC
  8
4
  6
CONTINUOUS
 62
4
 10
1.3068897638
 20
3.19940786392881
 30
0.0
 40
0.0688976377952759
 50
359.999999999999
 51
180
  0
ARC
  8
4
  6
CONTINUOUS
 62
4
 10
0.755708661394642
 20
3.1994078639319
 30
0.0
 40
0.068897637789918
 50
119.999999997427
 51
180.000000002572
  0
ARC
  8
4
  6
CONTINUOUS
 62
4
 10
0.7557086614
 20
3.19940786392881
 30
0.0
 40
0.0688976377952759
 50
179.999999999999
 51
359.999999999999
  0
ARC
  8
4
  6
CONTINUOUS
 62
4
 10
0.755708661403572
 20
3.19940786393499
 30
0.0
 40
0.0688976377917039
 50
359.999999994855
 51
120.000000005145
  0
ARC
  8
4
  6
CONTINUOUS
 62
4
 10
0.437500000001684
 20
3.67047325103049
 30
0.0
 40
0.0249999999983167
 50
359.999999996141
 51
90.0000000038585
  0
LINE
  8
4
  6
CONTINUOUS
 62
4
 10
0.4375
 20
3.69547325102881
 30
0.0
 11
0.3375
 21
3.69547325102881
 31
0.0
  0
ARC
  8
4
  6
CONTINUOUS
 62
4
 10
0.3375
 20
3.67047325102881
 30
0.0
 40
0.0250000000000004
 50
90
 51
270
  0
LINE
  8
4
  6
CONTINUOUS
 62
4
 10
0.3375
 20
3.64547325102881
 30
0.0
 11
0.4375
 21
3.64547325102881
 31
0.0
  0
ARC
  8
4
  6
CONTINUOUS
 62
4
 10
0.437500000001684
 20
3.67047325102712
 30
0.0
 40
0.0249999999983167
 50
269.999999996141
 51
3.85850263403619E-9
  0
ARC
  8
4
  6
CONTINUOUS
 62
4
 10
0.875
 20
4.57047325102881
 30
0.0
 40
0.124999999999999
 50
179.999999999999
 51
359.999999999999
  0
ARC
  8
4
  6
CONTINUOUS
 62
4
 10
0.875
 20
4.57047325102881
 30
0.0
 40
0.124999999999999
 50
359.999999999999
 51
180
  0
LINE
  8
4
  6
CONTINUOUS
 62
4
 10
0.625
 20
4.57047325102881
 30
0.0
 11
0.625
 21
4.84547325102881
 31
0.0
  0
ARC
  8
4
  6
CONTINUOUS
 62
4
 10
0.725
 20
4.84547325102881
 30
0.0
 40
0.100000000000001
 50
89.9999999999998
 51
180
  0
LINE
  8
4
  6
CONTINUOUS
 62
4
 10
0.725
 20
4.94547325102881
 30
0.0
 11
1.025
 21
4.94547325102881
 31
0.0
  0
ARC
  8
4
  6
CONTINUOUS
 62
4
 10
1.025
 20
4.84547325102881
 30
0.0
 40
0.100000000000001
 50
359.999999999999
 51
89.9999999999998
  0
LINE
  8
4
  6
CONTINUOUS
 62
4
 10
1.125
 20
4.84547325102881
 30
0.0
 11
1.125
 21
4.29547325102881
 31
0.0
  0
ARC
  8
4
  6
CONTINUOUS
 62
4
 10
1.225
 20
4.29547325102881
 30
0.0
 40
0.100000000000001
 50
179.999999999999
 51
269.999999999999
  0
LINE
  8
4
  6
CONTINUOUS
 62
4
 10
1.225
 20
4.19547325102881
 30
0.0
 11
1.4
 21
4.19547325102881
 31
0.0
  0
ARC
  8
4
  6
CONTINUOUS
 62
4
 10
1.4
 20
4.09547325102881
 30
0.0
 40
0.0999999999999997
 50
359.999999999999
 51
89.9999999999998
  0
LINE
  8
4
  6
CONTINUOUS
 62
4
 10
1.5
 20
4.09547325102881
 30
0.0
 11
1.5
 21
3.89547325102881
 31
0.0
  0
ARC
  8
4
  6
CONTINUOUS
 62
4
 10
1.4
 20
3.89547325102881
 30
0.0
 40
0.0999999999999996
 50
270
 51
1.53511459547513E-13
  0
LINE
  8
4
  6
CONTINUOUS
 62
4
 10
1.4
 20
3.79547325102881
 30
0.0
 11
0.525
 21
3.79547325102881
 31
0.0
  0
LINE
  8
4
  6
CONTINUOUS
 62
4
 10
0.525
 20
3.79547325102881
 30
0.0
 11
0.525
 21
2.44547325102881
 31
0.0
  0
LINE
  8
4
  6
CONTINUOUS
 62
4
 10
0.525
 20
2.44547325102881
 30
0.0
 11
0.625
 21
2.44547325102881
 31
0.0
  0
LINE
  8
4
  6
CONTINUOUS
 62
4
 10
0.625
 20
2.44547325102881
 30
0.0
 11
0.625
 21
3.59547325102881
 31
0.0
  0
ARC
  8
4
  6
CONTINUOUS
 62
4
 10
0.725
 20
3.59547325102881
 30
0.0
 40
0.0999999999999997
 50
89.9999999999998
 51
180
  0
LINE
  8
4
  6
CONTINUOUS
 62
4
 10
0.725
 20
3.69547325102881
 30
0.0
 11
1.4
 21
3.69547325102881
 31
0.0
  0
ARC
  8
4
  6
CONTINUOUS
 62
4
 10
1.4
 20
3.59547325102881
 30
0.0
 40
0.100000000000001
 50
359.999999999999
 51
89.9999999999998
  0
LINE
  8
4
  6
CONTINUOUS
 62
4
 10
1.5
 20
3.59547325102881
 30
0.0
 11
1.5
 21
1.94995338552005
 31
0.0
  0
ARC
  8
4
  6
CONTINUOUS
 62
4
 10
1.4
 20
0.295473251028807
 30
0.0
 40
0.100000000000001
 50
270
 51
1.53511459547513E-13
  0
LINE
  8
4
  6
CONTINUOUS
 62
4
 10
1.4
 20
0.195473251028807
 30
0.0
 11
0.35
 21
0.195473251028807
 31
0.0
  0
ARC
  8
4
  6
CONTINUOUS
 62
4
 10
0.35
 20
0.295473251028807
 30
0.0
 40
0.1
 50
180
 51
270
  0
LINE
  8
4
  6
CONTINUOUS
 62
4
 10
0.25
 20
0.295473251028807
 30
0.0
 11
0.25
 21
1.60389104955353
 31
0.0
  0
ARC
  8
4
  6
CONTINUOUS
 62
4
 10
0.35
 20
4.09547325102881
 30
0.0
 40
0.1
 50
89.9999999999999
 51
180
  0
LINE
  8
4
  6
CONTINUOUS
 62
4
 10
0.35
 20
4.19547325102881
 30
0.0
 11
0.525
 21
4.19547325102881
 31
0.0
  0
ARC
  8
4
  6
CONTINUOUS
 62
4
 10
0.525000000000001
 20
4.29547325102881
 30
0.0
 40
0.100000000000001
 50
269.999999999999
 51
359.999999999999
  0
LINE
  8
4
  6
CONTINUOUS
 62
4
 10
0.625
 20
4.29547325102881
 30
0.0
 11
0.625
 21
4.57047325102881
 31
0.0
  0
LINE
  8
4
  6
CONTINUOUS
 62
4
 10
0.25
 20
1.60389104955353
 30
0.0
 11
0.19884168150705
 21
1.61028583936515
 31
0.0
  0
LINE
  8
4
  6
CONTINUOUS
 62
4
 10
0.25
 20
1.70389104955353
 30
0.0
 11
0.19884168150705
 21
1.69749625974191
 31
0.0
  0
LINE
  8
4
  6
CONTINUOUS
 62
4
 10
0.25
 20
1.70389104955353
 30
0.0
 11
0.25
 21
4.09547325102881
 31
0.0
  0
LINE
  8
4
  6
CONTINUOUS
 62
4
 10
1.5
 20
1.94995338552005
 30
0.0
 11
1.55115831849295
 21
1.94355859570843
 31
0.0
  0
LINE
  8
4
  6
CONTINUOUS
 62
4
 10
1.5
 20
1.84995338552005
 30
0.0
 11
1.55115831849295
 21
1.85634817533167
 31
0.0
  0
LINE
  8
4
  6
CONTINUOUS
 62
4
 10
1.5
 20
1.84995338552005
 30
0.0
 11
1.5
 21
0.295473251028807
 31
0.0
  0
LINE
  8
4
  6
CONTINUOUS
 62
4
 10
1.88852578068264
 20
1.46240520637278
 30
0.0
 11
1.83736746218969
 21
1.4687999961844
 31
0.0
  0
LINE
  8
4
  6
CONTINUOUS
 62
4
 10
1.88852578068264
 20
1.56240520637278
 30
0.0
 11
1.83736746218969
 21
1.55601041656117
 31
0.0
  0
LINE
  8
4
  6
CONTINUOUS
 62
4
 10
1.88852578068264
 20
1.56240520637278
 30
0.0
 11
1.88852578068264
 21
2.19547325102881
 31
0.0
  0
LINE
  8
4
  6
CONTINUOUS
 62
4
 10
3.13852578068264
 20
1.67313325755772
 30
0.0
 11
3.18968409917559
 21
1.6667384677461
 31
0.0
  0
LINE
  8
4
  6
CONTINUOUS
 62
4
 10
3.13852578068264
 20
1.57313325755772
 30
0.0
 11
3.18968409917559
 21
1.57952804736934
 31
0.0
  0
LINE
  8
4
  6
CONTINUOUS
 62
4
 10
3.13852578068264
 20
1.57313325755772
 30
0.0
 11
3.13852578068264
 21
0.295473251028807
 31
0.0
  0
LINE
  8
4
  6
CONTINUOUS
 62
4
 10
3.83741648142503
 20
2.20176712660373
 30
0.0
 11
3.84381127123665
 21
2.25292544509668
 31
0.0
  0
LINE
  8
4
  6
CONTINUOUS
 62
4
 10
3.93741648142503
 20
2.20176712660373
 30
0.0
 11
3.93102169161341
 21
2.25292544509668
 31
0.0
  0
LINE
  8
4
  6
CONTINUOUS
 62
4
 10
3.93741648142503
 20
2.20176712660373
 30
0.0
 11
4.52702735415154
 21
2.20176712660373
 31
0.0
  0
LINE
  8
4
  6
CONTINUOUS
 62
4
 10
4.01738674061415
 20
1.70176712660373
 30
0.0
 11
4.01099195080253
 21
1.65060880811078
 31
0.0
  0
LINE
  8
4
  6
CONTINUOUS
 62
4
 10
3.91738674061415
 20
1.70176712660373
 30
0.0
 11
3.92378153042577
 21
1.65060880811078
 31
0.0
  0
LINE
  8
4
  6
CONTINUOUS
 62
4
 10
3.91738674061415
 20
1.70176712660373
 30
0.0
 11
3.47702735415154
 21
1.70176712660373
 31
0.0
  0
LINE
  8
4
  6
CONTINUOUS
 62
4
 10
3.73899154703843
 20
1.44862018881627
 30
0.0
 11
3.74538633685005
 21
1.49977850730922
 31
0.0
  0
LINE
  8
4
  6
CONTINUOUS
 62
4
 10
3.83899154703843
 20
1.44862018881627
 30
0.0
 11
3.83259675722681
 21
1.49977850730922
 31
0.0
  0
LINE
  8
4
  6
CONTINUOUS
 62
4
 10
3.83899154703843
 20
1.44862018881627
 30
0.0
 11
4.53277656741709
 21
1.44862018881627
 31
0.0
  0
LINE
  8
4
  6
CONTINUOUS
 62
4
 10
4.28805531017732
 20
0.948620188816268
 30
0.0
 11
4.2816605203657
 21
0.897461870323318
 31
0.0
  0
LINE
  8
4
  6
CONTINUOUS
 62
4
 10
4.18805531017732
 20
0.948620188816268
 30
0.0
 11
4.19445009998894
 21
0.897461870323318
 31
0.0
  0
LINE
  8
4
  6
CONTINUOUS
 62
4
 10
4.18805531017732
 20
0.948620188816268
 30
0.0
 11
3.48277656741709
 21
0.948620188816268
 31
0.0
  0
LINE
  8
4
  6
CONTINUOUS
 62
4
 10
3.96044764940829
 20
0.695473251028807
 30
0.0
 11
3.96684243921991
 21
0.746631569521757
 31
0.0
  0
LINE
  8
4
  6
CONTINUOUS
 62
4
 10
4.06044764940829
 20
0.695473251028807
 30
0.0
 11
4.05405285959667
 21
0.746631569521757
 31
0.0
  0
LINE
  8
4
  6
CONTINUOUS
 62
4
 10
4.06044764940829
 20
0.695473251028807
 30
0.0
 11
4.53852578068265
 21
0.695473251028807
 31
0.0
  0
LINE
  8
4
  6
CONTINUOUS
 62
4
 10
4.17732725899239
 20
0.195473251028807
 30
0.0
 11
4.17093246918077
 21
0.144314932535857
 31
0.0
  0
LINE
  8
4
  6
CONTINUOUS
 62
4
 10
4.07732725899239
 20
0.195473251028807
 30
0.0
 11
4.08372204880401
 21
0.144314932535857
 31
0.0
  0
LINE
  8
4
  6
CONTINUOUS
 62
4
 10
4.07732725899239
 20
0.195473251028807
 30
0.0
 11
3.48852578068264
 21
0.195473251028807
 31
0.0
  0
LINE
  8
4
  6
CONTINUOUS
 62
4
 10
4.2080850509882
 20
2.45491406439119
 30
0.0
 11
4.20169026117658
 21
2.40375574589824
 31
0.0
  0
LINE
  8
4
  6
CONTINUOUS
 62
4
 10
4.1080850509882
 20
2.45491406439119
 30
0.0
 11
4.11447984079982
 21
2.40375574589824
 31
0.0
  0
LINE
  8
4
  6
CONTINUOUS
 62
4
 10
4.1080850509882
 20
2.45491406439119
 30
0.0
 11
3.47127814088599
 21
2.45491406439119
 31
0.0
  0
LINE
  8
4
  6
CONTINUOUS
 62
4
 10
3.99735699980327
 20
2.95491406439119
 30
0.0
 11
4.00375178961489
 21
3.00607238288414
 31
0.0
  0
LINE
  8
4
  6
CONTINUOUS
 62
4
 10
4.09735699980327
 20
2.95491406439119
 30
0.0
 11
4.09096220999165
 21
3.00607238288414
 31
0.0
  0
LINE
  8
4
  6
CONTINUOUS
 62
4
 10
4.09735699980327
 20
2.95491406439119
 30
0.0
 11
4.52127814088599
 21
2.95491406439119
 31
0.0
  0
LINE
  8
4
  6
CONTINUOUS
 62
4
 10
3.91281024782838
 20
3.46195076098432
 30
0.0
 11
3.90641545801676
 21
3.41079244249137
 31
0.0
  0
LINE
  8
4
  6
CONTINUOUS
 62
4
 10
3.81281024782838
 20
3.46195076098432
 30
0.0
 11
3.81920503764
 21
3.41079244249137
 31
0.0
  0
LINE
  8
4
  6
CONTINUOUS
 62
4
 10
3.81281024782838
 20
3.46195076098432
 30
0.0
 11
3.49590363204182
 21
3.46195076098432
 31
0.0
  0
LINE
  8
4
  6
CONTINUOUS
 62
4
 10
4.23111621897146
 20
3.96195076098432
 30
0.0
 11
4.23751100878308
 21
4.01310907947727
 31
0.0
  0
LINE
  8
4
  6
CONTINUOUS
 62
4
 10
4.33111621897146
 20
3.96195076098432
 30
0.0
 11
4.32472142915984
 21
4.01310907947727
 31
0.0
  0
LINE
  8
4
  6
CONTINUOUS
 62
4
 10
4.33111621897146
 20
3.96195076098432
 30
0.0
 11
4.54590363204182
 21
3.96195076098432
 31
0.0
  0
LINE
  8
4
  6
CONTINUOUS
 62
4
 10
3.75902128784931
 20
4.32316893686713
 30
0.0
 11
3.75262649803769
 21
4.27201061837417
 31
0.0
  0
LINE
  8
4
  6
CONTINUOUS
 62
4
 10
3.65902128784931
 20
4.32316893686713
 30
0.0
 11
3.66541607766093
 21
4.27201061837417
 31
0.0
  0
LINE
  8
4
  6
CONTINUOUS
 62
4
 10
3.65902128784931
 20
4.32316893686713
 30
0.0
 11
3.49590363204182
 21
4.32316893686713
 31
0.0
  0
LINE
  8
4
  6
CONTINUOUS
 62
4
 10
4.02811479179908
 20
4.82316893686713
 30
0.0
 11
4.0345095816107
 21
4.87432725536008
 31
0.0
  0
LINE
  8
4
  6
CONTINUOUS
 62
4
 10
4.12811479179908
 20
4.82316893686713
 30
0.0
 11
4.12172000198747
 21
4.87432725536008
 31
0.0
  0
LINE
  8
4
  6
CONTINUOUS
 62
4
 10
4.12811479179908
 20
4.82316893686713
 30
0.0
 11
4.54590363204182
 21
4.82316893686713
 31
0.0
  0
LINE
  8
4
  6
CONTINUOUS
 62
4
 10
5.90002420721375
 20
3.42632740131914
 30
0.0
 11
5.9511825257067
 21
3.41993261150753
 31
0.0
  0
LINE
  8
4
  6
CONTINUOUS
 62
4
 10
5.90002420721375
 20
3.32632740131914
 30
0.0
 11
5.95118252570671
 21
3.33272219113077
 31
0.0
  0
LINE
  8
4
  6
CONTINUOUS
 62
4
 10
5.90002420721375
 20
3.32632740131914
 30
0.0
 11
5.90002420721375
 21
2.50647542967804
 31
0.0
  0
LINE
  8
4
  6
CONTINUOUS
 62
4
 10
4.90002420721375
 20
3.04335571495765
 30
0.0
 11
4.8488658887208
 21
3.04975050476928
 31
0.0
  0
LINE
  8
4
  6
CONTINUOUS
 62
4
 10
4.90002420721375
 20
3.14335571495765
 30
0.0
 11
4.84886588872081
 21
3.13696092514604
 31
0.0
  0
LINE
  8
4
  6
CONTINUOUS
 62
4
 10
4.90002420721375
 20
3.14335571495765
 30
0.0
 11
4.90002420721375
 21
3.55647542967804
 31
0.0
  0
LINE
  8
4
  6
CONTINUOUS
 62
4
 10
4.88852578068265
 20
1.48701143996944
 30
0.0
 11
4.8373674621897
 21
1.49340622978105
 31
0.0
  0
LINE
  8
4
  6
CONTINUOUS
 62
4
 10
4.88852578068265
 20
1.58701143996944
 30
0.0
 11
4.8373674621897
 21
1.58061665015782
 31
0.0
  0
LINE
  8
4
  6
CONTINUOUS
 62
4
 10
4.88852578068265
 20
1.58701143996944
 30
0.0
 11
4.88852578068265
 21
1.74547325102881
 31
0.0
  0
LINE
  8
4
  6
CONTINUOUS
 62
4
 10
5.88852578068265
 20
1.10718988483473
 30
0.0
 11
5.9396840991756
 21
1.10079509502311
 31
0.0
  0
LINE
  8
4
  6
CONTINUOUS
 62
4
 10
5.88852578068265
 20
1.00718988483473
 30
0.0
 11
5.9396840991756
 21
1.01358467464635
 31
0.0
  0
LINE
  8
4
  6
CONTINUOUS
 62
4
 10
5.88852578068265
 20
1.00718988483473
 30
0.0
 11
5.88852578068265
 21
0.695473251028807
 31
0.0
  0
LINE
  8
4
  6
CONTINUOUS
 62
4
 10
6.22234325829097
 20
1.29016157119623
 30
0.0
 11
6.17118493979803
 21
1.29655636100784
 31
0.0
  0
LINE
  8
4
  6
CONTINUOUS
 62
4
 10
6.22234325829097
 20
1.39016157119623
 30
0.0
 11
6.17118493979802
 21
1.3837667813846
 31
0.0
  0
LINE
  8
4
  6
CONTINUOUS
 62
4
 10
6.22234325829097
 20
1.39016157119623
 30
0.0
 11
6.22234325829097
 21
1.74547325102881
 31
0.0
  0
LINE
  8
4
  6
CONTINUOUS
 62
4
 10
7.22234325829097
 20
1.44552559678869
 30
0.0
 11
7.27350157678392
 21
1.43913080697707
 31
0.0
  0
LINE
  8
4
  6
CONTINUOUS
 62
4
 10
7.22234325829097
 20
1.34552559678869
 30
0.0
 11
7.27350157678393
 21
1.35192038660031
 31
0.0
  0
LINE
  8
4
  6
CONTINUOUS
 62
4
 10
7.22234325829097
 20
1.34552559678869
 30
0.0
 11
7.22234325829097
 21
0.695473251028807
 31
0.0
  0
LINE
  8
4
  6
CONTINUOUS
 62
4
 10
6.23384168482208
 20
2.71117156140286
 30
0.0
 11
6.18268336632913
 21
2.71756635121448
 31
0.0
  0
LINE
  8
4
  6
CONTINUOUS
 62
4
 10
6.23384168482208
 20
2.81117156140286
 30
0.0
 11
6.18268336632913
 21
2.80477677159124
 31
0.0
  0
LINE
  8
4
  6
CONTINUOUS
 62
4
 10
6.23384168482208
 20
2.81117156140286
 30
0.0
 11
6.23384168482208
 21
3.03147542967804
 31
0.0
  0
LINE
  8
4
  6
CONTINUOUS
 62
4
 10
7.23384168482208
 20
3.15565883175598
 30
0.0
 11
7.28500000331503
 21
3.14926404194436
 31
0.0
  0
LINE
  8
4
  6
CONTINUOUS
 62
4
 10
7.23384168482208
 20
3.05565883175598
 30
0.0
 11
7.28500000331503
 21
3.0620536215676
 31
0.0
  0
LINE
  8
4
  6
CONTINUOUS
 62
4
 10
7.23384168482208
 20
3.05565883175598
 30
0.0
 11
7.23384168482208
 21
2.50647542967804
 31
0.0
  0
LINE
  8
4
  6
CONTINUOUS
 62
4
 10
7.57157814010351
 20
2.87111207978109
 30
0.0
 11
7.52041982161056
 21
2.87750686959271
 31
0.0
  0
LINE
  8
4
  6
CONTINUOUS
 62
4
 10
7.57157814010351
 20
2.97111207978109
 30
0.0
 11
7.52041982161057
 21
2.96471728996948
 31
0.0
  0
LINE
  8
4
  6
CONTINUOUS
 62
4
 10
7.57157814010351
 20
2.97111207978109
 30
0.0
 11
7.57157814010351
 21
3.56753122029531
 31
0.0
  0
LINE
  8
4
  6
CONTINUOUS
 62
4
 10
8.57157814010351
 20
2.99571831337775
 30
0.0
 11
8.62273645859646
 21
2.98932352356613
 31
0.0
  0
LINE
  8
4
  6
CONTINUOUS
 62
4
 10
8.57157814010351
 20
2.89571831337775
 30
0.0
 11
8.62273645859646
 21
2.90211310318936
 31
0.0
  0
LINE
  8
4
  6
CONTINUOUS
 62
4
 10
8.57157814010351
 20
2.89571831337775
 30
0.0
 11
8.57157814010351
 21
2.51753122029531
 31
0.0
  0
LINE
  8
4
  6
CONTINUOUS
 62
4
 10
8.56007971357241
 20
1.35940377920041
 30
0.0
 11
8.61123803206536
 21
1.35300898938879
 31
0.0
  0
LINE
  8
4
  6
CONTINUOUS
 62
4
 10
8.56007971357241
 20
1.25940377920041
 30
0.0
 11
8.61123803206535
 21
1.26579856901203
 31
0.0
  0
LINE
  8
4
  6
CONTINUOUS
 62
4
 10
8.56007971357241
 20
1.25940377920041
 30
0.0
 11
8.56007971357241
 21
0.706529041646074
 31
0.0
  0
LINE
  8
4
  6
CONTINUOUS
 62
4
 10
7.56007971357241
 20
0.90261339204896
 30
0.0
 11
7.50892139507946
 21
0.909008181860578
 31
0.0
  0
LINE
  8
4
  6
CONTINUOUS
 62
4
 10
7.56007971357241
 20
1.00261339204896
 30
0.0
 11
7.50892139507946
 21
0.99621860223734
 31
0.0
  0
LINE
  8
4
  6
CONTINUOUS
 62
4
 10
7.56007971357241
 20
1.00261339204896
 30
0.0
 11
7.56007971357241
 21
1.23152904164607
 31
0.0
  0
LINE
  8
9
  6
CONTINUOUS
 62
9
 10
8.07708746615489
 20
2.6661830967873
 30
0.0
 11
8.10522461596684
 21
2.79310157771289
 31
0.0
  0
LINE
  8
9
  6
CONTINUOUS
 62
9
 10
8.10522461596684
 20
2.79310157771289
 30
0.0
 11
8.09018932599163
 21
2.74541573017548
 31
0.0
  0
LINE
  8
9
  6
CONTINUOUS
 62
9
 10
8.2601126926613
 20
3.41756453253995
 30
0.0
 11
8.25858601410351
 21
3.45253122029531
 31
0.0
  0
LINE
  8
9
  6
CONTINUOUS
 62
9
 10
8.25858601410351
 20
3.45253122029531
 30
0.0
 11
8.25705933554573
 21
3.41756453253995
 31
0.0
  0
LINE
  8
9
  6
CONTINUOUS
 62
9
 10
7.88383577607473
 20
3.41619242175854
 30
0.0
 11
7.91488115523597
 21
3.40003122029531
 31
0.0
  0
LINE
  8
9
  6
CONTINUOUS
 62
9
 10
7.91488115523597
 20
3.40003122029531
 30
0.0
 11
7.88536245463252
 21
3.41883670658745
 31
0.0
  0
LINE
  8
9
  6
CONTINUOUS
 62
9
 10
8.06503523199871
 20
3.81738845353259
 30
0.0
 11
8.07157814010351
 21
3.66753122029531
 31
0.0
  0
LINE
  8
9
  6
CONTINUOUS
 62
9
 10
8.07157814010351
 20
3.66753122029531
 30
0.0
 11
8.07375910947178
 21
3.7174836313744
 31
0.0
  0
LINE
  8
9
  6
CONTINUOUS
 62
9
 10
8.24745054390149
 20
1.60801232173683
 30
0.0
 11
8.21328018365229
 21
1.61558770822466
 31
0.0
  0
LINE
  8
9
  6
CONTINUOUS
 62
9
 10
8.21328018365229
 20
1.61558770822466
 30
0.0
 11
8.24666027692848
 21
1.60506300524201
 31
0.0
  0
LINE
  8
9
  6
CONTINUOUS
 62
9
 10
8.06552499164463
 20
0.858116195466385
 30
0.0
 11
8.02643323770908
 21
0.982099399063654
 31
0.0
  0
LINE
  8
9
  6
CONTINUOUS
 62
9
 10
8.02643323770908
 20
0.982099399063654
 30
0.0
 11
8.03725521840598
 21
0.933284598707657
 31
0.0
  0
LINE
  8
9
  6
CONTINUOUS
 62
9
 10
7.87412780901923
 20
1.60763212172105
 30
0.0
 11
7.84832310223088
 21
1.6312777789876
 31
0.0
  0
LINE
  8
9
  6
CONTINUOUS
 62
9
 10
7.84832310223088
 20
1.6312777789876
 30
0.0
 11
7.87196875949743
 21
1.60547307219925
 31
0.0
  0
LINE
  8
9
  6
CONTINUOUS
 62
9
 10
7.41022248033513
 20
1.22498613354127
 30
0.0
 11
7.56007971357241
 21
1.23152904164607
 31
0.0
  0
LINE
  8
9
  6
CONTINUOUS
 62
9
 10
7.56007971357241
 20
1.23152904164607
 30
0.0
 11
7.51012730249331
 21
1.23371001101434
 31
0.0
  0
LINE
  8
9
  6
CONTINUOUS
 62
9
 10
6.72785258434235
 20
0.844125127520795
 30
0.0
 11
6.7559897341543
 21
0.971043608446386
 31
0.0
  0
LINE
  8
9
  6
CONTINUOUS
 62
9
 10
6.7559897341543
 20
0.971043608446386
 30
0.0
 11
6.74095444417909
 21
0.923357760908974
 31
0.0
  0
LINE
  8
9
  6
CONTINUOUS
 62
9
 10
6.91087781084876
 20
1.59550656327344
 30
0.0
 11
6.90935113229097
 21
1.63047325102881
 31
0.0
  0
LINE
  8
9
  6
CONTINUOUS
 62
9
 10
6.90935113229097
 20
1.63047325102881
 30
0.0
 11
6.90782445373319
 21
1.59550656327344
 31
0.0
  0
LINE
  8
9
  6
CONTINUOUS
 62
9
 10
6.53402989799884
 20
1.5946810624998
 30
0.0
 11
6.55283538429098
 21
1.56516236189635
 31
0.0
  0
LINE
  8
9
  6
CONTINUOUS
 62
9
 10
6.55283538429098
 20
1.56516236189635
 30
0.0
 11
6.53667418282775
 21
1.59620774105759
 31
0.0
  0
LINE
  8
9
  6
CONTINUOUS
 62
9
 10
7.29439246754857
 20
1.92677552966901
 30
0.0
 11
7.1930539364087
 21
1.81618392914522
 31
0.0
  0
LINE
  8
9
  6
CONTINUOUS
 62
9
 10
7.1930539364087
 20
1.81618392914522
 30
0.0
 11
7.22991780324845
 21
1.84996343952683
 31
0.0
  0
LINE
  8
9
  6
CONTINUOUS
 62
9
 10
6.73935101087346
 20
2.65512730617003
 30
0.0
 11
6.76748816068541
 21
2.78204578709562
 31
0.0
  0
LINE
  8
9
  6
CONTINUOUS
 62
9
 10
6.76748816068541
 20
2.78204578709562
 30
0.0
 11
6.75245287071019
 21
2.73435993955821
 31
0.0
  0
LINE
  8
9
  6
CONTINUOUS
 62
9
 10
6.92237623737987
 20
3.40650874192268
 30
0.0
 11
6.92084955882208
 21
3.44147542967805
 31
0.0
  0
LINE
  8
9
  6
CONTINUOUS
 62
9
 10
6.92084955882208
 20
3.44147542967805
 30
0.0
 11
6.91932288026429
 21
3.40650874192268
 31
0.0
  0
LINE
  8
9
  6
CONTINUOUS
 62
9
 10
6.54788978026891
 20
3.40757850975303
 30
0.0
 11
6.52208507348055
 21
3.43122416701957
 31
0.0
  0
LINE
  8
9
  6
CONTINUOUS
 62
9
 10
6.52208507348055
 20
3.43122416701957
 30
0.0
 11
6.5457307307471
 21
3.40541946023122
 31
0.0
  0
LINE
  8
9
  6
CONTINUOUS
 62
9
 10
6.0839844515848
 20
3.02493252157324
 30
0.0
 11
6.23384168482208
 21
3.03147542967804
 31
0.0
  0
LINE
  8
9
  6
CONTINUOUS
 62
9
 10
6.23384168482208
 20
3.03147542967804
 30
0.0
 11
6.18388927374299
 21
3.03365639904631
 31
0.0
  0
LINE
  8
9
  6
CONTINUOUS
 62
9
 10
5.58739503754283
 20
3.4079587097688
 30
0.0
 11
5.55322467729364
 21
3.41553409625663
 31
0.0
  0
LINE
  8
9
  6
CONTINUOUS
 62
9
 10
5.55322467729364
 20
3.41553409625663
 30
0.0
 11
5.58660477056982
 21
3.40500939327398
 31
0.0
  0
LINE
  8
9
  6
CONTINUOUS
 62
9
 10
5.40546948528598
 20
2.65806258349835
 30
0.0
 11
5.36637773135043
 21
2.78204578709562
 31
0.0
  0
LINE
  8
9
  6
CONTINUOUS
 62
9
 10
5.36637773135043
 20
2.78204578709562
 30
0.0
 11
5.37719971204733
 21
2.73323098673963
 31
0.0
  0
LINE
  8
9
  6
CONTINUOUS
 62
9
 10
5.21228184318497
 20
3.40513663114127
 30
0.0
 11
5.24332722234621
 21
3.38897542967804
 31
0.0
  0
LINE
  8
9
  6
CONTINUOUS
 62
9
 10
5.24332722234621
 20
3.38897542967804
 30
0.0
 11
5.21380852174276
 21
3.40778091597018
 31
0.0
  0
LINE
  8
9
  6
CONTINUOUS
 62
9
 10
5.39348129910895
 20
3.80633266291532
 30
0.0
 11
5.40002420721375
 21
3.65647542967805
 31
0.0
  0
LINE
  8
9
  6
CONTINUOUS
 62
9
 10
5.40002420721375
 20
3.65647542967805
 30
0.0
 11
5.40220517658202
 21
3.70642784075714
 31
0.0
  0
LINE
  8
9
  6
CONTINUOUS
 62
9
 10
5.39403510673402
 20
0.844125127520795
 30
0.0
 11
5.42217225654597
 21
0.971043608446386
 31
0.0
  0
LINE
  8
9
  6
CONTINUOUS
 62
9
 10
5.42217225654597
 20
0.971043608446386
 30
0.0
 11
5.40713696657076
 21
0.923357760908974
 31
0.0
  0
LINE
  8
9
  6
CONTINUOUS
 62
9
 10
5.57706033324043
 20
1.59550656327344
 30
0.0
 11
5.57553365468265
 21
1.63047325102881
 31
0.0
  0
LINE
  8
9
  6
CONTINUOUS
 62
9
 10
5.57553365468265
 20
1.63047325102881
 30
0.0
 11
5.57400697612486
 21
1.59550656327344
 31
0.0
  0
LINE
  8
9
  6
CONTINUOUS
 62
9
 10
5.20188086301173
 20
1.59695653111956
 30
0.0
 11
5.16771050276253
 21
1.6045319176074
 31
0.0
  0
LINE
  8
9
  6
CONTINUOUS
 62
9
 10
5.16771050276253
 20
1.6045319176074
 30
0.0
 11
5.20109059603872
 21
1.59400721462475
 31
0.0
  0
LINE
  8
9
  6
CONTINUOUS
 62
9
 10
4.81647657143871
 20
0.514170972388483
 30
0.0
 11
4.91781510256864
 21
0.624762572921376
 31
0.0
  0
LINE
  8
9
  6
CONTINUOUS
 62
9
 10
4.91781510256864
 20
0.624762572921376
 30
0.0
 11
4.88095123573193
 21
0.590983062536456
 31
0.0
  0
LINE
  8
9
  6
CONTINUOUS
 62
9
 10
3.76830720402827
 20
0.442850072354584
 30
0.0
 11
3.82602578068264
 21
0.553726426501861
 31
0.0
  0
LINE
  8
9
  6
CONTINUOUS
 62
9
 10
3.82602578068264
 20
0.553726426501861
 30
0.0
 11
3.7991608002653
 21
0.511556854211217
 31
0.0
  0
LINE
  8
9
  6
CONTINUOUS
 62
9
 10
3.30722350204244
 20
0.767522460286398
 30
0.0
 11
3.41781510256624
 21
0.666183929146531
 31
0.0
  0
LINE
  8
9
  6
CONTINUOUS
 62
9
 10
3.41781510256624
 20
0.666183929146531
 30
0.0
 11
3.38403559218462
 21
0.703047795986279
 31
0.0
  0
LINE
  8
9
  6
CONTINUOUS
 62
9
 10
3.76255799076271
 20
1.19599701014205
 30
0.0
 11
3.82027656741709
 21
1.30687336428932
 31
0.0
  0
LINE
  8
9
  6
CONTINUOUS
 62
9
 10
3.82027656741709
 20
1.30687336428932
 30
0.0
 11
3.79341158699975
 21
1.26470379199868
 31
0.0
  0
LINE
  8
9
  6
CONTINUOUS
 62
9
 10
3.30147428877689
 20
1.52066939807386
 30
0.0
 11
3.41206588930068
 21
1.41933086693399
 31
0.0
  0
LINE
  8
9
  6
CONTINUOUS
 62
9
 10
3.41206588930068
 20
1.41933086693399
 30
0.0
 11
3.37828637891907
 21
1.45619473377374
 31
0.0
  0
LINE
  8
9
  6
CONTINUOUS
 62
9
 10
3.75680877749716
 20
1.94914394792951
 30
0.0
 11
3.81452735415154
 21
2.06002030207678
 31
0.0
  0
LINE
  8
9
  6
CONTINUOUS
 62
9
 10
3.81452735415154
 20
2.06002030207678
 30
0.0
 11
3.7876623737342
 21
2.01785072978614
 31
0.0
  0
LINE
  8
9
  6
CONTINUOUS
 62
9
 10
3.29572507551134
 20
2.27381633586132
 30
0.0
 11
3.40631667603513
 21
2.17247780472145
 31
0.0
  0
LINE
  8
9
  6
CONTINUOUS
 62
9
 10
3.40631667603513
 20
2.17247780472145
 30
0.0
 11
3.37253716565352
 21
2.2093416715612
 31
0.0
  0
LINE
  8
9
  6
CONTINUOUS
 62
9
 10
3.75105956423161
 20
2.70229088571697
 30
0.0
 11
3.80877814088599
 21
2.81316723986424
 31
0.0
  0
LINE
  8
9
  6
CONTINUOUS
 62
9
 10
3.80877814088599
 20
2.81316723986424
 30
0.0
 11
3.78191316046864
 21
2.7709976675736
 31
0.0
  0
LINE
  8
9
  6
CONTINUOUS
 62
9
 10
3.28997586224578
 20
3.02696327364878
 30
0.0
 11
3.40056746276958
 21
2.92562474250891
 31
0.0
  0
LINE
  8
9
  6
CONTINUOUS
 62
9
 10
3.40056746276958
 20
2.92562474250891
 30
0.0
 11
3.36678795238797
 21
2.96248860934866
 31
0.0
  0
LINE
  8
9
  6
CONTINUOUS
 62
9
 10
4.39577990084746
 20
3.71762128134181
 30
0.0
 11
4.26590363204182
 21
3.71195076098432
 31
0.0
  0
LINE
  8
9
  6
CONTINUOUS
 62
9
 10
4.26590363204182
 20
3.71195076098432
 30
0.0
 11
4.31585604312091
 21
3.70976979161605
 31
0.0
  0
LINE
  8
9
  6
CONTINUOUS
 62
9
 10
3.65000078660604
 20
3.70802858875325
 30
0.0
 11
3.73782751359607
 21
3.80387464253857
 31
0.0
  0
LINE
  8
9
  6
CONTINUOUS
 62
9
 10
3.73782751359607
 20
3.80387464253857
 30
0.0
 11
3.70096364675557
 21
3.77009513215779
 31
0.0
  0
LINE
  8
9
  6
CONTINUOUS
 62
9
 10
4.01436072393702
 20
4.1118079942216
 30
0.0
 11
4.02090363204182
 21
3.96195076098432
 31
0.0
  0
LINE
  8
9
  6
CONTINUOUS
 62
9
 10
4.02090363204182
 20
3.96195076098432
 30
0.0
 11
4.02308460141009
 21
4.01190317206341
 31
0.0
  0
LINE
  8
9
  6
CONTINUOUS
 62
9
 10
4.39577990084746
 20
4.57883945722462
 30
0.0
 11
4.26590363204182
 21
4.57316893686713
 31
0.0
  0
LINE
  8
9
  6
CONTINUOUS
 62
9
 10
4.26590363204182
 20
4.57316893686713
 30
0.0
 11
4.31585604312091
 21
4.57098796749886
 31
0.0
  0
LINE
  8
9
  6
CONTINUOUS
 62
9
 10
3.6418064774776
 20
4.57709110909819
 30
0.0
 11
3.55397975048757
 21
4.48124505531287
 31
0.0
  0
LINE
  8
9
  6
CONTINUOUS
 62
9
 10
3.55397975048757
 20
4.48124505531287
 30
0.0
 11
3.59084361732807
 21
4.51502456569366
 31
0.0
  0
LINE
  8
9
  6
CONTINUOUS
 62
9
 10
3.32385442279788
 20
4.2418666582268
 30
0.0
 11
3.42519295392781
 21
4.35245825875969
 31
0.0
  0
LINE
  8
9
  6
CONTINUOUS
 62
9
 10
3.42519295392781
 20
4.35245825875969
 30
0.0
 11
3.3883290870911
 21
4.31867874837477
 31
0.0
  0
LINE
  8
9
  6
CONTINUOUS
 62
9
 10
2.50807335726198
 20
4.57035427872654
 30
0.0
 11
2.51352578068264
 21
4.44547325102881
 31
0.0
  0
LINE
  8
9
  6
CONTINUOUS
 62
9
 10
2.51352578068264
 20
4.44547325102881
 30
0.0
 11
2.51570675005091
 21
4.4954256621079
 31
0.0
  0
LINE
  8
9
  6
CONTINUOUS
 62
9
 10
2.88840204948829
 20
0.701143771386301
 30
0.0
 11
2.75852578068264
 21
0.695473251028807
 31
0.0
  0
LINE
  8
9
  6
CONTINUOUS
 62
9
 10
2.75852578068264
 20
0.695473251028807
 30
0.0
 11
2.80847819176174
 21
0.69329228166054
 31
0.0
  0
LINE
  8
9
  6
CONTINUOUS
 62
9
 10
2.14403510673402
 20
0.694125127520794
 30
0.0
 11
2.17217225654597
 21
0.821043608446386
 31
0.0
  0
LINE
  8
9
  6
CONTINUOUS
 62
9
 10
2.17217225654597
 20
0.821043608446386
 30
0.0
 11
2.15713696657076
 21
0.773357760908974
 31
0.0
  0
LINE
  8
9
  6
CONTINUOUS
 62
9
 10
2.3884391824717
 20
2.5737440407874
 30
0.0
 11
2.31352578068264
 21
2.57047325102881
 31
0.0
  0
LINE
  8
9
  6
CONTINUOUS
 62
9
 10
2.31352578068264
 20
2.57047325102881
 30
0.0
 11
2.36347819176174
 21
2.56829228166054
 31
0.0
  0
LINE
  8
9
  6
CONTINUOUS
 62
9
 10
2.58861237889359
 20
2.56720246127021
 30
0.0
 11
2.66352578068264
 21
2.57047325102881
 31
0.0
  0
LINE
  8
9
  6
CONTINUOUS
 62
9
 10
2.66352578068264
 20
2.57047325102881
 30
0.0
 11
2.61357336960355
 21
2.57265422039707
 31
0.0
  0
LINE
  8
9
  6
CONTINUOUS
 62
9
 10
2.78861237889359
 20
2.56720246127021
 30
0.0
 11
2.86352578068264
 21
2.57047325102881
 31
0.0
  0
LINE
  8
9
  6
CONTINUOUS
 62
9
 10
2.86352578068264
 20
2.57047325102881
 30
0.0
 11
2.81357336960355
 21
2.57265422039707
 31
0.0
  0
LINE
  8
9
  6
CONTINUOUS
 62
9
 10
2.98861237889359
 20
2.56720246127021
 30
0.0
 11
3.06352578068264
 21
2.57047325102881
 31
0.0
  0
LINE
  8
9
  6
CONTINUOUS
 62
9
 10
3.06352578068264
 20
2.57047325102881
 30
0.0
 11
3.01357336960355
 21
2.57265422039707
 31
0.0
  0
LINE
  8
9
  6
CONTINUOUS
 62
9
 10
2.94534996919793
 20
3.20241313668036
 30
0.0
 11
2.87651790668737
 21
3.19940786392881
 31
0.0
  0
LINE
  8
9
  6
CONTINUOUS
 62
9
 10
2.87651790668737
 20
3.19940786392881
 30
0.0
 11
2.92647031776646
 21
3.19722689456054
 31
0.0
  0
LINE
  8
9
  6
CONTINUOUS
 62
9
 10
2.39680429698843
 20
3.200967290167
 30
0.0
 11
2.35978562318501
 21
3.25907496852025
 31
0.0
  0
LINE
  8
9
  6
CONTINUOUS
 62
9
 10
2.35978562318501
 20
3.25907496852025
 30
0.0
 11
2.38287305384676
 21
3.21472442686134
 31
0.0
  0
LINE
  8
9
  6
CONTINUOUS
 62
9
 10
2.02508496723069
 20
3.66071405234013
 30
0.0
 11
1.95187763502542
 21
3.67694372715637
 31
0.0
  0
LINE
  8
9
  6
CONTINUOUS
 62
9
 10
1.95187763502542
 20
3.67694372715637
 30
0.0
 11
1.99956348256283
 21
3.66190843718116
 31
0.0
  0
LINE
  8
9
  6
CONTINUOUS
 62
9
 10
1.73866854744537
 20
2.18893034292401
 30
0.0
 11
1.88852578068264
 21
2.19547325102881
 31
0.0
  0
LINE
  8
9
  6
CONTINUOUS
 62
9
 10
1.88852578068264
 20
2.19547325102881
 30
0.0
 11
1.83857336960355
 21
2.19765422039707
 31
0.0
  0
LINE
  8
9
  6
CONTINUOUS
 62
9
 10
1.24987626880564
 20
0.701143771386301
 30
0.0
 11
1.12
 21
0.695473251028807
 31
0.0
  0
LINE
  8
9
  6
CONTINUOUS
 62
9
 10
1.12
 20
0.695473251028807
 30
0.0
 11
1.16995241107909
 21
0.69329228166054
 31
0.0
  0
LINE
  8
9
  6
CONTINUOUS
 62
9
 10
0.505509326051375
 20
0.694125127520794
 30
0.0
 11
0.533646475863328
 21
0.821043608446386
 31
0.0
  0
LINE
  8
9
  6
CONTINUOUS
 62
9
 10
0.533646475863328
 20
0.821043608446386
 30
0.0
 11
0.518611185888115
 21
0.773357760908974
 31
0.0
  0
LINE
  8
9
  6
CONTINUOUS
 62
9
 10
0.749913401789059
 20
2.5737440407874
 30
0.0
 11
0.674999999999999
 21
2.57047325102881
 31
0.0
  0
LINE
  8
9
  6
CONTINUOUS
 62
9
 10
0.674999999999999
 20
2.57047325102881
 30
0.0
 11
0.724952411079092
 21
2.56829228166054
 31
0.0
  0
LINE
  8
9
  6
CONTINUOUS
 62
9
 10
0.950086598210941
 20
2.56720246127021
 30
0.0
 11
1.025
 21
2.57047325102881
 31
0.0
  0
LINE
  8
9
  6
CONTINUOUS
 62
9
 10
1.025
 20
2.57047325102881
 30
0.0
 11
0.975047588920908
 21
2.57265422039707
 31
0.0
  0
LINE
  8
9
  6
CONTINUOUS
 62
9
 10
1.15008659821094
 20
2.56720246127021
 30
0.0
 11
1.225
 21
2.57047325102881
 31
0.0
  0
LINE
  8
9
  6
CONTINUOUS
 62
9
 10
1.225
 20
2.57047325102881
 30
0.0
 11
1.17504758892091
 21
2.57265422039707
 31
0.0
  0
LINE
  8
9
  6
CONTINUOUS
 62
9
 10
1.35008659821094
 20
2.56720246127021
 30
0.0
 11
1.425
 21
2.57047325102881
 31
0.0
  0
LINE
  8
9
  6
CONTINUOUS
 62
9
 10
1.425
 20
2.57047325102881
 30
0.0
 11
1.37504758892091
 21
2.57265422039707
 31
0.0
  0
LINE
  8
9
  6
CONTINUOUS
 62
9
 10
1.30682418851529
 20
3.20241313668036
 30
0.0
 11
1.23799212600472
 21
3.19940786392881
 31
0.0
  0
LINE
  8
9
  6
CONTINUOUS
 62
9
 10
1.23799212600472
 20
3.19940786392881
 30
0.0
 11
1.28794453708382
 21
3.19722689456054
 31
0.0
  0
LINE
  8
9
  6
CONTINUOUS
 62
9
 10
0.758278516305786
 20
3.200967290167
 30
0.0
 11
0.721259842502362
 21
3.25907496852025
 31
0.0
  0
LINE
  8
9
  6
CONTINUOUS
 62
9
 10
0.721259842502362
 20
3.25907496852025
 30
0.0
 11
0.744347273164114
 21
3.21472442686134
 31
0.0
  0
LINE
  8
9
  6
CONTINUOUS
 62
9
 10
0.387586598210941
 20
3.66720246127021
 30
0.0
 11
0.462500000000001
 21
3.67047325102881
 31
0.0
  0
LINE
  8
9
  6
CONTINUOUS
 62
9
 10
0.462500000000001
 20
3.67047325102881
 30
0.0
 11
0.412547588920908
 21
3.67265422039707
 31
0.0
  0
LINE
  8
9
  6
CONTINUOUS
 62
9
 10
0.874881027697733
 20
4.57592567444947
 30
0.0
 11
0.750000000000001
 21
4.57047325102881
 31
0.0
  0
LINE
  8
9
  6
CONTINUOUS
 62
9
 10
0.750000000000001
 20
4.57047325102881
 30
0.0
 11
0.799952411079094
 21
4.56829228166054
 31
0.0
  0
LINE
  8
9
  6
CONTINUOUS
 62
9
 10
0.475142766762722
 20
4.56393034292401
 30
0.0
 11
0.625
 21
4.57047325102881
 31
0.0
  0
LINE
  8
9
  6
CONTINUOUS
 62
9
 10
0.625
 20
4.57047325102881
 30
0.0
 11
0.575047588920907
 21
4.57265422039707
 31
0.0
  0
LINE
  8
9
  6
CONTINUOUS
 62
9
 10
0.19884168150705
 20
1.61028583936515
 30
0.0
 11
0.05
 21
1.62889104955353
 31
0.0
  0
LINE
  8
9
  6
CONTINUOUS
 62
9
 10
0.19884168150705
 20
1.69749625974191
 30
0.0
 11
0.05
 21
1.67889104955353
 31
0.0
  0
LINE
  8
9
  6
CONTINUOUS
 62
9
 10
1.55115831849295
 20
1.94355859570843
 30
0.0
 11
1.7
 21
1.92495338552006
 31
0.0
  0
LINE
  8
9
  6
CONTINUOUS
 62
9
 10
1.55115831849295
 20
1.85634817533167
 30
0.0
 11
1.7
 21
1.87495338552006
 31
0.0
  0
LINE
  8
9
  6
CONTINUOUS
 62
9
 10
1.83736746218969
 20
1.4687999961844
 30
0.0
 11
1.68852578068264
 21
1.48740520637279
 31
0.0
  0
LINE
  8
9
  6
CONTINUOUS
 62
9
 10
1.83736746218969
 20
1.55601041656117
 30
0.0
 11
1.68852578068264
 21
1.53740520637279
 31
0.0
  0
LINE
  8
9
  6
CONTINUOUS
 62
9
 10
3.18968409917559
 20
1.6667384677461
 30
0.0
 11
3.33852578068264
 21
1.64813325755772
 31
0.0
  0
LINE
  8
9
  6
CONTINUOUS
 62
9
 10
3.18968409917559
 20
1.57952804736934
 30
0.0
 11
3.33852578068264
 21
1.59813325755772
 31
0.0
  0
LINE
  8
9
  6
CONTINUOUS
 62
9
 10
3.84381127123665
 20
2.25292544509668
 30
0.0
 11
3.86241648142503
 21
2.40176712660373
 31
0.0
  0
LINE
  8
9
  6
CONTINUOUS
 62
9
 10
3.93102169161341
 20
2.25292544509668
 30
0.0
 11
3.91241648142503
 21
2.40176712660373
 31
0.0
  0
LINE
  8
9
  6
CONTINUOUS
 62
9
 10
4.01099195080253
 20
1.65060880811078
 30
0.0
 11
3.99238674061415
 21
1.50176712660373
 31
0.0
  0
LINE
  8
9
  6
CONTINUOUS
 62
9
 10
3.92378153042577
 20
1.65060880811078
 30
0.0
 11
3.94238674061415
 21
1.50176712660373
 31
0.0
  0
LINE
  8
9
  6
CONTINUOUS
 62
9
 10
3.74538633685005
 20
1.49977850730922
 30
0.0
 11
3.76399154703843
 21
1.64862018881627
 31
0.0
  0
LINE
  8
9
  6
CONTINUOUS
 62
9
 10
3.83259675722681
 20
1.49977850730922
 30
0.0
 11
3.81399154703843
 21
1.64862018881627
 31
0.0
  0
LINE
  8
9
  6
CONTINUOUS
 62
9
 10
4.2816605203657
 20
0.897461870323318
 30
0.0
 11
4.26305531017732
 21
0.748620188816268
 31
0.0
  0
LINE
  8
9
  6
CONTINUOUS
 62
9
 10
4.19445009998894
 20
0.897461870323318
 30
0.0
 11
4.21305531017732
 21
0.748620188816268
 31
0.0
  0
LINE
  8
9
  6
CONTINUOUS
 62
9
 10
3.96684243921991
 20
0.746631569521757
 30
0.0
 11
3.98544764940829
 21
0.895473251028807
 31
0.0
  0
LINE
  8
9
  6
CONTINUOUS
 62
9
 10
4.05405285959667
 20
0.746631569521757
 30
0.0
 11
4.03544764940829
 21
0.895473251028807
 31
0.0
  0
LINE
  8
9
  6
CONTINUOUS
 62
9
 10
4.17093246918077
 20
0.144314932535857
 30
0.0
 11
4.15232725899239
 21
-0.00452674897119271
 31
0.0
  0
LINE
  8
9
  6
CONTINUOUS
 62
9
 10
4.08372204880401
 20
0.144314932535857
 30
0.0
 11
4.10232725899239
 21
-0.0045267489711927
 31
0.0
  0
LINE
  8
9
  6
CONTINUOUS
 62
9
 10
4.20169026117658
 20
2.40375574589824
 30
0.0
 11
4.1830850509882
 21
2.25491406439119
 31
0.0
  0
LINE
  8
9
  6
CONTINUOUS
 62
9
 10
4.11447984079982
 20
2.40375574589824
 30
0.0
 11
4.1330850509882
 21
2.25491406439119
 31
0.0
  0
LINE
  8
9
  6
CONTINUOUS
 62
9
 10
4.00375178961489
 20
3.00607238288414
 30
0.0
 11
4.02235699980327
 21
3.15491406439119
 31
0.0
  0
LINE
  8
9
  6
CONTINUOUS
 62
9
 10
4.09096220999165
 20
3.00607238288414
 30
0.0
 11
4.07235699980327
 21
3.15491406439119
 31
0.0
  0
LINE
  8
9
  6
CONTINUOUS
 62
9
 10
3.90641545801676
 20
3.41079244249137
 30
0.0
 11
3.88781024782838
 21
3.26195076098432
 31
0.0
  0
LINE
  8
9
  6
CONTINUOUS
 62
9
 10
3.81920503764
 20
3.41079244249137
 30
0.0
 11
3.83781024782838
 21
3.26195076098432
 31
0.0
  0
LINE
  8
9
  6
CONTINUOUS
 62
9
 10
4.23751100878308
 20
4.01310907947727
 30
0.0
 11
4.25611621897146
 21
4.16195076098432
 31
0.0
  0
LINE
  8
9
  6
CONTINUOUS
 62
9
 10
4.32472142915984
 20
4.01310907947727
 30
0.0
 11
4.30611621897146
 21
4.16195076098432
 31
0.0
  0
LINE
  8
9
  6
CONTINUOUS
 62
9
 10
3.75262649803769
 20
4.27201061837417
 30
0.0
 11
3.73402128784931
 21
4.12316893686712
 31
0.0
  0
LINE
  8
9
  6
CONTINUOUS
 62
9
 10
3.66541607766093
 20
4.27201061837417
 30
0.0
 11
3.68402128784931
 21
4.12316893686712
 31
0.0
  0
LINE
  8
9
  6
CONTINUOUS
 62
9
 10
4.0345095816107
 20
4.87432725536008
 30
0.0
 11
4.05311479179908
 21
5.02316893686713
 31
0.0
  0
LINE
  8
9
  6
CONTINUOUS
 62
9
 10
4.12172000198747
 20
4.87432725536008
 30
0.0
 11
4.10311479179908
 21
5.02316893686713
 31
0.0
  0
LINE
  8
9
  6
CONTINUOUS
 62
9
 10
5.9511825257067
 20
3.41993261150753
 30
0.0
 11
6.10002420721375
 21
3.40132740131918
 31
0.0
  0
LINE
  8
9
  6
CONTINUOUS
 62
9
 10
5.95118252570671
 20
3.33272219113077
 30
0.0
 11
6.10002420721375
 21
3.35132740131918
 31
0.0
  0
LINE
  8
9
  6
CONTINUOUS
 62
9
 10
4.8488658887208
 20
3.04975050476928
 30
0.0
 11
4.70002420721375
 21
3.06835571495768
 31
0.0
  0
LINE
  8
9
  6
CONTINUOUS
 62
9
 10
4.84886588872081
 20
3.13696092514604
 30
0.0
 11
4.70002420721375
 21
3.11835571495768
 31
0.0
  0
LINE
  8
9
  6
CONTINUOUS
 62
9
 10
4.8373674621897
 20
1.49340622978105
 30
0.0
 11
4.68852578068265
 21
1.51201143996943
 31
0.0
  0
LINE
  8
9
  6
CONTINUOUS
 62
9
 10
4.8373674621897
 20
1.58061665015782
 30
0.0
 11
4.68852578068265
 21
1.56201143996943
 31
0.0
  0
LINE
  8
9
  6
CONTINUOUS
 62
9
 10
5.9396840991756
 20
1.10079509502311
 30
0.0
 11
6.08852578068265
 21
1.08218988483473
 31
0.0
  0
LINE
  8
9
  6
CONTINUOUS
 62
9
 10
5.9396840991756
 20
1.01358467464635
 30
0.0
 11
6.08852578068265
 21
1.03218988483473
 31
0.0
  0
LINE
  8
9
  6
CONTINUOUS
 62
9
 10
6.17118493979803
 20
1.29655636100784
 30
0.0
 11
6.02234325829097
 21
1.31516157119621
 31
0.0
  0
LINE
  8
9
  6
CONTINUOUS
 62
9
 10
6.17118493979802
 20
1.3837667813846
 30
0.0
 11
6.02234325829097
 21
1.36516157119621
 31
0.0
  0
LINE
  8
9
  6
CONTINUOUS
 62
9
 10
7.27350157678392
 20
1.43913080697707
 30
0.0
 11
7.42234325829097
 21
1.4205255967887
 31
0.0
  0
LINE
  8
9
  6
CONTINUOUS
 62
9
 10
7.27350157678393
 20
1.35192038660031
 30
0.0
 11
7.42234325829097
 21
1.3705255967887
 31
0.0
  0
LINE
  8
9
  6
CONTINUOUS
 62
9
 10
6.18268336632913
 20
2.71756635121448
 30
0.0
 11
6.03384168482208
 21
2.73617156140286
 31
0.0
  0
LINE
  8
9
  6
CONTINUOUS
 62
9
 10
6.18268336632913
 20
2.80477677159124
 30
0.0
 11
6.03384168482208
 21
2.78617156140286
 31
0.0
  0
LINE
  8
9
  6
CONTINUOUS
 62
9
 10
7.28500000331503
 20
3.14926404194436
 30
0.0
 11
7.43384168482208
 21
3.130658831756
 31
0.0
  0
LINE
  8
9
  6
CONTINUOUS
 62
9
 10
7.28500000331503
 20
3.0620536215676
 30
0.0
 11
7.43384168482208
 21
3.080658831756
 31
0.0
  0
LINE
  8
9
  6
CONTINUOUS
 62
9
 10
7.52041982161056
 20
2.87750686959271
 30
0.0
 11
7.37157814010351
 21
2.89611207978111
 31
0.0
  0
LINE
  8
9
  6
CONTINUOUS
 62
9
 10
7.52041982161057
 20
2.96471728996948
 30
0.0
 11
7.37157814010351
 21
2.94611207978111
 31
0.0
  0
LINE
  8
9
  6
CONTINUOUS
 62
9
 10
8.62273645859646
 20
2.98932352356613
 30
0.0
 11
8.77157814010351
 21
2.97071831337774
 31
0.0
  0
LINE
  8
9
  6
CONTINUOUS
 62
9
 10
8.62273645859646
 20
2.90211310318936
 30
0.0
 11
8.77157814010351
 21
2.92071831337774
 31
0.0
  0
LINE
  8
9
  6
CONTINUOUS
 62
9
 10
8.61123803206536
 20
1.35300898938879
 30
0.0
 11
8.76007971357241
 21
1.33440377920041
 31
0.0
  0
LINE
  8
9
  6
CONTINUOUS
 62
9
 10
8.61123803206535
 20
1.26579856901203
 30
0.0
 11
8.76007971357241
 21
1.28440377920041
 31
0.0
  0
LINE
  8
9
  6
CONTINUOUS
 62
9
 10
7.50892139507946
 20
0.909008181860578
 30
0.0
 11
7.36007971357241
 21
0.927613392048956
 31
0.0
  0
LINE
  8
9
  6
CONTINUOUS
 62
9
 10
7.50892139507946
 20
0.99621860223734
 30
0.0
 11
7.36007971357241
 21
0.977613392048956
 31
0.0
  0
LINE
  8
10
  6
CONTINUOUS
 62
10
 10
8.07375910947178
 20
3.7174836313744
 30
0.0
 11
8.24745054390149
 21
1.60801232173683
 31
0.0
  0
LINE
  8
10
  6
CONTINUOUS
 62
10
 10
5.40220517658202
 20
3.70642784075714
 30
0.0
 11
5.39403510673402
 21
0.844125127520795
 31
0.0
  0
ENDSEC
  0
EOF
