  0
SECTION
  2
HEADER
  9
$ACADVER
  1
AC1003
  9
$EXTMIN
 10
0.0776054755812377
 20
3.50410364188074
  9
$EXTMAX
 10
3.90472250666613
 20
-0.0280305441897005
  9
$INSUNITS
 70
1
  9
$INSBASE
 10
1.99116399112368
 20
1.73803654884552
999
Created with OMAX Layout for Windows. (www.omax.com) 1/27/2016
  0
ENDSEC
  0
SECTION
  2
TABLES
  0
TABLE
  2
LAYER
 70
    10
  0
LAYER
  2
0
 70
     0
 62
     7
  6
CONTINUOUS
  0
LAYER
  2
1
 70
     0
 62
     7
  6
CONTINUOUS
  0
LAYER
  2
2
 70
     0
 62
     7
  6
CONTINUOUS
  0
LAYER
  2
3
 70
     0
 62
     7
  6
CONTINUOUS
  0
LAYER
  2
4
 70
     0
 62
     7
  6
CONTINUOUS
  0
LAYER
  2
5
 70
     0
 62
     7
  6
CONTINUOUS
  0
LAYER
  2
6
 70
     0
 62
     7
  6
CONTINUOUS
  0
LAYER
  2
7
 70
     0
 62
     7
  6
CONTINUOUS
  0
LAYER
  2
8
 70
     0
 62
     7
  6
CONTINUOUS
  0
LAYER
  2
9
 70
     0
 62
     7
  6
CONTINUOUS
  0
LAYER
  2
10
 70
     0
 62
     7
  6
CONTINUOUS
  0
LAYER
  2
11
 70
     0
 62
     7
  6
CONTINUOUS
  0
LAYER
  2
12
 70
     0
 62
     7
  6
CONTINUOUS
  0
LAYER
  2
13
 70
     0
 62
     7
  6
CONTINUOUS
  0
LAYER
  2
14
 70
     0
 62
     7
  6
CONTINUOUS
  0
LAYER
  2
15
 70
     0
 62
     7
  6
CONTINUOUS
  0
LAYER
  2
16
 70
     0
 62
     7
  6
CONTINUOUS
  0
LAYER
  2
17
 70
     0
 62
     7
  6
CONTINUOUS
  0
LAYER
  2
18
 70
     0
 62
     7
  6
CONTINUOUS
  0
LAYER
  2
19
 70
     0
 62
     7
  6
CONTINUOUS
  0
LAYER
  2
20
 70
     0
 62
     7
  6
CONTINUOUS
  0
LAYER
  2
21
 70
     0
 62
     7
  6
CONTINUOUS
  0
LAYER
  2
22
 70
     0
 62
     7
  6
CONTINUOUS
  0
LAYER
  2
23
 70
     0
 62
     7
  6
CONTINUOUS
  0
LAYER
  2
24
 70
     0
 62
     7
  6
CONTINUOUS
  0
LAYER
  2
25
 70
     0
 62
     7
  6
CONTINUOUS
  0
LAYER
  2
26
 70
     0
 62
     7
  6
CONTINUOUS
  0
LAYER
  2
27
 70
     0
 62
     7
  6
CONTINUOUS
  0
LAYER
  2
28
 70
     0
 62
     7
  6
CONTINUOUS
  0
LAYER
  2
29
 70
     0
 62
     7
  6
CONTINUOUS
  0
LAYER
  2
30
 70
     0
 62
     7
  6
CONTINUOUS
  0
LAYER
  2
31
 70
     0
 62
     7
  6
CONTINUOUS
  0
ENDTAB
  0
ENDSEC
  0
SECTION
  2
ENTITIES
  0
LINE
  8
0
  6
CONTINUOUS
 62
0
 10
0.0776054755812377
 20
0.1719694558103
 30
0.0
 11
3.40476934615521
 21
0.344822835816336
 31
0.0
  0
LINE
  8
0
  6
CONTINUOUS
 62
0
 10
3.40476934615521
 20
0.349116082604263
 30
0.0
 11
2.75486527342885
 21
0.340426551105499
 31
0.0
  0
LINE
  8
0
  6
CONTINUOUS
 62
0
 10
2.85477009558704
 20
0.349150428578566
 30
0.0
 11
3.40476934615521
 21
1.04035638065895
 31
0.0
  0
LINE
  8
0
  6
CONTINUOUS
 62
0
 10
3.40476934615521
 20
1.04464962744687
 30
0.0
 11
2.75486527342885
 21
1.03596009594811
 31
0.0
  0
LINE
  8
0
  6
CONTINUOUS
 62
0
 10
2.85477009558704
 20
1.04468397342118
 30
0.0
 11
3.40476934615521
 21
1.73588992550156
 31
0.0
  0
LINE
  8
0
  6
CONTINUOUS
 62
0
 10
3.40476934615521
 20
1.74018317228948
 30
0.0
 11
2.75486527342885
 21
1.73149364079072
 31
0.0
  0
LINE
  8
0
  6
CONTINUOUS
 62
0
 10
2.85477009558704
 20
1.74021751826379
 30
0.0
 11
3.40476934615521
 21
2.43142347034417
 31
0.0
  0
LINE
  8
0
  6
CONTINUOUS
 62
0
 10
3.40476934615521
 20
2.43571671713209
 30
0.0
 11
2.75486527342885
 21
2.42702718563333
 31
0.0
  0
LINE
  8
0
  6
CONTINUOUS
 62
0
 10
2.85477009558704
 20
2.4357510631064
 30
0.0
 11
3.40686913006009
 21
3.12915047806982
 31
0.0
  0
LINE
  8
0
  6
CONTINUOUS
 62
0
 10
3.40257588327217
 20
3.12915047806982
 30
0.0
 11
2.75486527342885
 21
3.12256073047594
 31
0.0
  0
LINE
  8
0
  6
CONTINUOUS
 62
0
 10
2.85477009558704
 20
3.13128460794901
 30
0.0
 11
2.04106384899877
 21
3.1312502619747
 31
0.0
  0
LINE
  8
0
  6
CONTINUOUS
 62
0
 10
2.04106384899877
 20
3.12695701518678
 30
0.0
 11
1.39125345525058
 21
3.12256073047594
 31
0.0
  0
LINE
  8
0
  6
CONTINUOUS
 62
0
 10
1.49115827740876
 20
3.13128460794901
 30
0.0
 11
2.04106384899877
 21
2.43571671713209
 31
0.0
  0
LINE
  8
0
  6
CONTINUOUS
 62
0
 10
2.04106384899877
 20
2.43142347034417
 30
0.0
 11
1.39125345525058
 21
2.42702718563333
 31
0.0
  0
LINE
  8
0
  6
CONTINUOUS
 62
0
 10
1.49115827740876
 20
2.4357510631064
 30
0.0
 11
2.04106384899877
 21
1.74018317228948
 31
0.0
  0
LINE
  8
0
  6
CONTINUOUS
 62
0
 10
2.04106384899877
 20
1.73588992550156
 30
0.0
 11
1.39125345525058
 21
1.73149364079072
 31
0.0
  0
LINE
  8
0
  6
CONTINUOUS
 62
0
 10
1.49115827740876
 20
1.74021751826379
 30
0.0
 11
2.04106384899877
 21
1.04464962744687
 31
0.0
  0
LINE
  8
0
  6
CONTINUOUS
 62
0
 10
2.04106384899877
 20
1.04035638065895
 30
0.0
 11
1.39125345525058
 21
1.03596009594811
 31
0.0
  0
LINE
  8
0
  6
CONTINUOUS
 62
0
 10
1.49115827740876
 20
1.04468397342118
 30
0.0
 11
2.04325731188182
 21
0.347016298699381
 31
0.0
  0
LINE
  8
0
  6
CONTINUOUS
 62
0
 10
2.03896406509389
 20
0.347016298699381
 30
0.0
 11
1.39125345525058
 21
0.340426551105499
 31
0.0
  0
LINE
  8
0
  6
CONTINUOUS
 62
0
 10
1.49115827740876
 20
0.349150428578566
 30
0.0
 11
0.677545709798662
 21
0.344822835816336
 31
0.0
  0
LINE
  8
0
  6
CONTINUOUS
 62
0
 10
0.677545709798662
 20
0.349116082604263
 30
0.0
 11
0.67095597110478
 21
0.671826695747578
 31
0.0
  0
LINE
  8
0
  6
CONTINUOUS
 62
0
 10
0.679679848577847
 20
0.571921873589392
 30
0.0
 11
0.677545709798662
 21
1.04035638065895
 31
0.0
  0
LINE
  8
0
  6
CONTINUOUS
 62
0
 10
0.677545709798662
 20
1.04464962744687
 30
0.0
 11
0.67095597110478
 21
1.36736024059019
 31
0.0
  0
LINE
  8
0
  6
CONTINUOUS
 62
0
 10
0.679679848577847
 20
1.267455418432
 30
0.0
 11
0.677545709798662
 21
1.73588992550156
 31
0.0
  0
LINE
  8
0
  6
CONTINUOUS
 62
0
 10
0.677545709798662
 20
1.74018317228948
 30
0.0
 11
0.67095597110478
 21
2.0628937854328
 31
0.0
  0
LINE
  8
0
  6
CONTINUOUS
 62
0
 10
0.679679848577847
 20
1.96298896327461
 30
0.0
 11
0.677545709798662
 21
2.43142347034417
 31
0.0
  0
LINE
  8
0
  6
CONTINUOUS
 62
0
 10
0.677545709798662
 20
2.43571671713209
 30
0.0
 11
0.67095597110478
 21
2.75842733027541
 31
0.0
  0
LINE
  8
0
  6
CONTINUOUS
 62
0
 10
0.679679848577847
 20
2.65852250811722
 30
0.0
 11
0.675352246915617
 21
3.12905679909166
 31
0.0
  0
LINE
  8
0
  6
CONTINUOUS
 62
0
 10
0.679645493703544
 20
3.12905679909166
 30
0.0
 11
0.684041787314381
 21
2.80424640194346
 31
0.0
  0
LINE
  8
0
  6
CONTINUOUS
 62
0
 10
0.498755095732387
 20
0.721969462510299
 30
0.0
 11
0.548755095732387
 21
0.721969462510299
 31
0.0
  0
LINE
  8
0
  6
CONTINUOUS
 62
0
 10
0.713265871174566
 20
-0.0280305441897005
 30
0.0
 11
0.663265871174566
 21
-0.0280305441897005
 31
0.0
  0
LINE
  8
0
  6
CONTINUOUS
 62
0
 10
1.92947053247925
 20
-0.0280305441897005
 30
0.0
 11
1.87947053247925
 21
-0.0280305441897005
 31
0.0
  0
LINE
  8
0
  6
CONTINUOUS
 62
0
 10
1.74111068848785
 20
0.721969462510299
 30
0.0
 11
1.79111068848785
 21
0.721969462510299
 31
0.0
  0
LINE
  8
0
  6
CONTINUOUS
 62
0
 10
3.26905827536556
 20
-0.0280305441897005
 30
0.0
 11
3.21905827536556
 21
-0.0280305441897005
 31
0.0
  0
LINE
  8
0
  6
CONTINUOUS
 62
0
 10
3.19555673601668
 20
0.721969462510299
 30
0.0
 11
3.24555673601668
 21
0.721969462510299
 31
0.0
  0
LINE
  8
0
  6
CONTINUOUS
 62
0
 10
3.57457828690104
 20
0.667503000652909
 30
0.0
 11
3.52457828690104
 21
0.667503000652909
 31
0.0
  0
LINE
  8
0
  6
CONTINUOUS
 62
0
 10
3.48932597787771
 20
1.41750300735291
 30
0.0
 11
3.53932597787771
 21
1.41750300735291
 31
0.0
  0
LINE
  8
0
  6
CONTINUOUS
 62
0
 10
2.16148900466584
 20
1.41750300735291
 30
0.0
 11
2.21148900466584
 21
1.41750300735291
 31
0.0
  0
LINE
  8
0
  6
CONTINUOUS
 62
0
 10
2.18211208047974
 20
0.667503000652909
 30
0.0
 11
2.13211208047974
 21
0.667503000652909
 31
0.0
  0
LINE
  8
0
  6
CONTINUOUS
 62
0
 10
0.842524337593421
 20
0.667503000652909
 30
0.0
 11
0.792524337593421
 21
0.667503000652909
 31
0.0
  0
LINE
  8
0
  6
CONTINUOUS
 62
0
 10
0.475253556383505
 20
1.41750300735291
 30
0.0
 11
0.525253556383505
 21
1.41750300735291
 31
0.0
  0
LINE
  8
0
  6
CONTINUOUS
 62
0
 10
0.866025876942304
 20
1.36303654549552
 30
0.0
 11
0.816025876942304
 21
1.36303654549552
 31
0.0
  0
LINE
  8
0
  6
CONTINUOUS
 62
0
 10
0.516381250244049
 20
2.11303655219552
 30
0.0
 11
0.566381250244049
 21
2.11303655219552
 31
0.0
  0
LINE
  8
0
  6
CONTINUOUS
 62
0
 10
2.09088759923056
 20
2.11303655219552
 30
0.0
 11
2.14088759923056
 21
2.11303655219552
 31
0.0
  0
LINE
  8
0
  6
CONTINUOUS
 62
0
 10
1.95023363989157
 20
1.36303654549552
 30
0.0
 11
1.90023363989157
 21
1.36303654549552
 31
0.0
  0
LINE
  8
0
  6
CONTINUOUS
 62
0
 10
3.35397007985137
 20
2.11303655219552
 30
0.0
 11
3.40397007985137
 21
2.11303655219552
 31
0.0
  0
LINE
  8
0
  6
CONTINUOUS
 62
0
 10
3.3384327813286
 20
1.36303654549552
 30
0.0
 11
3.2884327813286
 21
1.36303654549552
 31
0.0
  0
LINE
  8
0
  6
CONTINUOUS
 62
0
 10
3.57675023050234
 20
2.05857009033813
 30
0.0
 11
3.52675023050234
 21
2.05857009033813
 31
0.0
  0
LINE
  8
0
  6
CONTINUOUS
 62
0
 10
3.43142325083284
 20
2.80857009703813
 30
0.0
 11
3.48142325083284
 21
2.80857009703813
 31
0.0
  0
LINE
  8
0
  6
CONTINUOUS
 62
0
 10
1.91448602251551
 20
2.05857009033813
 30
0.0
 11
1.86448602251551
 21
2.05857009033813
 31
0.0
  0
LINE
  8
0
  6
CONTINUOUS
 62
0
 10
2.15642489775334
 20
2.80857009703813
 30
0.0
 11
2.20642489775334
 21
2.80857009703813
 31
0.0
  0
LINE
  8
0
  6
CONTINUOUS
 62
0
 10
0.877805118609754
 20
2.05857009033813
 30
0.0
 11
0.827805118609754
 21
2.05857009033813
 31
0.0
  0
LINE
  8
0
  6
CONTINUOUS
 62
0
 10
0.482244817307834
 20
2.80857009703813
 30
0.0
 11
0.532244817307834
 21
2.80857009703813
 31
0.0
  0
LINE
  8
0
  6
CONTINUOUS
 62
0
 10
0.859931309921723
 20
2.75410363518074
 30
0.0
 11
0.809931309921723
 21
2.75410363518074
 31
0.0
  0
LINE
  8
0
  6
CONTINUOUS
 62
0
 10
1.95619157612092
 20
2.75410363518074
 30
0.0
 11
1.90619157612092
 21
2.75410363518074
 31
0.0
  0
LINE
  8
0
  6
CONTINUOUS
 62
0
 10
3.64228752902511
 20
2.75410363518074
 30
0.0
 11
3.59228752902511
 21
2.75410363518074
 31
0.0
  0
LINE
  8
0
  6
CONTINUOUS
 62
0
 10
3.45525499575021
 20
3.50410364188074
 30
0.0
 11
3.50525499575021
 21
3.50410364188074
 31
0.0
  0
LINE
  8
0
  6
CONTINUOUS
 62
0
 10
2.12663521660662
 20
3.50410364188074
 30
0.0
 11
2.17663521660662
 21
3.50410364188074
 31
0.0
  0
LINE
  8
0
  6
CONTINUOUS
 62
0
 10
0.702688457793541
 20
3.50410364188074
 30
0.0
 11
0.752688457793541
 21
3.50410364188074
 31
0.0
  0
ARC
  8
4
  6
CONTINUOUS
 62
4
 10
3.40472250666613
 20
0.3469694592103
 30
0.0
 40
0.0492125984251963
 50
359.999999999999
 51
180
  0
ARC
  8
4
  6
CONTINUOUS
 62
4
 10
3.40472250666613
 20
0.346969459210299
 30
0.0
 40
0.0492125984251963
 50
179.999999999999
 51
359.999999999999
  0
ARC
  8
4
  6
CONTINUOUS
 62
4
 10
3.07972250667006
 20
0.346969459206369
 30
0.0
 40
0.175000000003929
 50
90.000000001286
 51
179.999999998714
  0
LINE
  8
4
  6
CONTINUOUS
 62
4
 10
3.07972250666613
 20
0.521969462510299
 30
0.0
 11
3.17055673601668
 21
0.521969462510299
 31
0.0
  0
ARC
  8
4
  6
CONTINUOUS
 62
4
 10
3.72972250666613
 20
0.346969459210299
 30
0.0
 40
0.175000000000001
 50
270
 51
90.0000000000004
  0
LINE
  8
4
  6
CONTINUOUS
 62
4
 10
3.72972252446613
 20
0.1719694558103
 30
0.0
 11
3.29405827536556
 21
0.1719694558103
 31
0.0
  0
ARC
  8
4
  6
CONTINUOUS
 62
4
 10
3.07972250667006
 20
0.346969459214228
 30
0.0
 40
0.175000000003929
 50
180.000000001286
 51
269.999999998714
  0
ARC
  8
4
  6
CONTINUOUS
 62
4
 10
3.40472250666613
 20
1.04250300405291
 30
0.0
 40
0.0492125984251963
 50
359.999999999999
 51
180
  0
ARC
  8
4
  6
CONTINUOUS
 62
4
 10
3.40472250666613
 20
1.04250300405291
 30
0.0
 40
0.0492125984251963
 50
179.999999999999
 51
359.999999999999
  0
ARC
  8
4
  6
CONTINUOUS
 62
4
 10
3.07972250667006
 20
1.04250300404898
 30
0.0
 40
0.175000000003929
 50
90.000000001286
 51
179.999999998714
  0
LINE
  8
4
  6
CONTINUOUS
 62
4
 10
3.07972250666613
 20
1.21750300735291
 30
0.0
 11
3.46432597787771
 21
1.21750300735291
 31
0.0
  0
ARC
  8
4
  6
CONTINUOUS
 62
4
 10
3.72972250666613
 20
1.04250300405291
 30
0.0
 40
0.175000000000001
 50
270
 51
90.0000000000004
  0
LINE
  8
4
  6
CONTINUOUS
 62
4
 10
3.72972252446613
 20
0.86750300065291
 30
0.0
 11
3.59957828690104
 21
0.86750300065291
 31
0.0
  0
ARC
  8
4
  6
CONTINUOUS
 62
4
 10
3.07972250667006
 20
1.04250300405684
 30
0.0
 40
0.175000000003929
 50
180.000000001286
 51
269.999999998714
  0
ARC
  8
4
  6
CONTINUOUS
 62
4
 10
3.40472250666613
 20
1.73803654889552
 30
0.0
 40
0.0492125984251963
 50
359.999999999999
 51
180
  0
ARC
  8
4
  6
CONTINUOUS
 62
4
 10
3.40472250666613
 20
1.73803654889552
 30
0.0
 40
0.0492125984251963
 50
179.999999999999
 51
359.999999999999
  0
ARC
  8
4
  6
CONTINUOUS
 62
4
 10
3.07972250667006
 20
1.73803654889159
 30
0.0
 40
0.175000000003929
 50
90.000000001286
 51
179.999999998714
  0
LINE
  8
4
  6
CONTINUOUS
 62
4
 10
3.07972250666613
 20
1.91303655219552
 30
0.0
 11
3.32897007985137
 21
1.91303655219552
 31
0.0
  0
ARC
  8
4
  6
CONTINUOUS
 62
4
 10
3.72972250666613
 20
1.73803654889552
 30
0.0
 40
0.175000000000001
 50
270
 51
90.0000000000004
  0
LINE
  8
4
  6
CONTINUOUS
 62
4
 10
3.72972252446613
 20
1.56303654549552
 30
0.0
 11
3.3634327813286
 21
1.56303654549552
 31
0.0
  0
ARC
  8
4
  6
CONTINUOUS
 62
4
 10
3.07972250667006
 20
1.73803654889945
 30
0.0
 40
0.175000000003929
 50
180.000000001286
 51
269.999999998714
  0
ARC
  8
4
  6
CONTINUOUS
 62
4
 10
3.40472250666613
 20
2.43357009373813
 30
0.0
 40
0.0492125984251963
 50
359.999999999999
 51
180
  0
ARC
  8
4
  6
CONTINUOUS
 62
4
 10
3.40472250666613
 20
2.43357009373813
 30
0.0
 40
0.0492125984251963
 50
179.999999999999
 51
359.999999999999
  0
ARC
  8
4
  6
CONTINUOUS
 62
4
 10
3.07972250667006
 20
2.4335700937342
 30
0.0
 40
0.175000000003929
 50
90.000000001286
 51
179.999999998714
  0
LINE
  8
4
  6
CONTINUOUS
 62
4
 10
3.07972250666613
 20
2.60857009703813
 30
0.0
 11
3.40642325083284
 21
2.60857009703813
 31
0.0
  0
ARC
  8
4
  6
CONTINUOUS
 62
4
 10
3.72972250666613
 20
2.43357009373813
 30
0.0
 40
0.175000000000001
 50
270
 51
90.0000000000004
  0
LINE
  8
4
  6
CONTINUOUS
 62
4
 10
3.72972252446613
 20
2.25857009033813
 30
0.0
 11
3.60175023050233
 21
2.25857009033813
 31
0.0
  0
ARC
  8
4
  6
CONTINUOUS
 62
4
 10
3.07972250667006
 20
2.43357009374206
 30
0.0
 40
0.175000000003929
 50
180.000000001286
 51
269.999999998714
  0
ARC
  8
4
  6
CONTINUOUS
 62
4
 10
3.40472250666281
 20
3.12910363858405
 30
0.0
 40
0.049212598421882
 50
89.9999999961411
 51
180.000000003859
  0
ARC
  8
4
  6
CONTINUOUS
 62
4
 10
3.40472250666613
 20
3.12910363858074
 30
0.0
 40
0.0492125984251963
 50
179.999999999999
 51
359.999999999999
  0
ARC
  8
4
  6
CONTINUOUS
 62
4
 10
3.40472250666944
 20
3.12910363858405
 30
0.0
 40
0.049212598421882
 50
359.999999996141
 51
90.0000000038585
  0
ARC
  8
4
  6
CONTINUOUS
 62
4
 10
3.07972250667006
 20
3.12910363857681
 30
0.0
 40
0.175000000003929
 50
90.000000001286
 51
179.999999998714
  0
LINE
  8
4
  6
CONTINUOUS
 62
4
 10
3.07972250666613
 20
3.30410364188074
 30
0.0
 11
3.43025499575021
 21
3.30410364188074
 31
0.0
  0
ARC
  8
4
  6
CONTINUOUS
 62
4
 10
3.72972250666613
 20
3.12910363858074
 30
0.0
 40
0.175000000000001
 50
270
 51
90.0000000000004
  0
LINE
  8
4
  6
CONTINUOUS
 62
4
 10
3.72972252446613
 20
2.95410363518074
 30
0.0
 11
3.66728752902511
 21
2.95410363518074
 31
0.0
  0
ARC
  8
4
  6
CONTINUOUS
 62
4
 10
3.07972250667006
 20
3.12910363858467
 30
0.0
 40
0.175000000003929
 50
180.000000001286
 51
269.999999998714
  0
ARC
  8
4
  6
CONTINUOUS
 62
4
 10
2.04111068848785
 20
3.12910363858074
 30
0.0
 40
0.0492125984251963
 50
179.999999999999
 51
359.999999999999
  0
ARC
  8
4
  6
CONTINUOUS
 62
4
 10
2.04111068848785
 20
3.12910363858074
 30
0.0
 40
0.0492125984251963
 50
359.999999999999
 51
180
  0
ARC
  8
4
  6
CONTINUOUS
 62
4
 10
1.71611068849178
 20
3.12910363857681
 30
0.0
 40
0.175000000003929
 50
90.000000001286
 51
179.999999998714
  0
LINE
  8
4
  6
CONTINUOUS
 62
4
 10
1.71611068848785
 20
3.30410364188074
 30
0.0
 11
2.10163521660663
 21
3.30410364188074
 31
0.0
  0
ARC
  8
4
  6
CONTINUOUS
 62
4
 10
2.36611068848785
 20
3.12910363858074
 30
0.0
 40
0.175000000000001
 50
270
 51
90.0000000000004
  0
LINE
  8
4
  6
CONTINUOUS
 62
4
 10
2.36611070628785
 20
2.95410363518074
 30
0.0
 11
1.98119157612092
 21
2.95410363518074
 31
0.0
  0
ARC
  8
4
  6
CONTINUOUS
 62
4
 10
1.71611068849178
 20
3.12910363858467
 30
0.0
 40
0.175000000003929
 50
180.000000001286
 51
269.999999998714
  0
ARC
  8
4
  6
CONTINUOUS
 62
4
 10
2.04111068848785
 20
2.43357009373813
 30
0.0
 40
0.0492125984251963
 50
179.999999999999
 51
359.999999999999
  0
ARC
  8
4
  6
CONTINUOUS
 62
4
 10
2.04111068848785
 20
2.43357009373813
 30
0.0
 40
0.0492125984251963
 50
359.999999999999
 51
180
  0
ARC
  8
4
  6
CONTINUOUS
 62
4
 10
1.71611068849178
 20
2.4335700937342
 30
0.0
 40
0.175000000003929
 50
90.000000001286
 51
179.999999998714
  0
LINE
  8
4
  6
CONTINUOUS
 62
4
 10
1.71611068848785
 20
2.60857009703813
 30
0.0
 11
2.13142489775334
 21
2.60857009703813
 31
0.0
  0
ARC
  8
4
  6
CONTINUOUS
 62
4
 10
2.36611068848785
 20
2.43357009373813
 30
0.0
 40
0.175000000000001
 50
270
 51
90.0000000000004
  0
LINE
  8
4
  6
CONTINUOUS
 62
4
 10
2.36611070628785
 20
2.25857009033813
 30
0.0
 11
1.93948602251551
 21
2.25857009033813
 31
0.0
  0
ARC
  8
4
  6
CONTINUOUS
 62
4
 10
1.71611068849178
 20
2.43357009374206
 30
0.0
 40
0.175000000003929
 50
180.000000001286
 51
269.999999998714
  0
ARC
  8
4
  6
CONTINUOUS
 62
4
 10
2.04111068848785
 20
1.73803654889552
 30
0.0
 40
0.0492125984251963
 50
179.999999999999
 51
359.999999999999
  0
ARC
  8
4
  6
CONTINUOUS
 62
4
 10
2.04111068848785
 20
1.73803654889552
 30
0.0
 40
0.0492125984251963
 50
359.999999999999
 51
180
  0
ARC
  8
4
  6
CONTINUOUS
 62
4
 10
1.71611068849178
 20
1.73803654889159
 30
0.0
 40
0.175000000003929
 50
90.000000001286
 51
179.999999998714
  0
LINE
  8
4
  6
CONTINUOUS
 62
4
 10
1.71611068848785
 20
1.91303655219552
 30
0.0
 11
2.06588759923056
 21
1.91303655219552
 31
0.0
  0
ARC
  8
4
  6
CONTINUOUS
 62
4
 10
2.36611068848785
 20
1.73803654889552
 30
0.0
 40
0.175000000000001
 50
270
 51
90.0000000000004
  0
LINE
  8
4
  6
CONTINUOUS
 62
4
 10
2.36611070628785
 20
1.56303654549552
 30
0.0
 11
1.97523363989157
 21
1.56303654549552
 31
0.0
  0
ARC
  8
4
  6
CONTINUOUS
 62
4
 10
1.71611068849178
 20
1.73803654889945
 30
0.0
 40
0.175000000003929
 50
180.000000001286
 51
269.999999998714
  0
ARC
  8
4
  6
CONTINUOUS
 62
4
 10
2.04111068848785
 20
1.04250300405291
 30
0.0
 40
0.0492125984251963
 50
179.999999999999
 51
359.999999999999
  0
ARC
  8
4
  6
CONTINUOUS
 62
4
 10
2.04111068848785
 20
1.04250300405291
 30
0.0
 40
0.0492125984251963
 50
359.999999999999
 51
180
  0
ARC
  8
4
  6
CONTINUOUS
 62
4
 10
1.71611068849178
 20
1.04250300404898
 30
0.0
 40
0.175000000003929
 50
90.000000001286
 51
179.999999998714
  0
LINE
  8
4
  6
CONTINUOUS
 62
4
 10
1.71611068848785
 20
1.21750300735291
 30
0.0
 11
2.13648900466584
 21
1.21750300735291
 31
0.0
  0
ARC
  8
4
  6
CONTINUOUS
 62
4
 10
2.36611068848785
 20
1.04250300405291
 30
0.0
 40
0.175000000000001
 50
270
 51
90.0000000000004
  0
LINE
  8
4
  6
CONTINUOUS
 62
4
 10
2.36611070628785
 20
0.86750300065291
 30
0.0
 11
2.20711208047974
 21
0.86750300065291
 31
0.0
  0
ARC
  8
4
  6
CONTINUOUS
 62
4
 10
1.71611068849178
 20
1.04250300405684
 30
0.0
 40
0.175000000003929
 50
180.000000001286
 51
269.999999998714
  0
ARC
  8
4
  6
CONTINUOUS
 62
4
 10
2.04111068848454
 20
0.346969459213614
 30
0.0
 40
0.049212598421882
 50
89.9999999961411
 51
180.000000003859
  0
ARC
  8
4
  6
CONTINUOUS
 62
4
 10
2.04111068848785
 20
0.346969459210299
 30
0.0
 40
0.0492125984251963
 50
179.999999999999
 51
359.999999999999
  0
ARC
  8
4
  6
CONTINUOUS
 62
4
 10
2.04111068849117
 20
0.346969459213614
 30
0.0
 40
0.049212598421882
 50
359.999999996141
 51
90.0000000038585
  0
ARC
  8
4
  6
CONTINUOUS
 62
4
 10
1.71611068849178
 20
0.346969459206369
 30
0.0
 40
0.175000000003929
 50
90.000000001286
 51
179.999999998714
  0
ARC
  8
4
  6
CONTINUOUS
 62
4
 10
2.36611068848785
 20
0.346969459210299
 30
0.0
 40
0.175000000000001
 50
270
 51
90.0000000000004
  0
LINE
  8
4
  6
CONTINUOUS
 62
4
 10
2.36611070628785
 20
0.1719694558103
 30
0.0
 11
1.95447053247925
 21
0.1719694558103
 31
0.0
  0
ARC
  8
4
  6
CONTINUOUS
 62
4
 10
1.71611068849178
 20
0.346969459214228
 30
0.0
 40
0.175000000003929
 50
180.000000001286
 51
269.999999998714
  0
ARC
  8
4
  6
CONTINUOUS
 62
4
 10
0.67749887030958
 20
0.3469694592103
 30
0.0
 40
0.0492125984251963
 50
359.999999999999
 51
180
  0
ARC
  8
4
  6
CONTINUOUS
 62
4
 10
0.67749887030958
 20
0.346969459210299
 30
0.0
 40
0.0492125984251963
 50
179.999999999999
 51
359.999999999999
  0
LINE
  8
4
  6
CONTINUOUS
 62
4
 10
0.67749887920958
 20
0.521969462510299
 30
0.0
 11
1.00249888810958
 21
0.521969462510299
 31
0.0
  0
ARC
  8
4
  6
CONTINUOUS
 62
4
 10
1.00249887030958
 20
0.346969459210299
 30
0.0
 40
0.175000000000001
 50
270
 51
90.0000000000004
  0
LINE
  8
4
  6
CONTINUOUS
 62
4
 10
1.00249888810958
 20
0.1719694558103
 30
0.0
 11
0.738265871174566
 21
0.1719694558103
 31
0.0
  0
ARC
  8
4
  6
CONTINUOUS
 62
4
 10
0.35249887030958
 20
0.346969459210299
 30
0.0
 40
0.175000000000001
 50
90
 51
270
  0
LINE
  8
4
  6
CONTINUOUS
 62
4
 10
0.35249887030958
 20
0.521969462510299
 30
0.0
 11
0.473755095732387
 21
0.521969462510299
 31
0.0
  0
ARC
  8
4
  6
CONTINUOUS
 62
4
 10
0.67749887030958
 20
1.04250300405291
 30
0.0
 40
0.0492125984251963
 50
359.999999999999
 51
180
  0
ARC
  8
4
  6
CONTINUOUS
 62
4
 10
0.67749887030958
 20
1.04250300405291
 30
0.0
 40
0.0492125984251963
 50
179.999999999999
 51
359.999999999999
  0
LINE
  8
4
  6
CONTINUOUS
 62
4
 10
0.67749887920958
 20
1.21750300735291
 30
0.0
 11
1.00249888810958
 21
1.21750300735291
 31
0.0
  0
ARC
  8
4
  6
CONTINUOUS
 62
4
 10
1.00249887030958
 20
1.04250300405291
 30
0.0
 40
0.175000000000001
 50
270
 51
90.0000000000004
  0
LINE
  8
4
  6
CONTINUOUS
 62
4
 10
1.00249888810958
 20
0.86750300065291
 30
0.0
 11
0.867524337593421
 21
0.86750300065291
 31
0.0
  0
ARC
  8
4
  6
CONTINUOUS
 62
4
 10
0.35249887030958
 20
1.04250300405291
 30
0.0
 40
0.175000000000001
 50
90
 51
270
  0
LINE
  8
4
  6
CONTINUOUS
 62
4
 10
0.35249887030958
 20
1.21750300735291
 30
0.0
 11
0.450253556383505
 21
1.21750300735291
 31
0.0
  0
ARC
  8
4
  6
CONTINUOUS
 62
4
 10
0.67749887030958
 20
1.73803654889552
 30
0.0
 40
0.0492125984251963
 50
359.999999999999
 51
180
  0
ARC
  8
4
  6
CONTINUOUS
 62
4
 10
0.67749887030958
 20
1.73803654889552
 30
0.0
 40
0.0492125984251963
 50
179.999999999999
 51
359.999999999999
  0
LINE
  8
4
  6
CONTINUOUS
 62
4
 10
0.67749887920958
 20
1.91303655219552
 30
0.0
 11
1.00249888810958
 21
1.91303655219552
 31
0.0
  0
ARC
  8
4
  6
CONTINUOUS
 62
4
 10
1.00249887030958
 20
1.73803654889552
 30
0.0
 40
0.175000000000001
 50
270
 51
90.0000000000004
  0
LINE
  8
4
  6
CONTINUOUS
 62
4
 10
1.00249888810958
 20
1.56303654549552
 30
0.0
 11
0.891025876942304
 21
1.56303654549552
 31
0.0
  0
ARC
  8
4
  6
CONTINUOUS
 62
4
 10
0.35249887030958
 20
1.73803654889552
 30
0.0
 40
0.175000000000001
 50
90
 51
270
  0
LINE
  8
4
  6
CONTINUOUS
 62
4
 10
0.35249887030958
 20
1.91303655219552
 30
0.0
 11
0.491381250244049
 21
1.91303655219552
 31
0.0
  0
ARC
  8
4
  6
CONTINUOUS
 62
4
 10
0.67749887030958
 20
2.43357009373813
 30
0.0
 40
0.0492125984251963
 50
359.999999999999
 51
180
  0
ARC
  8
4
  6
CONTINUOUS
 62
4
 10
0.67749887030958
 20
2.43357009373813
 30
0.0
 40
0.0492125984251963
 50
179.999999999999
 51
359.999999999999
  0
LINE
  8
4
  6
CONTINUOUS
 62
4
 10
0.67749887920958
 20
2.60857009703813
 30
0.0
 11
1.00249888810958
 21
2.60857009703813
 31
0.0
  0
ARC
  8
4
  6
CONTINUOUS
 62
4
 10
1.00249887030958
 20
2.43357009373813
 30
0.0
 40
0.175000000000001
 50
270
 51
90.0000000000004
  0
LINE
  8
4
  6
CONTINUOUS
 62
4
 10
1.00249888810958
 20
2.25857009033813
 30
0.0
 11
0.902805118609754
 21
2.25857009033813
 31
0.0
  0
ARC
  8
4
  6
CONTINUOUS
 62
4
 10
0.35249887030958
 20
2.43357009373813
 30
0.0
 40
0.175000000000001
 50
90
 51
270
  0
LINE
  8
4
  6
CONTINUOUS
 62
4
 10
0.35249887030958
 20
2.60857009703813
 30
0.0
 11
0.457244817307834
 21
2.60857009703813
 31
0.0
  0
ARC
  8
4
  6
CONTINUOUS
 62
4
 10
0.677498870312895
 20
3.12910363857742
 30
0.0
 40
0.049212598421882
 50
269.999999996141
 51
3.85850263403619E-9
  0
ARC
  8
4
  6
CONTINUOUS
 62
4
 10
0.67749887030958
 20
3.12910363858074
 30
0.0
 40
0.0492125984251963
 50
359.999999999999
 51
180
  0
ARC
  8
4
  6
CONTINUOUS
 62
4
 10
0.677498870306266
 20
3.12910363857742
 30
0.0
 40
0.049212598421882
 50
179.999999996141
 51
270.000000003858
  0
LINE
  8
4
  6
CONTINUOUS
 62
4
 10
0.67749887920958
 20
2.95410363518074
 30
0.0
 11
0.35249887030958
 21
2.95410363518074
 31
0.0
  0
ARC
  8
4
  6
CONTINUOUS
 62
4
 10
0.35249887030958
 20
3.12910363858074
 30
0.0
 40
0.175000000000001
 50
90
 51
270
  0
LINE
  8
4
  6
CONTINUOUS
 62
4
 10
0.35249887030958
 20
3.30410364188074
 30
0.0
 11
0.677688457793541
 21
3.30410364188074
 31
0.0
  0
ARC
  8
4
  6
CONTINUOUS
 62
4
 10
1.00249887030958
 20
3.12910363858074
 30
0.0
 40
0.175000000000001
 50
270
 51
90.0000000000004
  0
LINE
  8
4
  6
CONTINUOUS
 62
4
 10
1.00249888810958
 20
2.95410363518074
 30
0.0
 11
0.884931309921723
 21
2.95410363518074
 31
0.0
  0
LINE
  8
4
  6
CONTINUOUS
 62
4
 10
0.473755095732387
 20
0.521969462510299
 30
0.0
 11
0.480149885544006
 21
0.573127781003249
 31
0.0
  0
LINE
  8
4
  6
CONTINUOUS
 62
4
 10
0.573755095732387
 20
0.521969462510299
 30
0.0
 11
0.567360305920768
 21
0.573127781003249
 31
0.0
  0
LINE
  8
4
  6
CONTINUOUS
 62
4
 10
0.573755095732387
 20
0.521969462510299
 30
0.0
 11
0.67749887920958
 21
0.521969462510299
 31
0.0
  0
LINE
  8
4
  6
CONTINUOUS
 62
4
 10
0.738265871174566
 20
0.1719694558103
 30
0.0
 11
0.731871081362948
 21
0.12081113731735
 31
0.0
  0
LINE
  8
4
  6
CONTINUOUS
 62
4
 10
0.638265871174566
 20
0.1719694558103
 30
0.0
 11
0.644660660986185
 21
0.12081113731735
 31
0.0
  0
LINE
  8
4
  6
CONTINUOUS
 62
4
 10
0.638265871174566
 20
0.1719694558103
 30
0.0
 11
0.35249887030958
 21
0.1719694558103
 31
0.0
  0
LINE
  8
4
  6
CONTINUOUS
 62
4
 10
1.95447053247925
 20
0.1719694558103
 30
0.0
 11
1.94807574266763
 21
0.12081113731735
 31
0.0
  0
LINE
  8
4
  6
CONTINUOUS
 62
4
 10
1.85447053247925
 20
0.1719694558103
 30
0.0
 11
1.86086532229087
 21
0.12081113731735
 31
0.0
  0
LINE
  8
4
  6
CONTINUOUS
 62
4
 10
1.85447053247925
 20
0.1719694558103
 30
0.0
 11
1.71611068848785
 21
0.1719694558103
 31
0.0
  0
LINE
  8
4
  6
CONTINUOUS
 62
4
 10
1.71611068848785
 20
0.521969462510299
 30
0.0
 11
1.72250547829947
 21
0.573127781003249
 31
0.0
  0
LINE
  8
4
  6
CONTINUOUS
 62
4
 10
1.81611068848785
 20
0.521969462510299
 30
0.0
 11
1.80971589867624
 21
0.573127781003249
 31
0.0
  0
LINE
  8
4
  6
CONTINUOUS
 62
4
 10
1.81611068848785
 20
0.521969462510299
 30
0.0
 11
2.36611070628785
 21
0.521969462510299
 31
0.0
  0
LINE
  8
4
  6
CONTINUOUS
 62
4
 10
3.29405827536556
 20
0.1719694558103
 30
0.0
 11
3.28766348555394
 21
0.12081113731735
 31
0.0
  0
LINE
  8
4
  6
CONTINUOUS
 62
4
 10
3.19405827536556
 20
0.1719694558103
 30
0.0
 11
3.20045306517718
 21
0.12081113731735
 31
0.0
  0
LINE
  8
4
  6
CONTINUOUS
 62
4
 10
3.19405827536556
 20
0.1719694558103
 30
0.0
 11
3.07972250666613
 21
0.1719694558103
 31
0.0
  0
LINE
  8
4
  6
CONTINUOUS
 62
4
 10
3.17055673601668
 20
0.521969462510299
 30
0.0
 11
3.1769515258283
 21
0.573127781003249
 31
0.0
  0
LINE
  8
4
  6
CONTINUOUS
 62
4
 10
3.27055673601668
 20
0.521969462510299
 30
0.0
 11
3.26416194620506
 21
0.573127781003249
 31
0.0
  0
LINE
  8
4
  6
CONTINUOUS
 62
4
 10
3.27055673601668
 20
0.521969462510299
 30
0.0
 11
3.72972252446613
 21
0.521969462510299
 31
0.0
  0
LINE
  8
4
  6
CONTINUOUS
 62
4
 10
3.59957828690104
 20
0.86750300065291
 30
0.0
 11
3.59318349708942
 21
0.81634468215996
 31
0.0
  0
LINE
  8
4
  6
CONTINUOUS
 62
4
 10
3.49957828690104
 20
0.86750300065291
 30
0.0
 11
3.50597307671266
 21
0.81634468215996
 31
0.0
  0
LINE
  8
4
  6
CONTINUOUS
 62
4
 10
3.49957828690104
 20
0.86750300065291
 30
0.0
 11
3.07972250666613
 21
0.86750300065291
 31
0.0
  0
LINE
  8
4
  6
CONTINUOUS
 62
4
 10
3.46432597787771
 20
1.21750300735291
 30
0.0
 11
3.47072076768933
 21
1.26866132584586
 31
0.0
  0
LINE
  8
4
  6
CONTINUOUS
 62
4
 10
3.56432597787771
 20
1.21750300735291
 30
0.0
 11
3.55793118806609
 21
1.26866132584586
 31
0.0
  0
LINE
  8
4
  6
CONTINUOUS
 62
4
 10
3.56432597787771
 20
1.21750300735291
 30
0.0
 11
3.72972252446613
 21
1.21750300735291
 31
0.0
  0
LINE
  8
4
  6
CONTINUOUS
 62
4
 10
2.13648900466584
 20
1.21750300735291
 30
0.0
 11
2.14288379447746
 21
1.26866132584586
 31
0.0
  0
LINE
  8
4
  6
CONTINUOUS
 62
4
 10
2.23648900466584
 20
1.21750300735291
 30
0.0
 11
2.23009421485422
 21
1.26866132584586
 31
0.0
  0
LINE
  8
4
  6
CONTINUOUS
 62
4
 10
2.23648900466584
 20
1.21750300735291
 30
0.0
 11
2.36611070628785
 21
1.21750300735291
 31
0.0
  0
LINE
  8
4
  6
CONTINUOUS
 62
4
 10
2.20711208047974
 20
0.86750300065291
 30
0.0
 11
2.20071729066812
 21
0.81634468215996
 31
0.0
  0
LINE
  8
4
  6
CONTINUOUS
 62
4
 10
2.10711208047974
 20
0.86750300065291
 30
0.0
 11
2.11350687029136
 21
0.81634468215996
 31
0.0
  0
LINE
  8
4
  6
CONTINUOUS
 62
4
 10
2.10711208047974
 20
0.86750300065291
 30
0.0
 11
1.71611068848785
 21
0.86750300065291
 31
0.0
  0
LINE
  8
4
  6
CONTINUOUS
 62
4
 10
0.867524337593421
 20
0.86750300065291
 30
0.0
 11
0.861129547781803
 21
0.81634468215996
 31
0.0
  0
LINE
  8
4
  6
CONTINUOUS
 62
4
 10
0.767524337593421
 20
0.86750300065291
 30
0.0
 11
0.77391912740504
 21
0.81634468215996
 31
0.0
  0
LINE
  8
4
  6
CONTINUOUS
 62
4
 10
0.767524337593421
 20
0.86750300065291
 30
0.0
 11
0.35249887030958
 21
0.86750300065291
 31
0.0
  0
LINE
  8
4
  6
CONTINUOUS
 62
4
 10
0.450253556383505
 20
1.21750300735291
 30
0.0
 11
0.456648346195123
 21
1.26866132584586
 31
0.0
  0
LINE
  8
4
  6
CONTINUOUS
 62
4
 10
0.550253556383505
 20
1.21750300735291
 30
0.0
 11
0.543858766571886
 21
1.26866132584586
 31
0.0
  0
LINE
  8
4
  6
CONTINUOUS
 62
4
 10
0.550253556383505
 20
1.21750300735291
 30
0.0
 11
0.67749887920958
 21
1.21750300735291
 31
0.0
  0
LINE
  8
4
  6
CONTINUOUS
 62
4
 10
0.891025876942304
 20
1.56303654549552
 30
0.0
 11
0.884631087130685
 21
1.51187822700257
 31
0.0
  0
LINE
  8
4
  6
CONTINUOUS
 62
4
 10
0.791025876942304
 20
1.56303654549552
 30
0.0
 11
0.797420666753923
 21
1.51187822700257
 31
0.0
  0
LINE
  8
4
  6
CONTINUOUS
 62
4
 10
0.791025876942304
 20
1.56303654549552
 30
0.0
 11
0.35249887030958
 21
1.56303654549552
 31
0.0
  0
LINE
  8
4
  6
CONTINUOUS
 62
4
 10
0.491381250244049
 20
1.91303655219552
 30
0.0
 11
0.497776040055668
 21
1.96419487068847
 31
0.0
  0
LINE
  8
4
  6
CONTINUOUS
 62
4
 10
0.591381250244049
 20
1.91303655219552
 30
0.0
 11
0.584986460432431
 21
1.96419487068847
 31
0.0
  0
LINE
  8
4
  6
CONTINUOUS
 62
4
 10
0.591381250244049
 20
1.91303655219552
 30
0.0
 11
0.67749887920958
 21
1.91303655219552
 31
0.0
  0
LINE
  8
4
  6
CONTINUOUS
 62
4
 10
2.06588759923056
 20
1.91303655219552
 30
0.0
 11
2.07228238904218
 21
1.96419487068847
 31
0.0
  0
LINE
  8
4
  6
CONTINUOUS
 62
4
 10
2.16588759923056
 20
1.91303655219552
 30
0.0
 11
2.15949280941894
 21
1.96419487068847
 31
0.0
  0
LINE
  8
4
  6
CONTINUOUS
 62
4
 10
2.16588759923056
 20
1.91303655219552
 30
0.0
 11
2.36611070628785
 21
1.91303655219552
 31
0.0
  0
LINE
  8
4
  6
CONTINUOUS
 62
4
 10
1.97523363989157
 20
1.56303654549552
 30
0.0
 11
1.96883885007996
 21
1.51187822700257
 31
0.0
  0
LINE
  8
4
  6
CONTINUOUS
 62
4
 10
1.87523363989157
 20
1.56303654549552
 30
0.0
 11
1.88162842970319
 21
1.51187822700257
 31
0.0
  0
LINE
  8
4
  6
CONTINUOUS
 62
4
 10
1.87523363989157
 20
1.56303654549552
 30
0.0
 11
1.71611068848785
 21
1.56303654549552
 31
0.0
  0
LINE
  8
4
  6
CONTINUOUS
 62
4
 10
3.32897007985137
 20
1.91303655219552
 30
0.0
 11
3.33536486966299
 21
1.96419487068847
 31
0.0
  0
LINE
  8
4
  6
CONTINUOUS
 62
4
 10
3.42897007985137
 20
1.91303655219552
 30
0.0
 11
3.42257529003976
 21
1.96419487068847
 31
0.0
  0
LINE
  8
4
  6
CONTINUOUS
 62
4
 10
3.42897007985137
 20
1.91303655219552
 30
0.0
 11
3.72972252446613
 21
1.91303655219552
 31
0.0
  0
LINE
  8
4
  6
CONTINUOUS
 62
4
 10
3.3634327813286
 20
1.56303654549552
 30
0.0
 11
3.35703799151698
 21
1.51187822700257
 31
0.0
  0
LINE
  8
4
  6
CONTINUOUS
 62
4
 10
3.2634327813286
 20
1.56303654549552
 30
0.0
 11
3.26982757114022
 21
1.51187822700257
 31
0.0
  0
LINE
  8
4
  6
CONTINUOUS
 62
4
 10
3.2634327813286
 20
1.56303654549552
 30
0.0
 11
3.07972250666613
 21
1.56303654549552
 31
0.0
  0
LINE
  8
4
  6
CONTINUOUS
 62
4
 10
3.60175023050233
 20
2.25857009033813
 30
0.0
 11
3.59535544069072
 21
2.20741177184518
 31
0.0
  0
LINE
  8
4
  6
CONTINUOUS
 62
4
 10
3.50175023050233
 20
2.25857009033813
 30
0.0
 11
3.50814502031395
 21
2.20741177184518
 31
0.0
  0
LINE
  8
4
  6
CONTINUOUS
 62
4
 10
3.50175023050233
 20
2.25857009033813
 30
0.0
 11
3.07972250666613
 21
2.25857009033813
 31
0.0
  0
LINE
  8
4
  6
CONTINUOUS
 62
4
 10
3.40642325083284
 20
2.60857009703813
 30
0.0
 11
3.41281804064446
 21
2.65972841553108
 31
0.0
  0
LINE
  8
4
  6
CONTINUOUS
 62
4
 10
3.50642325083284
 20
2.60857009703813
 30
0.0
 11
3.50002846102122
 21
2.65972841553108
 31
0.0
  0
LINE
  8
4
  6
CONTINUOUS
 62
4
 10
3.50642325083284
 20
2.60857009703813
 30
0.0
 11
3.72972252446613
 21
2.60857009703813
 31
0.0
  0
LINE
  8
4
  6
CONTINUOUS
 62
4
 10
1.93948602251551
 20
2.25857009033813
 30
0.0
 11
1.93309123270389
 21
2.20741177184518
 31
0.0
  0
LINE
  8
4
  6
CONTINUOUS
 62
4
 10
1.83948602251551
 20
2.25857009033813
 30
0.0
 11
1.84588081232713
 21
2.20741177184518
 31
0.0
  0
LINE
  8
4
  6
CONTINUOUS
 62
4
 10
1.83948602251551
 20
2.25857009033813
 30
0.0
 11
1.71611068848785
 21
2.25857009033813
 31
0.0
  0
LINE
  8
4
  6
CONTINUOUS
 62
4
 10
2.13142489775334
 20
2.60857009703813
 30
0.0
 11
2.13781968756496
 21
2.65972841553108
 31
0.0
  0
LINE
  8
4
  6
CONTINUOUS
 62
4
 10
2.23142489775334
 20
2.60857009703813
 30
0.0
 11
2.22503010794172
 21
2.65972841553108
 31
0.0
  0
LINE
  8
4
  6
CONTINUOUS
 62
4
 10
2.23142489775334
 20
2.60857009703813
 30
0.0
 11
2.36611070628785
 21
2.60857009703813
 31
0.0
  0
LINE
  8
4
  6
CONTINUOUS
 62
4
 10
0.902805118609754
 20
2.25857009033813
 30
0.0
 11
0.896410328798135
 21
2.20741177184518
 31
0.0
  0
LINE
  8
4
  6
CONTINUOUS
 62
4
 10
0.802805118609754
 20
2.25857009033813
 30
0.0
 11
0.809199908421372
 21
2.20741177184518
 31
0.0
  0
LINE
  8
4
  6
CONTINUOUS
 62
4
 10
0.802805118609754
 20
2.25857009033813
 30
0.0
 11
0.35249887030958
 21
2.25857009033813
 31
0.0
  0
LINE
  8
4
  6
CONTINUOUS
 62
4
 10
0.457244817307834
 20
2.60857009703813
 30
0.0
 11
0.463639607119453
 21
2.65972841553108
 31
0.0
  0
LINE
  8
4
  6
CONTINUOUS
 62
4
 10
0.557244817307834
 20
2.60857009703813
 30
0.0
 11
0.550850027496215
 21
2.65972841553108
 31
0.0
  0
LINE
  8
4
  6
CONTINUOUS
 62
4
 10
0.557244817307834
 20
2.60857009703813
 30
0.0
 11
0.67749887920958
 21
2.60857009703813
 31
0.0
  0
LINE
  8
4
  6
CONTINUOUS
 62
4
 10
0.884931309921723
 20
2.95410363518074
 30
0.0
 11
0.878536520110105
 21
2.90294531668779
 31
0.0
  0
LINE
  8
4
  6
CONTINUOUS
 62
4
 10
0.784931309921723
 20
2.95410363518074
 30
0.0
 11
0.791326099733342
 21
2.90294531668779
 31
0.0
  0
LINE
  8
4
  6
CONTINUOUS
 62
4
 10
0.784931309921723
 20
2.95410363518074
 30
0.0
 11
0.67749887920958
 21
2.95410363518074
 31
0.0
  0
LINE
  8
4
  6
CONTINUOUS
 62
4
 10
1.98119157612092
 20
2.95410363518074
 30
0.0
 11
1.9747967863093
 21
2.90294531668779
 31
0.0
  0
LINE
  8
4
  6
CONTINUOUS
 62
4
 10
1.88119157612092
 20
2.95410363518074
 30
0.0
 11
1.88758636593254
 21
2.90294531668779
 31
0.0
  0
LINE
  8
4
  6
CONTINUOUS
 62
4
 10
1.88119157612092
 20
2.95410363518074
 30
0.0
 11
1.71611068848785
 21
2.95410363518074
 31
0.0
  0
LINE
  8
4
  6
CONTINUOUS
 62
4
 10
3.66728752902511
 20
2.95410363518074
 30
0.0
 11
3.66089273921349
 21
2.90294531668779
 31
0.0
  0
LINE
  8
4
  6
CONTINUOUS
 62
4
 10
3.56728752902511
 20
2.95410363518074
 30
0.0
 11
3.57368231883673
 21
2.90294531668779
 31
0.0
  0
LINE
  8
4
  6
CONTINUOUS
 62
4
 10
3.56728752902511
 20
2.95410363518074
 30
0.0
 11
3.07972250666613
 21
2.95410363518074
 31
0.0
  0
LINE
  8
4
  6
CONTINUOUS
 62
4
 10
3.43025499575021
 20
3.30410364188074
 30
0.0
 11
3.43664978556183
 21
3.35526196037369
 31
0.0
  0
LINE
  8
4
  6
CONTINUOUS
 62
4
 10
3.53025499575021
 20
3.30410364188074
 30
0.0
 11
3.52386020593859
 21
3.35526196037369
 31
0.0
  0
LINE
  8
4
  6
CONTINUOUS
 62
4
 10
3.53025499575021
 20
3.30410364188074
 30
0.0
 11
3.72972252446613
 21
3.30410364188074
 31
0.0
  0
LINE
  8
4
  6
CONTINUOUS
 62
4
 10
2.10163521660663
 20
3.30410364188074
 30
0.0
 11
2.10803000641824
 21
3.35526196037369
 31
0.0
  0
LINE
  8
4
  6
CONTINUOUS
 62
4
 10
2.20163521660662
 20
3.30410364188074
 30
0.0
 11
2.19524042679501
 21
3.35526196037369
 31
0.0
  0
LINE
  8
4
  6
CONTINUOUS
 62
4
 10
2.20163521660662
 20
3.30410364188074
 30
0.0
 11
2.36611070628785
 21
3.30410364188074
 31
0.0
  0
LINE
  8
4
  6
CONTINUOUS
 62
4
 10
0.677688457793541
 20
3.30410364188074
 30
0.0
 11
0.68408324760516
 21
3.35526196037369
 31
0.0
  0
LINE
  8
4
  6
CONTINUOUS
 62
4
 10
0.777688457793541
 20
3.30410364188074
 30
0.0
 11
0.771293667981923
 21
3.35526196037369
 31
0.0
  0
LINE
  8
4
  6
CONTINUOUS
 62
4
 10
0.777688457793541
 20
3.30410364188074
 30
0.0
 11
1.00249888810958
 21
3.30410364188074
 31
0.0
  0
LINE
  8
9
  6
CONTINUOUS
 62
9
 10
3.40476934615521
 20
0.344822835816336
 30
0.0
 11
3.45393510509133
 21
0.346969459210299
 31
0.0
  0
LINE
  8
9
  6
CONTINUOUS
 62
9
 10
3.45393510509133
 20
0.346969459210299
 30
0.0
 11
3.40476934615521
 21
0.349116082604263
 31
0.0
  0
LINE
  8
9
  6
CONTINUOUS
 62
9
 10
2.75486527342885
 20
0.340426551105499
 30
0.0
 11
2.90472250666613
 21
0.346969459210299
 31
0.0
  0
LINE
  8
9
  6
CONTINUOUS
 62
9
 10
2.90472250666613
 20
0.346969459210299
 30
0.0
 11
2.85477009558704
 21
0.349150428578566
 31
0.0
  0
LINE
  8
9
  6
CONTINUOUS
 62
9
 10
3.40476934615521
 20
1.04035638065895
 30
0.0
 11
3.45393510509133
 21
1.04250300405291
 31
0.0
  0
LINE
  8
9
  6
CONTINUOUS
 62
9
 10
3.45393510509133
 20
1.04250300405291
 30
0.0
 11
3.40476934615521
 21
1.04464962744687
 31
0.0
  0
LINE
  8
9
  6
CONTINUOUS
 62
9
 10
2.75486527342885
 20
1.03596009594811
 30
0.0
 11
2.90472250666613
 21
1.04250300405291
 31
0.0
  0
LINE
  8
9
  6
CONTINUOUS
 62
9
 10
2.90472250666613
 20
1.04250300405291
 30
0.0
 11
2.85477009558704
 21
1.04468397342118
 31
0.0
  0
LINE
  8
9
  6
CONTINUOUS
 62
9
 10
3.40476934615521
 20
1.73588992550156
 30
0.0
 11
3.45393510509133
 21
1.73803654889552
 31
0.0
  0
LINE
  8
9
  6
CONTINUOUS
 62
9
 10
3.45393510509133
 20
1.73803654889552
 30
0.0
 11
3.40476934615521
 21
1.74018317228948
 31
0.0
  0
LINE
  8
9
  6
CONTINUOUS
 62
9
 10
2.75486527342885
 20
1.73149364079072
 30
0.0
 11
2.90472250666613
 21
1.73803654889552
 31
0.0
  0
LINE
  8
9
  6
CONTINUOUS
 62
9
 10
2.90472250666613
 20
1.73803654889552
 30
0.0
 11
2.85477009558704
 21
1.74021751826379
 31
0.0
  0
LINE
  8
9
  6
CONTINUOUS
 62
9
 10
3.40476934615521
 20
2.43142347034417
 30
0.0
 11
3.45393510509133
 21
2.43357009373813
 31
0.0
  0
LINE
  8
9
  6
CONTINUOUS
 62
9
 10
3.45393510509133
 20
2.43357009373813
 30
0.0
 11
3.40476934615521
 21
2.43571671713209
 31
0.0
  0
LINE
  8
9
  6
CONTINUOUS
 62
9
 10
2.75486527342885
 20
2.42702718563333
 30
0.0
 11
2.90472250666613
 21
2.43357009373813
 31
0.0
  0
LINE
  8
9
  6
CONTINUOUS
 62
9
 10
2.90472250666613
 20
2.43357009373813
 30
0.0
 11
2.85477009558704
 21
2.4357510631064
 31
0.0
  0
LINE
  8
9
  6
CONTINUOUS
 62
9
 10
3.40686913006009
 20
3.12915047806982
 30
0.0
 11
3.40472250666613
 21
3.17831623700594
 31
0.0
  0
LINE
  8
9
  6
CONTINUOUS
 62
9
 10
3.40472250666613
 20
3.17831623700594
 30
0.0
 11
3.40257588327217
 21
3.12915047806982
 31
0.0
  0
LINE
  8
9
  6
CONTINUOUS
 62
9
 10
2.75486527342885
 20
3.12256073047594
 30
0.0
 11
2.90472250666613
 21
3.12910363858074
 31
0.0
  0
LINE
  8
9
  6
CONTINUOUS
 62
9
 10
2.90472250666613
 20
3.12910363858074
 30
0.0
 11
2.85477009558704
 21
3.13128460794901
 31
0.0
  0
LINE
  8
9
  6
CONTINUOUS
 62
9
 10
2.04106384899877
 20
3.1312502619747
 30
0.0
 11
1.99189809006266
 21
3.12910363858074
 31
0.0
  0
LINE
  8
9
  6
CONTINUOUS
 62
9
 10
1.99189809006266
 20
3.12910363858074
 30
0.0
 11
2.04106384899877
 21
3.12695701518678
 31
0.0
  0
LINE
  8
9
  6
CONTINUOUS
 62
9
 10
1.39125345525058
 20
3.12256073047594
 30
0.0
 11
1.54111068848785
 21
3.12910363858074
 31
0.0
  0
LINE
  8
9
  6
CONTINUOUS
 62
9
 10
1.54111068848785
 20
3.12910363858074
 30
0.0
 11
1.49115827740876
 21
3.13128460794901
 31
0.0
  0
LINE
  8
9
  6
CONTINUOUS
 62
9
 10
2.04106384899877
 20
2.43571671713209
 30
0.0
 11
1.99189809006266
 21
2.43357009373813
 31
0.0
  0
LINE
  8
9
  6
CONTINUOUS
 62
9
 10
1.99189809006266
 20
2.43357009373813
 30
0.0
 11
2.04106384899877
 21
2.43142347034417
 31
0.0
  0
LINE
  8
9
  6
CONTINUOUS
 62
9
 10
1.39125345525058
 20
2.42702718563333
 30
0.0
 11
1.54111068848785
 21
2.43357009373813
 31
0.0
  0
LINE
  8
9
  6
CONTINUOUS
 62
9
 10
1.54111068848785
 20
2.43357009373813
 30
0.0
 11
1.49115827740876
 21
2.4357510631064
 31
0.0
  0
LINE
  8
9
  6
CONTINUOUS
 62
9
 10
2.04106384899877
 20
1.74018317228948
 30
0.0
 11
1.99189809006266
 21
1.73803654889552
 31
0.0
  0
LINE
  8
9
  6
CONTINUOUS
 62
9
 10
1.99189809006266
 20
1.73803654889552
 30
0.0
 11
2.04106384899877
 21
1.73588992550156
 31
0.0
  0
LINE
  8
9
  6
CONTINUOUS
 62
9
 10
1.39125345525058
 20
1.73149364079072
 30
0.0
 11
1.54111068848785
 21
1.73803654889552
 31
0.0
  0
LINE
  8
9
  6
CONTINUOUS
 62
9
 10
1.54111068848785
 20
1.73803654889552
 30
0.0
 11
1.49115827740876
 21
1.74021751826379
 31
0.0
  0
LINE
  8
9
  6
CONTINUOUS
 62
9
 10
2.04106384899877
 20
1.04464962744687
 30
0.0
 11
1.99189809006266
 21
1.04250300405291
 31
0.0
  0
LINE
  8
9
  6
CONTINUOUS
 62
9
 10
1.99189809006266
 20
1.04250300405291
 30
0.0
 11
2.04106384899877
 21
1.04035638065895
 31
0.0
  0
LINE
  8
9
  6
CONTINUOUS
 62
9
 10
1.39125345525058
 20
1.03596009594811
 30
0.0
 11
1.54111068848785
 21
1.04250300405291
 31
0.0
  0
LINE
  8
9
  6
CONTINUOUS
 62
9
 10
1.54111068848785
 20
1.04250300405291
 30
0.0
 11
1.49115827740876
 21
1.04468397342118
 31
0.0
  0
LINE
  8
9
  6
CONTINUOUS
 62
9
 10
2.04325731188182
 20
0.347016298699381
 30
0.0
 11
2.04111068848785
 21
0.396182057635496
 31
0.0
  0
LINE
  8
9
  6
CONTINUOUS
 62
9
 10
2.04111068848785
 20
0.396182057635496
 30
0.0
 11
2.03896406509389
 21
0.347016298699381
 31
0.0
  0
LINE
  8
9
  6
CONTINUOUS
 62
9
 10
1.39125345525058
 20
0.340426551105499
 30
0.0
 11
1.54111068848785
 21
0.346969459210299
 31
0.0
  0
LINE
  8
9
  6
CONTINUOUS
 62
9
 10
1.54111068848785
 20
0.346969459210299
 30
0.0
 11
1.49115827740876
 21
0.349150428578566
 31
0.0
  0
LINE
  8
9
  6
CONTINUOUS
 62
9
 10
0.677545709798662
 20
0.344822835816336
 30
0.0
 11
0.726711468734777
 21
0.346969459210299
 31
0.0
  0
LINE
  8
9
  6
CONTINUOUS
 62
9
 10
0.726711468734777
 20
0.346969459210299
 30
0.0
 11
0.677545709798662
 21
0.349116082604263
 31
0.0
  0
LINE
  8
9
  6
CONTINUOUS
 62
9
 10
0.67095597110478
 20
0.671826695747578
 30
0.0
 11
0.67749887920958
 21
0.521969462510299
 31
0.0
  0
LINE
  8
9
  6
CONTINUOUS
 62
9
 10
0.67749887920958
 20
0.521969462510299
 30
0.0
 11
0.679679848577847
 21
0.571921873589392
 31
0.0
  0
LINE
  8
9
  6
CONTINUOUS
 62
9
 10
0.677545709798662
 20
1.04035638065895
 30
0.0
 11
0.726711468734777
 21
1.04250300405291
 31
0.0
  0
LINE
  8
9
  6
CONTINUOUS
 62
9
 10
0.726711468734777
 20
1.04250300405291
 30
0.0
 11
0.677545709798662
 21
1.04464962744687
 31
0.0
  0
LINE
  8
9
  6
CONTINUOUS
 62
9
 10
0.67095597110478
 20
1.36736024059019
 30
0.0
 11
0.67749887920958
 21
1.21750300735291
 31
0.0
  0
LINE
  8
9
  6
CONTINUOUS
 62
9
 10
0.67749887920958
 20
1.21750300735291
 30
0.0
 11
0.679679848577847
 21
1.267455418432
 31
0.0
  0
LINE
  8
9
  6
CONTINUOUS
 62
9
 10
0.677545709798662
 20
1.73588992550156
 30
0.0
 11
0.726711468734777
 21
1.73803654889552
 31
0.0
  0
LINE
  8
9
  6
CONTINUOUS
 62
9
 10
0.726711468734777
 20
1.73803654889552
 30
0.0
 11
0.677545709798662
 21
1.74018317228948
 31
0.0
  0
LINE
  8
9
  6
CONTINUOUS
 62
9
 10
0.67095597110478
 20
2.0628937854328
 30
0.0
 11
0.67749887920958
 21
1.91303655219552
 31
0.0
  0
LINE
  8
9
  6
CONTINUOUS
 62
9
 10
0.67749887920958
 20
1.91303655219552
 30
0.0
 11
0.679679848577847
 21
1.96298896327461
 31
0.0
  0
LINE
  8
9
  6
CONTINUOUS
 62
9
 10
0.677545709798662
 20
2.43142347034417
 30
0.0
 11
0.726711468734777
 21
2.43357009373813
 31
0.0
  0
LINE
  8
9
  6
CONTINUOUS
 62
9
 10
0.726711468734777
 20
2.43357009373813
 30
0.0
 11
0.677545709798662
 21
2.43571671713209
 31
0.0
  0
LINE
  8
9
  6
CONTINUOUS
 62
9
 10
0.67095597110478
 20
2.75842733027541
 30
0.0
 11
0.67749887920958
 21
2.60857009703813
 31
0.0
  0
LINE
  8
9
  6
CONTINUOUS
 62
9
 10
0.67749887920958
 20
2.60857009703813
 30
0.0
 11
0.679679848577847
 21
2.65852250811722
 31
0.0
  0
LINE
  8
9
  6
CONTINUOUS
 62
9
 10
0.675352246915617
 20
3.12905679909166
 30
0.0
 11
0.67749887030958
 21
3.07989104015554
 31
0.0
  0
LINE
  8
9
  6
CONTINUOUS
 62
9
 10
0.67749887030958
 20
3.07989104015554
 30
0.0
 11
0.679645493703544
 21
3.12905679909166
 31
0.0
  0
LINE
  8
9
  6
CONTINUOUS
 62
9
 10
0.684041787314381
 20
2.80424640194346
 30
0.0
 11
0.67749887920958
 21
2.95410363518074
 31
0.0
  0
LINE
  8
9
  6
CONTINUOUS
 62
9
 10
0.67749887920958
 20
2.95410363518074
 30
0.0
 11
0.675317909841313
 21
2.90415122410165
 31
0.0
  0
LINE
  8
9
  6
CONTINUOUS
 62
9
 10
0.480149885544006
 20
0.573127781003249
 30
0.0
 11
0.498755095732387
 21
0.721969462510299
 31
0.0
  0
LINE
  8
9
  6
CONTINUOUS
 62
9
 10
0.567360305920768
 20
0.573127781003249
 30
0.0
 11
0.548755095732387
 21
0.721969462510299
 31
0.0
  0
LINE
  8
9
  6
CONTINUOUS
 62
9
 10
0.731871081362948
 20
0.12081113731735
 30
0.0
 11
0.713265871174566
 21
-0.0280305441897005
 31
0.0
  0
LINE
  8
9
  6
CONTINUOUS
 62
9
 10
0.644660660986185
 20
0.12081113731735
 30
0.0
 11
0.663265871174566
 21
-0.0280305441897005
 31
0.0
  0
LINE
  8
9
  6
CONTINUOUS
 62
9
 10
1.94807574266763
 20
0.12081113731735
 30
0.0
 11
1.92947053247925
 21
-0.0280305441897005
 31
0.0
  0
LINE
  8
9
  6
CONTINUOUS
 62
9
 10
1.86086532229087
 20
0.12081113731735
 30
0.0
 11
1.87947053247925
 21
-0.0280305441897005
 31
0.0
  0
LINE
  8
9
  6
CONTINUOUS
 62
9
 10
1.72250547829947
 20
0.573127781003249
 30
0.0
 11
1.74111068848785
 21
0.721969462510299
 31
0.0
  0
LINE
  8
9
  6
CONTINUOUS
 62
9
 10
1.80971589867624
 20
0.573127781003249
 30
0.0
 11
1.79111068848785
 21
0.721969462510299
 31
0.0
  0
LINE
  8
9
  6
CONTINUOUS
 62
9
 10
3.28766348555394
 20
0.12081113731735
 30
0.0
 11
3.26905827536556
 21
-0.0280305441897005
 31
0.0
  0
LINE
  8
9
  6
CONTINUOUS
 62
9
 10
3.20045306517718
 20
0.12081113731735
 30
0.0
 11
3.21905827536556
 21
-0.0280305441897005
 31
0.0
  0
LINE
  8
9
  6
CONTINUOUS
 62
9
 10
3.1769515258283
 20
0.573127781003249
 30
0.0
 11
3.19555673601668
 21
0.721969462510299
 31
0.0
  0
LINE
  8
9
  6
CONTINUOUS
 62
9
 10
3.26416194620506
 20
0.573127781003249
 30
0.0
 11
3.24555673601668
 21
0.721969462510299
 31
0.0
  0
LINE
  8
9
  6
CONTINUOUS
 62
9
 10
3.59318349708942
 20
0.81634468215996
 30
0.0
 11
3.57457828690104
 21
0.667503000652909
 31
0.0
  0
LINE
  8
9
  6
CONTINUOUS
 62
9
 10
3.50597307671266
 20
0.81634468215996
 30
0.0
 11
3.52457828690104
 21
0.667503000652909
 31
0.0
  0
LINE
  8
9
  6
CONTINUOUS
 62
9
 10
3.47072076768933
 20
1.26866132584586
 30
0.0
 11
3.48932597787771
 21
1.41750300735291
 31
0.0
  0
LINE
  8
9
  6
CONTINUOUS
 62
9
 10
3.55793118806609
 20
1.26866132584586
 30
0.0
 11
3.53932597787771
 21
1.41750300735291
 31
0.0
  0
LINE
  8
9
  6
CONTINUOUS
 62
9
 10
2.14288379447746
 20
1.26866132584586
 30
0.0
 11
2.16148900466584
 21
1.41750300735291
 31
0.0
  0
LINE
  8
9
  6
CONTINUOUS
 62
9
 10
2.23009421485422
 20
1.26866132584586
 30
0.0
 11
2.21148900466584
 21
1.41750300735291
 31
0.0
  0
LINE
  8
9
  6
CONTINUOUS
 62
9
 10
2.20071729066812
 20
0.81634468215996
 30
0.0
 11
2.18211208047974
 21
0.667503000652909
 31
0.0
  0
LINE
  8
9
  6
CONTINUOUS
 62
9
 10
2.11350687029136
 20
0.81634468215996
 30
0.0
 11
2.13211208047974
 21
0.667503000652909
 31
0.0
  0
LINE
  8
9
  6
CONTINUOUS
 62
9
 10
0.861129547781803
 20
0.81634468215996
 30
0.0
 11
0.842524337593421
 21
0.667503000652909
 31
0.0
  0
LINE
  8
9
  6
CONTINUOUS
 62
9
 10
0.77391912740504
 20
0.81634468215996
 30
0.0
 11
0.792524337593421
 21
0.667503000652909
 31
0.0
  0
LINE
  8
9
  6
CONTINUOUS
 62
9
 10
0.456648346195123
 20
1.26866132584586
 30
0.0
 11
0.475253556383505
 21
1.41750300735291
 31
0.0
  0
LINE
  8
9
  6
CONTINUOUS
 62
9
 10
0.543858766571886
 20
1.26866132584586
 30
0.0
 11
0.525253556383505
 21
1.41750300735291
 31
0.0
  0
LINE
  8
9
  6
CONTINUOUS
 62
9
 10
0.884631087130685
 20
1.51187822700257
 30
0.0
 11
0.866025876942304
 21
1.36303654549552
 31
0.0
  0
LINE
  8
9
  6
CONTINUOUS
 62
9
 10
0.797420666753923
 20
1.51187822700257
 30
0.0
 11
0.816025876942304
 21
1.36303654549552
 31
0.0
  0
LINE
  8
9
  6
CONTINUOUS
 62
9
 10
0.497776040055668
 20
1.96419487068847
 30
0.0
 11
0.516381250244049
 21
2.11303655219552
 31
0.0
  0
LINE
  8
9
  6
CONTINUOUS
 62
9
 10
0.584986460432431
 20
1.96419487068847
 30
0.0
 11
0.566381250244049
 21
2.11303655219552
 31
0.0
  0
LINE
  8
9
  6
CONTINUOUS
 62
9
 10
2.07228238904218
 20
1.96419487068847
 30
0.0
 11
2.09088759923056
 21
2.11303655219552
 31
0.0
  0
LINE
  8
9
  6
CONTINUOUS
 62
9
 10
2.15949280941894
 20
1.96419487068847
 30
0.0
 11
2.14088759923056
 21
2.11303655219552
 31
0.0
  0
LINE
  8
9
  6
CONTINUOUS
 62
9
 10
1.96883885007996
 20
1.51187822700257
 30
0.0
 11
1.95023363989157
 21
1.36303654549552
 31
0.0
  0
LINE
  8
9
  6
CONTINUOUS
 62
9
 10
1.88162842970319
 20
1.51187822700257
 30
0.0
 11
1.90023363989157
 21
1.36303654549552
 31
0.0
  0
LINE
  8
9
  6
CONTINUOUS
 62
9
 10
3.33536486966299
 20
1.96419487068847
 30
0.0
 11
3.35397007985137
 21
2.11303655219552
 31
0.0
  0
LINE
  8
9
  6
CONTINUOUS
 62
9
 10
3.42257529003976
 20
1.96419487068847
 30
0.0
 11
3.40397007985137
 21
2.11303655219552
 31
0.0
  0
LINE
  8
9
  6
CONTINUOUS
 62
9
 10
3.35703799151698
 20
1.51187822700257
 30
0.0
 11
3.3384327813286
 21
1.36303654549552
 31
0.0
  0
LINE
  8
9
  6
CONTINUOUS
 62
9
 10
3.26982757114022
 20
1.51187822700257
 30
0.0
 11
3.2884327813286
 21
1.36303654549552
 31
0.0
  0
LINE
  8
9
  6
CONTINUOUS
 62
9
 10
3.59535544069072
 20
2.20741177184518
 30
0.0
 11
3.57675023050234
 21
2.05857009033813
 31
0.0
  0
LINE
  8
9
  6
CONTINUOUS
 62
9
 10
3.50814502031395
 20
2.20741177184518
 30
0.0
 11
3.52675023050234
 21
2.05857009033813
 31
0.0
  0
LINE
  8
9
  6
CONTINUOUS
 62
9
 10
3.41281804064446
 20
2.65972841553108
 30
0.0
 11
3.43142325083284
 21
2.80857009703813
 31
0.0
  0
LINE
  8
9
  6
CONTINUOUS
 62
9
 10
3.50002846102122
 20
2.65972841553108
 30
0.0
 11
3.48142325083284
 21
2.80857009703813
 31
0.0
  0
LINE
  8
9
  6
CONTINUOUS
 62
9
 10
1.93309123270389
 20
2.20741177184518
 30
0.0
 11
1.91448602251551
 21
2.05857009033813
 31
0.0
  0
LINE
  8
9
  6
CONTINUOUS
 62
9
 10
1.84588081232713
 20
2.20741177184518
 30
0.0
 11
1.86448602251551
 21
2.05857009033813
 31
0.0
  0
LINE
  8
9
  6
CONTINUOUS
 62
9
 10
2.13781968756496
 20
2.65972841553108
 30
0.0
 11
2.15642489775334
 21
2.80857009703813
 31
0.0
  0
LINE
  8
9
  6
CONTINUOUS
 62
9
 10
2.22503010794172
 20
2.65972841553108
 30
0.0
 11
2.20642489775334
 21
2.80857009703813
 31
0.0
  0
LINE
  8
9
  6
CONTINUOUS
 62
9
 10
0.896410328798135
 20
2.20741177184518
 30
0.0
 11
0.877805118609754
 21
2.05857009033813
 31
0.0
  0
LINE
  8
9
  6
CONTINUOUS
 62
9
 10
0.809199908421372
 20
2.20741177184518
 30
0.0
 11
0.827805118609754
 21
2.05857009033813
 31
0.0
  0
LINE
  8
9
  6
CONTINUOUS
 62
9
 10
0.463639607119453
 20
2.65972841553108
 30
0.0
 11
0.482244817307834
 21
2.80857009703813
 31
0.0
  0
LINE
  8
9
  6
CONTINUOUS
 62
9
 10
0.550850027496215
 20
2.65972841553108
 30
0.0
 11
0.532244817307834
 21
2.80857009703813
 31
0.0
  0
LINE
  8
9
  6
CONTINUOUS
 62
9
 10
0.878536520110105
 20
2.90294531668779
 30
0.0
 11
0.859931309921723
 21
2.75410363518074
 31
0.0
  0
LINE
  8
9
  6
CONTINUOUS
 62
9
 10
0.791326099733342
 20
2.90294531668779
 30
0.0
 11
0.809931309921723
 21
2.75410363518074
 31
0.0
  0
LINE
  8
9
  6
CONTINUOUS
 62
9
 10
1.9747967863093
 20
2.90294531668779
 30
0.0
 11
1.95619157612092
 21
2.75410363518074
 31
0.0
  0
LINE
  8
9
  6
CONTINUOUS
 62
9
 10
1.88758636593254
 20
2.90294531668779
 30
0.0
 11
1.90619157612092
 21
2.75410363518074
 31
0.0
  0
LINE
  8
9
  6
CONTINUOUS
 62
9
 10
3.66089273921349
 20
2.90294531668779
 30
0.0
 11
3.64228752902511
 21
2.75410363518074
 31
0.0
  0
LINE
  8
9
  6
CONTINUOUS
 62
9
 10
3.57368231883673
 20
2.90294531668779
 30
0.0
 11
3.59228752902511
 21
2.75410363518074
 31
0.0
  0
LINE
  8
9
  6
CONTINUOUS
 62
9
 10
3.43664978556183
 20
3.35526196037369
 30
0.0
 11
3.45525499575021
 21
3.50410364188074
 31
0.0
  0
LINE
  8
9
  6
CONTINUOUS
 62
9
 10
3.52386020593859
 20
3.35526196037369
 30
0.0
 11
3.50525499575021
 21
3.50410364188074
 31
0.0
  0
LINE
  8
9
  6
CONTINUOUS
 62
9
 10
2.10803000641824
 20
3.35526196037369
 30
0.0
 11
2.12663521660662
 21
3.50410364188074
 31
0.0
  0
LINE
  8
9
  6
CONTINUOUS
 62
9
 10
2.19524042679501
 20
3.35526196037369
 30
0.0
 11
2.17663521660662
 21
3.50410364188074
 31
0.0
  0
LINE
  8
9
  6
CONTINUOUS
 62
9
 10
0.68408324760516
 20
3.35526196037369
 30
0.0
 11
0.702688457793541
 21
3.50410364188074
 31
0.0
  0
LINE
  8
9
  6
CONTINUOUS
 62
9
 10
0.771293667981923
 20
3.35526196037369
 30
0.0
 11
0.752688457793541
 21
3.50410364188074
 31
0.0
  0
LINE
  8
10
  6
CONTINUOUS
 62
10
 10
0.675317909841313
 20
2.90415122410165
 30
0.0
 11
0.177605475581238
 21
3.40410364188074
 31
0.0
  0
ENDSEC
  0
EOF
