  0
SECTION
  2
HEADER
  9
$ACADVER
  1
AC1003
  9
$EXTMIN
 10
-0.0303892214641409
 20
2.40862155056776
  9
$EXTMAX
 10
3.2447053936572
 20
0.052638203754714
  9
$INSUNITS
 70
1
  9
$INSBASE
 10
1.60715808609653
 20
1.23062987716124
999
Created with OMAX Layout for Windows. (www.omax.com) 1/25/2016
  0
ENDSEC
  0
SECTION
  2
TABLES
  0
TABLE
  2
LAYER
 70
    10
  0
LAYER
  2
0
 70
     0
 62
     7
  6
CONTINUOUS
  0
LAYER
  2
1
 70
     0
 62
     7
  6
CONTINUOUS
  0
LAYER
  2
2
 70
     0
 62
     7
  6
CONTINUOUS
  0
LAYER
  2
3
 70
     0
 62
     7
  6
CONTINUOUS
  0
LAYER
  2
4
 70
     0
 62
     7
  6
CONTINUOUS
  0
LAYER
  2
5
 70
     0
 62
     7
  6
CONTINUOUS
  0
LAYER
  2
6
 70
     0
 62
     7
  6
CONTINUOUS
  0
LAYER
  2
7
 70
     0
 62
     7
  6
CONTINUOUS
  0
LAYER
  2
8
 70
     0
 62
     7
  6
CONTINUOUS
  0
LAYER
  2
9
 70
     0
 62
     7
  6
CONTINUOUS
  0
LAYER
  2
10
 70
     0
 62
     7
  6
CONTINUOUS
  0
LAYER
  2
11
 70
     0
 62
     7
  6
CONTINUOUS
  0
LAYER
  2
12
 70
     0
 62
     7
  6
CONTINUOUS
  0
LAYER
  2
13
 70
     0
 62
     7
  6
CONTINUOUS
  0
LAYER
  2
14
 70
     0
 62
     7
  6
CONTINUOUS
  0
LAYER
  2
15
 70
     0
 62
     7
  6
CONTINUOUS
  0
LAYER
  2
16
 70
     0
 62
     7
  6
CONTINUOUS
  0
LAYER
  2
17
 70
     0
 62
     7
  6
CONTINUOUS
  0
LAYER
  2
18
 70
     0
 62
     7
  6
CONTINUOUS
  0
LAYER
  2
19
 70
     0
 62
     7
  6
CONTINUOUS
  0
LAYER
  2
20
 70
     0
 62
     7
  6
CONTINUOUS
  0
LAYER
  2
21
 70
     0
 62
     7
  6
CONTINUOUS
  0
LAYER
  2
22
 70
     0
 62
     7
  6
CONTINUOUS
  0
LAYER
  2
23
 70
     0
 62
     7
  6
CONTINUOUS
  0
LAYER
  2
24
 70
     0
 62
     7
  6
CONTINUOUS
  0
LAYER
  2
25
 70
     0
 62
     7
  6
CONTINUOUS
  0
LAYER
  2
26
 70
     0
 62
     7
  6
CONTINUOUS
  0
LAYER
  2
27
 70
     0
 62
     7
  6
CONTINUOUS
  0
LAYER
  2
28
 70
     0
 62
     7
  6
CONTINUOUS
  0
LAYER
  2
29
 70
     0
 62
     7
  6
CONTINUOUS
  0
LAYER
  2
30
 70
     0
 62
     7
  6
CONTINUOUS
  0
LAYER
  2
31
 70
     0
 62
     7
  6
CONTINUOUS
  0
ENDTAB
  0
ENDSEC
  0
SECTION
  2
ENTITIES
  0
LINE
  8
0
  6
CONTINUOUS
 62
0
 10
-0.0303892214641409
 20
0.052638203754714
 30
0.0
 11
2.71468705608512
 21
0.91750277932769
 31
0.0
  0
LINE
  8
0
  6
CONTINUOUS
 62
0
 10
2.80189747646189
 20
0.91750277932769
 30
0.0
 11
2.80189747646189
 21
1.38120903640771
 31
0.0
  0
LINE
  8
0
  6
CONTINUOUS
 62
0
 10
2.71468705608512
 20
1.38120903640771
 30
0.0
 11
2.71468705608512
 21
1.84491529348774
 31
0.0
  0
LINE
  8
0
  6
CONTINUOUS
 62
0
 10
2.80189747646189
 20
1.84491529348774
 30
0.0
 11
2.80189747646189
 21
2.30862155056776
 31
0.0
  0
LINE
  8
0
  6
CONTINUOUS
 62
0
 10
2.71468705608512
 20
2.30862155056776
 30
0.0
 11
1.71429686626539
 21
2.30862155056776
 31
0.0
  0
LINE
  8
0
  6
CONTINUOUS
 62
0
 10
1.62708644588863
 20
2.30862155056776
 30
0.0
 11
1.62708644588863
 21
1.84491529348774
 31
0.0
  0
LINE
  8
0
  6
CONTINUOUS
 62
0
 10
1.71429686626539
 20
1.84491529348774
 30
0.0
 11
1.71429686626539
 21
1.38120903640771
 31
0.0
  0
LINE
  8
0
  6
CONTINUOUS
 62
0
 10
1.62708644588863
 20
1.38120903640771
 30
0.0
 11
1.62708644588863
 21
0.91750277932769
 31
0.0
  0
LINE
  8
0
  6
CONTINUOUS
 62
0
 10
1.71429686626539
 20
0.91750277932769
 30
0.0
 11
1.71429686626539
 21
0.453796522247666
 31
0.0
  0
LINE
  8
0
  6
CONTINUOUS
 62
0
 10
1.62708644588863
 20
0.453796522247666
 30
0.0
 11
0.626696256068895
 21
0.453796522247666
 31
0.0
  0
LINE
  8
0
  6
CONTINUOUS
 62
0
 10
0.539485835692133
 20
0.453796522247666
 30
0.0
 11
0.539485835692133
 21
0.91750277932769
 31
0.0
  0
LINE
  8
0
  6
CONTINUOUS
 62
0
 10
0.626696256068895
 20
0.91750277932769
 30
0.0
 11
0.626696256068895
 21
1.38120903640771
 31
0.0
  0
LINE
  8
0
  6
CONTINUOUS
 62
0
 10
0.539485835692133
 20
1.38120903640771
 30
0.0
 11
0.539485835692133
 21
1.84491529348774
 31
0.0
  0
LINE
  8
0
  6
CONTINUOUS
 62
0
 10
0.626696256068895
 20
1.84491529348774
 30
0.0
 11
0.626696256068895
 21
2.30862155056776
 31
0.0
  0
LINE
  8
0
  6
CONTINUOUS
 62
0
 10
0.539485835692133
 20
2.30862155056776
 30
0.0
 11
2.71468705608512
 21
0.453796522247666
 31
0.0
  0
LINE
  8
0
  6
CONTINUOUS
 62
0
 10
2.80189747646189
 20
0.453796522247666
 30
0.0
 11
0.0696107785358591
 21
2.40862155056776
 31
0.0
  0
LINE
  8
4
  6
CONTINUOUS
 62
4
 10
2.71468705608512
 20
0.91750277932769
 30
0.0
 11
2.7082922662735
 21
0.86634446083474
 31
0.0
  0
LINE
  8
4
  6
CONTINUOUS
 62
4
 10
2.7082922662735
 20
0.86634446083474
 30
0.0
 11
2.41970539365719
 21
0.86634446083474
 31
0.0
  0
ARC
  8
4
  6
CONTINUOUS
 62
4
 10
2.41970539365719
 20
0.691344460834739
 30
0.0
 40
0.175000000000001
 50
90
 51
270
  0
LINE
  8
4
  6
CONTINUOUS
 62
4
 10
2.41970539365719
 20
0.516344460834739
 30
0.0
 11
3.06970539365719
 21
0.516344460834739
 31
0.0
  0
ARC
  8
4
  6
CONTINUOUS
 62
4
 10
3.06970539365719
 20
0.691344460834739
 30
0.0
 40
0.175000000000001
 50
269.999999999999
 51
90.0000000000004
  0
LINE
  8
4
  6
CONTINUOUS
 62
4
 10
3.06970539365719
 20
0.86634446083474
 30
0.0
 11
2.8082922662735
 21
0.86634446083474
 31
0.0
  0
LINE
  8
4
  6
CONTINUOUS
 62
4
 10
2.8082922662735
 20
0.86634446083474
 30
0.0
 11
2.80189747646189
 21
0.91750277932769
 31
0.0
  0
LINE
  8
4
  6
CONTINUOUS
 62
4
 10
2.80189747646189
 20
1.38120903640771
 30
0.0
 11
2.8082922662735
 21
1.33005071791476
 31
0.0
  0
LINE
  8
4
  6
CONTINUOUS
 62
4
 10
2.8082922662735
 20
1.33005071791476
 30
0.0
 11
3.06970539365719
 21
1.33005071791476
 31
0.0
  0
ARC
  8
4
  6
CONTINUOUS
 62
4
 10
3.06970539365719
 20
1.15505071791476
 30
0.0
 40
0.175000000000001
 50
270
 51
90.0000000000008
  0
LINE
  8
4
  6
CONTINUOUS
 62
4
 10
3.06970539365719
 20
0.980050717914763
 30
0.0
 11
2.41970539365719
 21
0.980050717914763
 31
0.0
  0
ARC
  8
4
  6
CONTINUOUS
 62
4
 10
2.41970539365719
 20
1.15505071791476
 30
0.0
 40
0.175000000000001
 50
90
 51
270
  0
LINE
  8
4
  6
CONTINUOUS
 62
4
 10
2.41970539365719
 20
1.33005071791476
 30
0.0
 11
2.7082922662735
 21
1.33005071791476
 31
0.0
  0
LINE
  8
4
  6
CONTINUOUS
 62
4
 10
2.7082922662735
 20
1.33005071791476
 30
0.0
 11
2.71468705608512
 21
1.38120903640771
 31
0.0
  0
LINE
  8
4
  6
CONTINUOUS
 62
4
 10
2.71468705608512
 20
1.84491529348774
 30
0.0
 11
2.7082922662735
 21
1.79375697499479
 31
0.0
  0
LINE
  8
4
  6
CONTINUOUS
 62
4
 10
2.7082922662735
 20
1.79375697499479
 30
0.0
 11
2.41970539365719
 21
1.79375697499479
 31
0.0
  0
ARC
  8
4
  6
CONTINUOUS
 62
4
 10
2.41970539365719
 20
1.61875697499479
 30
0.0
 40
0.175000000000001
 50
90
 51
270
  0
LINE
  8
4
  6
CONTINUOUS
 62
4
 10
2.41970539365719
 20
1.44375697499479
 30
0.0
 11
3.06970539365719
 21
1.44375697499479
 31
0.0
  0
ARC
  8
4
  6
CONTINUOUS
 62
4
 10
3.06970539365719
 20
1.61875697499479
 30
0.0
 40
0.175000000000001
 50
269.999999999999
 51
90.0000000000004
  0
LINE
  8
4
  6
CONTINUOUS
 62
4
 10
3.06970539365719
 20
1.79375697499479
 30
0.0
 11
2.8082922662735
 21
1.79375697499479
 31
0.0
  0
LINE
  8
4
  6
CONTINUOUS
 62
4
 10
2.8082922662735
 20
1.79375697499479
 30
0.0
 11
2.80189747646189
 21
1.84491529348774
 31
0.0
  0
LINE
  8
4
  6
CONTINUOUS
 62
4
 10
2.80189747646189
 20
2.30862155056776
 30
0.0
 11
2.8082922662735
 21
2.25746323207481
 31
0.0
  0
LINE
  8
4
  6
CONTINUOUS
 62
4
 10
2.8082922662735
 20
2.25746323207481
 30
0.0
 11
3.06970539365719
 21
2.25746323207481
 31
0.0
  0
ARC
  8
4
  6
CONTINUOUS
 62
4
 10
3.06970539365719
 20
2.08246323207481
 30
0.0
 40
0.175000000000001
 50
270
 51
90.0000000000008
  0
LINE
  8
4
  6
CONTINUOUS
 62
4
 10
3.06970539365719
 20
1.90746323207481
 30
0.0
 11
2.41970539365719
 21
1.90746323207481
 31
0.0
  0
ARC
  8
4
  6
CONTINUOUS
 62
4
 10
2.41970539365719
 20
2.08246323207481
 30
0.0
 40
0.175000000000001
 50
90
 51
270
  0
LINE
  8
4
  6
CONTINUOUS
 62
4
 10
2.41970539365719
 20
2.25746323207481
 30
0.0
 11
2.7082922662735
 21
2.25746323207481
 31
0.0
  0
LINE
  8
4
  6
CONTINUOUS
 62
4
 10
2.7082922662735
 20
2.25746323207481
 30
0.0
 11
2.71468705608512
 21
2.30862155056776
 31
0.0
  0
LINE
  8
4
  6
CONTINUOUS
 62
4
 10
1.71429686626539
 20
2.30862155056776
 30
0.0
 11
1.72069165607701
 21
2.25746323207481
 31
0.0
  0
LINE
  8
4
  6
CONTINUOUS
 62
4
 10
1.72069165607701
 20
2.25746323207481
 30
0.0
 11
1.9821047834607
 21
2.25746323207481
 31
0.0
  0
ARC
  8
4
  6
CONTINUOUS
 62
4
 10
1.9821047834607
 20
2.08246323207481
 30
0.0
 40
0.175000000000001
 50
270
 51
90.0000000000004
  0
LINE
  8
4
  6
CONTINUOUS
 62
4
 10
1.9821047834607
 20
1.90746323207481
 30
0.0
 11
1.3321047834607
 21
1.90746323207481
 31
0.0
  0
ARC
  8
4
  6
CONTINUOUS
 62
4
 10
1.3321047834607
 20
2.08246323207481
 30
0.0
 40
0.175000000000001
 50
90
 51
270
  0
LINE
  8
4
  6
CONTINUOUS
 62
4
 10
1.3321047834607
 20
2.25746323207481
 30
0.0
 11
1.62069165607701
 21
2.25746323207481
 31
0.0
  0
LINE
  8
4
  6
CONTINUOUS
 62
4
 10
1.62069165607701
 20
2.25746323207481
 30
0.0
 11
1.62708644588863
 21
2.30862155056776
 31
0.0
  0
LINE
  8
4
  6
CONTINUOUS
 62
4
 10
1.62708644588863
 20
1.84491529348774
 30
0.0
 11
1.62069165607701
 21
1.79375697499479
 31
0.0
  0
LINE
  8
4
  6
CONTINUOUS
 62
4
 10
1.62069165607701
 20
1.79375697499479
 30
0.0
 11
1.3321047834607
 21
1.79375697499479
 31
0.0
  0
ARC
  8
4
  6
CONTINUOUS
 62
4
 10
1.3321047834607
 20
1.61875697499479
 30
0.0
 40
0.175000000000001
 50
90
 51
270
  0
LINE
  8
4
  6
CONTINUOUS
 62
4
 10
1.3321047834607
 20
1.44375697499479
 30
0.0
 11
1.9821047834607
 21
1.44375697499479
 31
0.0
  0
ARC
  8
4
  6
CONTINUOUS
 62
4
 10
1.9821047834607
 20
1.61875697499479
 30
0.0
 40
0.175000000000001
 50
270
 51
90
  0
LINE
  8
4
  6
CONTINUOUS
 62
4
 10
1.9821047834607
 20
1.79375697499479
 30
0.0
 11
1.72069165607701
 21
1.79375697499479
 31
0.0
  0
LINE
  8
4
  6
CONTINUOUS
 62
4
 10
1.72069165607701
 20
1.79375697499479
 30
0.0
 11
1.71429686626539
 21
1.84491529348774
 31
0.0
  0
LINE
  8
4
  6
CONTINUOUS
 62
4
 10
1.71429686626539
 20
1.38120903640771
 30
0.0
 11
1.72069165607701
 21
1.33005071791476
 31
0.0
  0
LINE
  8
4
  6
CONTINUOUS
 62
4
 10
1.72069165607701
 20
1.33005071791476
 30
0.0
 11
1.9821047834607
 21
1.33005071791476
 31
0.0
  0
ARC
  8
4
  6
CONTINUOUS
 62
4
 10
1.9821047834607
 20
1.15505071791476
 30
0.0
 40
0.175000000000001
 50
270
 51
90.0000000000004
  0
LINE
  8
4
  6
CONTINUOUS
 62
4
 10
1.9821047834607
 20
0.980050717914763
 30
0.0
 11
1.3321047834607
 21
0.980050717914763
 31
0.0
  0
ARC
  8
4
  6
CONTINUOUS
 62
4
 10
1.3321047834607
 20
1.15505071791476
 30
0.0
 40
0.175000000000001
 50
90
 51
270
  0
LINE
  8
4
  6
CONTINUOUS
 62
4
 10
1.3321047834607
 20
1.33005071791476
 30
0.0
 11
1.62069165607701
 21
1.33005071791476
 31
0.0
  0
LINE
  8
4
  6
CONTINUOUS
 62
4
 10
1.62069165607701
 20
1.33005071791476
 30
0.0
 11
1.62708644588863
 21
1.38120903640771
 31
0.0
  0
LINE
  8
4
  6
CONTINUOUS
 62
4
 10
1.62708644588863
 20
0.91750277932769
 30
0.0
 11
1.62069165607701
 21
0.86634446083474
 31
0.0
  0
LINE
  8
4
  6
CONTINUOUS
 62
4
 10
1.62069165607701
 20
0.86634446083474
 30
0.0
 11
1.3321047834607
 21
0.86634446083474
 31
0.0
  0
ARC
  8
4
  6
CONTINUOUS
 62
4
 10
1.3321047834607
 20
0.691344460834739
 30
0.0
 40
0.175000000000001
 50
90
 51
270
  0
LINE
  8
4
  6
CONTINUOUS
 62
4
 10
1.3321047834607
 20
0.516344460834739
 30
0.0
 11
1.9821047834607
 21
0.516344460834739
 31
0.0
  0
ARC
  8
4
  6
CONTINUOUS
 62
4
 10
1.9821047834607
 20
0.691344460834739
 30
0.0
 40
0.175000000000001
 50
270
 51
90
  0
LINE
  8
4
  6
CONTINUOUS
 62
4
 10
1.9821047834607
 20
0.86634446083474
 30
0.0
 11
1.72069165607701
 21
0.86634446083474
 31
0.0
  0
LINE
  8
4
  6
CONTINUOUS
 62
4
 10
1.72069165607701
 20
0.86634446083474
 30
0.0
 11
1.71429686626539
 21
0.91750277932769
 31
0.0
  0
LINE
  8
4
  6
CONTINUOUS
 62
4
 10
1.71429686626539
 20
0.453796522247666
 30
0.0
 11
1.72069165607701
 21
0.402638203754716
 31
0.0
  0
LINE
  8
4
  6
CONTINUOUS
 62
4
 10
1.72069165607701
 20
0.402638203754716
 30
0.0
 11
1.9821047834607
 21
0.402638203754716
 31
0.0
  0
ARC
  8
4
  6
CONTINUOUS
 62
4
 10
1.9821047834607
 20
0.227638203754715
 30
0.0
 40
0.175000000000001
 50
270
 51
90.0000000000004
  0
LINE
  8
4
  6
CONTINUOUS
 62
4
 10
1.9821047834607
 20
0.0526382037547153
 30
0.0
 11
1.3321047834607
 21
0.0526382037547153
 31
0.0
  0
ARC
  8
4
  6
CONTINUOUS
 62
4
 10
1.3321047834607
 20
0.227638203754715
 30
0.0
 40
0.175000000000001
 50
90
 51
270
  0
LINE
  8
4
  6
CONTINUOUS
 62
4
 10
1.3321047834607
 20
0.402638203754716
 30
0.0
 11
1.62069165607701
 21
0.402638203754716
 31
0.0
  0
LINE
  8
4
  6
CONTINUOUS
 62
4
 10
1.62069165607701
 20
0.402638203754716
 30
0.0
 11
1.62708644588863
 21
0.453796522247666
 31
0.0
  0
LINE
  8
4
  6
CONTINUOUS
 62
4
 10
0.626696256068895
 20
0.453796522247666
 30
0.0
 11
0.633091045880514
 21
0.402638203754716
 31
0.0
  0
LINE
  8
4
  6
CONTINUOUS
 62
4
 10
0.633091045880514
 20
0.402638203754716
 30
0.0
 11
0.894504173264202
 21
0.402638203754716
 31
0.0
  0
ARC
  8
4
  6
CONTINUOUS
 62
4
 10
0.894504173264207
 20
0.227638203754715
 30
0.0
 40
0.175000000000001
 50
270
 51
90.0000000000008
  0
LINE
  8
4
  6
CONTINUOUS
 62
4
 10
0.894504173264202
 20
0.0526382037547153
 30
0.0
 11
0.244504173264202
 21
0.0526382037547153
 31
0.0
  0
ARC
  8
4
  6
CONTINUOUS
 62
4
 10
0.244504173264202
 20
0.227638203754715
 30
0.0
 40
0.175000000000001
 50
90
 51
270
  0
LINE
  8
4
  6
CONTINUOUS
 62
4
 10
0.244504173264202
 20
0.402638203754716
 30
0.0
 11
0.533091045880514
 21
0.402638203754716
 31
0.0
  0
LINE
  8
4
  6
CONTINUOUS
 62
4
 10
0.533091045880514
 20
0.402638203754716
 30
0.0
 11
0.539485835692133
 21
0.453796522247666
 31
0.0
  0
LINE
  8
4
  6
CONTINUOUS
 62
4
 10
0.539485835692133
 20
0.91750277932769
 30
0.0
 11
0.533091045880514
 21
0.86634446083474
 31
0.0
  0
LINE
  8
4
  6
CONTINUOUS
 62
4
 10
0.533091045880514
 20
0.86634446083474
 30
0.0
 11
0.244504173264202
 21
0.86634446083474
 31
0.0
  0
ARC
  8
4
  6
CONTINUOUS
 62
4
 10
0.244504173264202
 20
0.691344460834739
 30
0.0
 40
0.175000000000001
 50
90
 51
270
  0
LINE
  8
4
  6
CONTINUOUS
 62
4
 10
0.244504173264202
 20
0.516344460834739
 30
0.0
 11
0.894504173264202
 21
0.516344460834739
 31
0.0
  0
ARC
  8
4
  6
CONTINUOUS
 62
4
 10
0.894504173264204
 20
0.691344460834739
 30
0.0
 40
0.175000000000001
 50
269.999999999999
 51
90.0000000000004
  0
LINE
  8
4
  6
CONTINUOUS
 62
4
 10
0.894504173264202
 20
0.86634446083474
 30
0.0
 11
0.633091045880514
 21
0.86634446083474
 31
0.0
  0
LINE
  8
4
  6
CONTINUOUS
 62
4
 10
0.633091045880514
 20
0.86634446083474
 30
0.0
 11
0.626696256068895
 21
0.91750277932769
 31
0.0
  0
LINE
  8
4
  6
CONTINUOUS
 62
4
 10
0.626696256068895
 20
1.38120903640771
 30
0.0
 11
0.633091045880514
 21
1.33005071791476
 31
0.0
  0
LINE
  8
4
  6
CONTINUOUS
 62
4
 10
0.633091045880514
 20
1.33005071791476
 30
0.0
 11
0.894504173264202
 21
1.33005071791476
 31
0.0
  0
ARC
  8
4
  6
CONTINUOUS
 62
4
 10
0.894504173264207
 20
1.15505071791476
 30
0.0
 40
0.175000000000001
 50
270
 51
90.0000000000008
  0
LINE
  8
4
  6
CONTINUOUS
 62
4
 10
0.894504173264202
 20
0.980050717914763
 30
0.0
 11
0.244504173264202
 21
0.980050717914763
 31
0.0
  0
ARC
  8
4
  6
CONTINUOUS
 62
4
 10
0.244504173264202
 20
1.15505071791476
 30
0.0
 40
0.175000000000001
 50
90
 51
270
  0
LINE
  8
4
  6
CONTINUOUS
 62
4
 10
0.244504173264202
 20
1.33005071791476
 30
0.0
 11
0.533091045880514
 21
1.33005071791476
 31
0.0
  0
LINE
  8
4
  6
CONTINUOUS
 62
4
 10
0.533091045880514
 20
1.33005071791476
 30
0.0
 11
0.539485835692133
 21
1.38120903640771
 31
0.0
  0
LINE
  8
4
  6
CONTINUOUS
 62
4
 10
0.539485835692133
 20
1.84491529348774
 30
0.0
 11
0.533091045880514
 21
1.79375697499479
 31
0.0
  0
LINE
  8
4
  6
CONTINUOUS
 62
4
 10
0.533091045880514
 20
1.79375697499479
 30
0.0
 11
0.244504173264202
 21
1.79375697499479
 31
0.0
  0
ARC
  8
4
  6
CONTINUOUS
 62
4
 10
0.244504173264202
 20
1.61875697499479
 30
0.0
 40
0.175000000000001
 50
90
 51
270
  0
LINE
  8
4
  6
CONTINUOUS
 62
4
 10
0.244504173264202
 20
1.44375697499479
 30
0.0
 11
0.894504173264202
 21
1.44375697499479
 31
0.0
  0
ARC
  8
4
  6
CONTINUOUS
 62
4
 10
0.894504173264204
 20
1.61875697499479
 30
0.0
 40
0.175000000000001
 50
269.999999999999
 51
90.0000000000004
  0
LINE
  8
4
  6
CONTINUOUS
 62
4
 10
0.894504173264202
 20
1.79375697499479
 30
0.0
 11
0.633091045880514
 21
1.79375697499479
 31
0.0
  0
LINE
  8
4
  6
CONTINUOUS
 62
4
 10
0.633091045880514
 20
1.79375697499479
 30
0.0
 11
0.626696256068895
 21
1.84491529348774
 31
0.0
  0
LINE
  8
4
  6
CONTINUOUS
 62
4
 10
0.626696256068895
 20
2.30862155056776
 30
0.0
 11
0.633091045880514
 21
2.25746323207481
 31
0.0
  0
LINE
  8
4
  6
CONTINUOUS
 62
4
 10
0.633091045880514
 20
2.25746323207481
 30
0.0
 11
0.894504173264202
 21
2.25746323207481
 31
0.0
  0
ARC
  8
4
  6
CONTINUOUS
 62
4
 10
0.894504173264207
 20
2.08246323207481
 30
0.0
 40
0.175000000000001
 50
270
 51
90.0000000000008
  0
LINE
  8
4
  6
CONTINUOUS
 62
4
 10
0.894504173264202
 20
1.90746323207481
 30
0.0
 11
0.244504173264202
 21
1.90746323207481
 31
0.0
  0
ARC
  8
4
  6
CONTINUOUS
 62
4
 10
0.244504173264202
 20
2.08246323207481
 30
0.0
 40
0.175000000000001
 50
90
 51
270
  0
LINE
  8
4
  6
CONTINUOUS
 62
4
 10
0.244504173264202
 20
2.25746323207481
 30
0.0
 11
0.533091045880514
 21
2.25746323207481
 31
0.0
  0
LINE
  8
4
  6
CONTINUOUS
 62
4
 10
0.533091045880514
 20
2.25746323207481
 30
0.0
 11
0.539485835692133
 21
2.30862155056776
 31
0.0
  0
LINE
  8
4
  6
CONTINUOUS
 62
4
 10
2.71468705608512
 20
0.453796522247666
 30
0.0
 11
2.7082922662735
 21
0.402638203754716
 31
0.0
  0
LINE
  8
4
  6
CONTINUOUS
 62
4
 10
2.7082922662735
 20
0.402638203754716
 30
0.0
 11
2.41970539365719
 21
0.402638203754716
 31
0.0
  0
ARC
  8
4
  6
CONTINUOUS
 62
4
 10
2.41970539365719
 20
0.227638203754715
 30
0.0
 40
0.175000000000001
 50
90
 51
270
  0
LINE
  8
4
  6
CONTINUOUS
 62
4
 10
2.41970539365719
 20
0.0526382037547153
 30
0.0
 11
3.06970539365719
 21
0.0526382037547153
 31
0.0
  0
ARC
  8
4
  6
CONTINUOUS
 62
4
 10
3.06970539365719
 20
0.227638203754715
 30
0.0
 40
0.175000000000001
 50
269.999999999999
 51
90.0000000000004
  0
LINE
  8
4
  6
CONTINUOUS
 62
4
 10
3.06970539365719
 20
0.402638203754716
 30
0.0
 11
2.8082922662735
 21
0.402638203754716
 31
0.0
  0
LINE
  8
4
  6
CONTINUOUS
 62
4
 10
2.8082922662735
 20
0.402638203754716
 30
0.0
 11
2.80189747646189
 21
0.453796522247666
 31
0.0
  0
ENDSEC
  0
EOF
