  0
SECTION
  2
HEADER
  9
$ACADVER
  1
AC1003
  9
$EXTMIN
 10
0.0695041732642014
 20
2.95176953663446
  9
$EXTMAX
 10
3.24470539365719
 20
0.0526382037547144
  9
$INSUNITS
 70
1
  9
$INSBASE
 10
1.6571047834607
 20
1.50220387019458
999
Created with OMAX Layout for Windows. (www.omax.com) 1/25/2016
  0
ENDSEC
  0
SECTION
  2
TABLES
  0
TABLE
  2
LAYER
 70
    10
  0
LAYER
  2
0
 70
     0
 62
     7
  6
CONTINUOUS
  0
LAYER
  2
1
 70
     0
 62
     7
  6
CONTINUOUS
  0
LAYER
  2
2
 70
     0
 62
     7
  6
CONTINUOUS
  0
LAYER
  2
3
 70
     0
 62
     7
  6
CONTINUOUS
  0
LAYER
  2
4
 70
     0
 62
     7
  6
CONTINUOUS
  0
LAYER
  2
5
 70
     0
 62
     7
  6
CONTINUOUS
  0
LAYER
  2
6
 70
     0
 62
     7
  6
CONTINUOUS
  0
LAYER
  2
7
 70
     0
 62
     7
  6
CONTINUOUS
  0
LAYER
  2
8
 70
     0
 62
     7
  6
CONTINUOUS
  0
LAYER
  2
9
 70
     0
 62
     7
  6
CONTINUOUS
  0
LAYER
  2
10
 70
     0
 62
     7
  6
CONTINUOUS
  0
LAYER
  2
11
 70
     0
 62
     7
  6
CONTINUOUS
  0
LAYER
  2
12
 70
     0
 62
     7
  6
CONTINUOUS
  0
LAYER
  2
13
 70
     0
 62
     7
  6
CONTINUOUS
  0
LAYER
  2
14
 70
     0
 62
     7
  6
CONTINUOUS
  0
LAYER
  2
15
 70
     0
 62
     7
  6
CONTINUOUS
  0
LAYER
  2
16
 70
     0
 62
     7
  6
CONTINUOUS
  0
LAYER
  2
17
 70
     0
 62
     7
  6
CONTINUOUS
  0
LAYER
  2
18
 70
     0
 62
     7
  6
CONTINUOUS
  0
LAYER
  2
19
 70
     0
 62
     7
  6
CONTINUOUS
  0
LAYER
  2
20
 70
     0
 62
     7
  6
CONTINUOUS
  0
LAYER
  2
21
 70
     0
 62
     7
  6
CONTINUOUS
  0
LAYER
  2
22
 70
     0
 62
     7
  6
CONTINUOUS
  0
LAYER
  2
23
 70
     0
 62
     7
  6
CONTINUOUS
  0
LAYER
  2
24
 70
     0
 62
     7
  6
CONTINUOUS
  0
LAYER
  2
25
 70
     0
 62
     7
  6
CONTINUOUS
  0
LAYER
  2
26
 70
     0
 62
     7
  6
CONTINUOUS
  0
LAYER
  2
27
 70
     0
 62
     7
  6
CONTINUOUS
  0
LAYER
  2
28
 70
     0
 62
     7
  6
CONTINUOUS
  0
LAYER
  2
29
 70
     0
 62
     7
  6
CONTINUOUS
  0
LAYER
  2
30
 70
     0
 62
     7
  6
CONTINUOUS
  0
LAYER
  2
31
 70
     0
 62
     7
  6
CONTINUOUS
  0
ENDTAB
  0
ENDSEC
  0
SECTION
  2
ENTITIES
  0
LINE
  8
0
  6
CONTINUOUS
 62
0
 10
0.0696107785358597
 20
0.0526382037547144
 30
0.0
 11
2.67362349808649
 21
0.295684315408366
 31
0.0
  0
LINE
  8
0
  6
CONTINUOUS
 62
0
 10
2.67665928200354
 20
0.298720099325417
 30
0.0
 11
2.80189747646189
 21
0.453796522247666
 31
0.0
  0
LINE
  8
0
  6
CONTINUOUS
 62
0
 10
2.67665928200354
 20
0.923213352922114
 30
0.0
 11
2.71468705608512
 21
1.07828977584436
 31
0.0
  0
LINE
  8
0
  6
CONTINUOUS
 62
0
 10
2.6605805486967
 20
1.5276729200203
 30
0.0
 11
2.80189747646189
 21
1.70278302944106
 31
0.0
  0
LINE
  8
0
  6
CONTINUOUS
 62
0
 10
2.65023478455103
 20
2.12865363603136
 30
0.0
 11
2.71468705608512
 21
2.32727628303776
 31
0.0
  0
LINE
  8
0
  6
CONTINUOUS
 62
0
 10
0.546115459728739
 20
0.323219986894921
 30
0.0
 11
0.626696256068895
 21
0.453796522247666
 31
0.0
  0
LINE
  8
0
  6
CONTINUOUS
 62
0
 10
0.546115459728739
 20
0.947713240491618
 30
0.0
 11
0.539485835692133
 21
1.07828977584436
 31
0.0
  0
LINE
  8
0
  6
CONTINUOUS
 62
0
 10
0.546115459728739
 20
1.57220649408832
 30
0.0
 11
0.626696256068895
 21
1.70278302944106
 31
0.0
  0
LINE
  8
0
  6
CONTINUOUS
 62
0
 10
0.522174024975077
 20
2.18738943289927
 30
0.0
 11
0.539485835692133
 21
2.32727628303776
 31
0.0
  0
LINE
  8
0
  6
CONTINUOUS
 62
0
 10
0.485379328303705
 20
2.77665942721369
 30
0.0
 11
0.0696107785358597
 21
2.95176953663446
 31
0.0
  0
ARC
  8
2
  6
CONTINUOUS
 62
2
 10
2.74470539365719
 20
0.227638203754715
 30
0.0
 40
0.0492125984251963
 50
359.999999999999
 51
135
  0
ARC
  8
2
  6
CONTINUOUS
 62
2
 10
2.74470539365719
 20
0.227638203754715
 30
0.0
 40
0.0492125984251963
 50
180
 51
1.53511459547513E-13
  0
ARC
  8
2
  6
CONTINUOUS
 62
2
 10
2.74470539366253
 20
0.227638203752505
 30
0.0
 40
0.0492125984305306
 50
135.000000002572
 51
179.999999997427
  0
LINE
  8
2
  6
CONTINUOUS
 62
2
 10
2.80189747646189
 20
0.453796522247666
 30
0.0
 11
2.8082922662735
 21
0.402638203754716
 31
0.0
  0
LINE
  8
2
  6
CONTINUOUS
 62
2
 10
2.8082922662735
 20
0.402638203754716
 30
0.0
 11
3.06970539365719
 21
0.402638203754716
 31
0.0
  0
ARC
  8
2
  6
CONTINUOUS
 62
2
 10
3.06970539365719
 20
0.227638203754715
 30
0.0
 40
0.175000000000001
 50
270
 51
90.0000000000004
  0
LINE
  8
2
  6
CONTINUOUS
 62
2
 10
3.06970539365719
 20
0.0526382037547153
 30
0.0
 11
2.41970539365719
 21
0.0526382037547153
 31
0.0
  0
ARC
  8
2
  6
CONTINUOUS
 62
2
 10
2.41970539365719
 20
0.227638203754715
 30
0.0
 40
0.175000000000001
 50
90
 51
270
  0
LINE
  8
2
  6
CONTINUOUS
 62
2
 10
2.41970539365719
 20
0.402638203754716
 30
0.0
 11
2.7082922662735
 21
0.402638203754716
 31
0.0
  0
LINE
  8
2
  6
CONTINUOUS
 62
2
 10
2.7082922662735
 20
0.402638203754716
 30
0.0
 11
2.71468705608512
 21
0.453796522247666
 31
0.0
  0
ARC
  8
2
  6
CONTINUOUS
 62
2
 10
2.74470539365719
 20
0.852131457351412
 30
0.0
 40
0.0492125984251963
 50
359.999999999999
 51
135
  0
ARC
  8
2
  6
CONTINUOUS
 62
2
 10
2.74470539365719
 20
0.852131457351413
 30
0.0
 40
0.0492125984251963
 50
180
 51
1.53511459547513E-13
  0
ARC
  8
2
  6
CONTINUOUS
 62
2
 10
2.74470539366253
 20
0.852131457349202
 30
0.0
 40
0.0492125984305306
 50
135.000000002572
 51
179.999999997427
  0
LINE
  8
2
  6
CONTINUOUS
 62
2
 10
2.71468705608512
 20
1.07828977584436
 30
0.0
 11
2.7082922662735
 21
1.02713145735141
 31
0.0
  0
LINE
  8
2
  6
CONTINUOUS
 62
2
 10
2.7082922662735
 20
1.02713145735141
 30
0.0
 11
2.41970539365719
 21
1.02713145735141
 31
0.0
  0
ARC
  8
2
  6
CONTINUOUS
 62
2
 10
2.41970539365719
 20
0.852131457351412
 30
0.0
 40
0.175000000000001
 50
90
 51
270
  0
LINE
  8
2
  6
CONTINUOUS
 62
2
 10
2.41970539365719
 20
0.677131457351413
 30
0.0
 11
3.06970539365719
 21
0.677131457351413
 31
0.0
  0
ARC
  8
2
  6
CONTINUOUS
 62
2
 10
3.06970539365719
 20
0.852131457351412
 30
0.0
 40
0.175000000000001
 50
270
 51
90
  0
LINE
  8
2
  6
CONTINUOUS
 62
2
 10
3.06970539365719
 20
1.02713145735141
 30
0.0
 11
2.8082922662735
 21
1.02713145735141
 31
0.0
  0
LINE
  8
2
  6
CONTINUOUS
 62
2
 10
2.8082922662735
 20
1.02713145735141
 30
0.0
 11
2.80189747646189
 21
1.07828977584436
 31
0.0
  0
ARC
  8
2
  6
CONTINUOUS
 62
2
 10
2.74470539365719
 20
1.47662471094811
 30
0.0
 40
0.0492125984251964
 50
359.999999999999
 51
150
  0
ARC
  8
2
  6
CONTINUOUS
 62
2
 10
2.74470539365719
 20
1.47662471094811
 30
0.0
 40
0.0492125984251963
 50
180
 51
1.53511459547513E-13
  0
ARC
  8
2
  6
CONTINUOUS
 62
2
 10
2.74470539366544
 20
1.4766247109459
 30
0.0
 40
0.0492125984334425
 50
150.000000002573
 51
179.999999997428
  0
LINE
  8
2
  6
CONTINUOUS
 62
2
 10
2.80189747646189
 20
1.70278302944106
 30
0.0
 11
2.8082922662735
 21
1.65162471094811
 31
0.0
  0
LINE
  8
2
  6
CONTINUOUS
 62
2
 10
2.8082922662735
 20
1.65162471094811
 30
0.0
 11
3.06970539365719
 21
1.65162471094811
 31
0.0
  0
ARC
  8
2
  6
CONTINUOUS
 62
2
 10
3.06970539365719
 20
1.47662471094811
 30
0.0
 40
0.175000000000001
 50
270
 51
90.0000000000004
  0
LINE
  8
2
  6
CONTINUOUS
 62
2
 10
3.06970539365719
 20
1.30162471094811
 30
0.0
 11
2.41970539365719
 21
1.30162471094811
 31
0.0
  0
ARC
  8
2
  6
CONTINUOUS
 62
2
 10
2.41970539365719
 20
1.47662471094811
 30
0.0
 40
0.175000000000001
 50
90
 51
270
  0
LINE
  8
2
  6
CONTINUOUS
 62
2
 10
2.41970539365719
 20
1.65162471094811
 30
0.0
 11
2.7082922662735
 21
1.65162471094811
 31
0.0
  0
LINE
  8
2
  6
CONTINUOUS
 62
2
 10
2.7082922662735
 20
1.65162471094811
 30
0.0
 11
2.71468705608512
 21
1.70278302944106
 31
0.0
  0
ARC
  8
2
  6
CONTINUOUS
 62
2
 10
2.74470539365719
 20
2.10111796454481
 30
0.0
 40
0.0492125984251963
 50
359.999999999999
 51
165
  0
ARC
  8
2
  6
CONTINUOUS
 62
2
 10
2.74470539365719
 20
2.10111796454481
 30
0.0
 40
0.0492125984251963
 50
180
 51
1.53511459547513E-13
  0
ARC
  8
2
  6
CONTINUOUS
 62
2
 10
2.74470539367398
 20
2.1011179645426
 30
0.0
 40
0.0492125984419794
 50
165.000000002572
 51
179.999999997427
  0
LINE
  8
2
  6
CONTINUOUS
 62
2
 10
2.71468705608512
 20
2.32727628303776
 30
0.0
 11
2.7082922662735
 21
2.27611796454481
 31
0.0
  0
LINE
  8
2
  6
CONTINUOUS
 62
2
 10
2.7082922662735
 20
2.27611796454481
 30
0.0
 11
2.41970539365719
 21
2.27611796454481
 31
0.0
  0
ARC
  8
2
  6
CONTINUOUS
 62
2
 10
2.41970539365719
 20
2.10111796454481
 30
0.0
 40
0.175000000000001
 50
90
 51
270
  0
LINE
  8
2
  6
CONTINUOUS
 62
2
 10
2.41970539365719
 20
1.92611796454481
 30
0.0
 11
3.06970539365719
 21
1.92611796454481
 31
0.0
  0
ARC
  8
2
  6
CONTINUOUS
 62
2
 10
3.06970539365719
 20
2.10111796454481
 30
0.0
 40
0.175000000000001
 50
270
 51
90
  0
LINE
  8
2
  6
CONTINUOUS
 62
2
 10
3.06970539365719
 20
2.27611796454481
 30
0.0
 11
2.8082922662735
 21
2.27611796454481
 31
0.0
  0
LINE
  8
2
  6
CONTINUOUS
 62
2
 10
2.8082922662735
 20
2.27611796454481
 30
0.0
 11
2.80189747646189
 21
2.32727628303776
 31
0.0
  0
LINE
  8
2
  6
CONTINUOUS
 62
2
 10
2.80189747646189
 20
2.95176953663446
 30
0.0
 11
2.8082922662735
 21
2.90061121814151
 31
0.0
  0
LINE
  8
2
  6
CONTINUOUS
 62
2
 10
2.8082922662735
 20
2.90061121814151
 30
0.0
 11
3.06970539365719
 21
2.90061121814151
 31
0.0
  0
ARC
  8
2
  6
CONTINUOUS
 62
2
 10
3.06970539365719
 20
2.7256112181415
 30
0.0
 40
0.175000000000001
 50
270
 51
90.0000000000004
  0
LINE
  8
2
  6
CONTINUOUS
 62
2
 10
3.06970539365719
 20
2.5506112181415
 30
0.0
 11
2.41970539365719
 21
2.5506112181415
 31
0.0
  0
ARC
  8
2
  6
CONTINUOUS
 62
2
 10
2.41970539365719
 20
2.7256112181415
 30
0.0
 40
0.175000000000001
 50
90
 51
270
  0
LINE
  8
2
  6
CONTINUOUS
 62
2
 10
2.41970539365719
 20
2.90061121814151
 30
0.0
 11
2.7082922662735
 21
2.90061121814151
 31
0.0
  0
LINE
  8
2
  6
CONTINUOUS
 62
2
 10
2.7082922662735
 20
2.90061121814151
 30
0.0
 11
2.71468705608512
 21
2.95176953663446
 31
0.0
  0
ARC
  8
2
  6
CONTINUOUS
 62
2
 10
2.74470539365719
 20
2.7256112181415
 30
0.0
 40
0.0492125984251963
 50
359.999999999999
 51
180
  0
ARC
  8
2
  6
CONTINUOUS
 62
2
 10
2.74470539365719
 20
2.7256112181415
 30
0.0
 40
0.0492125984251963
 50
180
 51
1.53511459547513E-13
  0
LINE
  8
2
  6
CONTINUOUS
 62
2
 10
1.62708644588863
 20
2.95176953663446
 30
0.0
 11
1.62069165607701
 21
2.90061121814151
 31
0.0
  0
LINE
  8
2
  6
CONTINUOUS
 62
2
 10
1.62069165607701
 20
2.90061121814151
 30
0.0
 11
1.3321047834607
 21
2.90061121814151
 31
0.0
  0
ARC
  8
2
  6
CONTINUOUS
 62
2
 10
1.3321047834607
 20
2.7256112181415
 30
0.0
 40
0.175000000000001
 50
90
 51
270
  0
LINE
  8
2
  6
CONTINUOUS
 62
2
 10
1.3321047834607
 20
2.5506112181415
 30
0.0
 11
1.9821047834607
 21
2.5506112181415
 31
0.0
  0
ARC
  8
2
  6
CONTINUOUS
 62
2
 10
1.9821047834607
 20
2.7256112181415
 30
0.0
 40
0.175000000000001
 50
270
 51
90
  0
LINE
  8
2
  6
CONTINUOUS
 62
2
 10
1.9821047834607
 20
2.90061121814151
 30
0.0
 11
1.72069165607701
 21
2.90061121814151
 31
0.0
  0
LINE
  8
2
  6
CONTINUOUS
 62
2
 10
1.72069165607701
 20
2.90061121814151
 30
0.0
 11
1.71429686626539
 21
2.95176953663446
 31
0.0
  0
ARC
  8
2
  6
CONTINUOUS
 62
2
 10
1.6571047834607
 20
2.7256112181415
 30
0.0
 40
0.0492125984251963
 50
359.999999999999
 51
165
  0
ARC
  8
2
  6
CONTINUOUS
 62
2
 10
1.6571047834607
 20
2.7256112181415
 30
0.0
 40
0.0492125984251963
 50
180
 51
1.53511459547513E-13
  0
ARC
  8
2
  6
CONTINUOUS
 62
2
 10
1.65710478347748
 20
2.72561121813929
 30
0.0
 40
0.0492125984419794
 50
165.000000002572
 51
179.999999997427
  0
LINE
  8
2
  6
CONTINUOUS
 62
2
 10
1.62708644588863
 20
2.32727628303776
 30
0.0
 11
1.62069165607701
 21
2.27611796454481
 31
0.0
  0
LINE
  8
2
  6
CONTINUOUS
 62
2
 10
1.62069165607701
 20
2.27611796454481
 30
0.0
 11
1.3321047834607
 21
2.27611796454481
 31
0.0
  0
ARC
  8
2
  6
CONTINUOUS
 62
2
 10
1.3321047834607
 20
2.10111796454481
 30
0.0
 40
0.175000000000001
 50
90
 51
270
  0
LINE
  8
2
  6
CONTINUOUS
 62
2
 10
1.3321047834607
 20
1.92611796454481
 30
0.0
 11
1.9821047834607
 21
1.92611796454481
 31
0.0
  0
ARC
  8
2
  6
CONTINUOUS
 62
2
 10
1.9821047834607
 20
2.10111796454481
 30
0.0
 40
0.175000000000001
 50
270
 51
90
  0
LINE
  8
2
  6
CONTINUOUS
 62
2
 10
1.9821047834607
 20
2.27611796454481
 30
0.0
 11
1.72069165607701
 21
2.27611796454481
 31
0.0
  0
LINE
  8
2
  6
CONTINUOUS
 62
2
 10
1.72069165607701
 20
2.27611796454481
 30
0.0
 11
1.71429686626539
 21
2.32727628303776
 31
0.0
  0
ARC
  8
2
  6
CONTINUOUS
 62
2
 10
1.6571047834607
 20
2.10111796454481
 30
0.0
 40
0.0492125984251963
 50
359.999999999999
 51
150
  0
ARC
  8
2
  6
CONTINUOUS
 62
2
 10
1.6571047834607
 20
2.10111796454481
 30
0.0
 40
0.0492125984251963
 50
180
 51
1.53511459547513E-13
  0
ARC
  8
2
  6
CONTINUOUS
 62
2
 10
1.65710478346894
 20
2.1011179645426
 30
0.0
 40
0.0492125984334425
 50
150.000000002572
 51
179.999999997427
  0
LINE
  8
2
  6
CONTINUOUS
 62
2
 10
1.62708644588863
 20
1.70278302944106
 30
0.0
 11
1.62069165607701
 21
1.65162471094811
 31
0.0
  0
LINE
  8
2
  6
CONTINUOUS
 62
2
 10
1.62069165607701
 20
1.65162471094811
 30
0.0
 11
1.3321047834607
 21
1.65162471094811
 31
0.0
  0
ARC
  8
2
  6
CONTINUOUS
 62
2
 10
1.3321047834607
 20
1.47662471094811
 30
0.0
 40
0.175000000000001
 50
90
 51
270
  0
LINE
  8
2
  6
CONTINUOUS
 62
2
 10
1.3321047834607
 20
1.30162471094811
 30
0.0
 11
1.9821047834607
 21
1.30162471094811
 31
0.0
  0
ARC
  8
2
  6
CONTINUOUS
 62
2
 10
1.9821047834607
 20
1.47662471094811
 30
0.0
 40
0.175000000000001
 50
270
 51
90
  0
LINE
  8
2
  6
CONTINUOUS
 62
2
 10
1.9821047834607
 20
1.65162471094811
 30
0.0
 11
1.72069165607701
 21
1.65162471094811
 31
0.0
  0
LINE
  8
2
  6
CONTINUOUS
 62
2
 10
1.72069165607701
 20
1.65162471094811
 30
0.0
 11
1.71429686626539
 21
1.70278302944106
 31
0.0
  0
ARC
  8
2
  6
CONTINUOUS
 62
2
 10
1.6571047834607
 20
1.47662471094811
 30
0.0
 40
0.0492125984251963
 50
359.999999999999
 51
135
  0
ARC
  8
2
  6
CONTINUOUS
 62
2
 10
1.6571047834607
 20
1.47662471094811
 30
0.0
 40
0.0492125984251963
 50
180
 51
1.53511459547513E-13
  0
ARC
  8
2
  6
CONTINUOUS
 62
2
 10
1.65710478346603
 20
1.4766247109459
 30
0.0
 40
0.0492125984305306
 50
135.000000002572
 51
179.999999997427
  0
LINE
  8
2
  6
CONTINUOUS
 62
2
 10
1.62708644588863
 20
1.07828977584436
 30
0.0
 11
1.62069165607701
 21
1.02713145735141
 31
0.0
  0
LINE
  8
2
  6
CONTINUOUS
 62
2
 10
1.62069165607701
 20
1.02713145735141
 30
0.0
 11
1.3321047834607
 21
1.02713145735141
 31
0.0
  0
ARC
  8
2
  6
CONTINUOUS
 62
2
 10
1.3321047834607
 20
0.852131457351412
 30
0.0
 40
0.175000000000001
 50
90
 51
270
  0
LINE
  8
2
  6
CONTINUOUS
 62
2
 10
1.3321047834607
 20
0.677131457351413
 30
0.0
 11
1.9821047834607
 21
0.677131457351413
 31
0.0
  0
ARC
  8
2
  6
CONTINUOUS
 62
2
 10
1.9821047834607
 20
0.852131457351412
 30
0.0
 40
0.175000000000001
 50
270
 51
90
  0
LINE
  8
2
  6
CONTINUOUS
 62
2
 10
1.9821047834607
 20
1.02713145735141
 30
0.0
 11
1.72069165607701
 21
1.02713145735141
 31
0.0
  0
LINE
  8
2
  6
CONTINUOUS
 62
2
 10
1.72069165607701
 20
1.02713145735141
 30
0.0
 11
1.71429686626539
 21
1.07828977584436
 31
0.0
  0
ARC
  8
2
  6
CONTINUOUS
 62
2
 10
1.6571047834607
 20
0.852131457351412
 30
0.0
 40
0.0492125984251963
 50
359.999999999999
 51
120
  0
ARC
  8
2
  6
CONTINUOUS
 62
2
 10
1.6571047834607
 20
0.852131457351413
 30
0.0
 40
0.0492125984251963
 50
180
 51
1.53511459547513E-13
  0
ARC
  8
2
  6
CONTINUOUS
 62
2
 10
1.65710478346452
 20
0.852131457349202
 30
0.0
 40
0.0492125984290234
 50
120.000000002572
 51
179.999999997427
  0
LINE
  8
2
  6
CONTINUOUS
 62
2
 10
1.62708644588863
 20
0.453796522247666
 30
0.0
 11
1.62069165607701
 21
0.402638203754716
 31
0.0
  0
LINE
  8
2
  6
CONTINUOUS
 62
2
 10
1.62069165607701
 20
0.402638203754716
 30
0.0
 11
1.3321047834607
 21
0.402638203754716
 31
0.0
  0
ARC
  8
2
  6
CONTINUOUS
 62
2
 10
1.3321047834607
 20
0.227638203754715
 30
0.0
 40
0.175000000000001
 50
90
 51
270
  0
LINE
  8
2
  6
CONTINUOUS
 62
2
 10
1.3321047834607
 20
0.0526382037547153
 30
0.0
 11
1.9821047834607
 21
0.0526382037547153
 31
0.0
  0
ARC
  8
2
  6
CONTINUOUS
 62
2
 10
1.9821047834607
 20
0.227638203754715
 30
0.0
 40
0.175000000000001
 50
270
 51
90
  0
LINE
  8
2
  6
CONTINUOUS
 62
2
 10
1.9821047834607
 20
0.402638203754716
 30
0.0
 11
1.72069165607701
 21
0.402638203754716
 31
0.0
  0
LINE
  8
2
  6
CONTINUOUS
 62
2
 10
1.72069165607701
 20
0.402638203754716
 30
0.0
 11
1.71429686626539
 21
0.453796522247666
 31
0.0
  0
ARC
  8
2
  6
CONTINUOUS
 62
2
 10
1.6571047834607
 20
0.227638203754715
 30
0.0
 40
0.0492125984251963
 50
359.999999999999
 51
120
  0
ARC
  8
2
  6
CONTINUOUS
 62
2
 10
1.6571047834607
 20
0.227638203754715
 30
0.0
 40
0.0492125984251963
 50
180
 51
1.53511459547513E-13
  0
ARC
  8
2
  6
CONTINUOUS
 62
2
 10
1.65710478346452
 20
0.227638203752505
 30
0.0
 40
0.0492125984290234
 50
120.000000002572
 51
179.999999997427
  0
ARC
  8
2
  6
CONTINUOUS
 62
2
 10
0.569504173264202
 20
0.227638203754715
 30
0.0
 40
0.0492125984251963
 50
359.999999999999
 51
105
  0
ARC
  8
2
  6
CONTINUOUS
 62
2
 10
0.569504173264202
 20
0.227638203754715
 30
0.0
 40
0.0492125984251963
 50
180
 51
1.53511459547513E-13
  0
ARC
  8
2
  6
CONTINUOUS
 62
2
 10
0.569504173267082
 20
0.227638203752505
 30
0.0
 40
0.0492125984280758
 50
105.000000002572
 51
179.999999997427
  0
LINE
  8
2
  6
CONTINUOUS
 62
2
 10
0.626696256068895
 20
0.453796522247666
 30
0.0
 11
0.633091045880514
 21
0.402638203754716
 31
0.0
  0
LINE
  8
2
  6
CONTINUOUS
 62
2
 10
0.633091045880514
 20
0.402638203754716
 30
0.0
 11
0.894504173264202
 21
0.402638203754716
 31
0.0
  0
ARC
  8
2
  6
CONTINUOUS
 62
2
 10
0.894504173264202
 20
0.227638203754715
 30
0.0
 40
0.175000000000001
 50
270
 51
90.0000000000004
  0
LINE
  8
2
  6
CONTINUOUS
 62
2
 10
0.894504173264202
 20
0.0526382037547153
 30
0.0
 11
0.244504173264202
 21
0.0526382037547153
 31
0.0
  0
ARC
  8
2
  6
CONTINUOUS
 62
2
 10
0.244504173264202
 20
0.227638203754715
 30
0.0
 40
0.175000000000001
 50
90
 51
270
  0
LINE
  8
2
  6
CONTINUOUS
 62
2
 10
0.244504173264202
 20
0.402638203754716
 30
0.0
 11
0.533091045880514
 21
0.402638203754716
 31
0.0
  0
LINE
  8
2
  6
CONTINUOUS
 62
2
 10
0.533091045880514
 20
0.402638203754716
 30
0.0
 11
0.539485835692133
 21
0.453796522247666
 31
0.0
  0
ARC
  8
2
  6
CONTINUOUS
 62
2
 10
0.569504173264202
 20
0.852131457351412
 30
0.0
 40
0.0492125984251963
 50
359.999999999999
 51
105
  0
ARC
  8
2
  6
CONTINUOUS
 62
2
 10
0.569504173264202
 20
0.852131457351413
 30
0.0
 40
0.0492125984251963
 50
180
 51
1.53511459547513E-13
  0
ARC
  8
2
  6
CONTINUOUS
 62
2
 10
0.569504173267082
 20
0.852131457349202
 30
0.0
 40
0.0492125984280759
 50
105.000000002572
 51
179.999999997427
  0
LINE
  8
2
  6
CONTINUOUS
 62
2
 10
0.539485835692133
 20
1.07828977584436
 30
0.0
 11
0.533091045880514
 21
1.02713145735141
 31
0.0
  0
LINE
  8
2
  6
CONTINUOUS
 62
2
 10
0.533091045880514
 20
1.02713145735141
 30
0.0
 11
0.244504173264202
 21
1.02713145735141
 31
0.0
  0
ARC
  8
2
  6
CONTINUOUS
 62
2
 10
0.244504173264202
 20
0.852131457351412
 30
0.0
 40
0.175000000000001
 50
90
 51
270
  0
LINE
  8
2
  6
CONTINUOUS
 62
2
 10
0.244504173264202
 20
0.677131457351413
 30
0.0
 11
0.894504173264202
 21
0.677131457351413
 31
0.0
  0
ARC
  8
2
  6
CONTINUOUS
 62
2
 10
0.894504173264203
 20
0.852131457351412
 30
0.0
 40
0.175000000000001
 50
270
 51
90
  0
LINE
  8
2
  6
CONTINUOUS
 62
2
 10
0.894504173264202
 20
1.02713145735141
 30
0.0
 11
0.633091045880514
 21
1.02713145735141
 31
0.0
  0
LINE
  8
2
  6
CONTINUOUS
 62
2
 10
0.633091045880514
 20
1.02713145735141
 30
0.0
 11
0.626696256068895
 21
1.07828977584436
 31
0.0
  0
ARC
  8
2
  6
CONTINUOUS
 62
2
 10
0.569504173264202
 20
1.47662471094811
 30
0.0
 40
0.0492125984251963
 50
359.999999999999
 51
105
  0
ARC
  8
2
  6
CONTINUOUS
 62
2
 10
0.569504173264202
 20
1.47662471094811
 30
0.0
 40
0.0492125984251963
 50
180
 51
1.53511459547513E-13
  0
ARC
  8
2
  6
CONTINUOUS
 62
2
 10
0.569504173267082
 20
1.4766247109459
 30
0.0
 40
0.0492125984280758
 50
105.000000002572
 51
179.999999997427
  0
LINE
  8
2
  6
CONTINUOUS
 62
2
 10
0.626696256068895
 20
1.70278302944106
 30
0.0
 11
0.633091045880514
 21
1.65162471094811
 31
0.0
  0
LINE
  8
2
  6
CONTINUOUS
 62
2
 10
0.633091045880514
 20
1.65162471094811
 30
0.0
 11
0.894504173264202
 21
1.65162471094811
 31
0.0
  0
ARC
  8
2
  6
CONTINUOUS
 62
2
 10
0.894504173264202
 20
1.47662471094811
 30
0.0
 40
0.175000000000001
 50
270
 51
90.0000000000004
  0
LINE
  8
2
  6
CONTINUOUS
 62
2
 10
0.894504173264202
 20
1.30162471094811
 30
0.0
 11
0.244504173264202
 21
1.30162471094811
 31
0.0
  0
ARC
  8
2
  6
CONTINUOUS
 62
2
 10
0.244504173264202
 20
1.47662471094811
 30
0.0
 40
0.175000000000001
 50
90
 51
270
  0
LINE
  8
2
  6
CONTINUOUS
 62
2
 10
0.244504173264202
 20
1.65162471094811
 30
0.0
 11
0.533091045880514
 21
1.65162471094811
 31
0.0
  0
LINE
  8
2
  6
CONTINUOUS
 62
2
 10
0.533091045880514
 20
1.65162471094811
 30
0.0
 11
0.539485835692133
 21
1.70278302944106
 31
0.0
  0
ARC
  8
2
  6
CONTINUOUS
 62
2
 10
0.569504173264202
 20
2.10111796454481
 30
0.0
 40
0.0492125984251962
 50
359.999999999999
 51
120
  0
ARC
  8
2
  6
CONTINUOUS
 62
2
 10
0.569504173264202
 20
2.10111796454481
 30
0.0
 40
0.0492125984251963
 50
180
 51
1.53511459547513E-13
  0
ARC
  8
2
  6
CONTINUOUS
 62
2
 10
0.569504173268029
 20
2.1011179645426
 30
0.0
 40
0.0492125984290233
 50
120.000000002572
 51
179.999999997427
  0
LINE
  8
2
  6
CONTINUOUS
 62
2
 10
0.539485835692133
 20
2.32727628303776
 30
0.0
 11
0.533091045880514
 21
2.27611796454481
 31
0.0
  0
LINE
  8
2
  6
CONTINUOUS
 62
2
 10
0.533091045880514
 20
2.27611796454481
 30
0.0
 11
0.244504173264202
 21
2.27611796454481
 31
0.0
  0
ARC
  8
2
  6
CONTINUOUS
 62
2
 10
0.244504173264202
 20
2.10111796454481
 30
0.0
 40
0.175000000000001
 50
90
 51
270
  0
LINE
  8
2
  6
CONTINUOUS
 62
2
 10
0.244504173264202
 20
1.92611796454481
 30
0.0
 11
0.894504173264202
 21
1.92611796454481
 31
0.0
  0
ARC
  8
2
  6
CONTINUOUS
 62
2
 10
0.894504173264203
 20
2.10111796454481
 30
0.0
 40
0.175000000000001
 50
270
 51
90
  0
LINE
  8
2
  6
CONTINUOUS
 62
2
 10
0.894504173264202
 20
2.27611796454481
 30
0.0
 11
0.633091045880514
 21
2.27611796454481
 31
0.0
  0
LINE
  8
2
  6
CONTINUOUS
 62
2
 10
0.633091045880514
 20
2.27611796454481
 30
0.0
 11
0.626696256068895
 21
2.32727628303776
 31
0.0
  0
LINE
  8
2
  6
CONTINUOUS
 62
2
 10
0.539485835692133
 20
2.95176953663446
 30
0.0
 11
0.533091045880514
 21
2.90061121814151
 31
0.0
  0
LINE
  8
2
  6
CONTINUOUS
 62
2
 10
0.533091045880514
 20
2.90061121814151
 30
0.0
 11
0.244504173264202
 21
2.90061121814151
 31
0.0
  0
ARC
  8
2
  6
CONTINUOUS
 62
2
 10
0.244504173264202
 20
2.7256112181415
 30
0.0
 40
0.175000000000001
 50
90
 51
270
  0
LINE
  8
2
  6
CONTINUOUS
 62
2
 10
0.244504173264202
 20
2.5506112181415
 30
0.0
 11
0.894504173264202
 21
2.5506112181415
 31
0.0
  0
ARC
  8
2
  6
CONTINUOUS
 62
2
 10
0.894504173264203
 20
2.7256112181415
 30
0.0
 40
0.175000000000001
 50
270
 51
90
  0
LINE
  8
2
  6
CONTINUOUS
 62
2
 10
0.894504173264202
 20
2.90061121814151
 30
0.0
 11
0.633091045880514
 21
2.90061121814151
 31
0.0
  0
LINE
  8
2
  6
CONTINUOUS
 62
2
 10
0.633091045880514
 20
2.90061121814151
 30
0.0
 11
0.626696256068895
 21
2.95176953663446
 31
0.0
  0
ARC
  8
2
  6
CONTINUOUS
 62
2
 10
0.569504173264202
 20
2.7256112181415
 30
0.0
 40
0.0492125984251963
 50
359.999999999999
 51
150
  0
ARC
  8
2
  6
CONTINUOUS
 62
2
 10
0.569504173264202
 20
2.7256112181415
 30
0.0
 40
0.0492125984251963
 50
180
 51
1.53511459547513E-13
  0
ARC
  8
2
  6
CONTINUOUS
 62
2
 10
0.569504173272449
 20
2.72561121813929
 30
0.0
 40
0.0492125984334425
 50
150.000000002572
 51
179.999999997427
  0
LINE
  8
9
  6
CONTINUOUS
 62
9
 10
2.67362349808649
 20
0.295684315408366
 30
0.0
 11
2.70990683159093
 21
0.262436765820982
 31
0.0
  0
LINE
  8
9
  6
CONTINUOUS
 62
9
 10
2.70990683159093
 20
0.262436765820982
 30
0.0
 11
2.67665928200354
 21
0.298720099325417
 31
0.0
  0
LINE
  8
9
  6
CONTINUOUS
 62
9
 10
2.67362349808649
 20
0.920177569005064
 30
0.0
 11
2.70990683159093
 21
0.886930019417679
 31
0.0
  0
LINE
  8
9
  6
CONTINUOUS
 62
9
 10
2.70990683159093
 20
0.886930019417679
 30
0.0
 11
2.67665928200354
 21
0.923213352922114
 31
0.0
  0
LINE
  8
9
  6
CONTINUOUS
 62
9
 10
2.65843392530273
 20
1.52395485923723
 30
0.0
 11
2.70208603323473
 21
1.50123101016071
 31
0.0
  0
LINE
  8
9
  6
CONTINUOUS
 62
9
 10
2.70208603323473
 20
1.50123101016071
 30
0.0
 11
2.6605805486967
 21
1.5276729200203
 31
0.0
  0
LINE
  8
9
  6
CONTINUOUS
 62
9
 10
2.64912361051699
 20
2.12450667808027
 30
0.0
 11
2.6971696738595
 21
2.11385512227623
 31
0.0
  0
LINE
  8
9
  6
CONTINUOUS
 62
9
 10
2.6971696738595
 20
2.11385512227623
 30
0.0
 11
2.65023478455103
 21
2.12865363603136
 31
0.0
  0
LINE
  8
9
  6
CONTINUOUS
 62
9
 10
2.64632703629588
 20
2.72346459474754
 30
0.0
 11
2.695492795232
 21
2.7256112181415
 31
0.0
  0
LINE
  8
9
  6
CONTINUOUS
 62
9
 10
2.695492795232
 20
2.7256112181415
 30
0.0
 11
2.64632703629588
 21
2.72775784153547
 31
0.0
  0
LINE
  8
9
  6
CONTINUOUS
 62
9
 10
1.56152300032049
 20
2.74899993167697
 30
0.0
 11
1.60956906366301
 21
2.73834837587293
 31
0.0
  0
LINE
  8
9
  6
CONTINUOUS
 62
9
 10
1.60956906366301
 20
2.73834837587293
 30
0.0
 11
1.56263417435453
 21
2.75314688962806
 31
0.0
  0
LINE
  8
9
  6
CONTINUOUS
 62
9
 10
1.57083331510624
 20
2.14844811283393
 30
0.0
 11
1.61448542303824
 21
2.12572426375741
 31
0.0
  0
LINE
  8
9
  6
CONTINUOUS
 62
9
 10
1.61448542303824
 20
2.12572426375741
 30
0.0
 11
1.5729799385002
 21
2.15216617361699
 31
0.0
  0
LINE
  8
9
  6
CONTINUOUS
 62
9
 10
1.58602288789
 20
1.54467082260176
 30
0.0
 11
1.62230622139443
 21
1.51142327301438
 31
0.0
  0
LINE
  8
9
  6
CONTINUOUS
 62
9
 10
1.62230622139443
 20
1.51142327301438
 30
0.0
 11
1.58905867180705
 21
1.54770660651881
 31
0.0
  0
LINE
  8
9
  6
CONTINUOUS
 62
9
 10
1.60605657438851
 20
0.93625630231191
 30
0.0
 11
1.6324984842481
 21
0.894750817773875
 31
0.0
  0
LINE
  8
9
  6
CONTINUOUS
 62
9
 10
1.6324984842481
 20
0.894750817773875
 30
0.0
 11
1.60977463517157
 21
0.938402925705873
 31
0.0
  0
LINE
  8
9
  6
CONTINUOUS
 62
9
 10
1.60605657438851
 20
0.311763048715212
 30
0.0
 11
1.6324984842481
 21
0.270257564177177
 31
0.0
  0
LINE
  8
9
  6
CONTINUOUS
 62
9
 10
1.6324984842481
 20
0.270257564177177
 30
0.0
 11
1.60977463517157
 21
0.313909672109176
 31
0.0
  0
LINE
  8
9
  6
CONTINUOUS
 62
9
 10
0.541968501777648
 20
0.32210881286088
 30
0.0
 11
0.556767015532779
 21
0.275173923552405
 31
0.0
  0
LINE
  8
9
  6
CONTINUOUS
 62
9
 10
0.556767015532779
 20
0.275173923552405
 30
0.0
 11
0.546115459728739
 21
0.323219986894921
 31
0.0
  0
LINE
  8
9
  6
CONTINUOUS
 62
9
 10
0.541968501777648
 20
0.946602066457578
 30
0.0
 11
0.556767015532779
 21
0.899667177149102
 31
0.0
  0
LINE
  8
9
  6
CONTINUOUS
 62
9
 10
0.556767015532779
 20
0.899667177149102
 30
0.0
 11
0.546115459728739
 21
0.947713240491618
 31
0.0
  0
LINE
  8
9
  6
CONTINUOUS
 62
9
 10
0.541968501777648
 20
1.57109532005427
 30
0.0
 11
0.556767015532779
 21
1.5241604307458
 31
0.0
  0
LINE
  8
9
  6
CONTINUOUS
 62
9
 10
0.556767015532779
 20
1.5241604307458
 30
0.0
 11
0.546115459728739
 21
1.57220649408832
 31
0.0
  0
LINE
  8
9
  6
CONTINUOUS
 62
9
 10
0.518455964192017
 20
2.1852428095053
 30
0.0
 11
0.544897874051604
 21
2.14373732496727
 31
0.0
  0
LINE
  8
9
  6
CONTINUOUS
 62
9
 10
0.544897874051604
 20
2.14373732496727
 30
0.0
 11
0.522174024975077
 21
2.18738943289927
 31
0.0
  0
LINE
  8
9
  6
CONTINUOUS
 62
9
 10
0.483232704909742
 20
2.77294136643063
 30
0.0
 11
0.52688481284174
 21
2.7502175173541
 31
0.0
  0
LINE
  8
9
  6
CONTINUOUS
 62
9
 10
0.52688481284174
 20
2.7502175173541
 30
0.0
 11
0.485379328303705
 21
2.77665942721369
 31
0.0
  0
LINE
  8
10
  6
CONTINUOUS
 62
10
 10
2.71468705608512
 20
0.453796522247666
 30
0.0
 11
2.67362349808649
 21
0.920177569005064
 31
0.0
  0
LINE
  8
10
  6
CONTINUOUS
 62
10
 10
2.80189747646189
 20
1.07828977584436
 30
0.0
 11
2.65843392530273
 21
1.52395485923723
 31
0.0
  0
LINE
  8
10
  6
CONTINUOUS
 62
10
 10
2.71468705608512
 20
1.70278302944106
 30
0.0
 11
2.64912361051699
 21
2.12450667808027
 31
0.0
  0
LINE
  8
10
  6
CONTINUOUS
 62
10
 10
2.80189747646189
 20
2.32727628303776
 30
0.0
 11
2.80189747646189
 21
2.95176953663446
 31
0.0
  0
LINE
  8
10
  6
CONTINUOUS
 62
10
 10
2.71468705608512
 20
2.95176953663446
 30
0.0
 11
2.64632703629588
 21
2.72346459474754
 31
0.0
  0
LINE
  8
10
  6
CONTINUOUS
 62
10
 10
2.64632703629588
 20
2.72775784153547
 30
0.0
 11
1.62708644588863
 21
2.95176953663446
 31
0.0
  0
LINE
  8
10
  6
CONTINUOUS
 62
10
 10
1.71429686626539
 20
2.95176953663446
 30
0.0
 11
1.56152300032049
 21
2.74899993167697
 31
0.0
  0
LINE
  8
10
  6
CONTINUOUS
 62
10
 10
1.56263417435453
 20
2.75314688962806
 30
0.0
 11
1.62708644588863
 21
2.32727628303776
 31
0.0
  0
LINE
  8
10
  6
CONTINUOUS
 62
10
 10
1.71429686626539
 20
2.32727628303776
 30
0.0
 11
1.57083331510624
 21
2.14844811283393
 31
0.0
  0
LINE
  8
10
  6
CONTINUOUS
 62
10
 10
1.5729799385002
 20
2.15216617361699
 30
0.0
 11
1.62708644588863
 21
1.70278302944106
 31
0.0
  0
LINE
  8
10
  6
CONTINUOUS
 62
10
 10
1.71429686626539
 20
1.70278302944106
 30
0.0
 11
1.58602288789
 21
1.54467082260176
 31
0.0
  0
LINE
  8
10
  6
CONTINUOUS
 62
10
 10
1.58905867180705
 20
1.54770660651881
 30
0.0
 11
1.62708644588863
 21
1.07828977584436
 31
0.0
  0
LINE
  8
10
  6
CONTINUOUS
 62
10
 10
1.71429686626539
 20
1.07828977584436
 30
0.0
 11
1.60605657438851
 21
0.93625630231191
 31
0.0
  0
LINE
  8
10
  6
CONTINUOUS
 62
10
 10
1.60977463517157
 20
0.938402925705873
 30
0.0
 11
1.62708644588863
 21
0.453796522247666
 31
0.0
  0
LINE
  8
10
  6
CONTINUOUS
 62
10
 10
1.71429686626539
 20
0.453796522247666
 30
0.0
 11
1.60605657438851
 21
0.311763048715212
 31
0.0
  0
LINE
  8
10
  6
CONTINUOUS
 62
10
 10
1.60977463517157
 20
0.313909672109176
 30
0.0
 11
0.541968501777648
 21
0.32210881286088
 31
0.0
  0
LINE
  8
10
  6
CONTINUOUS
 62
10
 10
0.539485835692133
 20
0.453796522247666
 30
0.0
 11
0.541968501777648
 21
0.946602066457578
 31
0.0
  0
LINE
  8
10
  6
CONTINUOUS
 62
10
 10
0.626696256068895
 20
1.07828977584436
 30
0.0
 11
0.541968501777648
 21
1.57109532005427
 31
0.0
  0
LINE
  8
10
  6
CONTINUOUS
 62
10
 10
0.539485835692133
 20
1.70278302944106
 30
0.0
 11
0.518455964192017
 21
2.1852428095053
 31
0.0
  0
LINE
  8
10
  6
CONTINUOUS
 62
10
 10
0.626696256068895
 20
2.32727628303776
 30
0.0
 11
0.539485835692133
 21
2.95176953663446
 31
0.0
  0
LINE
  8
10
  6
CONTINUOUS
 62
10
 10
0.626696256068895
 20
2.95176953663446
 30
0.0
 11
0.483232704909742
 21
2.77294136643063
 31
0.0
  0
ENDSEC
  0
EOF
