  0
SECTION
  2
HEADER
  9
$ACADVER
  1
AC1003
  9
$EXTMIN
 10
0.234870491406439
 20
2.82247639796659
  9
$EXTMAX
 10
3.00862987170177
 20
0.172476397966594
  9
$INSUNITS
 70
1
  9
$INSBASE
 10
1.6217501815541
 20
1.49747639796659
999
Created with OMAX Layout for Windows. (www.omax.com) 2/2/2016
  0
ENDSEC
  0
SECTION
  2
TABLES
  0
TABLE
  2
LAYER
 70
    10
  0
LAYER
  2
0
 70
     0
 62
     7
  6
CONTINUOUS
  0
LAYER
  2
1
 70
     0
 62
     7
  6
CONTINUOUS
  0
LAYER
  2
2
 70
     0
 62
     7
  6
CONTINUOUS
  0
LAYER
  2
3
 70
     0
 62
     7
  6
CONTINUOUS
  0
LAYER
  2
4
 70
     0
 62
     7
  6
CONTINUOUS
  0
LAYER
  2
5
 70
     0
 62
     7
  6
CONTINUOUS
  0
LAYER
  2
6
 70
     0
 62
     7
  6
CONTINUOUS
  0
LAYER
  2
7
 70
     0
 62
     7
  6
CONTINUOUS
  0
LAYER
  2
8
 70
     0
 62
     7
  6
CONTINUOUS
  0
LAYER
  2
9
 70
     0
 62
     7
  6
CONTINUOUS
  0
LAYER
  2
10
 70
     0
 62
     7
  6
CONTINUOUS
  0
LAYER
  2
11
 70
     0
 62
     7
  6
CONTINUOUS
  0
LAYER
  2
12
 70
     0
 62
     7
  6
CONTINUOUS
  0
LAYER
  2
13
 70
     0
 62
     7
  6
CONTINUOUS
  0
LAYER
  2
14
 70
     0
 62
     7
  6
CONTINUOUS
  0
LAYER
  2
15
 70
     0
 62
     7
  6
CONTINUOUS
  0
LAYER
  2
16
 70
     0
 62
     7
  6
CONTINUOUS
  0
LAYER
  2
17
 70
     0
 62
     7
  6
CONTINUOUS
  0
LAYER
  2
18
 70
     0
 62
     7
  6
CONTINUOUS
  0
LAYER
  2
19
 70
     0
 62
     7
  6
CONTINUOUS
  0
LAYER
  2
20
 70
     0
 62
     7
  6
CONTINUOUS
  0
LAYER
  2
21
 70
     0
 62
     7
  6
CONTINUOUS
  0
LAYER
  2
22
 70
     0
 62
     7
  6
CONTINUOUS
  0
LAYER
  2
23
 70
     0
 62
     7
  6
CONTINUOUS
  0
LAYER
  2
24
 70
     0
 62
     7
  6
CONTINUOUS
  0
LAYER
  2
25
 70
     0
 62
     7
  6
CONTINUOUS
  0
LAYER
  2
26
 70
     0
 62
     7
  6
CONTINUOUS
  0
LAYER
  2
27
 70
     0
 62
     7
  6
CONTINUOUS
  0
LAYER
  2
28
 70
     0
 62
     7
  6
CONTINUOUS
  0
LAYER
  2
29
 70
     0
 62
     7
  6
CONTINUOUS
  0
LAYER
  2
30
 70
     0
 62
     7
  6
CONTINUOUS
  0
LAYER
  2
31
 70
     0
 62
     7
  6
CONTINUOUS
  0
ENDTAB
  0
ENDSEC
  0
SECTION
  2
ENTITIES
  0
LINE
  8
0
  6
CONTINUOUS
 62
0
 10
0.234870491406439
 20
0.172476397966594
 30
0.0
 11
0.939719440491526
 21
0.675418812502896
 31
0.0
  0
LINE
  8
0
  6
CONTINUOUS
 62
0
 10
0.892957922068191
 20
0.74070915879966
 30
0.0
 11
0.64383830812127
 21
1.19335568906329
 31
0.0
  0
LINE
  8
0
  6
CONTINUOUS
 62
0
 10
0.585389000447982
 20
1.17035742640837
 30
0.0
 11
0.950902674691608
 21
1.1515971068699
 31
0.0
  0
LINE
  8
0
  6
CONTINUOUS
 62
0
 10
1.0093519823649
 20
1.17459536952481
 30
0.0
 11
1.25090267469161
 21
1.1515971068699
 31
0.0
  0
LINE
  8
0
  6
CONTINUOUS
 62
0
 10
1.3093519823649
 20
1.17459536952481
 30
0.0
 11
0.93782517017871
 21
2.17097900727688
 31
0.0
  0
LINE
  8
0
  6
CONTINUOUS
 62
0
 10
0.964297885302172
 20
2.20631924722205
 30
0.0
 11
1.43487049140644
 21
2.82247639796659
 31
0.0
  0
LINE
  8
0
  6
CONTINUOUS
 62
0
 10
1.48487049140644
 20
2.67247639796659
 30
0.0
 11
2.31360255198121
 21
0.669748292145402
 31
0.0
  0
LINE
  8
0
  6
CONTINUOUS
 62
0
 10
2.34676489128443
 20
0.742890128167927
 30
0.0
 11
2.62466205498694
 21
1.1515971068699
 31
0.0
  0
LINE
  8
0
  6
CONTINUOUS
 62
0
 10
2.68311136266022
 20
1.17459536952481
 30
0.0
 11
2.3175976884166
 21
1.19335568906329
 31
0.0
  0
LINE
  8
0
  6
CONTINUOUS
 62
0
 10
2.25914838074331
 20
1.17035742640837
 30
0.0
 11
2.0175976884166
 21
1.19335568906329
 31
0.0
  0
LINE
  8
0
  6
CONTINUOUS
 62
0
 10
1.95914838074331
 20
1.17035742640837
 30
0.0
 11
2.31145836129148
 21
2.17676217563886
 31
0.0
  0
LINE
  8
0
  6
CONTINUOUS
 62
0
 10
2.27611812134631
 20
2.20323489076233
 30
0.0
 11
1.65862987170177
 21
2.67247639796659
 31
0.0
  0
LINE
  8
0
  6
CONTINUOUS
 62
0
 10
1.80862987170177
 20
2.72247639796659
 30
0.0
 11
0.234870491406439
 21
2.72247639796659
 31
0.0
  0
LINE
  8
0
  6
CONTINUOUS
 62
0
 10
0.234870491406439
 20
1.41563180827887
 30
0.0
 11
0.234870491406439
 21
1.46563180827887
 31
0.0
  0
LINE
  8
0
  6
CONTINUOUS
 62
0
 10
1.63487049140644
 20
1.53522754780924
 30
0.0
 11
1.63487049140644
 21
1.48522754780924
 31
0.0
  0
LINE
  8
0
  6
CONTINUOUS
 62
0
 10
1.60862987170177
 20
1.35813967562333
 30
0.0
 11
1.60862987170177
 21
1.40813967562333
 31
0.0
  0
LINE
  8
0
  6
CONTINUOUS
 62
0
 10
3.00862987170177
 20
1.45655410312271
 30
0.0
 11
3.00862987170177
 21
1.40655410312271
 31
0.0
  0
ARC
  8
4
  6
CONTINUOUS
 62
4
 10
0.934870491396329
 20
0.672476397972431
 30
0.0
 40
0.12999999998989
 50
119.999999997427
 51
180.000000002572
  0
ARC
  8
4
  6
CONTINUOUS
 62
4
 10
0.934870491406439
 20
0.672476397966593
 30
0.0
 40
0.13
 50
179.999999999999
 51
359.999999999999
  0
ARC
  8
4
  6
CONTINUOUS
 62
4
 10
0.934870491413179
 20
0.672476397978269
 30
0.0
 40
0.12999999999326
 50
359.999999994855
 51
120.000000005145
  0
ARC
  8
4
  6
CONTINUOUS
 62
4
 10
0.584870491400827
 20
1.17247639795928
 30
0.0
 40
0.0499999999926858
 50
194.999999993568
 51
270.000000006431
  0
LINE
  8
4
  6
CONTINUOUS
 62
4
 10
0.584870491406439
 20
1.12247639796659
 30
0.0
 11
0.709870491406439
 21
1.12247639796659
 31
0.0
  0
ARC
  8
4
  6
CONTINUOUS
 62
4
 10
0.709870491406439
 20
1.17247639796659
 30
0.0
 40
0.0499999999999998
 50
270
 51
90
  0
LINE
  8
4
  6
CONTINUOUS
 62
4
 10
0.709870491406439
 20
1.22247639796659
 30
0.0
 11
0.584870491406439
 21
1.22247639796659
 31
0.0
  0
ARC
  8
4
  6
CONTINUOUS
 62
4
 10
0.584870491405316
 20
1.17247639796745
 30
0.0
 40
0.0499999999991385
 50
89.9999999987136
 51
195.000000001286
  0
ARC
  8
4
  6
CONTINUOUS
 62
4
 10
1.00987049140981
 20
1.17247639797098
 30
0.0
 40
0.0499999999956123
 50
14.9999999961411
 51
90.0000000038584
  0
LINE
  8
4
  6
CONTINUOUS
 62
4
 10
1.00987049140644
 20
1.22247639796659
 30
0.0
 11
0.884870491406439
 21
1.22247639796659
 31
0.0
  0
ARC
  8
4
  6
CONTINUOUS
 62
4
 10
0.884870491406439
 20
1.17247639796659
 30
0.0
 40
0.0500000000000007
 50
90
 51
270
  0
LINE
  8
4
  6
CONTINUOUS
 62
4
 10
0.884870491406439
 20
1.12247639796659
 30
0.0
 11
1.00987049140644
 21
1.12247639796659
 31
0.0
  0
ARC
  8
4
  6
CONTINUOUS
 62
4
 10
1.00987049140981
 20
1.17247639796401
 30
0.0
 40
0.0499999999974168
 50
269.999999996141
 51
15.0000000038586
  0
ARC
  8
4
  6
CONTINUOUS
 62
4
 10
1.30987049140981
 20
1.17247639797098
 30
0.0
 40
0.0499999999956115
 50
14.9999999961412
 51
90.0000000038586
  0
LINE
  8
4
  6
CONTINUOUS
 62
4
 10
1.30987049140644
 20
1.22247639796659
 30
0.0
 11
1.18487049140644
 21
1.22247639796659
 31
0.0
  0
ARC
  8
4
  6
CONTINUOUS
 62
4
 10
1.18487049140644
 20
1.17247639796659
 30
0.0
 40
0.0499999999999998
 50
90
 51
270
  0
LINE
  8
4
  6
CONTINUOUS
 62
4
 10
1.18487049140644
 20
1.12247639796659
 30
0.0
 11
1.30987049140644
 21
1.12247639796659
 31
0.0
  0
ARC
  8
4
  6
CONTINUOUS
 62
4
 10
1.30987049140981
 20
1.17247639796401
 30
0.0
 40
0.049999999997416
 50
269.999999996141
 51
15.0000000038585
  0
ARC
  8
4
  6
CONTINUOUS
 62
4
 10
0.934870491404696
 20
2.1738074968708
 30
0.0
 40
0.0937499999982565
 50
44.9999999974274
 51
180.000000002572
  0
ARC
  8
4
  6
CONTINUOUS
 62
4
 10
0.934870491406439
 20
2.17380749686659
 30
0.0
 40
0.0937499999999999
 50
179.999999999999
 51
359.999999999999
  0
ARC
  8
4
  6
CONTINUOUS
 62
4
 10
0.934870491426763
 20
2.17380749687501
 30
0.0
 40
0.0937499999796763
 50
359.999999994854
 51
45.0000000051446
  0
LINE
  8
4
  6
CONTINUOUS
 62
4
 10
1.43487049140644
 20
2.67247639796659
 30
0.0
 11
1.43487049140644
 21
1.56022754780925
 31
0.0
  0
LINE
  8
4
  6
CONTINUOUS
 62
4
 10
1.43487049140644
 20
0.172476397966594
 30
0.0
 11
1.08487049140644
 21
0.172476397966594
 31
0.0
  0
LINE
  8
4
  6
CONTINUOUS
 62
4
 10
1.08487049140644
 20
0.172476397966594
 30
0.0
 11
1.08487049140644
 21
0.372476397966594
 31
0.0
  0
LINE
  8
4
  6
CONTINUOUS
 62
4
 10
1.08487049140644
 20
0.372476397966594
 30
0.0
 11
1.03487049140644
 21
0.372476397966594
 31
0.0
  0
LINE
  8
4
  6
CONTINUOUS
 62
4
 10
1.03487049140644
 20
0.372476397966594
 30
0.0
 11
1.03487049140644
 21
0.172476397966594
 31
0.0
  0
LINE
  8
4
  6
CONTINUOUS
 62
4
 10
1.03487049140644
 20
0.172476397966594
 30
0.0
 11
0.834870491406439
 21
0.172476397966594
 31
0.0
  0
LINE
  8
4
  6
CONTINUOUS
 62
4
 10
0.834870491406439
 20
0.172476397966594
 30
0.0
 11
0.834870491406439
 21
0.372476397966594
 31
0.0
  0
LINE
  8
4
  6
CONTINUOUS
 62
4
 10
0.834870491406439
 20
0.372476397966594
 30
0.0
 11
0.784870491406439
 21
0.372476397966594
 31
0.0
  0
LINE
  8
4
  6
CONTINUOUS
 62
4
 10
0.784870491406439
 20
0.372476397966594
 30
0.0
 11
0.784870491406439
 21
0.172476397966594
 31
0.0
  0
LINE
  8
4
  6
CONTINUOUS
 62
4
 10
0.784870491406439
 20
0.172476397966594
 30
0.0
 11
0.434870491406439
 21
0.172476397966594
 31
0.0
  0
LINE
  8
4
  6
CONTINUOUS
 62
4
 10
0.434870491406439
 20
0.172476397966594
 30
0.0
 11
0.434870491406439
 21
0.572476397966594
 31
0.0
  0
LINE
  8
4
  6
CONTINUOUS
 62
4
 10
0.434870491406439
 20
0.572476397966594
 30
0.0
 11
0.234870491406439
 21
0.572476397966594
 31
0.0
  0
LINE
  8
4
  6
CONTINUOUS
 62
4
 10
0.234870491406439
 20
0.572476397966594
 30
0.0
 11
0.234870491406439
 21
0.772476397966594
 31
0.0
  0
LINE
  8
4
  6
CONTINUOUS
 62
4
 10
0.234870491406439
 20
0.772476397966594
 30
0.0
 11
0.434870491406439
 21
0.772476397966594
 31
0.0
  0
LINE
  8
4
  6
CONTINUOUS
 62
4
 10
0.434870491406439
 20
0.772476397966594
 30
0.0
 11
0.434870491406439
 21
1.39063180827887
 31
0.0
  0
LINE
  8
4
  6
CONTINUOUS
 62
4
 10
0.434870491406439
 20
2.67247639796659
 30
0.0
 11
1.43487049140644
 21
2.67247639796659
 31
0.0
  0
ARC
  8
4
  6
CONTINUOUS
 62
4
 10
2.3086298716984
 20
0.672476397972431
 30
0.0
 40
0.12999999999663
 50
59.9999999974273
 51
180.000000002572
  0
ARC
  8
4
  6
CONTINUOUS
 62
4
 10
2.30862987170177
 20
0.672476397966593
 30
0.0
 40
0.13
 50
179.999999999999
 51
359.999999999999
  0
ARC
  8
4
  6
CONTINUOUS
 62
4
 10
2.30862987172199
 20
0.672476397978269
 30
0.0
 40
0.129999999979781
 50
359.999999994855
 51
60.0000000051447
  0
ARC
  8
4
  6
CONTINUOUS
 62
4
 10
2.68362987170513
 20
1.17247639797098
 30
0.0
 40
0.0499999999956114
 50
14.9999999961411
 51
90.0000000038584
  0
LINE
  8
4
  6
CONTINUOUS
 62
4
 10
2.68362987170177
 20
1.22247639796659
 30
0.0
 11
2.55862987170177
 21
1.22247639796659
 31
0.0
  0
ARC
  8
4
  6
CONTINUOUS
 62
4
 10
2.55862987170177
 20
1.17247639796659
 30
0.0
 40
0.0499999999999998
 50
90
 51
270
  0
LINE
  8
4
  6
CONTINUOUS
 62
4
 10
2.55862987170177
 20
1.12247639796659
 30
0.0
 11
2.68362987170177
 21
1.12247639796659
 31
0.0
  0
ARC
  8
4
  6
CONTINUOUS
 62
4
 10
2.68362987170514
 20
1.17247639796401
 30
0.0
 40
0.0499999999974159
 50
269.999999996141
 51
15.0000000038586
  0
ARC
  8
4
  6
CONTINUOUS
 62
4
 10
2.25862987169615
 20
1.17247639795928
 30
0.0
 40
0.0499999999926866
 50
194.999999993568
 51
270.000000006431
  0
LINE
  8
4
  6
CONTINUOUS
 62
4
 10
2.25862987170177
 20
1.12247639796659
 30
0.0
 11
2.38362987170177
 21
1.12247639796659
 31
0.0
  0
ARC
  8
4
  6
CONTINUOUS
 62
4
 10
2.38362987170177
 20
1.17247639796659
 30
0.0
 40
0.0500000000000007
 50
270
 51
90
  0
LINE
  8
4
  6
CONTINUOUS
 62
4
 10
2.38362987170177
 20
1.22247639796659
 30
0.0
 11
2.25862987170177
 21
1.22247639796659
 31
0.0
  0
ARC
  8
4
  6
CONTINUOUS
 62
4
 10
2.25862987170064
 20
1.17247639796745
 30
0.0
 40
0.0499999999991394
 50
89.9999999987136
 51
195.000000001286
  0
ARC
  8
4
  6
CONTINUOUS
 62
4
 10
1.95862987169615
 20
1.17247639795928
 30
0.0
 40
0.0499999999926859
 50
194.999999993568
 51
270.000000006431
  0
LINE
  8
4
  6
CONTINUOUS
 62
4
 10
1.95862987170177
 20
1.12247639796659
 30
0.0
 11
2.08362987170177
 21
1.12247639796659
 31
0.0
  0
ARC
  8
4
  6
CONTINUOUS
 62
4
 10
2.08362987170177
 20
1.17247639796659
 30
0.0
 40
0.0499999999999998
 50
270
 51
90
  0
LINE
  8
4
  6
CONTINUOUS
 62
4
 10
2.08362987170177
 20
1.22247639796659
 30
0.0
 11
1.95862987170177
 21
1.22247639796659
 31
0.0
  0
ARC
  8
4
  6
CONTINUOUS
 62
4
 10
1.95862987170064
 20
1.17247639796745
 30
0.0
 40
0.0499999999991386
 50
89.9999999987135
 51
195.000000001286
  0
ARC
  8
4
  6
CONTINUOUS
 62
4
 10
2.3086298716916
 20
2.1738074968708
 30
0.0
 40
0.0937499999898382
 50
134.999999997427
 51
180.000000002572
  0
ARC
  8
4
  6
CONTINUOUS
 62
4
 10
2.30862987170177
 20
2.17380749686659
 30
0.0
 40
0.09375
 50
179.999999999999
 51
359.999999999999
  0
ARC
  8
4
  6
CONTINUOUS
 62
4
 10
2.30862987170525
 20
2.17380749687501
 30
0.0
 40
0.0937499999965131
 50
359.999999994854
 51
135.000000005145
  0
LINE
  8
4
  6
CONTINUOUS
 62
4
 10
1.80862987170177
 20
2.67247639796659
 30
0.0
 11
2.80862987170177
 21
2.67247639796659
 31
0.0
  0
LINE
  8
4
  6
CONTINUOUS
 62
4
 10
2.80862987170177
 20
2.67247639796659
 30
0.0
 11
2.80862987170177
 21
1.48155410312273
 31
0.0
  0
LINE
  8
4
  6
CONTINUOUS
 62
4
 10
2.80862987170177
 20
0.172476397966594
 30
0.0
 11
2.45862987170177
 21
0.172476397966594
 31
0.0
  0
LINE
  8
4
  6
CONTINUOUS
 62
4
 10
2.45862987170177
 20
0.172476397966594
 30
0.0
 11
2.45862987170177
 21
0.372476397966594
 31
0.0
  0
LINE
  8
4
  6
CONTINUOUS
 62
4
 10
2.45862987170177
 20
0.372476397966594
 30
0.0
 11
2.40862987170177
 21
0.372476397966594
 31
0.0
  0
LINE
  8
4
  6
CONTINUOUS
 62
4
 10
2.40862987170177
 20
0.372476397966594
 30
0.0
 11
2.40862987170177
 21
0.172476397966594
 31
0.0
  0
LINE
  8
4
  6
CONTINUOUS
 62
4
 10
2.40862987170177
 20
0.172476397966594
 30
0.0
 11
2.20862987170177
 21
0.172476397966594
 31
0.0
  0
LINE
  8
4
  6
CONTINUOUS
 62
4
 10
2.20862987170177
 20
0.172476397966594
 30
0.0
 11
2.20862987170177
 21
0.372476397966594
 31
0.0
  0
LINE
  8
4
  6
CONTINUOUS
 62
4
 10
2.20862987170177
 20
0.372476397966594
 30
0.0
 11
2.15862987170177
 21
0.372476397966594
 31
0.0
  0
LINE
  8
4
  6
CONTINUOUS
 62
4
 10
2.15862987170177
 20
0.372476397966594
 30
0.0
 11
2.15862987170177
 21
0.172476397966594
 31
0.0
  0
LINE
  8
4
  6
CONTINUOUS
 62
4
 10
2.15862987170177
 20
0.172476397966594
 30
0.0
 11
1.80862987170177
 21
0.172476397966594
 31
0.0
  0
LINE
  8
4
  6
CONTINUOUS
 62
4
 10
1.80862987170177
 20
0.172476397966594
 30
0.0
 11
1.80862987170177
 21
0.572476397966594
 31
0.0
  0
LINE
  8
4
  6
CONTINUOUS
 62
4
 10
1.80862987170177
 20
0.572476397966594
 30
0.0
 11
1.60862987170177
 21
0.572476397966594
 31
0.0
  0
LINE
  8
4
  6
CONTINUOUS
 62
4
 10
1.60862987170177
 20
0.572476397966594
 30
0.0
 11
1.60862987170177
 21
0.772476397966594
 31
0.0
  0
LINE
  8
4
  6
CONTINUOUS
 62
4
 10
1.60862987170177
 20
0.772476397966594
 30
0.0
 11
1.80862987170177
 21
0.772476397966594
 31
0.0
  0
LINE
  8
4
  6
CONTINUOUS
 62
4
 10
1.80862987170177
 20
0.772476397966594
 30
0.0
 11
1.80862987170177
 21
1.33313967562334
 31
0.0
  0
LINE
  8
4
  6
CONTINUOUS
 62
4
 10
0.434870491406439
 20
1.39063180827887
 30
0.0
 11
0.38371217291349
 21
1.39702659809049
 31
0.0
  0
LINE
  8
4
  6
CONTINUOUS
 62
4
 10
0.434870491406439
 20
1.49063180827887
 30
0.0
 11
0.383712172913489
 21
1.48423701846725
 31
0.0
  0
LINE
  8
4
  6
CONTINUOUS
 62
4
 10
0.434870491406439
 20
1.49063180827887
 30
0.0
 11
0.434870491406439
 21
2.67247639796659
 31
0.0
  0
LINE
  8
4
  6
CONTINUOUS
 62
4
 10
1.43487049140644
 20
1.56022754780925
 30
0.0
 11
1.48602880989939
 21
1.55383275799763
 31
0.0
  0
LINE
  8
4
  6
CONTINUOUS
 62
4
 10
1.43487049140644
 20
1.46022754780925
 30
0.0
 11
1.48602880989939
 21
1.46662233762087
 31
0.0
  0
LINE
  8
4
  6
CONTINUOUS
 62
4
 10
1.43487049140644
 20
1.46022754780925
 30
0.0
 11
1.43487049140644
 21
0.172476397966594
 31
0.0
  0
LINE
  8
4
  6
CONTINUOUS
 62
4
 10
1.80862987170177
 20
1.33313967562334
 30
0.0
 11
1.75747155320882
 21
1.33953446543495
 31
0.0
  0
LINE
  8
4
  6
CONTINUOUS
 62
4
 10
1.80862987170177
 20
1.43313967562334
 30
0.0
 11
1.75747155320882
 21
1.42674488581172
 31
0.0
  0
LINE
  8
4
  6
CONTINUOUS
 62
4
 10
1.80862987170177
 20
1.43313967562334
 30
0.0
 11
1.80862987170177
 21
2.67247639796659
 31
0.0
  0
LINE
  8
4
  6
CONTINUOUS
 62
4
 10
2.80862987170177
 20
1.48155410312273
 30
0.0
 11
2.85978819019472
 21
1.47515931331111
 31
0.0
  0
LINE
  8
4
  6
CONTINUOUS
 62
4
 10
2.80862987170177
 20
1.38155410312273
 30
0.0
 11
2.85978819019472
 21
1.38794889293435
 31
0.0
  0
LINE
  8
4
  6
CONTINUOUS
 62
4
 10
2.80862987170177
 20
1.38155410312273
 30
0.0
 11
2.80862987170177
 21
0.172476397966594
 31
0.0
  0
LINE
  8
9
  6
CONTINUOUS
 62
9
 10
0.939719440491526
 20
0.675418812502896
 30
0.0
 11
0.869870491406439
 21
0.785059700458571
 31
0.0
  0
LINE
  8
9
  6
CONTINUOUS
 62
9
 10
0.869870491406439
 20
0.785059700458571
 30
0.0
 11
0.892957922068191
 21
0.74070915879966
 31
0.0
  0
LINE
  8
9
  6
CONTINUOUS
 62
9
 10
0.64383830812127
 20
1.19335568906329
 30
0.0
 11
0.536574200091986
 21
1.15953544571147
 31
0.0
  0
LINE
  8
9
  6
CONTINUOUS
 62
9
 10
0.536574200091986
 20
1.15953544571147
 30
0.0
 11
0.585389000447982
 21
1.17035742640837
 31
0.0
  0
LINE
  8
9
  6
CONTINUOUS
 62
9
 10
0.950902674691608
 20
1.1515971068699
 30
0.0
 11
1.05816678272089
 21
1.18541735022172
 31
0.0
  0
LINE
  8
9
  6
CONTINUOUS
 62
9
 10
1.05816678272089
 20
1.18541735022172
 30
0.0
 11
1.0093519823649
 21
1.17459536952481
 31
0.0
  0
LINE
  8
9
  6
CONTINUOUS
 62
9
 10
1.25090267469161
 20
1.1515971068699
 30
0.0
 11
1.35816678272089
 21
1.18541735022172
 31
0.0
  0
LINE
  8
9
  6
CONTINUOUS
 62
9
 10
1.35816678272089
 20
1.18541735022172
 30
0.0
 11
1.3093519823649
 21
1.17459536952481
 31
0.0
  0
LINE
  8
9
  6
CONTINUOUS
 62
9
 10
0.93782517017871
 20
2.17097900727688
 30
0.0
 11
1.00116175214268
 21
2.24009875760283
 31
0.0
  0
LINE
  8
9
  6
CONTINUOUS
 62
9
 10
1.00116175214268
 20
2.24009875760283
 30
0.0
 11
0.964297885302172
 21
2.20631924722205
 31
0.0
  0
LINE
  8
9
  6
CONTINUOUS
 62
9
 10
1.43487049140644
 20
2.82247639796659
 30
0.0
 11
1.43487049140644
 21
2.67247639796659
 31
0.0
  0
LINE
  8
9
  6
CONTINUOUS
 62
9
 10
1.43487049140644
 20
2.67247639796659
 30
0.0
 11
1.48487049140644
 21
2.67247639796659
 31
0.0
  0
LINE
  8
9
  6
CONTINUOUS
 62
9
 10
2.31360255198121
 20
0.669748292145402
 30
0.0
 11
2.37362987170177
 21
0.785059700458571
 31
0.0
  0
LINE
  8
9
  6
CONTINUOUS
 62
9
 10
2.37362987170177
 20
0.785059700458571
 30
0.0
 11
2.34676489128443
 21
0.742890128167927
 31
0.0
  0
LINE
  8
9
  6
CONTINUOUS
 62
9
 10
2.62466205498694
 20
1.1515971068699
 30
0.0
 11
2.73192616301622
 21
1.18541735022172
 31
0.0
  0
LINE
  8
9
  6
CONTINUOUS
 62
9
 10
2.73192616301622
 20
1.18541735022172
 30
0.0
 11
2.68311136266022
 21
1.17459536952481
 31
0.0
  0
LINE
  8
9
  6
CONTINUOUS
 62
9
 10
2.3175976884166
 20
1.19335568906329
 30
0.0
 11
2.21033358038731
 21
1.15953544571147
 31
0.0
  0
LINE
  8
9
  6
CONTINUOUS
 62
9
 10
2.21033358038731
 20
1.15953544571147
 30
0.0
 11
2.25914838074331
 21
1.17035742640837
 31
0.0
  0
LINE
  8
9
  6
CONTINUOUS
 62
9
 10
2.0175976884166
 20
1.19335568906329
 30
0.0
 11
1.91033358038731
 21
1.15953544571147
 31
0.0
  0
LINE
  8
9
  6
CONTINUOUS
 62
9
 10
1.91033358038731
 20
1.15953544571147
 30
0.0
 11
1.95914838074331
 21
1.17035742640837
 31
0.0
  0
LINE
  8
9
  6
CONTINUOUS
 62
9
 10
2.31145836129148
 20
2.17676217563886
 30
0.0
 11
2.24233861096553
 21
2.24009875760283
 31
0.0
  0
LINE
  8
9
  6
CONTINUOUS
 62
9
 10
2.24233861096553
 20
2.24009875760283
 30
0.0
 11
2.27611812134631
 21
2.20323489076233
 31
0.0
  0
LINE
  8
9
  6
CONTINUOUS
 62
9
 10
1.65862987170177
 20
2.67247639796659
 30
0.0
 11
1.80862987170177
 21
2.67247639796659
 31
0.0
  0
LINE
  8
9
  6
CONTINUOUS
 62
9
 10
1.80862987170177
 20
2.67247639796659
 30
0.0
 11
1.80862987170177
 21
2.72247639796659
 31
0.0
  0
LINE
  8
9
  6
CONTINUOUS
 62
9
 10
0.38371217291349
 20
1.39702659809049
 30
0.0
 11
0.234870491406439
 21
1.41563180827887
 31
0.0
  0
LINE
  8
9
  6
CONTINUOUS
 62
9
 10
0.383712172913489
 20
1.48423701846725
 30
0.0
 11
0.234870491406439
 21
1.46563180827887
 31
0.0
  0
LINE
  8
9
  6
CONTINUOUS
 62
9
 10
1.48602880989939
 20
1.55383275799763
 30
0.0
 11
1.63487049140644
 21
1.53522754780924
 31
0.0
  0
LINE
  8
9
  6
CONTINUOUS
 62
9
 10
1.48602880989939
 20
1.46662233762087
 30
0.0
 11
1.63487049140644
 21
1.48522754780924
 31
0.0
  0
LINE
  8
9
  6
CONTINUOUS
 62
9
 10
1.75747155320882
 20
1.33953446543495
 30
0.0
 11
1.60862987170177
 21
1.35813967562333
 31
0.0
  0
LINE
  8
9
  6
CONTINUOUS
 62
9
 10
1.75747155320882
 20
1.42674488581172
 30
0.0
 11
1.60862987170177
 21
1.40813967562333
 31
0.0
  0
LINE
  8
9
  6
CONTINUOUS
 62
9
 10
2.85978819019472
 20
1.47515931331111
 30
0.0
 11
3.00862987170177
 21
1.45655410312271
 31
0.0
  0
LINE
  8
9
  6
CONTINUOUS
 62
9
 10
2.85978819019472
 20
1.38794889293435
 30
0.0
 11
3.00862987170177
 21
1.40655410312271
 31
0.0
  0
ENDSEC
  0
EOF
