  0
SECTION
  2
HEADER
  9
$ACADVER
  1
AC1003
  9
$EXTMIN
 10
0.251217973331758
 20
3.29963346999425
  9
$EXTMAX
 10
2.57983638628441
 20
0.199181931422055
  9
$INSUNITS
 70
1
  9
$INSBASE
 10
1.41552717980809
 20
1.74940770070815
999
Created with OMAX Layout for Windows. (www.omax.com) 2/1/2016
  0
ENDSEC
  0
SECTION
  2
TABLES
  0
TABLE
  2
LAYER
 70
    10
  0
LAYER
  2
0
 70
     0
 62
     7
  6
CONTINUOUS
  0
LAYER
  2
1
 70
     0
 62
     7
  6
CONTINUOUS
  0
LAYER
  2
2
 70
     0
 62
     7
  6
CONTINUOUS
  0
LAYER
  2
3
 70
     0
 62
     7
  6
CONTINUOUS
  0
LAYER
  2
4
 70
     0
 62
     7
  6
CONTINUOUS
  0
LAYER
  2
5
 70
     0
 62
     7
  6
CONTINUOUS
  0
LAYER
  2
6
 70
     0
 62
     7
  6
CONTINUOUS
  0
LAYER
  2
7
 70
     0
 62
     7
  6
CONTINUOUS
  0
LAYER
  2
8
 70
     0
 62
     7
  6
CONTINUOUS
  0
LAYER
  2
9
 70
     0
 62
     7
  6
CONTINUOUS
  0
LAYER
  2
10
 70
     0
 62
     7
  6
CONTINUOUS
  0
LAYER
  2
11
 70
     0
 62
     7
  6
CONTINUOUS
  0
LAYER
  2
12
 70
     0
 62
     7
  6
CONTINUOUS
  0
LAYER
  2
13
 70
     0
 62
     7
  6
CONTINUOUS
  0
LAYER
  2
14
 70
     0
 62
     7
  6
CONTINUOUS
  0
LAYER
  2
15
 70
     0
 62
     7
  6
CONTINUOUS
  0
LAYER
  2
16
 70
     0
 62
     7
  6
CONTINUOUS
  0
LAYER
  2
17
 70
     0
 62
     7
  6
CONTINUOUS
  0
LAYER
  2
18
 70
     0
 62
     7
  6
CONTINUOUS
  0
LAYER
  2
19
 70
     0
 62
     7
  6
CONTINUOUS
  0
LAYER
  2
20
 70
     0
 62
     7
  6
CONTINUOUS
  0
LAYER
  2
21
 70
     0
 62
     7
  6
CONTINUOUS
  0
LAYER
  2
22
 70
     0
 62
     7
  6
CONTINUOUS
  0
LAYER
  2
23
 70
     0
 62
     7
  6
CONTINUOUS
  0
LAYER
  2
24
 70
     0
 62
     7
  6
CONTINUOUS
  0
LAYER
  2
25
 70
     0
 62
     7
  6
CONTINUOUS
  0
LAYER
  2
26
 70
     0
 62
     7
  6
CONTINUOUS
  0
LAYER
  2
27
 70
     0
 62
     7
  6
CONTINUOUS
  0
LAYER
  2
28
 70
     0
 62
     7
  6
CONTINUOUS
  0
LAYER
  2
29
 70
     0
 62
     7
  6
CONTINUOUS
  0
LAYER
  2
30
 70
     0
 62
     7
  6
CONTINUOUS
  0
LAYER
  2
31
 70
     0
 62
     7
  6
CONTINUOUS
  0
ENDTAB
  0
ENDSEC
  0
SECTION
  2
ENTITIES
  0
LINE
  8
0
  6
CONTINUOUS
 62
0
 10
0.251217973331758
 20
0.399181931408585
 30
0.0
 11
1.97971265509005
 21
0.904852451779549
 31
0.0
  0
LINE
  8
0
  6
CONTINUOUS
 62
0
 10
1.89978879736351
 20
0.897000962053788
 30
0.0
 11
1.38148990066261
 21
0.901867364912707
 31
0.0
  0
LINE
  8
0
  6
CONTINUOUS
 62
0
 10
1.36828440975018
 20
0.899490781932814
 30
0.0
 11
0.831251008674485
 21
0.896850705914217
 31
0.0
  0
LINE
  8
0
  6
CONTINUOUS
 62
0
 10
0.839612432361062
 20
0.907344500762161
 30
0.0
 11
1.94829347817961
 21
2.04903916465933
 31
0.0
  0
LINE
  8
0
  6
CONTINUOUS
 62
0
 10
1.95701735565268
 20
1.94913434250115
 30
0.0
 11
2.00169148772342
 21
2.6023189034849
 31
0.0
  0
LINE
  8
0
  6
CONTINUOUS
 62
0
 10
1.98848599681099
 20
2.599942320505
 30
0.0
 11
1.45051148772342
 21
2.6023189034849
 31
0.0
  0
LINE
  8
0
  6
CONTINUOUS
 62
0
 10
1.43730599681099
 20
2.599942320505
 30
0.0
 11
0.846245293064341
 21
2.60236157579055
 31
0.0
  0
LINE
  8
0
  6
CONTINUOUS
 62
0
 10
0.813082953765884
 20
2.5292197397908
 30
0.0
 11
0.457760881450029
 21
1.94977623675697
 31
0.0
  0
LINE
  8
0
  6
CONTINUOUS
 62
0
 10
1.60725482155504
 20
0.199181931422055
 30
0.0
 11
1.55725482155504
 21
0.199181931422055
 31
0.0
  0
LINE
  8
0
  6
CONTINUOUS
 62
0
 10
1.52422816417115
 20
1.59918193142206
 30
0.0
 11
1.57422816417115
 21
1.59918193142206
 31
0.0
  0
LINE
  8
0
  6
CONTINUOUS
 62
0
 10
1.35247775030793
 20
1.89963346999425
 30
0.0
 11
1.30247775030793
 21
1.89963346999425
 31
0.0
  0
LINE
  8
0
  6
CONTINUOUS
 62
0
 10
1.3968396285476
 20
3.29963346999425
 30
0.0
 11
1.4468396285476
 21
3.29963346999425
 31
0.0
  0
ARC
  8
4
  6
CONTINUOUS
 62
4
 10
1.97983638628441
 20
0.899181931422054
 30
0.0
 40
0.13
 50
179.999999999999
 51
359.999999999999
  0
ARC
  8
4
  6
CONTINUOUS
 62
4
 10
1.97983638628441
 20
0.899181931422056
 30
0.0
 40
0.13
 50
359.999999999999
 51
180
  0
ARC
  8
4
  6
CONTINUOUS
 62
4
 10
1.38101638626286
 20
0.899181931423957
 30
0.0
 40
0.0624999999784445
 50
168.749999997841
 51
180.000000001743
  0
ARC
  8
4
  6
CONTINUOUS
 62
4
 10
1.38101638628441
 20
0.899181931422054
 30
0.0
 40
0.0625
 50
179.999999999999
 51
359.999999999999
  0
ARC
  8
4
  6
CONTINUOUS
 62
4
 10
1.38101638628515
 20
0.899181931427668
 30
0.0
 40
0.0624999999992612
 50
359.999999994854
 51
165.000000005145
  0
ARC
  8
4
  6
CONTINUOUS
 62
4
 10
1.38101638609641
 20
0.899181931466568
 30
0.0
 40
0.062499999806886
 50
164.99999999481
 51
168.750000006386
  0
ARC
  8
4
  6
CONTINUOUS
 62
4
 10
0.829836386283661
 20
0.899181931424861
 30
0.0
 40
0.0624999999992481
 50
29.9999999974273
 51
180.000000002572
  0
ARC
  8
4
  6
CONTINUOUS
 62
4
 10
0.829836386284412
 20
0.899181931422054
 30
0.0
 40
0.0625
 50
179.999999999999
 51
359.999999999999
  0
ARC
  8
4
  6
CONTINUOUS
 62
4
 10
0.829836386305358
 20
0.899181931427668
 30
0.0
 40
0.0624999999790548
 50
359.999999994854
 51
30.0000000051447
  0
LINE
  8
4
  6
CONTINUOUS
 62
4
 10
1.95483638628441
 20
1.89918193142206
 30
0.0
 11
1.97983638628441
 21
1.89918193142206
 31
0.0
  0
LINE
  8
4
  6
CONTINUOUS
 62
4
 10
1.97983638628441
 20
1.89918193142206
 30
0.0
 11
2.02983638628441
 21
1.89918193142206
 31
0.0
  0
ARC
  8
4
  6
CONTINUOUS
 62
4
 10
2.02983638628441
 20
1.84918193142205
 30
0.0
 40
0.0499999999999998
 50
359.999999999999
 51
89.9999999999998
  0
LINE
  8
4
  6
CONTINUOUS
 62
4
 10
2.07983638628441
 20
1.84918193142205
 30
0.0
 11
2.07983638628441
 21
1.39918193142206
 31
0.0
  0
LINE
  8
4
  6
CONTINUOUS
 62
4
 10
2.07983638628441
 20
1.39918193142206
 30
0.0
 11
2.47983638628441
 21
1.39918193142206
 31
0.0
  0
ARC
  8
4
  6
CONTINUOUS
 62
4
 10
2.47983638628441
 20
1.29918193142205
 30
0.0
 40
0.100000000000001
 50
359.999999999999
 51
89.9999999999998
  0
LINE
  8
4
  6
CONTINUOUS
 62
4
 10
2.57983638628441
 20
1.29918193142205
 30
0.0
 11
2.57983638628441
 21
0.499181931422055
 31
0.0
  0
ARC
  8
4
  6
CONTINUOUS
 62
4
 10
2.47983638628441
 20
0.499181931422055
 30
0.0
 40
0.100000000000001
 50
270
 51
1.53511459547513E-13
  0
LINE
  8
4
  6
CONTINUOUS
 62
4
 10
2.47983638628441
 20
0.399181931422055
 30
0.0
 11
1.63225482155504
 21
0.399181931422055
 31
0.0
  0
ARC
  8
4
  6
CONTINUOUS
 62
4
 10
0.429836386284413
 20
0.499181931422055
 30
0.0
 40
0.100000000000001
 50
180
 51
270
  0
LINE
  8
4
  6
CONTINUOUS
 62
4
 10
0.329836386284412
 20
0.499181931422055
 30
0.0
 11
0.329836386284412
 21
1.29918193142205
 31
0.0
  0
ARC
  8
4
  6
CONTINUOUS
 62
4
 10
0.429836386284412
 20
1.29918193142205
 30
0.0
 40
0.100000000000001
 50
89.9999999999998
 51
180
  0
LINE
  8
4
  6
CONTINUOUS
 62
4
 10
0.429836386284412
 20
1.39918193142206
 30
0.0
 11
1.49922816417115
 21
1.39918193142206
 31
0.0
  0
LINE
  8
4
  6
CONTINUOUS
 62
4
 10
1.87983638628441
 20
1.39918193142206
 30
0.0
 11
1.87983638628441
 21
1.84918193142205
 31
0.0
  0
ARC
  8
4
  6
CONTINUOUS
 62
4
 10
1.92983638628441
 20
1.84918193142205
 30
0.0
 40
0.0499999999999998
 50
89.9999999999998
 51
180
  0
LINE
  8
4
  6
CONTINUOUS
 62
4
 10
1.92983638628441
 20
1.89918193142206
 30
0.0
 11
1.95483638628441
 21
1.89918193142206
 31
0.0
  0
ARC
  8
4
  6
CONTINUOUS
 62
4
 10
2.00121797332367
 20
2.59963346999615
 30
0.0
 40
0.062499999978443
 50
168.749999997841
 51
180.000000001744
  0
ARC
  8
4
  6
CONTINUOUS
 62
4
 10
2.00121797334523
 20
2.59963346999425
 30
0.0
 40
0.0625
 50
179.999999999999
 51
359.999999999999
  0
ARC
  8
4
  6
CONTINUOUS
 62
4
 10
2.00121797334597
 20
2.59963346999986
 30
0.0
 40
0.0624999999992612
 50
359.999999994855
 51
165.000000005145
  0
ARC
  8
4
  6
CONTINUOUS
 62
4
 10
2.00121797315723
 20
2.59963347003876
 30
0.0
 40
0.062499999806886
 50
164.999999994809
 51
168.750000006385
  0
ARC
  8
4
  6
CONTINUOUS
 62
4
 10
1.45003797332367
 20
2.59963346999615
 30
0.0
 40
0.0624999999784425
 50
168.749999997841
 51
180.000000001744
  0
ARC
  8
4
  6
CONTINUOUS
 62
4
 10
1.45003797334523
 20
2.59963346999425
 30
0.0
 40
0.0625
 50
179.999999999999
 51
359.999999999999
  0
ARC
  8
4
  6
CONTINUOUS
 62
4
 10
1.45003797334597
 20
2.59963346999986
 30
0.0
 40
0.0624999999992612
 50
359.999999994855
 51
165.000000005145
  0
ARC
  8
4
  6
CONTINUOUS
 62
4
 10
1.45003797315723
 20
2.59963347003876
 30
0.0
 40
0.062499999806886
 50
164.999999994809
 51
168.750000006385
  0
ARC
  8
4
  6
CONTINUOUS
 62
4
 10
0.851217973351971
 20
2.59963346998257
 30
0.0
 40
0.12999999999326
 50
239.999999994854
 51
5.14461080836087E-9
  0
ARC
  8
4
  6
CONTINUOUS
 62
4
 10
0.85121797334523
 20
2.59963346999425
 30
0.0
 40
0.13
 50
359.999999999999
 51
180
  0
ARC
  8
4
  6
CONTINUOUS
 62
4
 10
0.85121797333512
 20
2.59963346998841
 30
0.0
 40
0.12999999998989
 50
179.999999997427
 51
240.000000002572
  0
LINE
  8
4
  6
CONTINUOUS
 62
4
 10
0.451217973345229
 20
2.09963346999425
 30
0.0
 11
0.351217973345229
 21
2.09963346999425
 31
0.0
  0
ARC
  8
4
  6
CONTINUOUS
 62
4
 10
0.351217973345229
 20
2.19963346999425
 30
0.0
 40
0.100000000000001
 50
180
 51
270
  0
LINE
  8
4
  6
CONTINUOUS
 62
4
 10
0.251217973345229
 20
2.19963346999425
 30
0.0
 11
0.251217973345229
 21
2.99963346999425
 31
0.0
  0
ARC
  8
4
  6
CONTINUOUS
 62
4
 10
0.351217973345229
 20
2.99963346999425
 30
0.0
 40
0.1
 50
90
 51
180
  0
LINE
  8
4
  6
CONTINUOUS
 62
4
 10
0.351217973345229
 20
3.09963346999425
 30
0.0
 11
1.3718396285476
 21
3.09963346999425
 31
0.0
  0
ARC
  8
4
  6
CONTINUOUS
 62
4
 10
2.40121797334523
 20
2.99963346999425
 30
0.0
 40
0.100000000000001
 50
359.999999999999
 51
89.9999999999998
  0
LINE
  8
4
  6
CONTINUOUS
 62
4
 10
2.50121797334523
 20
2.99963346999425
 30
0.0
 11
2.50121797334523
 21
2.19963346999425
 31
0.0
  0
ARC
  8
4
  6
CONTINUOUS
 62
4
 10
2.40121797334523
 20
2.19963346999425
 30
0.0
 40
0.100000000000002
 50
269.999999999999
 51
359.999999999999
  0
LINE
  8
4
  6
CONTINUOUS
 62
4
 10
2.40121797334523
 20
2.09963346999425
 30
0.0
 11
1.37747775030793
 21
2.09963346999425
 31
0.0
  0
LINE
  8
4
  6
CONTINUOUS
 62
4
 10
0.951217973345228
 20
2.09963346999425
 30
0.0
 11
0.951217973345228
 21
1.64963346999425
 31
0.0
  0
ARC
  8
4
  6
CONTINUOUS
 62
4
 10
0.901217973345229
 20
1.64963346999425
 30
0.0
 40
0.0499999999999994
 50
270
 51
6.62400208581675E-13
  0
LINE
  8
4
  6
CONTINUOUS
 62
4
 10
0.901217973345229
 20
1.59963346999425
 30
0.0
 11
0.801217973345228
 21
1.59963346999425
 31
0.0
  0
ARC
  8
4
  6
CONTINUOUS
 62
4
 10
0.801217973345229
 20
1.64963346999425
 30
0.0
 40
0.0499999999999994
 50
179.999999999999
 51
269.999999999999
  0
LINE
  8
4
  6
CONTINUOUS
 62
4
 10
0.751217973345229
 20
1.64963346999425
 30
0.0
 11
0.751217973345229
 21
2.09963346999425
 31
0.0
  0
LINE
  8
4
  6
CONTINUOUS
 62
4
 10
0.751217973345229
 20
2.09963346999425
 30
0.0
 11
0.551217973345229
 21
2.09963346999425
 31
0.0
  0
LINE
  8
4
  6
CONTINUOUS
 62
4
 10
0.551217973345229
 20
2.09963346999425
 30
0.0
 11
0.451217973345229
 21
2.09963346999425
 31
0.0
  0
LINE
  8
4
  6
CONTINUOUS
 62
4
 10
1.63225482155504
 20
0.399181931422055
 30
0.0
 11
1.62586003174342
 21
0.348023612929105
 31
0.0
  0
LINE
  8
4
  6
CONTINUOUS
 62
4
 10
1.53225482155504
 20
0.399181931422055
 30
0.0
 11
1.53864961136666
 21
0.348023612929105
 31
0.0
  0
LINE
  8
4
  6
CONTINUOUS
 62
4
 10
1.53225482155504
 20
0.399181931422055
 30
0.0
 11
0.429836386284412
 21
0.399181931422055
 31
0.0
  0
LINE
  8
4
  6
CONTINUOUS
 62
4
 10
1.49922816417115
 20
1.39918193142206
 30
0.0
 11
1.50562295398277
 21
1.450340249915
 31
0.0
  0
LINE
  8
4
  6
CONTINUOUS
 62
4
 10
1.59922816417115
 20
1.39918193142206
 30
0.0
 11
1.59283337435953
 21
1.450340249915
 31
0.0
  0
LINE
  8
4
  6
CONTINUOUS
 62
4
 10
1.59922816417115
 20
1.39918193142206
 30
0.0
 11
1.87983638628441
 21
1.39918193142206
 31
0.0
  0
LINE
  8
4
  6
CONTINUOUS
 62
4
 10
1.37747775030793
 20
2.09963346999425
 30
0.0
 11
1.37108296049632
 21
2.0484751515013
 31
0.0
  0
LINE
  8
4
  6
CONTINUOUS
 62
4
 10
1.27747775030793
 20
2.09963346999425
 30
0.0
 11
1.28387254011955
 21
2.0484751515013
 31
0.0
  0
LINE
  8
4
  6
CONTINUOUS
 62
4
 10
1.27747775030793
 20
2.09963346999425
 30
0.0
 11
0.951217973345228
 21
2.09963346999425
 31
0.0
  0
LINE
  8
4
  6
CONTINUOUS
 62
4
 10
1.3718396285476
 20
3.09963346999425
 30
0.0
 11
1.37823441835922
 21
3.1507917884872
 31
0.0
  0
LINE
  8
4
  6
CONTINUOUS
 62
4
 10
1.4718396285476
 20
3.09963346999425
 30
0.0
 11
1.46544483873598
 21
3.1507917884872
 31
0.0
  0
LINE
  8
4
  6
CONTINUOUS
 62
4
 10
1.4718396285476
 20
3.09963346999425
 30
0.0
 11
2.40121797334523
 21
3.09963346999425
 31
0.0
  0
LINE
  8
9
  6
CONTINUOUS
 62
9
 10
1.97971265509005
 20
0.904852451779549
 30
0.0
 11
1.84983638628441
 21
0.899181931422055
 31
0.0
  0
LINE
  8
9
  6
CONTINUOUS
 62
9
 10
1.84983638628441
 20
0.899181931422055
 30
0.0
 11
1.89978879736351
 21
0.897000962053788
 31
0.0
  0
LINE
  8
9
  6
CONTINUOUS
 62
9
 10
1.38148990066261
 20
0.901867364912707
 30
0.0
 11
1.31971730625926
 21
0.911375076548069
 31
0.0
  0
LINE
  8
9
  6
CONTINUOUS
 62
9
 10
1.31971730625926
 20
0.911375076548069
 30
0.0
 11
1.36828440975018
 21
0.899490781932814
 31
0.0
  0
LINE
  8
9
  6
CONTINUOUS
 62
9
 10
0.831251008674485
 20
0.896850705914217
 30
0.0
 11
0.88396297402094
 21
0.930431931422055
 31
0.0
  0
LINE
  8
9
  6
CONTINUOUS
 62
9
 10
0.88396297402094
 20
0.930431931422055
 30
0.0
 11
0.839612432361062
 21
0.907344500762161
 31
0.0
  0
LINE
  8
9
  6
CONTINUOUS
 62
9
 10
1.94829347817961
 20
2.04903916465933
 30
0.0
 11
1.95483638628441
 21
1.89918193142206
 31
0.0
  0
LINE
  8
9
  6
CONTINUOUS
 62
9
 10
1.95483638628441
 20
1.89918193142206
 30
0.0
 11
1.95701735565268
 21
1.94913434250115
 31
0.0
  0
LINE
  8
9
  6
CONTINUOUS
 62
9
 10
2.00169148772342
 20
2.6023189034849
 30
0.0
 11
1.93991889332007
 21
2.61182661512026
 31
0.0
  0
LINE
  8
9
  6
CONTINUOUS
 62
9
 10
1.93991889332007
 20
2.61182661512026
 30
0.0
 11
1.98848599681099
 21
2.599942320505
 31
0.0
  0
LINE
  8
9
  6
CONTINUOUS
 62
9
 10
1.45051148772342
 20
2.6023189034849
 30
0.0
 11
1.38873889332007
 21
2.61182661512026
 31
0.0
  0
LINE
  8
9
  6
CONTINUOUS
 62
9
 10
1.38873889332007
 20
2.61182661512026
 30
0.0
 11
1.43730599681099
 21
2.599942320505
 31
0.0
  0
LINE
  8
9
  6
CONTINUOUS
 62
9
 10
0.846245293064341
 20
2.60236157579055
 30
0.0
 11
0.78621797334523
 21
2.48705016750227
 31
0.0
  0
LINE
  8
9
  6
CONTINUOUS
 62
9
 10
0.78621797334523
 20
2.48705016750227
 30
0.0
 11
0.813082953765884
 21
2.5292197397908
 31
0.0
  0
LINE
  8
9
  6
CONTINUOUS
 62
9
 10
0.457760881450029
 20
1.94977623675697
 30
0.0
 11
0.451217973345229
 21
2.09963346999425
 31
0.0
  0
LINE
  8
9
  6
CONTINUOUS
 62
9
 10
0.451217973345229
 20
2.09963346999425
 30
0.0
 11
0.449037003976962
 21
2.04968105891515
 31
0.0
  0
LINE
  8
9
  6
CONTINUOUS
 62
9
 10
1.62586003174342
 20
0.348023612929105
 30
0.0
 11
1.60725482155504
 21
0.199181931422055
 31
0.0
  0
LINE
  8
9
  6
CONTINUOUS
 62
9
 10
1.53864961136666
 20
0.348023612929105
 30
0.0
 11
1.55725482155504
 21
0.199181931422055
 31
0.0
  0
LINE
  8
9
  6
CONTINUOUS
 62
9
 10
1.50562295398277
 20
1.450340249915
 30
0.0
 11
1.52422816417115
 21
1.59918193142206
 31
0.0
  0
LINE
  8
9
  6
CONTINUOUS
 62
9
 10
1.59283337435953
 20
1.450340249915
 30
0.0
 11
1.57422816417115
 21
1.59918193142206
 31
0.0
  0
LINE
  8
9
  6
CONTINUOUS
 62
9
 10
1.37108296049632
 20
2.0484751515013
 30
0.0
 11
1.35247775030793
 21
1.89963346999425
 31
0.0
  0
LINE
  8
9
  6
CONTINUOUS
 62
9
 10
1.28387254011955
 20
2.0484751515013
 30
0.0
 11
1.30247775030793
 21
1.89963346999425
 31
0.0
  0
LINE
  8
9
  6
CONTINUOUS
 62
9
 10
1.37823441835922
 20
3.1507917884872
 30
0.0
 11
1.3968396285476
 21
3.29963346999425
 31
0.0
  0
LINE
  8
9
  6
CONTINUOUS
 62
9
 10
1.46544483873598
 20
3.1507917884872
 30
0.0
 11
1.4468396285476
 21
3.29963346999425
 31
0.0
  0
LINE
  8
10
  6
CONTINUOUS
 62
10
 10
0.449037003976962
 20
2.04968105891515
 30
0.0
 11
0.251217973331758
 21
3.19963346999425
 31
0.0
  0
ENDSEC
  0
EOF
