  0
SECTION
  2
HEADER
  9
$ACADVER
  1
AC1003
  9
$EXTMIN
 10
0.0391067538126361
 20
3.22429193899782
  9
$EXTMAX
 10
4.75697705189261
 20
0.170660856935367
  9
$INSUNITS
 70
1
  9
$INSBASE
 10
2.39804190285262
 20
1.69747639796659
999
Created with OMAX Layout for Windows. (www.omax.com) 2/1/2016
  0
ENDSEC
  0
SECTION
  2
TABLES
  0
TABLE
  2
LAYER
 70
    10
  0
LAYER
  2
0
 70
     0
 62
     7
  6
CONTINUOUS
  0
LAYER
  2
1
 70
     0
 62
     7
  6
CONTINUOUS
  0
LAYER
  2
2
 70
     0
 62
     7
  6
CONTINUOUS
  0
LAYER
  2
3
 70
     0
 62
     7
  6
CONTINUOUS
  0
LAYER
  2
4
 70
     0
 62
     7
  6
CONTINUOUS
  0
LAYER
  2
5
 70
     0
 62
     7
  6
CONTINUOUS
  0
LAYER
  2
6
 70
     0
 62
     7
  6
CONTINUOUS
  0
LAYER
  2
7
 70
     0
 62
     7
  6
CONTINUOUS
  0
LAYER
  2
8
 70
     0
 62
     7
  6
CONTINUOUS
  0
LAYER
  2
9
 70
     0
 62
     7
  6
CONTINUOUS
  0
LAYER
  2
10
 70
     0
 62
     7
  6
CONTINUOUS
  0
LAYER
  2
11
 70
     0
 62
     7
  6
CONTINUOUS
  0
LAYER
  2
12
 70
     0
 62
     7
  6
CONTINUOUS
  0
LAYER
  2
13
 70
     0
 62
     7
  6
CONTINUOUS
  0
LAYER
  2
14
 70
     0
 62
     7
  6
CONTINUOUS
  0
LAYER
  2
15
 70
     0
 62
     7
  6
CONTINUOUS
  0
LAYER
  2
16
 70
     0
 62
     7
  6
CONTINUOUS
  0
LAYER
  2
17
 70
     0
 62
     7
  6
CONTINUOUS
  0
LAYER
  2
18
 70
     0
 62
     7
  6
CONTINUOUS
  0
LAYER
  2
19
 70
     0
 62
     7
  6
CONTINUOUS
  0
LAYER
  2
20
 70
     0
 62
     7
  6
CONTINUOUS
  0
LAYER
  2
21
 70
     0
 62
     7
  6
CONTINUOUS
  0
LAYER
  2
22
 70
     0
 62
     7
  6
CONTINUOUS
  0
LAYER
  2
23
 70
     0
 62
     7
  6
CONTINUOUS
  0
LAYER
  2
24
 70
     0
 62
     7
  6
CONTINUOUS
  0
LAYER
  2
25
 70
     0
 62
     7
  6
CONTINUOUS
  0
LAYER
  2
26
 70
     0
 62
     7
  6
CONTINUOUS
  0
LAYER
  2
27
 70
     0
 62
     7
  6
CONTINUOUS
  0
LAYER
  2
28
 70
     0
 62
     7
  6
CONTINUOUS
  0
LAYER
  2
29
 70
     0
 62
     7
  6
CONTINUOUS
  0
LAYER
  2
30
 70
     0
 62
     7
  6
CONTINUOUS
  0
LAYER
  2
31
 70
     0
 62
     7
  6
CONTINUOUS
  0
ENDTAB
  0
ENDSEC
  0
SECTION
  2
ENTITIES
  0
LINE
  8
0
  6
CONTINUOUS
 62
0
 10
0.0891067538126362
 20
0.170660856935367
 30
0.0
 11
4.06175847523823
 21
0.843037678261144
 31
0.0
  0
LINE
  8
0
  6
CONTINUOUS
 62
0
 10
4.09261207147527
 20
0.911744460117777
 30
0.0
 11
4.2903663304918
 21
1.19529897052586
 31
0.0
  0
LINE
  8
0
  6
CONTINUOUS
 62
0
 10
4.21999556093416
 20
1.16854188537715
 30
0.0
 11
3.7903663304918
 21
1.19529897052586
 31
0.0
  0
LINE
  8
0
  6
CONTINUOUS
 62
0
 10
3.71999556093416
 20
1.16854188537715
 30
0.0
 11
3.2903663304918
 21
1.19529897052586
 31
0.0
  0
LINE
  8
0
  6
CONTINUOUS
 62
0
 10
3.21999556093416
 20
1.16854188537715
 30
0.0
 11
2.79576607897452
 21
1.18476826396426
 31
0.0
  0
LINE
  8
0
  6
CONTINUOUS
 62
0
 10
2.87008749566965
 20
1.17275519465545
 30
0.0
 11
3.17601745645061
 21
1.55195259453057
 31
0.0
  0
LINE
  8
0
  6
CONTINUOUS
 62
0
 10
3.2759222786088
 20
1.56067647200363
 30
0.0
 11
3.93793664733462
 21
1.56503841074017
 31
0.0
  0
LINE
  8
0
  6
CONTINUOUS
 62
0
 10
3.83803182517643
 20
1.5563145332671
 30
0.0
 11
3.63851995999741
 21
2.45580362369809
 31
0.0
  0
LINE
  8
0
  6
CONTINUOUS
 62
0
 10
3.62979608252435
 20
2.55570844585627
 30
0.0
 11
3.93793664733462
 21
2.78936911944017
 31
0.0
  0
LINE
  8
0
  6
CONTINUOUS
 62
0
 10
3.83803182517643
 20
2.7806452419671
 30
0.0
 11
2.73793664733462
 21
2.78936911944017
 31
0.0
  0
LINE
  8
0
  6
CONTINUOUS
 62
0
 10
2.63803182517643
 20
2.7806452419671
 30
0.0
 11
2.40697705189261
 21
3.17066085693537
 31
0.0
  0
LINE
  8
0
  6
CONTINUOUS
 62
0
 10
2.55697705189261
 20
3.22066085693537
 30
0.0
 11
1.62006634925464
 21
2.79300020150262
 31
0.0
  0
LINE
  8
0
  6
CONTINUOUS
 62
0
 10
1.52016152709645
 20
2.78427632402955
 30
0.0
 11
1.73610660310727
 21
1.96803902032402
 31
0.0
  0
LINE
  8
0
  6
CONTINUOUS
 62
0
 10
1.812918693248
 20
1.90356435602218
 30
0.0
 11
2.05814715837063
 21
1.55558367659302
 31
0.0
  0
LINE
  8
0
  6
CONTINUOUS
 62
0
 10
2.15805198052882
 20
1.56430755406609
 30
0.0
 11
1.97645735185121
 21
1.17974303383088
 31
0.0
  0
LINE
  8
0
  6
CONTINUOUS
 62
0
 10
1.90155916489173
 20
1.17211096962955
 30
0.0
 11
1.74376920485599
 21
0.852121183744265
 31
0.0
  0
LINE
  8
0
  6
CONTINUOUS
 62
0
 10
1.69969418447439
 20
0.913194572811965
 30
0.0
 11
1.47249603241182
 21
1.19893005258832
 31
0.0
  0
LINE
  8
0
  6
CONTINUOUS
 62
0
 10
1.40212526285418
 20
1.1721729674396
 30
0.0
 11
0.97249603241182
 21
1.19893005258832
 31
0.0
  0
LINE
  8
0
  6
CONTINUOUS
 62
0
 10
0.90212526285418
 20
1.1721729674396
 30
0.0
 11
0.47249603241182
 21
1.19893005258832
 31
0.0
  0
LINE
  8
0
  6
CONTINUOUS
 62
0
 10
0.40212526285418
 20
1.1721729674396
 30
0.0
 11
0.420066349254639
 21
1.56866949280262
 31
0.0
  0
LINE
  8
0
  6
CONTINUOUS
 62
0
 10
0.320161527096453
 20
1.55994561532955
 30
0.0
 11
0.420066349254639
 21
2.79300020150262
 31
0.0
  0
LINE
  8
0
  6
CONTINUOUS
 62
0
 10
0.320161527096453
 20
2.78427632402955
 30
0.0
 11
0.0891067538126362
 21
3.17429193899782
 31
0.0
  0
LINE
  8
0
  6
CONTINUOUS
 62
0
 10
0.239106753812636
 20
3.22429193899782
 30
0.0
 11
0.0891067538126362
 21
3.22429193899782
 31
0.0
  0
LINE
  8
0
  6
CONTINUOUS
 62
0
 10
0.0391067538126361
 20
0.793695778878451
 30
0.0
 11
0.0391067538126361
 21
0.843695778878451
 31
0.0
  0
LINE
  8
0
  6
CONTINUOUS
 62
0
 10
2.43910675381264
 20
2.32573497558791
 30
0.0
 11
2.43910675381264
 21
2.27573497558791
 31
0.0
  0
LINE
  8
0
  6
CONTINUOUS
 62
0
 10
2.35697705189261
 20
1.14581147455056
 30
0.0
 11
2.35697705189261
 21
1.19581147455056
 31
0.0
  0
LINE
  8
0
  6
CONTINUOUS
 62
0
 10
4.75697705189261
 20
2.48865417806322
 30
0.0
 11
4.75697705189261
 21
2.43865417806322
 31
0.0
  0
ARC
  8
4
  6
CONTINUOUS
 62
4
 10
4.05697705188937
 20
0.845660856940979
 30
0.0
 40
0.12499999999676
 50
59.9999999974273
 51
180.000000002572
  0
ARC
  8
4
  6
CONTINUOUS
 62
4
 10
4.05697705189261
 20
0.845660856935366
 30
0.0
 40
0.125
 50
179.999999999999
 51
359.999999999999
  0
ARC
  8
4
  6
CONTINUOUS
 62
4
 10
4.05697705191205
 20
0.845660856946592
 30
0.0
 40
0.124999999980559
 50
359.999999994855
 51
60.0000000051447
  0
ARC
  8
4
  6
CONTINUOUS
 62
4
 10
4.219477051887
 20
1.17066085692805
 30
0.0
 40
0.0499999999926857
 50
194.999999993568
 51
270.000000006431
  0
LINE
  8
4
  6
CONTINUOUS
 62
4
 10
4.21947705189261
 20
1.12066085693537
 30
0.0
 11
4.36947705189261
 21
1.12066085693537
 31
0.0
  0
ARC
  8
4
  6
CONTINUOUS
 62
4
 10
4.36947705189261
 20
1.17066085693537
 30
0.0
 40
0.0499999999999998
 50
270
 51
90
  0
LINE
  8
4
  6
CONTINUOUS
 62
4
 10
4.36947705189261
 20
1.22066085693537
 30
0.0
 11
4.21947705189261
 21
1.22066085693537
 31
0.0
  0
ARC
  8
4
  6
CONTINUOUS
 62
4
 10
4.21947705189149
 20
1.17066085693623
 30
0.0
 40
0.0499999999991385
 50
89.9999999987136
 51
195.000000001286
  0
ARC
  8
4
  6
CONTINUOUS
 62
4
 10
3.719477051887
 20
1.17066085692805
 30
0.0
 40
0.0499999999926857
 50
194.999999993568
 51
270.000000006431
  0
LINE
  8
4
  6
CONTINUOUS
 62
4
 10
3.71947705189261
 20
1.12066085693537
 30
0.0
 11
3.86947705189261
 21
1.12066085693537
 31
0.0
  0
ARC
  8
4
  6
CONTINUOUS
 62
4
 10
3.86947705189261
 20
1.17066085693537
 30
0.0
 40
0.0499999999999998
 50
270
 51
90
  0
LINE
  8
4
  6
CONTINUOUS
 62
4
 10
3.86947705189261
 20
1.22066085693537
 30
0.0
 11
3.71947705189261
 21
1.22066085693537
 31
0.0
  0
ARC
  8
4
  6
CONTINUOUS
 62
4
 10
3.71947705189149
 20
1.17066085693623
 30
0.0
 40
0.0499999999991385
 50
89.9999999987136
 51
195.000000001286
  0
ARC
  8
4
  6
CONTINUOUS
 62
4
 10
3.219477051887
 20
1.17066085692805
 30
0.0
 40
0.0499999999926857
 50
194.999999993568
 51
270.000000006431
  0
LINE
  8
4
  6
CONTINUOUS
 62
4
 10
3.21947705189261
 20
1.12066085693537
 30
0.0
 11
3.36947705189261
 21
1.12066085693537
 31
0.0
  0
ARC
  8
4
  6
CONTINUOUS
 62
4
 10
3.36947705189261
 20
1.17066085693537
 30
0.0
 40
0.0499999999999998
 50
270
 51
90
  0
LINE
  8
4
  6
CONTINUOUS
 62
4
 10
3.36947705189261
 20
1.22066085693537
 30
0.0
 11
3.21947705189261
 21
1.22066085693537
 31
0.0
  0
ARC
  8
4
  6
CONTINUOUS
 62
4
 10
3.21947705189149
 20
1.17066085693623
 30
0.0
 40
0.0499999999991385
 50
89.9999999987136
 51
195.000000001286
  0
ARC
  8
4
  6
CONTINUOUS
 62
4
 10
2.86947705189598
 20
1.17066085693795
 30
0.0
 40
0.0499999999974159
 50
344.999999996141
 51
90.0000000038585
  0
LINE
  8
4
  6
CONTINUOUS
 62
4
 10
2.86947705189261
 20
1.22066085693537
 30
0.0
 11
2.71947705189261
 21
1.22066085693537
 31
0.0
  0
ARC
  8
4
  6
CONTINUOUS
 62
4
 10
2.71947705189261
 20
1.17066085693537
 30
0.0
 40
0.0499999999999998
 50
90
 51
270
  0
LINE
  8
4
  6
CONTINUOUS
 62
4
 10
2.71947705189261
 20
1.12066085693537
 30
0.0
 11
2.86947705189261
 21
1.12066085693537
 31
0.0
  0
ARC
  8
4
  6
CONTINUOUS
 62
4
 10
2.86947705189598
 20
1.17066085693098
 30
0.0
 40
0.0499999999956114
 50
269.999999996141
 51
345.000000003858
  0
ARC
  8
4
  6
CONTINUOUS
 62
4
 10
3.25697705189725
 20
1.55849550264001
 30
0.0
 40
0.0688976377906359
 50
359.999999996141
 51
90.0000000038585
  0
LINE
  8
4
  6
CONTINUOUS
 62
4
 10
3.25697705189261
 20
1.62739314043537
 30
0.0
 11
2.65697705189261
 21
1.62739314043537
 31
0.0
  0
ARC
  8
4
  6
CONTINUOUS
 62
4
 10
2.65697705189261
 20
1.55849550263537
 30
0.0
 40
0.0688976377952759
 50
90
 51
270
  0
LINE
  8
4
  6
CONTINUOUS
 62
4
 10
2.65697705189261
 20
1.48959786483537
 30
0.0
 11
3.25697705189261
 21
1.48959786483537
 31
0.0
  0
ARC
  8
4
  6
CONTINUOUS
 62
4
 10
3.25697705189725
 20
1.55849550263073
 30
0.0
 40
0.0688976377906359
 50
269.999999996141
 51
3.85850263403619E-9
  0
ARC
  8
4
  6
CONTINUOUS
 62
4
 10
3.85697705188797
 20
1.55849550263073
 30
0.0
 40
0.0688976377906359
 50
179.999999996141
 51
270.000000003858
  0
LINE
  8
4
  6
CONTINUOUS
 62
4
 10
3.85697705189261
 20
1.48959786483537
 30
0.0
 11
4.45697705189261
 21
1.48959786483537
 31
0.0
  0
ARC
  8
4
  6
CONTINUOUS
 62
4
 10
4.45697705189261
 20
1.55849550263537
 30
0.0
 40
0.0688976377952759
 50
270
 51
90
  0
LINE
  8
4
  6
CONTINUOUS
 62
4
 10
4.45697705189261
 20
1.62739314043537
 30
0.0
 11
3.85697705189261
 21
1.62739314043537
 31
0.0
  0
ARC
  8
4
  6
CONTINUOUS
 62
4
 10
3.85697705188797
 20
1.55849550264001
 30
0.0
 40
0.0688976377906359
 50
89.9999999961411
 51
180.000000003859
  0
LINE
  8
4
  6
CONTINUOUS
 62
4
 10
3.63197705189261
 20
2.60566085693537
 30
0.0
 11
3.25697705189261
 21
2.60566085693537
 31
0.0
  0
ARC
  8
4
  6
CONTINUOUS
 62
4
 10
3.25697705189261
 20
2.17066085693537
 30
0.0
 40
0.435
 50
90
 51
270
  0
LINE
  8
4
  6
CONTINUOUS
 62
4
 10
3.25697705189261
 20
1.73566085693537
 30
0.0
 11
3.85697705189261
 21
1.73566085693537
 31
0.0
  0
ARC
  8
4
  6
CONTINUOUS
 62
4
 10
3.85697705189262
 20
2.17066085693537
 30
0.0
 40
0.435
 50
270
 51
90
  0
LINE
  8
4
  6
CONTINUOUS
 62
4
 10
3.85697705189261
 20
2.60566085693537
 30
0.0
 11
3.63197705189261
 21
2.60566085693537
 31
0.0
  0
ARC
  8
4
  6
CONTINUOUS
 62
4
 10
3.85697705188797
 20
2.78282621133073
 30
0.0
 40
0.0688976377906359
 50
179.999999996141
 51
270.000000003858
  0
LINE
  8
4
  6
CONTINUOUS
 62
4
 10
3.85697705189261
 20
2.71392857353537
 30
0.0
 11
4.45697705189261
 21
2.71392857353537
 31
0.0
  0
ARC
  8
4
  6
CONTINUOUS
 62
4
 10
4.45697705189261
 20
2.78282621133537
 30
0.0
 40
0.0688976377952759
 50
270
 51
90
  0
LINE
  8
4
  6
CONTINUOUS
 62
4
 10
4.45697705189261
 20
2.85172384913537
 30
0.0
 11
3.85697705189261
 21
2.85172384913537
 31
0.0
  0
ARC
  8
4
  6
CONTINUOUS
 62
4
 10
3.85697705188797
 20
2.78282621134001
 30
0.0
 40
0.0688976377906359
 50
89.9999999961411
 51
180.000000003859
  0
ARC
  8
4
  6
CONTINUOUS
 62
4
 10
2.65697705188797
 20
2.78282621133073
 30
0.0
 40
0.0688976377906359
 50
179.999999996141
 51
270.000000003858
  0
LINE
  8
4
  6
CONTINUOUS
 62
4
 10
2.65697705189261
 20
2.71392857353537
 30
0.0
 11
3.25697705189261
 21
2.71392857353537
 31
0.0
  0
ARC
  8
4
  6
CONTINUOUS
 62
4
 10
3.25697705189261
 20
2.78282621133537
 30
0.0
 40
0.0688976377952759
 50
270
 51
90
  0
LINE
  8
4
  6
CONTINUOUS
 62
4
 10
3.25697705189261
 20
2.85172384913537
 30
0.0
 11
2.65697705189261
 21
2.85172384913537
 31
0.0
  0
ARC
  8
4
  6
CONTINUOUS
 62
4
 10
2.65697705188797
 20
2.78282621134001
 30
0.0
 40
0.0688976377906359
 50
89.9999999961411
 51
180.000000003859
  0
LINE
  8
4
  6
CONTINUOUS
 62
4
 10
2.55697705189261
 20
3.17066085693537
 30
0.0
 11
4.55697705189261
 21
3.17066085693537
 31
0.0
  0
LINE
  8
4
  6
CONTINUOUS
 62
4
 10
4.55697705189261
 20
3.17066085693537
 30
0.0
 11
4.55697705189261
 21
2.5136541780631
 31
0.0
  0
LINE
  8
4
  6
CONTINUOUS
 62
4
 10
4.55697705189261
 20
0.170660856935367
 30
0.0
 11
4.24947705189261
 21
0.170660856935367
 31
0.0
  0
LINE
  8
4
  6
CONTINUOUS
 62
4
 10
4.24947705189261
 20
0.170660856935367
 30
0.0
 11
4.24947705189261
 21
0.470660856935367
 31
0.0
  0
LINE
  8
4
  6
CONTINUOUS
 62
4
 10
4.24947705189261
 20
0.470660856935367
 30
0.0
 11
4.18197705189261
 21
0.470660856935367
 31
0.0
  0
LINE
  8
4
  6
CONTINUOUS
 62
4
 10
4.18197705189261
 20
0.470660856935367
 30
0.0
 11
4.18197705189261
 21
0.170660856935367
 31
0.0
  0
LINE
  8
4
  6
CONTINUOUS
 62
4
 10
4.18197705189261
 20
0.170660856935367
 30
0.0
 11
3.93197705189261
 21
0.170660856935367
 31
0.0
  0
LINE
  8
4
  6
CONTINUOUS
 62
4
 10
3.93197705189261
 20
0.170660856935367
 30
0.0
 11
3.93197705189261
 21
0.470660856935367
 31
0.0
  0
LINE
  8
4
  6
CONTINUOUS
 62
4
 10
3.93197705189261
 20
0.470660856935367
 30
0.0
 11
3.86447705189261
 21
0.470660856935367
 31
0.0
  0
LINE
  8
4
  6
CONTINUOUS
 62
4
 10
3.86447705189261
 20
0.470660856935367
 30
0.0
 11
3.86447705189261
 21
0.170660856935367
 31
0.0
  0
LINE
  8
4
  6
CONTINUOUS
 62
4
 10
3.86447705189261
 20
0.170660856935367
 30
0.0
 11
2.55697705189261
 21
0.170660856935367
 31
0.0
  0
LINE
  8
4
  6
CONTINUOUS
 62
4
 10
2.55697705189261
 20
0.170660856935367
 30
0.0
 11
2.55697705189261
 21
1.12081147455057
 31
0.0
  0
ARC
  8
4
  6
CONTINUOUS
 62
4
 10
1.539106753808
 20
2.78645729339318
 30
0.0
 40
0.0688976377906359
 50
179.999999996141
 51
270.000000003858
  0
LINE
  8
4
  6
CONTINUOUS
 62
4
 10
1.53910675381264
 20
2.71755965559782
 30
0.0
 11
2.13910675381264
 21
2.71755965559782
 31
0.0
  0
ARC
  8
4
  6
CONTINUOUS
 62
4
 10
2.13910675381264
 20
2.78645729339782
 30
0.0
 40
0.0688976377952759
 50
270
 51
90
  0
LINE
  8
4
  6
CONTINUOUS
 62
4
 10
2.13910675381264
 20
2.85535493119782
 30
0.0
 11
1.53910675381264
 21
2.85535493119782
 31
0.0
  0
ARC
  8
4
  6
CONTINUOUS
 62
4
 10
1.539106753808
 20
2.78645729340246
 30
0.0
 40
0.0688976377906359
 50
89.9999999961411
 51
180.000000003859
  0
ARC
  8
4
  6
CONTINUOUS
 62
4
 10
1.53910675384194
 20
2.17429193900996
 30
0.0
 40
0.434999999987866
 50
314.999999996141
 51
90.0000000038585
  0
LINE
  8
4
  6
CONTINUOUS
 62
4
 10
1.53910675381264
 20
2.60929193899782
 30
0.0
 11
0.939106753812636
 21
2.60929193899782
 31
0.0
  0
ARC
  8
4
  6
CONTINUOUS
 62
4
 10
0.939106753812636
 20
2.17429193899782
 30
0.0
 40
0.435
 50
90
 51
270
  0
LINE
  8
4
  6
CONTINUOUS
 62
4
 10
0.939106753812636
 20
1.73929193899782
 30
0.0
 11
1.53910675381264
 21
1.73929193899782
 31
0.0
  0
ARC
  8
4
  6
CONTINUOUS
 62
4
 10
1.53910675384194
 20
2.17429193892709
 30
0.0
 40
0.434999999929274
 50
269.999999996141
 51
315.000000003858
  0
ARC
  8
4
  6
CONTINUOUS
 62
4
 10
2.13910675381728
 20
1.56212658470246
 30
0.0
 40
0.0688976377906359
 50
359.999999996141
 51
90.0000000038585
  0
LINE
  8
4
  6
CONTINUOUS
 62
4
 10
2.13910675381264
 20
1.63102422249782
 30
0.0
 11
1.53910675381264
 21
1.63102422249782
 31
0.0
  0
ARC
  8
4
  6
CONTINUOUS
 62
4
 10
1.53910675381264
 20
1.56212658469782
 30
0.0
 40
0.0688976377952759
 50
90
 51
270
  0
LINE
  8
4
  6
CONTINUOUS
 62
4
 10
1.53910675381264
 20
1.49322894689782
 30
0.0
 11
2.13910675381264
 21
1.49322894689782
 31
0.0
  0
ARC
  8
4
  6
CONTINUOUS
 62
4
 10
2.13910675381728
 20
1.56212658469318
 30
0.0
 40
0.0688976377906359
 50
269.999999996141
 51
3.85850263403619E-9
  0
ARC
  8
4
  6
CONTINUOUS
 62
4
 10
1.90160675380927
 20
1.17429193899445
 30
0.0
 40
0.0499999999966325
 50
179.999999996141
 51
270.000000003858
  0
LINE
  8
4
  6
CONTINUOUS
 62
4
 10
1.90160675381264
 20
1.12429193899782
 30
0.0
 11
2.05160675381264
 21
1.12429193899782
 31
0.0
  0
ARC
  8
4
  6
CONTINUOUS
 62
4
 10
2.05160675381264
 20
1.17429193899782
 30
0.0
 40
0.0499999999999998
 50
270
 51
90
  0
LINE
  8
4
  6
CONTINUOUS
 62
4
 10
2.05160675381264
 20
1.22429193899782
 30
0.0
 11
1.90160675381264
 21
1.22429193899782
 31
0.0
  0
ARC
  8
4
  6
CONTINUOUS
 62
4
 10
1.90160675380927
 20
1.17429193900119
 30
0.0
 40
0.0499999999966325
 50
89.9999999961411
 51
180.000000003859
  0
ARC
  8
4
  6
CONTINUOUS
 62
4
 10
1.73910675380292
 20
0.849291939003433
 30
0.0
 40
0.124999999990279
 50
119.999999997427
 51
180.000000002572
  0
ARC
  8
4
  6
CONTINUOUS
 62
4
 10
1.73910675381264
 20
0.84929193899782
 30
0.0
 40
0.125
 50
179.999999999999
 51
359.999999999999
  0
ARC
  8
4
  6
CONTINUOUS
 62
4
 10
1.73910675381912
 20
0.849291939009047
 30
0.0
 40
0.12499999999352
 50
359.999999994855
 51
120.000000005145
  0
ARC
  8
4
  6
CONTINUOUS
 62
4
 10
1.40160675380702
 20
1.17429193899051
 30
0.0
 40
0.0499999999926859
 50
194.999999993568
 51
270.000000006431
  0
LINE
  8
4
  6
CONTINUOUS
 62
4
 10
1.40160675381264
 20
1.12429193899782
 30
0.0
 11
1.55160675381264
 21
1.12429193899782
 31
0.0
  0
ARC
  8
4
  6
CONTINUOUS
 62
4
 10
1.55160675381264
 20
1.17429193899782
 30
0.0
 40
0.0499999999999998
 50
270
 51
90
  0
LINE
  8
4
  6
CONTINUOUS
 62
4
 10
1.55160675381264
 20
1.22429193899782
 30
0.0
 11
1.40160675381264
 21
1.22429193899782
 31
0.0
  0
ARC
  8
4
  6
CONTINUOUS
 62
4
 10
1.40160675381151
 20
1.17429193899868
 30
0.0
 40
0.0499999999991386
 50
89.9999999987135
 51
195.000000001286
  0
ARC
  8
4
  6
CONTINUOUS
 62
4
 10
0.901606753807024
 20
1.17429193899051
 30
0.0
 40
0.0499999999926858
 50
194.999999993568
 51
270.000000006431
  0
LINE
  8
4
  6
CONTINUOUS
 62
4
 10
0.901606753812636
 20
1.12429193899782
 30
0.0
 11
1.05160675381264
 21
1.12429193899782
 31
0.0
  0
ARC
  8
4
  6
CONTINUOUS
 62
4
 10
1.05160675381264
 20
1.17429193899782
 30
0.0
 40
0.0499999999999998
 50
270
 51
90
  0
LINE
  8
4
  6
CONTINUOUS
 62
4
 10
1.05160675381264
 20
1.22429193899782
 30
0.0
 11
0.901606753812636
 21
1.22429193899782
 31
0.0
  0
ARC
  8
4
  6
CONTINUOUS
 62
4
 10
0.901606753811514
 20
1.17429193899868
 30
0.0
 40
0.0499999999991385
 50
89.9999999987136
 51
195.000000001286
  0
ARC
  8
4
  6
CONTINUOUS
 62
4
 10
0.401606753807024
 20
1.17429193899051
 30
0.0
 40
0.0499999999926858
 50
194.999999993568
 51
270.000000006431
  0
LINE
  8
4
  6
CONTINUOUS
 62
4
 10
0.401606753812636
 20
1.12429193899782
 30
0.0
 11
0.551606753812636
 21
1.12429193899782
 31
0.0
  0
ARC
  8
4
  6
CONTINUOUS
 62
4
 10
0.551606753812636
 20
1.17429193899782
 30
0.0
 40
0.0499999999999998
 50
270
 51
90
  0
LINE
  8
4
  6
CONTINUOUS
 62
4
 10
0.551606753812636
 20
1.22429193899782
 30
0.0
 11
0.401606753812636
 21
1.22429193899782
 31
0.0
  0
ARC
  8
4
  6
CONTINUOUS
 62
4
 10
0.401606753811514
 20
1.17429193899868
 30
0.0
 40
0.0499999999991385
 50
89.9999999987136
 51
195.000000001286
  0
ARC
  8
4
  6
CONTINUOUS
 62
4
 10
0.339106753807996
 20
1.56212658469318
 30
0.0
 40
0.0688976377906359
 50
179.999999996141
 51
270.000000003858
  0
LINE
  8
4
  6
CONTINUOUS
 62
4
 10
0.339106753812636
 20
1.49322894689782
 30
0.0
 11
0.939106753812636
 21
1.49322894689782
 31
0.0
  0
ARC
  8
4
  6
CONTINUOUS
 62
4
 10
0.939106753812637
 20
1.56212658469782
 30
0.0
 40
0.0688976377952759
 50
270
 51
90
  0
LINE
  8
4
  6
CONTINUOUS
 62
4
 10
0.939106753812636
 20
1.63102422249782
 30
0.0
 11
0.339106753812636
 21
1.63102422249782
 31
0.0
  0
ARC
  8
4
  6
CONTINUOUS
 62
4
 10
0.339106753807996
 20
1.56212658470246
 30
0.0
 40
0.0688976377906359
 50
89.9999999961411
 51
180.000000003859
  0
ARC
  8
4
  6
CONTINUOUS
 62
4
 10
0.339106753807996
 20
2.78645729339318
 30
0.0
 40
0.0688976377906359
 50
179.999999996141
 51
270.000000003858
  0
LINE
  8
4
  6
CONTINUOUS
 62
4
 10
0.339106753812636
 20
2.71755965559782
 30
0.0
 11
0.939106753812636
 21
2.71755965559782
 31
0.0
  0
ARC
  8
4
  6
CONTINUOUS
 62
4
 10
0.939106753812637
 20
2.78645729339782
 30
0.0
 40
0.0688976377952759
 50
270
 51
90
  0
LINE
  8
4
  6
CONTINUOUS
 62
4
 10
0.939106753812636
 20
2.85535493119782
 30
0.0
 11
0.339106753812636
 21
2.85535493119782
 31
0.0
  0
ARC
  8
4
  6
CONTINUOUS
 62
4
 10
0.339106753807996
 20
2.78645729340246
 30
0.0
 40
0.0688976377906359
 50
89.9999999961411
 51
180.000000003859
  0
LINE
  8
4
  6
CONTINUOUS
 62
4
 10
0.239106753812636
 20
3.17429193899782
 30
0.0
 11
2.23910675381264
 21
3.17429193899782
 31
0.0
  0
LINE
  8
4
  6
CONTINUOUS
 62
4
 10
2.23910675381264
 20
3.17429193899782
 30
0.0
 11
2.23910675381264
 21
2.35073497558795
 31
0.0
  0
LINE
  8
4
  6
CONTINUOUS
 62
4
 10
2.23910675381264
 20
0.174291938997821
 30
0.0
 11
1.93160675381264
 21
0.174291938997821
 31
0.0
  0
LINE
  8
4
  6
CONTINUOUS
 62
4
 10
1.93160675381264
 20
0.174291938997821
 30
0.0
 11
1.93160675381264
 21
0.474291938997821
 31
0.0
  0
LINE
  8
4
  6
CONTINUOUS
 62
4
 10
1.93160675381264
 20
0.474291938997821
 30
0.0
 11
1.86410675381264
 21
0.474291938997821
 31
0.0
  0
LINE
  8
4
  6
CONTINUOUS
 62
4
 10
1.86410675381264
 20
0.474291938997821
 30
0.0
 11
1.86410675381264
 21
0.174291938997821
 31
0.0
  0
LINE
  8
4
  6
CONTINUOUS
 62
4
 10
1.86410675381264
 20
0.174291938997821
 30
0.0
 11
1.61410675381264
 21
0.174291938997821
 31
0.0
  0
LINE
  8
4
  6
CONTINUOUS
 62
4
 10
1.61410675381264
 20
0.174291938997821
 30
0.0
 11
1.61410675381264
 21
0.474291938997821
 31
0.0
  0
LINE
  8
4
  6
CONTINUOUS
 62
4
 10
1.61410675381264
 20
0.474291938997821
 30
0.0
 11
1.54660675381264
 21
0.474291938997821
 31
0.0
  0
LINE
  8
4
  6
CONTINUOUS
 62
4
 10
1.54660675381264
 20
0.474291938997821
 30
0.0
 11
1.54660675381264
 21
0.174291938997821
 31
0.0
  0
LINE
  8
4
  6
CONTINUOUS
 62
4
 10
1.54660675381264
 20
0.174291938997821
 30
0.0
 11
0.239106753812636
 21
0.174291938997821
 31
0.0
  0
LINE
  8
4
  6
CONTINUOUS
 62
4
 10
0.239106753812636
 20
0.174291938997821
 30
0.0
 11
0.239106753812636
 21
0.768695778878451
 31
0.0
  0
LINE
  8
4
  6
CONTINUOUS
 62
4
 10
0.239106753812636
 20
0.768695778878451
 30
0.0
 11
0.187948435319686
 21
0.775090568690069
 31
0.0
  0
LINE
  8
4
  6
CONTINUOUS
 62
4
 10
0.239106753812636
 20
0.868695778878451
 30
0.0
 11
0.187948435319686
 21
0.862300989066832
 31
0.0
  0
LINE
  8
4
  6
CONTINUOUS
 62
4
 10
0.239106753812636
 20
0.868695778878451
 30
0.0
 11
0.239106753812636
 21
3.17429193899782
 31
0.0
  0
LINE
  8
4
  6
CONTINUOUS
 62
4
 10
2.23910675381264
 20
2.35073497558795
 30
0.0
 11
2.29026507230559
 21
2.34434018577632
 31
0.0
  0
LINE
  8
4
  6
CONTINUOUS
 62
4
 10
2.23910675381264
 20
2.25073497558795
 30
0.0
 11
2.29026507230558
 21
2.25712976539955
 31
0.0
  0
LINE
  8
4
  6
CONTINUOUS
 62
4
 10
2.23910675381264
 20
2.25073497558795
 30
0.0
 11
2.23910675381264
 21
0.174291938997821
 31
0.0
  0
LINE
  8
4
  6
CONTINUOUS
 62
4
 10
2.55697705189261
 20
1.12081147455057
 30
0.0
 11
2.50581873339966
 21
1.12720626436218
 31
0.0
  0
LINE
  8
4
  6
CONTINUOUS
 62
4
 10
2.55697705189261
 20
1.22081147455057
 30
0.0
 11
2.50581873339966
 21
1.21441668473895
 31
0.0
  0
LINE
  8
4
  6
CONTINUOUS
 62
4
 10
2.55697705189261
 20
1.22081147455057
 30
0.0
 11
2.55697705189261
 21
3.17066085693537
 31
0.0
  0
LINE
  8
4
  6
CONTINUOUS
 62
4
 10
4.55697705189261
 20
2.5136541780631
 30
0.0
 11
4.60813537038555
 21
2.50725938825151
 31
0.0
  0
LINE
  8
4
  6
CONTINUOUS
 62
4
 10
4.55697705189261
 20
2.4136541780631
 30
0.0
 11
4.60813537038557
 21
2.42004896787475
 31
0.0
  0
LINE
  8
4
  6
CONTINUOUS
 62
4
 10
4.55697705189261
 20
2.4136541780631
 30
0.0
 11
4.55697705189261
 21
0.170660856935367
 31
0.0
  0
LINE
  8
9
  6
CONTINUOUS
 62
9
 10
4.06175847523823
 20
0.843037678261144
 30
0.0
 11
4.11947705189261
 21
0.953914032408422
 31
0.0
  0
LINE
  8
9
  6
CONTINUOUS
 62
9
 10
4.11947705189261
 20
0.953914032408422
 30
0.0
 11
4.09261207147527
 21
0.911744460117777
 31
0.0
  0
LINE
  8
9
  6
CONTINUOUS
 62
9
 10
4.2903663304918
 20
1.19529897052586
 30
0.0
 11
4.17118076057816
 21
1.15771990468024
 31
0.0
  0
LINE
  8
9
  6
CONTINUOUS
 62
9
 10
4.17118076057816
 20
1.15771990468024
 30
0.0
 11
4.21999556093416
 21
1.16854188537715
 31
0.0
  0
LINE
  8
9
  6
CONTINUOUS
 62
9
 10
3.7903663304918
 20
1.19529897052586
 30
0.0
 11
3.67118076057816
 21
1.15771990468024
 31
0.0
  0
LINE
  8
9
  6
CONTINUOUS
 62
9
 10
3.67118076057816
 20
1.15771990468024
 30
0.0
 11
3.71999556093416
 21
1.16854188537715
 31
0.0
  0
LINE
  8
9
  6
CONTINUOUS
 62
9
 10
3.2903663304918
 20
1.19529897052586
 30
0.0
 11
3.17118076057816
 21
1.15771990468024
 31
0.0
  0
LINE
  8
9
  6
CONTINUOUS
 62
9
 10
3.17118076057816
 20
1.15771990468024
 30
0.0
 11
3.21999556093416
 21
1.16854188537715
 31
0.0
  0
LINE
  8
9
  6
CONTINUOUS
 62
9
 10
2.79576607897452
 20
1.18476826396426
 30
0.0
 11
2.91777334320706
 21
1.15771990468024
 31
0.0
  0
LINE
  8
9
  6
CONTINUOUS
 62
9
 10
2.91777334320706
 20
1.15771990468024
 30
0.0
 11
2.87008749566965
 21
1.17275519465545
 31
0.0
  0
LINE
  8
9
  6
CONTINUOUS
 62
9
 10
3.17601745645061
 20
1.55195259453057
 30
0.0
 11
3.32587468968789
 21
1.55849550263537
 31
0.0
  0
LINE
  8
9
  6
CONTINUOUS
 62
9
 10
3.32587468968789
 20
1.55849550263537
 30
0.0
 11
3.2759222786088
 21
1.56067647200363
 31
0.0
  0
LINE
  8
9
  6
CONTINUOUS
 62
9
 10
3.93793664733462
 20
1.56503841074017
 30
0.0
 11
3.78807941409734
 21
1.55849550263537
 31
0.0
  0
LINE
  8
9
  6
CONTINUOUS
 62
9
 10
3.78807941409734
 20
1.55849550263537
 30
0.0
 11
3.83803182517643
 21
1.5563145332671
 31
0.0
  0
LINE
  8
9
  6
CONTINUOUS
 62
9
 10
3.63851995999741
 20
2.45580362369809
 30
0.0
 11
3.63197705189261
 21
2.60566085693537
 31
0.0
  0
LINE
  8
9
  6
CONTINUOUS
 62
9
 10
3.63197705189261
 20
2.60566085693537
 30
0.0
 11
3.62979608252435
 21
2.55570844585627
 31
0.0
  0
LINE
  8
9
  6
CONTINUOUS
 62
9
 10
3.93793664733462
 20
2.78936911944017
 30
0.0
 11
3.78807941409734
 21
2.78282621133537
 31
0.0
  0
LINE
  8
9
  6
CONTINUOUS
 62
9
 10
3.78807941409734
 20
2.78282621133537
 30
0.0
 11
3.83803182517643
 21
2.7806452419671
 31
0.0
  0
LINE
  8
9
  6
CONTINUOUS
 62
9
 10
2.73793664733462
 20
2.78936911944017
 30
0.0
 11
2.58807941409734
 21
2.78282621133537
 31
0.0
  0
LINE
  8
9
  6
CONTINUOUS
 62
9
 10
2.58807941409734
 20
2.78282621133537
 30
0.0
 11
2.63803182517643
 21
2.7806452419671
 31
0.0
  0
LINE
  8
9
  6
CONTINUOUS
 62
9
 10
2.40697705189261
 20
3.17066085693537
 30
0.0
 11
2.55697705189261
 21
3.17066085693537
 31
0.0
  0
LINE
  8
9
  6
CONTINUOUS
 62
9
 10
2.55697705189261
 20
3.17066085693537
 30
0.0
 11
2.55697705189261
 21
3.22066085693537
 31
0.0
  0
LINE
  8
9
  6
CONTINUOUS
 62
9
 10
1.62006634925464
 20
2.79300020150262
 30
0.0
 11
1.47020911601736
 21
2.78645729339782
 31
0.0
  0
LINE
  8
9
  6
CONTINUOUS
 62
9
 10
1.47020911601736
 20
2.78645729339782
 30
0.0
 11
1.52016152709645
 21
2.78427632402955
 31
0.0
  0
LINE
  8
9
  6
CONTINUOUS
 62
9
 10
1.73610660310727
 20
1.96803902032402
 30
0.0
 11
1.84669820362878
 21
1.86670048918167
 31
0.0
  0
LINE
  8
9
  6
CONTINUOUS
 62
9
 10
1.84669820362878
 20
1.86670048918167
 30
0.0
 11
1.812918693248
 21
1.90356435602218
 31
0.0
  0
LINE
  8
9
  6
CONTINUOUS
 62
9
 10
2.05814715837063
 20
1.55558367659302
 30
0.0
 11
2.20800439160791
 21
1.56212658469782
 31
0.0
  0
LINE
  8
9
  6
CONTINUOUS
 62
9
 10
2.20800439160791
 20
1.56212658469782
 30
0.0
 11
2.15805198052882
 21
1.56430755406609
 31
0.0
  0
LINE
  8
9
  6
CONTINUOUS
 62
9
 10
1.97645735185121
 20
1.17974303383088
 30
0.0
 11
1.85160675381264
 21
1.17429193899782
 31
0.0
  0
LINE
  8
9
  6
CONTINUOUS
 62
9
 10
1.85160675381264
 20
1.17429193899782
 30
0.0
 11
1.90155916489173
 21
1.17211096962955
 31
0.0
  0
LINE
  8
9
  6
CONTINUOUS
 62
9
 10
1.74376920485599
 20
0.852121183744265
 30
0.0
 11
1.67660675381264
 21
0.957545114470876
 31
0.0
  0
LINE
  8
9
  6
CONTINUOUS
 62
9
 10
1.67660675381264
 20
0.957545114470876
 30
0.0
 11
1.69969418447439
 21
0.913194572811965
 31
0.0
  0
LINE
  8
9
  6
CONTINUOUS
 62
9
 10
1.47249603241182
 20
1.19893005258832
 30
0.0
 11
1.35331046249818
 21
1.1613509867427
 31
0.0
  0
LINE
  8
9
  6
CONTINUOUS
 62
9
 10
1.35331046249818
 20
1.1613509867427
 30
0.0
 11
1.40212526285418
 21
1.1721729674396
 31
0.0
  0
LINE
  8
9
  6
CONTINUOUS
 62
9
 10
0.97249603241182
 20
1.19893005258832
 30
0.0
 11
0.853310462498183
 21
1.1613509867427
 31
0.0
  0
LINE
  8
9
  6
CONTINUOUS
 62
9
 10
0.853310462498183
 20
1.1613509867427
 30
0.0
 11
0.90212526285418
 21
1.1721729674396
 31
0.0
  0
LINE
  8
9
  6
CONTINUOUS
 62
9
 10
0.47249603241182
 20
1.19893005258832
 30
0.0
 11
0.353310462498183
 21
1.1613509867427
 31
0.0
  0
LINE
  8
9
  6
CONTINUOUS
 62
9
 10
0.353310462498183
 20
1.1613509867427
 30
0.0
 11
0.40212526285418
 21
1.1721729674396
 31
0.0
  0
LINE
  8
9
  6
CONTINUOUS
 62
9
 10
0.420066349254639
 20
1.56866949280262
 30
0.0
 11
0.27020911601736
 21
1.56212658469782
 31
0.0
  0
LINE
  8
9
  6
CONTINUOUS
 62
9
 10
0.27020911601736
 20
1.56212658469782
 30
0.0
 11
0.320161527096453
 21
1.55994561532955
 31
0.0
  0
LINE
  8
9
  6
CONTINUOUS
 62
9
 10
0.420066349254639
 20
2.79300020150262
 30
0.0
 11
0.27020911601736
 21
2.78645729339782
 31
0.0
  0
LINE
  8
9
  6
CONTINUOUS
 62
9
 10
0.27020911601736
 20
2.78645729339782
 30
0.0
 11
0.320161527096453
 21
2.78427632402955
 31
0.0
  0
LINE
  8
9
  6
CONTINUOUS
 62
9
 10
0.0891067538126362
 20
3.17429193899782
 30
0.0
 11
0.239106753812636
 21
3.17429193899782
 31
0.0
  0
LINE
  8
9
  6
CONTINUOUS
 62
9
 10
0.239106753812636
 20
3.17429193899782
 30
0.0
 11
0.239106753812636
 21
3.22429193899782
 31
0.0
  0
LINE
  8
9
  6
CONTINUOUS
 62
9
 10
0.187948435319686
 20
0.775090568690069
 30
0.0
 11
0.0391067538126361
 21
0.793695778878451
 31
0.0
  0
LINE
  8
9
  6
CONTINUOUS
 62
9
 10
0.187948435319686
 20
0.862300989066832
 30
0.0
 11
0.0391067538126361
 21
0.843695778878451
 31
0.0
  0
LINE
  8
9
  6
CONTINUOUS
 62
9
 10
2.29026507230559
 20
2.34434018577632
 30
0.0
 11
2.43910675381264
 21
2.32573497558791
 31
0.0
  0
LINE
  8
9
  6
CONTINUOUS
 62
9
 10
2.29026507230558
 20
2.25712976539955
 30
0.0
 11
2.43910675381264
 21
2.27573497558791
 31
0.0
  0
LINE
  8
9
  6
CONTINUOUS
 62
9
 10
2.50581873339966
 20
1.12720626436218
 30
0.0
 11
2.35697705189261
 21
1.14581147455056
 31
0.0
  0
LINE
  8
9
  6
CONTINUOUS
 62
9
 10
2.50581873339966
 20
1.21441668473895
 30
0.0
 11
2.35697705189261
 21
1.19581147455056
 31
0.0
  0
LINE
  8
9
  6
CONTINUOUS
 62
9
 10
4.60813537038555
 20
2.50725938825151
 30
0.0
 11
4.75697705189261
 21
2.48865417806322
 31
0.0
  0
LINE
  8
9
  6
CONTINUOUS
 62
9
 10
4.60813537038557
 20
2.42004896787475
 30
0.0
 11
4.75697705189261
 21
2.43865417806322
 31
0.0
  0
ENDSEC
  0
EOF
